<?xml version="1.0" standalone="no"?>
<!DOCTYPE svg PUBLIC "-//W3C//DTD SVG 1.1//EN" "http://www.w3.org/Graphics/SVG/1.1/DTD/svg11.dtd" >
<svg xmlns="http://www.w3.org/2000/svg" xmlns:xlink="http://www.w3.org/1999/xlink" version="1.1">
<metadata>
Created by FontForge 20170731 at Sat Oct 10 14:09:00 2020
 By Aleksey,,,
Copyright (c) 2015 by Fontsmith Ltd. All rights reserved.
</metadata>
<defs>
<font id="HBM-Italic" horiz-adv-x="576" >
  <font-face 
    font-family="HBM"
    font-weight="400"
    font-style="italic"
    font-stretch="normal"
    units-per-em="1000"
    panose-1="2 0 5 6 5 0 0 9 0 4"
    ascent="745"
    descent="-255"
    x-height="486"
    cap-height="672"
    bbox="-296 -256 1196 1085"
    underline-thickness="50"
    underline-position="-150"
    slope="-10.75"
    unicode-range="U+0020-FB04"
  />
<missing-glyph horiz-adv-x="500" 
d="M504 0h-476v672h476v-672zM104 624l162 -244l162 244h-324zM76 580v-488l162 244zM294 336l162 -244v488zM266 292l-162 -244h324z" />
    <glyph glyph-name="f_f" unicode="ff" horiz-adv-x="666" 
d="M-56 -208l-25 56q28 12 49 27.5t36.5 36t26 47t16.5 62.5l68 384q2 11 1 15t-8 6l-55 19l16 41h60l14 81q13 75 53.5 108.5t118.5 33.5q32 0 61 -5t46 -13l-22 -59q-14 5 -34 9t-40 4q-47 0 -71 -19.5t-32 -64.5l-14 -75h255l15 88q13 75 53.5 108.5t118.5 33.5
q32 0 61 -5t46 -13l-22 -59q-14 5 -34 9t-40 4q-47 0 -71 -19.5t-32 -64.5l-15 -82h147l-11 -63h-147l-69 -391q-17 -95 -60.5 -148t-121.5 -75l-25 56q28 12 49 27.5t36.5 36t26 47t16.5 62.5l68 385h-255l-72 -408q-17 -95 -60.5 -148t-121.5 -75z" />
    <glyph glyph-name="fi" unicode="fi" 
d="M-56 -208l-25 56q28 12 49 27.5t36.5 36t26 47t16.5 62.5l68 384q2 11 1 15t-8 6l-55 19l16 41h60l15 88q13 75 53.5 108.5t118.5 33.5q32 0 61 -5t46 -13l-22 -59q-14 5 -34 9t-40 4q-47 0 -71 -19.5t-32 -64.5l-15 -82h321q6 0 10 -1.5t2 -10.5l-83 -474h-80l74 423
h-255l-72 -408q-17 -95 -60.5 -148t-121.5 -75zM520 584q-44 0 -44 39q0 62 60 62q44 0 44 -40q0 -61 -60 -61z" />
    <glyph glyph-name="fl" unicode="fl" horiz-adv-x="575" 
d="M-56 -208l-25 56q28 12 49 27.5t36.5 36t26 47t16.5 62.5l68 384q2 11 1 15t-8 6l-55 19l16 41h60l10 53q9 48 25 80t44 53q58 44 173 44q51 0 99.5 -8t80.5 -19q8 -3 10.5 -6t0.5 -11l-106 -604q-1 -10 6 -14l28 -13l-15 -41h-98q-6 0 -9.5 1.5t-1.5 9.5l111 630
q-23 6 -53 9t-56 3q-41 0 -69 -8t-46 -22q-19 -15 -30 -38.5t-16 -53.5l-8 -45h147l-11 -63h-147l-72 -408q-17 -95 -60.5 -148t-121.5 -75z" />
    <glyph glyph-name="f_f_i" unicode="ffi" horiz-adv-x="911" 
d="M-56 -208l-25 56q28 12 49 27.5t36.5 36t26 47t16.5 62.5l68 384q2 11 1 15t-8 6l-55 19l16 41h60l14 81q13 75 53.5 108.5t118.5 33.5q32 0 61 -5t46 -13l-22 -59q-14 5 -34 9t-40 4q-47 0 -71 -19.5t-32 -64.5l-14 -75h255l15 88q13 75 53.5 108.5t118.5 33.5
q32 0 61 -5t46 -13l-22 -59q-14 5 -34 9t-40 4q-47 0 -71 -19.5t-32 -64.5l-15 -82h321q6 0 10 -1.5t2 -10.5l-83 -474h-80l74 423h-255l-69 -391q-17 -95 -60.5 -148t-121.5 -75l-25 56q28 12 49 27.5t36.5 36t26 47t16.5 62.5l68 385h-255l-72 -408q-17 -95 -60.5 -148
t-121.5 -75zM855 584q-44 0 -44 39q0 62 60 62q44 0 44 -40q0 -61 -60 -61z" />
    <glyph glyph-name="f_f_l" unicode="ffl" horiz-adv-x="910" 
d="M-56 -208l-25 56q28 12 49 27.5t36.5 36t26 47t16.5 62.5l68 384q2 11 1 15t-8 6l-55 19l16 41h60l14 81q13 72 59.5 107t124.5 35q35 0 65 -5t47 -13l-22 -59q-14 5 -35 9t-44 4q-50 0 -78.5 -19.5t-36.5 -64.5l-14 -75h255l10 53q9 48 25 80t44 53q58 44 173 44
q51 0 99.5 -8t80.5 -19q8 -3 10.5 -6t0.5 -11l-106 -604q-1 -10 6 -14l28 -13l-15 -41h-98q-6 0 -9.5 1.5t-1.5 9.5l111 630q-23 6 -53 9t-56 3q-41 0 -69 -8t-46 -22q-19 -15 -30 -38.5t-16 -53.5l-8 -45h147l-11 -63h-147l-69 -391q-17 -95 -60.5 -148t-121.5 -75l-25 56
q28 12 49 27.5t36.5 36t26 47t16.5 62.5l68 385h-255l-72 -408q-17 -95 -60.5 -148t-121.5 -75z" />
    <glyph glyph-name="f_t" unicode="ft" horiz-adv-x="694" 
d="M-56 -208l-25 56q28 12 49 27.5t36.5 36t26 47t16.5 62.5l68 384q2 11 1 15t-8 6l-55 19l16 41h60l15 88q13 75 53.5 108.5t118.5 33.5q32 0 61 -5t46 -13l-22 -59q-14 5 -34 9t-40 4q-47 0 -71 -19.5t-32 -64.5l-15 -82h248l25 145h80l-26 -145h168l-12 -63h-167
l-45 -261q-2 -10 -3 -19.5t-1 -19.5q0 -71 87 -71q16 0 32 2t33 5l-11 -64q-31 -7 -72 -7q-75 0 -112.5 30.5t-37.5 89.5q0 23 5 51l46 264h-248l-72 -408q-17 -95 -60.5 -148t-121.5 -75z" />
    <glyph glyph-name="t_t" unicode="tt" horiz-adv-x="718" 
d="M212 -12q-75 0 -112.5 30.5t-37.5 89.5q0 23 5 51l43 246q2 10 1.5 14t-8.5 7l-55 19l16 41h60l25 145h80l-26 -145h278l25 145h80l-26 -145h168l-12 -63h-167l-45 -261q-2 -10 -3 -19.5t-1 -19.5q0 -71 87 -71q16 0 32 2t33 5l-11 -64q-31 -7 -72 -7q-75 0 -112.5 30.5
t-37.5 89.5q0 23 5 51l46 264h-278l-45 -261q-2 -10 -3 -19.5t-1 -19.5q0 -71 87 -71q16 0 32 2t33 5l-11 -64q-31 -7 -72 -7z" />
    <glyph glyph-name=".notdef" horiz-adv-x="500" 
d="M504 0h-476v672h476v-672zM104 624l162 -244l162 244h-324zM76 580v-488l162 244zM294 336l162 -244v488zM266 292l-162 -244h324z" />
    <glyph glyph-name=".null" horiz-adv-x="0" 
 />
    <glyph glyph-name="nonmarkingreturn" horiz-adv-x="224" 
 />
    <glyph glyph-name="space" unicode=" " horiz-adv-x="224" 
 />
    <glyph glyph-name="exclam" unicode="!" horiz-adv-x="247" 
d="M82 -9q-46 0 -46 41q0 30 16.5 47t45.5 17q46 0 46 -42q0 -30 -16.5 -46.5t-45.5 -16.5zM153 204h-73l78 468h82z" />
    <glyph glyph-name="quotedbl" unicode="&#x22;" horiz-adv-x="431" 
d="M185 445h-68l40 227h68zM368 445h-68l40 227h68z" />
    <glyph glyph-name="numbersign" unicode="#" horiz-adv-x="652" 
d="M144 0h-63l53 177h-120l10 56h127l61 206h-120l10 56h128l52 177h63l-53 -177h195l53 177h62l-52 -177h120l-10 -56h-128l-61 -206h120l-10 -56h-127l-53 -177h-62l52 177h-195zM275 439l-61 -206h195l61 206h-195z" />
    <glyph glyph-name="dollar" unicode="$" 
d="M182 -144l29 166q-45 3 -87 12t-80 23l12 66q49 -18 97 -27.5t102 -9.5q77 0 118 31t41 90q0 29 -13 46.5t-34 29t-48.5 18.5t-55.5 14t-55.5 16.5t-48.5 25.5t-34 41.5t-13 64.5q0 84 54 133.5t156 54.5l29 165h74l-29 -166q39 -3 75.5 -10.5t70.5 -18.5l-11 -66
q-44 15 -87.5 23t-91.5 8q-75 0 -115 -30t-40 -87q0 -37 22.5 -55.5t55.5 -29t72.5 -18.5t72.5 -24t55.5 -45.5t22.5 -83.5q0 -87 -54.5 -137t-158.5 -56l-29 -164h-74z" />
    <glyph glyph-name="percent" unicode="%" horiz-adv-x="864" 
d="M229 324q-76 0 -110 29t-34 94q0 111 50.5 174t141.5 63q77 0 111 -29t34 -94q0 -111 -51 -174t-142 -63zM233 379q60 0 92.5 46.5t32.5 127.5q0 42 -19.5 59t-64.5 17q-60 0 -93 -46t-33 -128q0 -42 20 -59t65 -17zM619 -12q-76 0 -110 29t-34 94q0 111 50.5 174
t141.5 63q77 0 111 -29t34 -94q0 -111 -51 -174t-142 -63zM623 43q60 0 92.5 46.5t32.5 127.5q0 42 -19.5 59t-64.5 17q-60 0 -93 -46t-33 -128q0 -42 20 -59t65 -17zM268 0h-56l416 672h57z" />
    <glyph glyph-name="ampersand" unicode="&#x26;" horiz-adv-x="657" 
d="M243 -12q-100 0 -152.5 43.5t-52.5 126.5q0 76 44.5 128t142.5 93q-61 74 -61 142q0 75 50.5 119t137.5 44q79 0 118 -32t39 -93q0 -68 -43 -116t-139 -87l139 -169q18 30 29 64t16 75h73q-8 -59 -26.5 -107.5t-49.5 -89.5l100 -129h-86l-65 81q-87 -93 -214 -93zM253 51
q97 0 165 83l-160 199q-77 -32 -110.5 -71t-33.5 -95q0 -57 36 -86.5t103 -29.5zM292 405q75 28 108.5 62t33.5 82q0 74 -86 74q-51 0 -80.5 -28t-29.5 -74q0 -55 54 -116z" />
    <glyph glyph-name="quotesingle" unicode="'" horiz-adv-x="231" 
d="M185 445h-68l40 227h68z" />
    <glyph glyph-name="parenleft" unicode="(" horiz-adv-x="311" 
d="M223 -128h-76q-37 66 -55.5 147.5t-18.5 172.5q0 149 53 280.5t153 231.5h88q-106 -99 -162 -228.5t-56 -277.5q0 -88 18 -171t56 -155z" />
    <glyph glyph-name="parenright" unicode=")" horiz-adv-x="311" 
d="M47 -128h-88q106 99 162 228.5t56 277.5q0 88 -18 171t-56 155h76q37 -66 55 -147.5t18 -172.5q0 -149 -52.5 -280.5t-152.5 -231.5z" />
    <glyph glyph-name="asterisk" unicode="*" horiz-adv-x="471" 
d="M364 295l-54 -18l-49 151l-129 -93l-34 46l130 93l-130 93l34 46l129 -93l49 151l54 -18l-50 -150h159v-57h-159z" />
    <glyph glyph-name="plus" unicode="+" 
d="M329 74h-68v180h-180v68h180v180h68v-180h180v-68h-180v-180z" />
    <glyph glyph-name="comma" unicode="," horiz-adv-x="231" 
d="M31 -144h-68l93 227h87z" />
    <glyph glyph-name="hyphen" unicode="-" horiz-adv-x="320" 
d="M289 216h-268l11 62h268z" />
    <glyph glyph-name="period" unicode="." horiz-adv-x="231" 
d="M73 -9q-47 0 -47 42q0 30 16.5 47t45.5 17q48 0 48 -42q0 -30 -17 -47t-46 -17z" />
    <glyph glyph-name="slash" unicode="/" horiz-adv-x="384" 
d="M19 -128h-77l439 832h76z" />
    <glyph glyph-name="zero" unicode="0" 
d="M254 -12q-108 0 -156.5 49.5t-48.5 160.5q0 106 21.5 195t61 153.5t96 101t127.5 36.5q107 0 156 -49.5t49 -160.5q0 -106 -22 -195t-62 -153.5t-96.5 -101t-125.5 -36.5zM259 55q48 0 89 31t71 85.5t47 130.5t17 166q0 80 -31 114.5t-103 34.5q-49 0 -90 -31
t-70.5 -85.5t-46 -130.5t-16.5 -166q0 -80 31 -114.5t102 -34.5z" />
    <glyph glyph-name="one" unicode="1" 
d="M341 0h-80l105 597l-199 -74l12 69l216 80h64z" />
    <glyph glyph-name="two" unicode="2" 
d="M13 0l10 61l314 258q60 49 88.5 94.5t28.5 96.5q0 56 -35 81.5t-109 25.5q-41 0 -83.5 -6t-89.5 -20l12 68q46 14 90 19.5t92 5.5q104 0 154 -37.5t50 -116.5q0 -69 -32.5 -129t-101.5 -116l-266 -219h329l-12 -66h-439z" />
    <glyph glyph-name="three" unicode="3" 
d="M192 -12q-92 0 -177 31l12 64q85 -31 165 -31q110 0 163.5 41.5t53.5 130.5q0 52 -43.5 77t-139.5 25h-31l9 54l234 229h-310l11 63h402l-10 -61l-234 -230q98 -5 146 -42.5t48 -105.5q0 -245 -299 -245z" />
    <glyph glyph-name="four" unicode="4" 
d="M403 0h-74l26 148h-343l11 64l411 460h87l-81 -461h97l-11 -63h-97zM431 581l-332 -370h267z" />
    <glyph glyph-name="five" unicode="5" 
d="M210 -12q-48 0 -92 8t-85 23l12 64q42 -14 83 -22.5t82 -8.5q109 0 160.5 41.5t51.5 131.5q0 109 -189 109q-29 0 -60 -1.5t-64 -3.5l61 343h384l-11 -63h-310l-39 -217q19 1 37.5 1h36.5q117 0 176.5 -40t59.5 -119q0 -125 -73 -185.5t-221 -60.5z" />
    <glyph glyph-name="six" unicode="6" 
d="M270 -12q-104 0 -156.5 52.5t-52.5 151.5q0 115 25 206.5t70.5 155t111 97t146.5 33.5q84 0 158 -27l-11 -64q-72 27 -150 27q-103 0 -171 -71t-89 -206q32 45 79 65.5t113 20.5q91 0 140.5 -43t49.5 -121q0 -131 -69.5 -204t-193.5 -73zM275 52q85 0 132.5 52t47.5 146
q0 57 -33 87t-97 30q-91 0 -140.5 -46.5t-49.5 -132.5q0 -60 35.5 -98t104.5 -38z" />
    <glyph glyph-name="seven" unicode="7" 
d="M200 0h-88l375 606h-363l12 66h450l-12 -64z" />
    <glyph glyph-name="eight" unicode="8" 
d="M254 -12q-115 0 -168.5 37t-53.5 120q0 161 185 202q-54 12 -82 45t-28 87q0 97 64.5 151t183.5 54q106 0 156 -36t50 -113q0 -75 -43.5 -124.5t-123.5 -69.5q65 -15 94 -49t29 -91q0 -103 -67 -158t-196 -55zM261 51q86 0 132 38t46 107q0 25 -6.5 44.5t-23 34t-43.5 24
t-67 14.5q-97 -14 -142.5 -52t-45.5 -106q0 -56 36 -80t114 -24zM312 375q86 14 128.5 50.5t42.5 99.5q0 51 -32 73.5t-103 22.5q-78 0 -121 -36.5t-43 -100.5q0 -47 29 -73.5t99 -35.5z" />
    <glyph glyph-name="nine" unicode="9" 
d="M195 -12q-87 0 -159 27l11 64q35 -14 73.5 -20.5t77.5 -6.5q103 0 171.5 71t88.5 206q-32 -45 -79 -65.5t-113 -20.5q-91 0 -140 43t-49 121q0 131 68.5 204t193.5 73q104 0 157 -52.5t53 -151.5q0 -115 -25 -206.5t-71 -155t-111.5 -97t-146.5 -33.5zM284 305
q91 0 140.5 46.5t49.5 132.5q0 60 -35.5 98t-104.5 38q-85 0 -132.5 -52t-47.5 -146q0 -57 33 -87t97 -30z" />
    <glyph glyph-name="colon" unicode=":" horiz-adv-x="247" 
d="M81 -9q-47 0 -47 42q0 30 16.5 47t45.5 17q48 0 48 -42q0 -30 -17 -47t-46 -17zM151 389q-47 0 -47 42q0 30 16.5 47t45.5 17q48 0 48 -42q0 -30 -17 -47t-46 -17z" />
    <glyph glyph-name="semicolon" unicode=";" horiz-adv-x="247" 
d="M39 -144h-68l93 227h87zM151 389q-47 0 -47 42q0 30 16.5 47t45.5 17q48 0 48 -42q0 -30 -17 -47t-46 -17z" />
    <glyph glyph-name="less" unicode="&#x3c;" 
d="M509 145v-72l-428 177v76l428 177v-72l-346 -143z" />
    <glyph glyph-name="equal" unicode="=" 
d="M509 353h-428v69h428v-69zM509 154h-428v69h428v-69z" />
    <glyph glyph-name="greater" unicode="&#x3e;" 
d="M509 250l-428 -177v72l347 143l-347 143v72l428 -177v-76z" />
    <glyph glyph-name="question" unicode="?" horiz-adv-x="444" 
d="M141 204l3 24q7 45 26.5 75.5t44.5 52.5t52 39t50 35.5t37.5 42t14.5 59.5q0 88 -125 88q-34 0 -71.5 -5.5t-79.5 -17.5l12 64q38 13 77 18t77 5q98 0 145 -34.5t47 -106.5q0 -50 -16 -83t-40.5 -56.5t-54 -41.5t-56 -37t-46.5 -43t-26 -59l-3 -19h-68zM141 -9
q-46 0 -46 41q0 30 16.5 47t45.5 17q46 0 46 -42q0 -30 -16.5 -46.5t-45.5 -16.5z" />
    <glyph glyph-name="at" unicode="@" horiz-adv-x="961" 
d="M448 -204q-203 0 -301 81t-98 249q0 130 33.5 234.5t97.5 177.5t157.5 112.5t213.5 39.5q181 0 274.5 -75t93.5 -221q0 -83 -16.5 -151.5t-47.5 -117t-74.5 -75.5t-97.5 -27q-40 0 -65.5 16.5t-35.5 45.5q-54 -62 -151 -62q-74 0 -114 38t-40 110q0 67 14.5 121t41.5 92
t65.5 58.5t85.5 20.5q48 0 83 -17t53 -49l15 54h64l-51 -290q-1 -6 -2 -13t-1 -13q0 -51 54 -51q33 0 60.5 22t47.5 62t31.5 94.5t11.5 120.5q0 121 -75.5 183.5t-227.5 62.5q-104 0 -183.5 -34t-134 -98t-82.5 -155.5t-28 -206.5q0 -143 80 -210.5t254 -67.5
q69 0 135.5 12.5t128.5 34.5l-11 -65q-57 -21 -123 -32t-135 -11zM452 87q107 0 124 103l15 84q2 13 3 24.5t1 21.5q0 35 -27 57t-71 22q-31 0 -57 -15.5t-44.5 -43.5t-29 -67.5t-10.5 -88.5q0 -48 25 -72.5t71 -24.5z" />
    <glyph glyph-name="A" unicode="A" horiz-adv-x="639" 
d="M50 0h-83q34 80 81.5 174t98.5 186t102 174t93 138h92q22 -56 44 -138t40.5 -174t33 -186t20.5 -174h-82q-4 40 -9 85.5t-13 93.5h-332q-24 -48 -46 -93.5t-40 -85.5zM168 241h290q-9 50 -18.5 100t-20 96t-21.5 87t-22 74q-23 -33 -49 -74t-52.5 -87t-53.5 -96t-53 -100
z" />
    <glyph glyph-name="B" unicode="B" horiz-adv-x="636" 
d="M44 0l107 609q1 5 -0.5 7.5t-7.5 5.5l-28 13l14 37h297q94 0 139 -32.5t45 -101.5q0 -75 -30 -125t-90 -70q90 -21 90 -124q0 -109 -59 -164t-175 -55h-302zM136 63h201q161 0 161 156q0 49 -30.5 70.5t-99.5 21.5h-188zM191 373h185q154 0 154 149q0 47 -29.5 67
t-93.5 20h-174z" />
    <glyph glyph-name="C" unicode="C" horiz-adv-x="596" 
d="M329 -12q-134 0 -202 61.5t-68 181.5q0 106 24.5 190.5t70.5 142.5t112.5 89t150.5 31q66 0 121 -11t86 -25l-24 -63q-34 14 -76 23t-99 9q-66 0 -118.5 -25t-89 -73t-55.5 -117.5t-19 -157.5q0 -189 202 -189q46 0 89.5 6t87.5 17l-13 -69q-42 -10 -87 -15.5t-93 -5.5z
" />
    <glyph glyph-name="D" unicode="D" horiz-adv-x="692" 
d="M44 0l107 609q1 5 -0.5 7.5t-7.5 5.5l-28 13l14 37h231q157 0 231.5 -59.5t74.5 -183.5q0 -209 -100 -319t-292 -110h-230zM138 66h139q150 0 227.5 91t77.5 266q0 96 -55.5 139.5t-176.5 43.5h-117z" />
    <glyph glyph-name="E" unicode="E" horiz-adv-x="583" 
d="M44 0l107 609q1 5 -0.5 7.5t-7.5 5.5l-28 13l14 37h477l-12 -66h-361l-41 -233h289l-11 -62h-289l-43 -245h369l-11 -66h-452z" />
    <glyph glyph-name="F" unicode="F" horiz-adv-x="567" 
d="M44 0l107 609q1 5 -0.5 7.5t-7.5 5.5l-28 13l14 37h477l-12 -66h-361l-41 -233h289l-11 -64h-289l-54 -309h-83z" />
    <glyph glyph-name="G" unicode="G" horiz-adv-x="657" 
d="M337 -12q-137 0 -207.5 62t-70.5 182q0 107 25 191t73 142t117.5 88.5t157.5 30.5q66 0 124.5 -11t89.5 -25l-24 -63q-33 14 -79.5 23.5t-103.5 9.5q-143 0 -221 -96.5t-78 -276.5q0 -191 210 -191q67 0 137 14l40 224h-166l11 59h240l-59 -340q-54 -11 -107 -17t-109 -6
z" />
    <glyph glyph-name="H" unicode="H" horiz-adv-x="716" 
d="M44 0l107 609q1 5 -0.5 7.5t-7.5 5.5l-28 13l14 37h102q6 0 10 -1.5t2 -10.5l-50 -284h381l51 296h83l-118 -672h-83l55 311h-381l-54 -311h-83z" />
    <glyph glyph-name="I" unicode="I" horiz-adv-x="253" 
d="M44 0l107 609q1 5 -0.5 7.5t-7.5 5.5l-28 13l14 37h102q6 0 10 -1.5t2 -10.5l-116 -660h-83z" />
    <glyph glyph-name="J" unicode="J" horiz-adv-x="439" 
d="M127 -12q-38 0 -72.5 4t-66.5 13l11 67q29 -9 59.5 -13t60.5 -4q64 0 97 27.5t44 91.5l88 498h83l-90 -510q-17 -91 -67 -132.5t-147 -41.5z" />
    <glyph glyph-name="K" unicode="K" horiz-adv-x="600" 
d="M44 0l107 609q1 5 -0.5 7.5t-7.5 5.5l-28 13l14 37h100q6 0 10 -1.5t2 -10.5l-56 -319l373 331h97l-348 -312l232 -360h-87l-200 311l-83 -73l-44 -238h-81z" />
    <glyph glyph-name="L" unicode="L" horiz-adv-x="508" 
d="M44 0l107 609q1 5 -0.5 7.5t-7.5 5.5l-28 13l14 37h102q6 0 10 -1.5t2 -10.5l-104 -594h325l-11 -66h-409z" />
    <glyph glyph-name="M" unicode="M" horiz-adv-x="804" 
d="M44 0l107 609q1 9 -8 13l-28 13l14 37h90q15 0 19.5 -4t11.5 -20l156 -368l305 392h85l-118 -672h-77l97 552l-274 -351h-23q-12 0 -19.5 1t-12.5 3.5t-8 8t-7 14.5l-137 321l-96 -549h-77z" />
    <glyph glyph-name="N" unicode="N" horiz-adv-x="716" 
d="M44 0l107 609q1 9 -8 13l-28 13l14 37h95q14 0 19 -2.5t10 -13.5l280 -542l98 558h77l-118 -672h-83l-287 558l-99 -558h-77z" />
    <glyph glyph-name="O" unicode="O" horiz-adv-x="713" 
d="M329 -12q-134 0 -202 61.5t-68 181.5q0 106 24.5 190.5t70.5 142.5t112.5 89t150.5 31q134 0 202 -61.5t68 -181.5q0 -107 -24.5 -191t-70.5 -142t-112.5 -89t-150.5 -31zM333 55q63 0 113 25.5t85 74.5t53.5 118.5t18.5 158.5q0 185 -190 185q-63 0 -113 -25.5
t-85 -74.5t-53.5 -119t-18.5 -158q0 -185 190 -185z" />
    <glyph glyph-name="P" unicode="P" horiz-adv-x="620" 
d="M44 0l107 609q1 5 -0.5 7.5t-7.5 5.5l-28 13l14 37h278q111 0 163 -37.5t52 -118.5q0 -127 -68 -192t-201 -65h-184l-45 -259h-80zM181 324h175q185 0 185 180q0 53 -35.5 77.5t-110.5 24.5h-165z" />
    <glyph glyph-name="Q" unicode="Q" horiz-adv-x="713" 
d="M478 -122l-55 121q-46 -11 -94 -11q-134 0 -202 61.5t-68 181.5q0 107 24 191.5t70 142.5t112.5 88.5t151.5 30.5q134 0 202 -61.5t68 -181.5q0 -159 -51 -265.5t-148 -153.5l65 -144h-75zM333 52q35 0 63 7l-43 96h75l31 -70q70 41 108.5 129t38.5 217q0 186 -193 186
q-63 0 -113.5 -26t-86 -74.5t-54.5 -119t-19 -159.5q0 -186 193 -186z" />
    <glyph glyph-name="R" unicode="R" horiz-adv-x="636" 
d="M44 0l107 609q1 5 -0.5 7.5t-7.5 5.5l-28 13l14 37h286q106 0 156.5 -36.5t50.5 -114.5q0 -107 -50.5 -166.5t-150.5 -70.5l126 -284h-81l-122 275h-171l-48 -275h-81zM184 339h180q177 0 177 172q0 51 -33 74t-105 23h-171z" />
    <glyph glyph-name="S" unicode="S" horiz-adv-x="579" 
d="M252 -12q-127 0 -232 39l11 66q105 -40 220 -40q88 0 137.5 35.5t49.5 103.5q0 43 -25.5 66.5t-63.5 37.5t-82 25t-82 30t-63.5 51t-25.5 89q0 46 19.5 82t54 61t82 37.5t103.5 12.5q66 0 122.5 -11.5t87.5 -25.5l-24 -60q-34 14 -81 23.5t-101 9.5q-88 0 -137 -32
t-49 -96q0 -39 25.5 -60.5t63.5 -35.5t82.5 -26t82.5 -31.5t63.5 -52.5t25.5 -89q0 -100 -69 -154.5t-195 -54.5z" />
    <glyph glyph-name="T" unicode="T" horiz-adv-x="585" 
d="M291 0h-82l106 606h-230l11 66h544l-12 -66h-230z" />
    <glyph glyph-name="U" unicode="U" horiz-adv-x="716" 
d="M320 -12q-55 0 -99 13t-75 38t-47.5 59.5t-16.5 78.5q0 21 2 43t6 45l61 344q1 5 -0.5 7.5t-7.5 5.5l-28 13l14 37h116l-72 -407q-3 -19 -5 -38.5t-2 -36.5q0 -62 43.5 -98.5t117.5 -36.5q101 0 153 43.5t69 140.5l76 433h83l-77 -439q-11 -65 -34.5 -111.5t-61.5 -76
t-91.5 -43.5t-123.5 -14z" />
    <glyph glyph-name="V" unicode="V" horiz-adv-x="639" 
d="M322 0h-91q-22 56 -44 138t-41 174t-33 186t-20 174h81q6 -67 18 -149t27 -164t32.5 -157t36.5 -128q37 53 81.5 128t88.5 157t85 164t71 149h84q-35 -80 -82 -174t-98.5 -186t-102.5 -174t-93 -138z" />
    <glyph glyph-name="W" unicode="W" horiz-adv-x="942" 
d="M257 0h-91q-17 76 -30.5 166t-24 180.5t-17 175t-7.5 150.5h79q6 -154 20 -300.5t40 -286.5h2q35 66 70 139t68.5 147t65 147.5t58.5 139.5h78q5 -86 10.5 -158.5t12.5 -140t16.5 -134t21.5 -140.5h2q31 55 65 124.5t69 146.5t69 158t64 158h81q-24 -66 -60 -150.5
t-78 -175t-88 -180.5t-90 -166h-93q-27 137 -44 273.5t-17 264.5h-1q-48 -137 -114 -273t-137 -265z" />
    <glyph glyph-name="X" unicode="X" horiz-adv-x="639" 
d="M80 0h-98l303 349l-170 323h84l144 -278l239 278h98l-295 -338l178 -334h-85l-151 289z" />
    <glyph glyph-name="Y" unicode="Y" horiz-adv-x="591" 
d="M294 0h-83l51 295l-171 377h85l137 -311l244 311h94l-307 -387z" />
    <glyph glyph-name="Z" unicode="Z" horiz-adv-x="612" 
d="M525 0h-523l11 63l502 543h-399l12 66h505l-11 -63l-503 -543h417z" />
    <glyph glyph-name="bracketleft" unicode="[" horiz-adv-x="311" 
d="M220 -128h-190l146 832h190l-11 -63h-116l-124 -706h116z" />
    <glyph glyph-name="backslash" unicode="\" horiz-adv-x="384" 
d="M307 -128h-68l-148 832h69z" />
    <glyph glyph-name="bracketright" unicode="]" horiz-adv-x="311" 
d="M152 -128h-191l11 63h117l124 706h-117l11 63h191z" />
    <glyph glyph-name="asciicircum" unicode="^" 
d="M158 244h-78l196 428h82l196 -428h-78l-159 347z" />
    <glyph glyph-name="underscore" unicode="_" horiz-adv-x="480" 
d="M409 -159h-480l11 62h480z" />
    <glyph glyph-name="grave" unicode="`" horiz-adv-x="240" 
d="M227 564h-68l-109 140h81z" />
    <glyph glyph-name="a" unicode="a" horiz-adv-x="557" 
d="M215 -12q-85 0 -130.5 44t-45.5 126q0 78 17 141t48 107t75.5 68t99.5 24q58 0 98 -17.5t66 -40.5l14 46h65l-73 -418q-1 -10 6 -14l28 -13l-15 -41h-74q-8 0 -11 1.5t-3 9.5v47q-70 -70 -165 -70zM238 52q127 0 150 126l38 215q-8 6 -21 13t-30.5 13t-38 10.5t-43.5 4.5
q-40 0 -71.5 -18.5t-54 -53t-34.5 -83.5t-12 -109q0 -58 30 -88t87 -30z" />
    <glyph glyph-name="b" unicode="b" horiz-adv-x="553" 
d="M269 -12q-54 0 -94.5 17t-62.5 51l-16 -56h-65l111 630q2 10 1 14t-8 7l-26 12l16 41h96q6 0 10 -1.5t2 -10.5l-45 -253q25 28 63.5 43.5t87.5 15.5q85 0 130 -44.5t45 -125.5q0 -78 -17 -141t-48.5 -107t-77 -68t-102.5 -24zM260 52q40 0 71.5 18.5t54 53t34.5 83.5
t12 109q0 58 -30 88t-87 30q-127 0 -150 -126l-37 -208q26 -20 58 -34t74 -14z" />
    <glyph glyph-name="c" unicode="c" horiz-adv-x="455" 
d="M242 -12q-204 0 -204 178q0 158 72 245t204 87q40 0 79 -7t66 -19l-24 -62q-29 11 -57.5 17.5t-64.5 6.5q-92 0 -142.5 -68t-50.5 -189q0 -125 138 -125q65 0 128 16l-12 -65q-32 -8 -64.5 -11.5t-67.5 -3.5z" />
    <glyph glyph-name="d" unicode="d" horiz-adv-x="557" 
d="M215 -12q-85 0 -130.5 44t-45.5 126q0 78 17 141t48 107t75.5 68t99.5 24q51 0 92 -19t61 -51l49 276h80l-112 -636q-1 -10 6 -14l28 -13l-15 -41h-73q-8 0 -11 1.5t-3 9.5v43q-27 -31 -70 -48.5t-96 -17.5zM238 52q49 0 82.5 16t51.5 30l35 186q6 28 6 59q0 39 -34 65
t-86 26q-40 0 -71.5 -18.5t-54 -53t-34.5 -83.5t-12 -110q0 -57 30 -87t87 -30z" />
    <glyph glyph-name="e" unicode="e" horiz-adv-x="523" 
d="M263 -12q-112 0 -168.5 45t-56.5 133q0 78 17.5 139.5t51 104.5t81.5 65.5t109 22.5q96 0 141.5 -42t45.5 -131q0 -52 -14 -105h-352q-2 -11 -2 -25.5t1 -29.5q2 -57 41 -85.5t113 -28.5q38 0 77 4.5t77 15.5l-11 -64q-70 -19 -151 -19zM127 275h276q6 24 6 53
q0 57 -27.5 84.5t-87.5 27.5q-67 0 -110 -42.5t-57 -122.5z" />
    <glyph glyph-name="f" unicode="f" horiz-adv-x="333" 
d="M-56 -208l-25 56q28 12 49 27.5t36.5 36t26 47t16.5 62.5l68 384q2 10 1.5 13.5t-8.5 7.5l-55 19l16 41h60l15 88q13 75 53.5 108.5t118.5 33.5q32 0 61 -5t46 -13l-22 -59q-14 5 -34 9t-40 4q-47 0 -71 -19.5t-32 -64.5l-15 -82h147l-11 -63h-147l-72 -408
q-17 -95 -60.5 -148t-121.5 -75z" />
    <glyph glyph-name="g" unicode="g" horiz-adv-x="553" 
d="M182 -220q-26 0 -51 3t-43 8l11 63q23 -6 45 -8t37 -2q43 0 73.5 10.5t50.5 29t31 43t16 52.5l12 67q-25 -27 -63.5 -42.5t-86.5 -15.5q-85 0 -130.5 44t-45.5 126q0 78 17 141t48 107t75.5 68t99.5 24q58 0 98 -17.5t66 -40.5l14 46h65l-87 -501q-8 -47 -26 -85
t-48.5 -64.5t-74 -41t-103.5 -14.5zM237 52q127 0 150 126l38 215q-8 6 -21 13t-30.5 13t-38 10.5t-43.5 4.5q-40 0 -71.5 -18.5t-54 -53t-34.5 -83.5t-12 -109q0 -58 30 -88t87 -30z" />
    <glyph glyph-name="h" unicode="h" horiz-adv-x="557" 
d="M31 0l111 630q2 10 1.5 13.5t-8.5 7.5l-26 12l16 41h96q6 0 10 -1.5t2 -10.5l-45 -251q29 27 65 42t86 15q77 0 118.5 -37.5t41.5 -106.5q0 -17 -2 -32.5t-5 -31.5l-39 -222q-1 -10 6 -14l28 -13l-15 -41h-98q-6 0 -9.5 1.5t-1.5 9.5l50 279q5 28 5 51q0 91 -104 91
q-43 0 -79 -15t-56 -28l-68 -389h-80z" />
    <glyph glyph-name="i" unicode="i" horiz-adv-x="237" 
d="M40 0l72 412q2 10 1.5 13.5t-8.5 7.5l-26 12l16 41h96q6 0 10 -1.5t2 -10.5l-83 -474h-80zM181 584q-44 0 -44 39q0 62 60 62q44 0 44 -40q0 -61 -60 -61z" />
    <glyph glyph-name="j" unicode="j" horiz-adv-x="237" 
d="M-69 -217q-26 0 -45 3l11 60q11 -1 15 -1h9q49 0 74.5 22.5t35.5 78.5l81 466q2 10 1.5 13.5t-8.5 7.5l-26 12l16 41h96q6 0 10 -1.5t2 -10.5l-92 -528q-14 -78 -54.5 -120.5t-125.5 -42.5zM181 584q-44 0 -44 39q0 62 60 62q44 0 44 -40q0 -61 -60 -61z" />
    <glyph glyph-name="k" unicode="k" horiz-adv-x="474" 
d="M31 0l111 630q2 10 1.5 13.5t-8.5 7.5l-26 12l16 41h93q6 0 10 -1.5t2 -10.5l-76 -428l246 222h94l-244 -221l165 -265h-84l-135 217l-60 -53l-28 -164h-77z" />
    <glyph glyph-name="l" unicode="l" horiz-adv-x="236" 
d="M146 0h-98q-6 0 -9.5 1.5t-1.5 9.5l109 619q2 10 1.5 13.5t-8.5 7.5l-26 12l16 41h96q6 0 10 -1.5t2 -10.5l-110 -624q-1 -10 6 -14l28 -13z" />
    <glyph glyph-name="m" unicode="m" horiz-adv-x="865" 
d="M35 0l72 412q2 10 1.5 13.5t-8.5 7.5l-26 12l16 41h96q6 0 10 -1.5t2 -10.5l-6 -33q29 27 65 42t86 15q29 0 51 -6.5t38 -16t27 -21.5t17 -24q41 37 80.5 52.5t96.5 15.5q75 0 114.5 -35.5t39.5 -101.5q0 -34 -6 -64l-40 -229q-1 -10 6 -14l28 -13l-15 -41h-98
q-6 0 -9.5 1.5t-1.5 9.5l50 286q3 13 4 26t1 25q0 40 -22 62t-69 22q-21 0 -43 -4.5t-42 -11t-36 -14t-26 -13.5q3 -19 2.5 -35t-2.5 -34l-56 -320h-80l52 297q5 28 5 51q0 42 -23.5 63t-67.5 21q-43 0 -79 -15t-56 -28l-68 -389h-80z" />
    <glyph glyph-name="n" unicode="n" horiz-adv-x="561" 
d="M35 0l72 412q2 10 1.5 13.5t-8.5 7.5l-26 12l16 41h96q6 0 10 -1.5t2 -10.5l-6 -33q29 27 65 42t86 15q77 0 118.5 -37.5t41.5 -106.5q0 -17 -2 -32.5t-5 -31.5l-39 -222q-1 -10 6 -14l28 -13l-15 -41h-98q-6 0 -9.5 1.5t-1.5 9.5l50 279q5 28 5 51q0 91 -104 91
q-43 0 -79 -15t-56 -28l-68 -389h-80z" />
    <glyph glyph-name="o" unicode="o" horiz-adv-x="545" 
d="M241 -12q-204 0 -204 178q0 77 18 138.5t52.5 104.5t84.5 66t113 23q101 0 152 -45t51 -133q0 -77 -18 -138.5t-52.5 -104.5t-84 -66t-112.5 -23zM245 52q42 0 76 18t57 52t35.5 81.5t12.5 107.5q0 123 -126 123q-42 0 -76 -18t-57 -52t-35.5 -81.5t-12.5 -107.5
q0 -123 126 -123z" />
    <glyph glyph-name="p" unicode="p" horiz-adv-x="556" 
d="M-2 -208l109 620q2 10 1.5 13.5t-8.5 7.5l-26 12l16 41h96q6 0 10 -1.5t2 -10.5l-6 -35q25 28 63.5 43.5t87.5 15.5q85 0 130 -44.5t45 -125.5q0 -78 -17 -141t-48.5 -107t-77 -68t-102.5 -24q-54 0 -91 15.5t-59 42.5l-45 -254h-80zM264 52q40 0 71.5 18.5t54 53
t34.5 83.5t12 109q0 58 -30 88t-87 30q-127 0 -150 -126l-37 -208q26 -20 58 -34t74 -14z" />
    <glyph glyph-name="q" unicode="q" horiz-adv-x="553" 
d="M318 -215l46 260q-23 -23 -59 -40t-91 -17q-85 0 -130.5 44t-45.5 126q0 78 17 141t48 107t75.5 68t99.5 24q54 0 97 -20t63 -55l18 63h65l-121 -687zM237 52q49 0 82.5 16t51.5 30l35 186q6 28 6 59q0 39 -34 65t-86 26q-40 0 -71.5 -18.5t-54 -53t-34.5 -83.5t-12 -110
q0 -57 30 -87t87 -30z" />
    <glyph glyph-name="r" unicode="r" horiz-adv-x="365" 
d="M35 0l72 412q2 10 1.5 13.5t-8.5 7.5l-26 12l16 41h96q6 0 10 -1.5t2 -10.5l-7 -43q32 32 67.5 49.5t76.5 17.5q15 0 30.5 -1.5t29.5 -4.5l-20 -66q-26 6 -52 6q-32 0 -66 -10.5t-77 -48.5l-65 -373h-80z" />
    <glyph glyph-name="s" unicode="s" horiz-adv-x="445" 
d="M192 -12q-98 0 -178 28l12 65q40 -15 79.5 -23t81.5 -8q61 0 96 23.5t35 68.5q0 27 -18.5 42t-46.5 24t-60.5 17t-60.5 21.5t-46.5 37.5t-18.5 65q0 69 54.5 109t148.5 40q40 0 79.5 -7t75.5 -22l-23 -61v0q-28 11 -58 19.5t-76 8.5q-60 0 -93 -21t-33 -63
q0 -25 18.5 -38.5t46.5 -23t60.5 -18t60.5 -23t46.5 -38.5t18.5 -64q0 -76 -53.5 -117.5t-147.5 -41.5z" />
    <glyph glyph-name="t" unicode="t" horiz-adv-x="361" 
d="M212 -12q-75 0 -112.5 30.5t-37.5 89.5q0 23 5 51l43 246q2 10 1.5 14t-8.5 7l-55 19l16 41h60l25 145h80l-26 -145h168l-12 -63h-167l-45 -261q-2 -10 -3 -19.5t-1 -19.5q0 -71 87 -71q16 0 32 2t33 5l-11 -64q-31 -7 -72 -7z" />
    <glyph glyph-name="u" unicode="u" horiz-adv-x="554" 
d="M239 -12q-84 0 -132 37.5t-48 103.5q0 32 6 64l38 219q2 10 1.5 13.5t-8.5 7.5l-25 12l16 41h95q6 0 10 -1.5t2 -10.5l-49 -281q-2 -13 -3.5 -26t-1.5 -25q0 -42 28.5 -66t78.5 -24q65 0 99.5 29t45.5 94l54 311h80l-55 -317q-16 -95 -71.5 -138t-160.5 -43z" />
    <glyph glyph-name="v" unicode="v" horiz-adv-x="501" 
d="M250 0h-82q-19 57 -35 118.5t-29.5 124.5t-23.5 124.5t-16 118.5h80q4 -48 12.5 -102t18.5 -108.5t22 -106t24 -95.5q27 44 57 95.5t59.5 106t56.5 108.5t48 102h83q-26 -57 -57.5 -118.5t-67 -124.5t-74 -124.5t-76.5 -118.5z" />
    <glyph glyph-name="w" unicode="w" horiz-adv-x="793" 
d="M238 0h-87q-12 46 -24 105.5t-23 125t-20 131.5t-15 124h78q11 -106 25.5 -208.5t34.5 -204.5h2q27 49 53.5 101t52 103.5t49 101t42.5 95.5h69q10 -109 24 -206.5t34 -194.5h2q57 109 108 210.5t96 202.5h78q-27 -58 -59.5 -124t-66 -131.5t-67 -125t-61.5 -105.5h-85
q-21 88 -37 181t-22 181q-19 -46 -40.5 -93.5t-45 -94t-47.5 -91t-48 -83.5z" />
    <glyph glyph-name="x" unicode="x" horiz-adv-x="501" 
d="M78 0h-93l217 252l-124 234h82l98 -188l159 188h92l-210 -244l128 -242h-83l-101 196z" />
    <glyph glyph-name="y" unicode="y" horiz-adv-x="558" 
d="M188 -220q-26 0 -51 3t-43 8l11 63q23 -6 45 -8t37 -2q43 0 73.5 10.5t50.5 29t31 43t16 52.5l12 67q-25 -27 -60.5 -42.5t-80.5 -15.5q-80 0 -125 37.5t-45 103.5q0 32 6 64l38 219q2 10 1.5 13.5t-8.5 7.5l-25 12l16 41h95q6 0 10 -1.5t2 -10.5l-49 -281
q-2 -13 -3.5 -26t-1.5 -25q0 -42 28.5 -66t78.5 -24q60 0 97.5 31.5t48.5 94.5l53 308h80l-86 -501q-8 -47 -26 -85t-48.5 -64.5t-74 -41t-103.5 -14.5z" />
    <glyph glyph-name="z" unicode="z" horiz-adv-x="465" 
d="M386 0h-384l10 60l343 363h-272l11 63h369l-11 -60l-343 -363h288z" />
    <glyph glyph-name="braceleft" unicode="{" horiz-adv-x="311" 
d="M219 -128h-22q-131 0 -131 100q0 12 1.5 23t3.5 25l26 144q3 16 3 33q0 60 -75 60h-12l11 62h8q48 0 74 22.5t34 70.5l26 152q13 74 52 107t118 33h30l-11 -63h-15q-45 0 -69 -20t-32 -65l-27 -156q-17 -96 -91 -117q54 -17 54 -80q0 -9 -1 -19t-3 -20l-24 -136
q-3 -18 -3 -35q0 -31 18.5 -44.5t57.5 -13.5h10z" />
    <glyph glyph-name="bar" unicode="|" horiz-adv-x="240" 
d="M154 -224h-68v960h68v-960z" />
    <glyph glyph-name="braceright" unicode="}" horiz-adv-x="311" 
d="M-40 -128l11 63h16q45 0 68.5 20t31.5 65l27 156q17 96 91 117q-54 16 -54 80q0 9 1 19t3 20l25 136q3 18 3 35q0 31 -19 44.5t-57 13.5h-11l11 63h22q131 0 131 -100q0 -12 -1 -23t-4 -25l-26 -144q-3 -17 -3 -33q0 -60 75 -60h12l-11 -62h-8q-48 0 -74 -22.5t-34 -70.5
l-26 -152q-14 -74 -52.5 -107t-117.5 -33h-30z" />
    <glyph glyph-name="asciitilde" unicode="~" 
d="M401 197q-40 0 -67 17.5t-49 38.5t-42.5 38.5t-47.5 17.5q-40 0 -57 -24.5t-19 -77.5h-68q1 89 33.5 130.5t104.5 41.5q40 0 67.5 -17.5t49.5 -38.5t42.5 -38.5t47.5 -17.5q39 0 56.5 24.5t18.5 77.5h69q-2 -89 -34.5 -130.5t-104.5 -41.5z" />
    <glyph glyph-name="uni00A0" unicode="&#xa0;" horiz-adv-x="224" 
 />
    <glyph glyph-name="exclamdown" unicode="&#xa1;" horiz-adv-x="247" 
d="M148 390q-46 0 -46 42q0 30 16.5 46.5t45.5 16.5q46 0 46 -41q0 -30 -16.5 -47t-45.5 -17zM88 -186h-82l87 468h73z" />
    <glyph glyph-name="cent" unicode="&#xa2;" 
d="M230 -83l29 168q-143 26 -143 174q0 146 60.5 232t171.5 98l30 166h74l-30 -166q61 -5 113 -21l-12 -65q-31 11 -64 17.5t-68 6.5q-94 0 -143.5 -66.5t-49.5 -189.5q0 -126 137 -126q67 0 128 16l-11 -65q-57 -15 -120 -15l-28 -164h-74z" />
    <glyph glyph-name="sterling" unicode="&#xa3;" 
d="M36 0l11 64h90l43 247h-74l11 62h74l22 122q18 98 72.5 143.5t152.5 45.5q64 0 139 -20l-12 -65q-32 10 -62 14.5t-56 4.5q-68 0 -104 -31.5t-49 -100.5l-20 -113h198l-11 -62h-198l-43 -247h259l-11 -64h-432z" />
    <glyph glyph-name="currency" unicode="&#xa4;" 
d="M107 100l-48 48l74 74q-14 20 -20.5 48.5t-6.5 65.5t6.5 65.5t20.5 48.5l-74 74l48 48l74 -73q39 26 114 26t115 -26l73 73l48 -48l-73 -74q27 -41 27 -114q0 -74 -27 -114l73 -74l-48 -48l-73 73q-40 -26 -115 -26t-114 26zM295 211q67 0 96.5 29t29.5 96t-29.5 96
t-96.5 29t-96 -29t-29 -96t29 -96t96 -29z" />
    <glyph glyph-name="yen" unicode="&#xa5;" 
d="M287 0h-83l23 137h-162l9 51h163l17 99h-162l9 50h141l-155 335h87l133 -300l235 300h97l-268 -335h137l-9 -50h-162l-17 -99h162l-9 -51h-163z" />
    <glyph glyph-name="brokenbar" unicode="&#xa6;" horiz-adv-x="240" 
d="M154 304h-68v384h68v-384zM154 -176h-68v384h68v-384z" />
    <glyph glyph-name="section" unicode="&#xa7;" horiz-adv-x="556" 
d="M210 -156q-58 0 -110.5 10t-100.5 27l12 66q47 -18 94 -27.5t101 -9.5q75 0 115 31t40 90q0 29 -12.5 46.5t-33.5 29t-47 18.5t-54 14t-54 16.5t-47 25.5t-33.5 41.5t-12.5 64.5q0 43 18.5 80t47.5 61q-14 28 -14 67q0 89 59.5 139t171.5 50q103 0 191 -31l-12 -66
q-42 15 -84.5 23t-90.5 8q-73 0 -112 -30t-39 -87q0 -37 22 -55t54.5 -28.5t70.5 -18.5t70.5 -24.5t54.5 -46t22 -83.5q0 -45 -17 -80.5t-48 -62.5q6 -14 9.5 -29.5t3.5 -35.5q0 -91 -60 -142t-175 -51zM375 148q41 38 41 91q0 43 -25.5 63t-61 30.5t-74 20t-64.5 31.5
q-19 -16 -31 -40.5t-12 -50.5q0 -28 12 -45.5t31.5 -28.5t44.5 -17t50 -12.5t48.5 -16t40.5 -25.5z" />
    <glyph glyph-name="dieresis" unicode="&#xa8;" horiz-adv-x="240" 
d="M278 585q-42 0 -42 38q0 60 58 60q43 0 43 -38q0 -29 -15 -44.5t-44 -15.5zM79 585q-43 0 -43 38q0 60 59 60q42 0 42 -38q0 -29 -14.5 -44.5t-43.5 -15.5z" />
    <glyph glyph-name="copyright" unicode="&#xa9;" horiz-adv-x="832" 
d="M432 -32q-99 0 -170 21.5t-116 66.5t-66.5 114.5t-21.5 165.5t21.5 165.5t66.5 114.5t116 66.5t170 21.5t170 -21.5t116 -66.5t66.5 -114.5t21.5 -165.5t-21.5 -165.5t-66.5 -114.5t-116 -66.5t-170 -21.5zM446 120q-107 0 -154.5 51t-47.5 165t47.5 165t154.5 51
q34 0 63.5 -4t58.5 -12v-52q-28 8 -55.5 12.5t-56.5 4.5q-80 0 -114 -38t-34 -127t34 -127t114 -38q29 0 56.5 4.5t55.5 12.5v-52q-29 -8 -58.5 -12t-63.5 -4zM432 12q84 0 145 18.5t101 57.5t59 100.5t19 147.5t-18.5 147.5t-57.5 100.5t-100.5 57.5t-147.5 18.5
t-147.5 -18.5t-100.5 -57.5t-57.5 -100.5t-18.5 -147.5t19 -147.5t59 -100.5t101 -57.5t145 -18.5z" />
    <glyph glyph-name="ordfeminine" unicode="&#xaa;" horiz-adv-x="372" 
d="M185 341q-110 0 -110 81q0 54 35 82t102 28q26 0 50 -4t44 -11l6 33q1 7 2 15t1 16q0 52 -83 52q-23 0 -47 -2.5t-49 -9.5l8 47q26 7 51.5 9.5t51.5 2.5q59 0 92.5 -25t33.5 -69q0 -11 -1 -21.5t-3 -19.5l-34 -196h-44v28q-39 -36 -106 -36zM201 385q81 0 93 64l5 29
q-34 14 -79 14q-87 0 -87 -62q0 -45 68 -45zM331 228h-288l9 50h288z" />
    <glyph glyph-name="guillemotleft" unicode="&#xab;" horiz-adv-x="495" 
d="M214 50h-72l-111 193l170 193h77l-167 -197zM429 50h-72l-111 193l170 193h77l-166 -197z" />
    <glyph glyph-name="logicalnot" unicode="&#xac;" 
d="M509 74h-68v180h-360v68h428v-248z" />
    <glyph glyph-name="uni00AD" unicode="&#xad;" horiz-adv-x="336" 
d="M289 216h-268l11 62h268z" />
    <glyph glyph-name="registered" unicode="&#xae;" horiz-adv-x="832" 
d="M432 -32q-99 0 -170 21.5t-116 66.5t-66.5 114.5t-21.5 165.5t21.5 165.5t66.5 114.5t116 66.5t170 21.5t170 -21.5t116 -66.5t66.5 -114.5t21.5 -165.5t-21.5 -165.5t-66.5 -114.5t-116 -66.5t-170 -21.5zM432 12q84 0 145 18.5t101 57.5t59 100.5t19 147.5t-18.5 147.5
t-57.5 100.5t-100.5 57.5t-147.5 18.5t-147.5 -18.5t-100.5 -57.5t-57.5 -100.5t-18.5 -147.5t19 -147.5t59 -100.5t101 -57.5t145 -18.5zM284 128v416h173q78 0 112 -29t34 -96q0 -107 -100 -120l109 -171h-68l-101 165h-100v-165h-59zM343 342h110q48 0 68.5 17.5
t20.5 59.5t-20.5 59t-68.5 17h-110v-153z" />
    <glyph glyph-name="macron" unicode="&#xaf;" horiz-adv-x="240" 
d="M332 606h-301l10 57h301z" />
    <glyph glyph-name="degree" unicode="&#xb0;" horiz-adv-x="343" 
d="M210 436q-54 0 -81 25.5t-27 73.5q0 69 37.5 107.5t104.5 38.5q108 0 108 -99q0 -69 -37.5 -107.5t-104.5 -38.5zM215 482q42 0 65.5 24.5t23.5 67.5q0 61 -65 61q-42 0 -65.5 -24.5t-23.5 -67.5q0 -61 65 -61z" />
    <glyph glyph-name="plusminus" unicode="&#xb1;" 
d="M329 161h-68v180h-180v69h180v179h68v-179h180v-69h-180v-180zM509 0h-428v68h428v-68z" />
    <glyph glyph-name="uni00B2" unicode="&#xb2;" horiz-adv-x="348" 
d="M52 384l8 45l189 154q35 29 53 56t18 57q0 32 -20.5 46.5t-63.5 14.5q-51 0 -109 -15l9 51q55 15 114 15q131 0 131 -98q0 -43 -21 -79.5t-63 -71.5l-151 -125h192l-9 -50h-277z" />
    <glyph glyph-name="uni00B3" unicode="&#xb3;" horiz-adv-x="348" 
d="M167 376q-29 0 -57.5 4.5t-54.5 14.5l9 49q26 -9 51.5 -14t51.5 -5q64 0 95.5 23t31.5 74q0 30 -25 44t-82 14h-22l8 42l137 130h-187l8 48h256l-8 -47l-137 -130q57 -4 85.5 -28t28.5 -66q0 -153 -189 -153z" />
    <glyph glyph-name="acute" unicode="&#xb4;" horiz-adv-x="240" 
d="M202 564h-78l141 140h92z" />
    <glyph glyph-name="uni00B5" unicode="&#xb5;" horiz-adv-x="551" 
d="M-9 -208l122 694h80l-51 -289q-5 -28 -5 -52q0 -91 109 -91q121 0 144 129l53 303h80l-85 -486h-60l3 57q-26 -34 -62.5 -51t-86.5 -17q-44 0 -74.5 15.5t-41.5 41.5l-45 -254h-80z" />
    <glyph glyph-name="paragraph" unicode="&#xb6;" horiz-adv-x="593" 
d="M373 -144l133 753h-121l-62 -350h-46q-106 0 -153.5 38t-47.5 120q0 58 18 105t51.5 80.5t80.5 51.5t105 18h254l-144 -816h-68z" />
    <glyph glyph-name="periodcentered" unicode="&#xb7;" horiz-adv-x="231" 
d="M108 194q-47 0 -47 42q0 30 16.5 47t45.5 17q48 0 48 -42q0 -30 -17 -47t-46 -17z" />
    <glyph glyph-name="cedilla" unicode="&#xb8;" horiz-adv-x="240" 
d="M33 -231q-23 0 -46.5 3t-46.5 10l8 46q19 -6 39 -9.5t40 -3.5q34 0 53 14t19 39q0 18 -14 27t-46 9h-7l17 96h57l-11 -60q68 -6 68 -67q0 -49 -34.5 -76.5t-95.5 -27.5z" />
    <glyph glyph-name="uni00B9" unicode="&#xb9;" horiz-adv-x="272" 
d="M225 384h-60l63 359l-115 -41l9 53l128 45h48z" />
    <glyph glyph-name="ordmasculine" unicode="&#xba;" horiz-adv-x="393" 
d="M224 341q-139 0 -139 120q0 103 47.5 161t132.5 58q139 0 139 -120q0 -103 -47.5 -161t-132.5 -58zM227 390q54 0 84.5 44t30.5 120t-80 76q-54 0 -84.5 -43.5t-30.5 -119.5q0 -77 80 -77zM351 228h-308l9 50h308z" />
    <glyph glyph-name="guillemotright" unicode="&#xbb;" horiz-adv-x="495" 
d="M78 50h-77l167 197l-103 189h72l112 -193zM294 50h-77l166 197l-102 189h72l111 -193z" />
    <glyph glyph-name="onequarter" unicode="&#xbc;" horiz-adv-x="864" 
d="M251 256h-60l63 359l-115 -41l9 53l128 45h48zM268 0h-56l416 672h57zM739 0h-55l15 90h-212l8 47l252 279h64l-48 -279h61l-9 -47h-60zM745 349l-192 -212h155z" />
    <glyph glyph-name="onehalf" unicode="&#xbd;" horiz-adv-x="748" 
d="M225 384h-60l63 359l-115 -41l9 53l128 45h48zM172 0h-56l416 672h57zM452 384l8 45l189 154q35 29 53 56t18 57q0 32 -20.5 46.5t-63.5 14.5q-51 0 -109 -15l9 51q55 15 114 15q131 0 131 -98q0 -43 -21 -79.5t-63 -71.5l-151 -125h192l-9 -50h-277z" />
    <glyph glyph-name="threequarters" unicode="&#xbe;" horiz-adv-x="864" 
d="M155 248q-29 0 -57.5 4.5t-54.5 14.5l9 49q26 -9 51.5 -14t51.5 -5q64 0 95.5 23t31.5 74q0 30 -25 44t-82 14h-22l8 42l137 130h-187l8 48h256l-8 -47l-137 -130q57 -4 85.5 -28t28.5 -66q0 -153 -189 -153zM268 0h-56l416 672h57zM739 0h-55l15 90h-212l8 47l252 279
h64l-48 -279h61l-9 -47h-60zM745 349l-192 -212h155z" />
    <glyph glyph-name="questiondown" unicode="&#xbf;" horiz-adv-x="412" 
d="M184 -198q-98 0 -145 34.5t-47 106.5q0 49 16 82t40.5 57t54 42t56 37t46.5 43t26 59l3 19h68l-3 -24q-7 -45 -26.5 -75.5t-44.5 -52.5t-52 -39t-50 -35.5t-37.5 -42.5t-14.5 -59q0 -88 125 -88q34 0 71.5 5.5t79.5 17.5l-11 -64q-39 -13 -78 -18t-77 -5zM286 390
q-46 0 -46 42q0 30 16.5 46.5t45.5 16.5q46 0 46 -41q0 -30 -16.5 -47t-45.5 -17z" />
    <glyph glyph-name="Agrave" unicode="&#xc0;" horiz-adv-x="639" 
d="M50 0h-83q34 80 81.5 174t98.5 186t102 174t93 138h92q22 -56 44 -138t40.5 -174t33 -186t20.5 -174h-82q-4 40 -9 85.5t-13 93.5h-332q-24 -48 -46 -93.5t-40 -85.5zM168 241h290q-9 50 -18.5 100t-20 96t-21.5 87t-22 74q-23 -33 -49 -74t-52.5 -87t-53.5 -96t-53 -100
zM426 750h-74l-78 140h87z" />
    <glyph glyph-name="Aacute" unicode="&#xc1;" horiz-adv-x="639" 
d="M50 0h-83q34 80 81.5 174t98.5 186t102 174t93 138h92q22 -56 44 -138t40.5 -174t33 -186t20.5 -174h-82q-4 40 -9 85.5t-13 93.5h-332q-24 -48 -46 -93.5t-40 -85.5zM168 241h290q-9 50 -18.5 100t-20 96t-21.5 87t-22 74q-23 -33 -49 -74t-52.5 -87t-53.5 -96t-53 -100
zM429 750h-74l117 140h87z" />
    <glyph glyph-name="Acircumflex" unicode="&#xc2;" horiz-adv-x="639" 
d="M50 0h-83q34 80 81.5 174t98.5 186t102 174t93 138h92q22 -56 44 -138t40.5 -174t33 -186t20.5 -174h-82q-4 40 -9 85.5t-13 93.5h-332q-24 -48 -46 -93.5t-40 -85.5zM168 241h290q-9 50 -18.5 100t-20 96t-21.5 87t-22 74q-23 -33 -49 -74t-52.5 -87t-53.5 -96t-53 -100
zM297 715h-73l149 140h80l97 -140h-73l-72 95z" />
    <glyph glyph-name="Atilde" unicode="&#xc3;" horiz-adv-x="639" 
d="M50 0h-83q34 80 81.5 174t98.5 186t102 174t93 138h92q22 -56 44 -138t40.5 -174t33 -186t20.5 -174h-82q-4 40 -9 85.5t-13 93.5h-332q-24 -48 -46 -93.5t-40 -85.5zM168 241h290q-9 50 -18.5 100t-20 96t-21.5 87t-22 74q-23 -33 -49 -74t-52.5 -87t-53.5 -96t-53 -100
zM243 761l2 10q10 54 35.5 78t71.5 24q21 0 36.5 -8t27.5 -17.5t23.5 -17.5t25.5 -8q23 0 34.5 11.5t16.5 39.5l1 7h58l-2 -11q-10 -54 -35.5 -78t-71.5 -24q-21 0 -36.5 8t-28 17.5t-24 17.5t-24.5 8q-23 0 -34.5 -11.5t-16.5 -39.5l-1 -6h-58z" />
    <glyph glyph-name="Adieresis" unicode="&#xc4;" horiz-adv-x="639" 
d="M50 0h-83q34 80 81.5 174t98.5 186t102 174t93 138h92q22 -56 44 -138t40.5 -174t33 -186t20.5 -174h-82q-4 40 -9 85.5t-13 93.5h-332q-24 -48 -46 -93.5t-40 -85.5zM168 241h290q-9 50 -18.5 100t-20 96t-21.5 87t-22 74q-23 -33 -49 -74t-52.5 -87t-53.5 -96t-53 -100
zM504 761q-42 0 -42 38q0 60 58 60q43 0 43 -38q0 -29 -15 -44.5t-44 -15.5zM305 761q-43 0 -43 38q0 60 59 60q42 0 42 -38q0 -29 -14.5 -44.5t-43.5 -15.5z" />
    <glyph glyph-name="Aring" unicode="&#xc5;" horiz-adv-x="639" 
d="M50 0h-83q34 80 81.5 174t98.5 186t102 174t93 138h92q22 -56 44 -138t40.5 -174t33 -186t20.5 -174h-82q-4 40 -9 85.5t-13 93.5h-332q-24 -48 -46 -93.5t-40 -85.5zM168 241h290q-9 50 -18.5 100t-20 96t-21.5 87t-22 74q-23 -33 -49 -74t-52.5 -87t-53.5 -96t-53 -100
zM399 716q-91 0 -91 74q0 54 32 84t86 30q91 0 91 -74q0 -53 -31.5 -83.5t-86.5 -30.5zM403 754q30 0 49 19t19 52q0 42 -49 42q-31 0 -49.5 -19.5t-18.5 -52.5q0 -41 49 -41z" />
    <glyph glyph-name="AE" unicode="&#xc6;" horiz-adv-x="981" 
d="M50 0h-88q69 96 144.5 192.5t150.5 184.5t144.5 164t126.5 131h476l-12 -66h-361l-41 -233h289l-11 -62h-289l-43 -245h369l-12 -66h-452l31 179h-287q-35 -45 -69 -89.5t-66 -89.5zM234 241h249l64 360q-66 -69 -147 -162t-166 -198z" />
    <glyph glyph-name="Ccedilla" unicode="&#xc7;" horiz-adv-x="596" 
d="M267 -231q-23 0 -46.5 3t-46.5 10l8 46q19 -6 39 -9.5t40 -3.5q34 0 53 14t19 39q0 18 -14 27t-46 9h-7l15 87q-110 10 -166 70.5t-56 169.5q0 106 24.5 190.5t70.5 142.5t112.5 89t150.5 31q66 0 121 -11t86 -25l-24 -63q-34 14 -76 23t-99 9q-66 0 -118.5 -25t-89 -73
t-55.5 -117.5t-19 -157.5q0 -189 202 -189q46 0 89.5 6t87.5 17l-13 -69q-41 -9 -83.5 -14.5t-87.5 -6.5l-9 -48q68 -6 68 -67q0 -49 -34.5 -76.5t-95.5 -27.5z" />
    <glyph glyph-name="Egrave" unicode="&#xc8;" horiz-adv-x="583" 
d="M44 0l107 609q1 5 -0.5 7.5t-7.5 5.5l-28 13l14 37h477l-12 -66h-361l-41 -233h289l-11 -62h-289l-43 -245h369l-11 -66h-452zM418 750h-74l-78 140h87z" />
    <glyph glyph-name="Eacute" unicode="&#xc9;" horiz-adv-x="583" 
d="M44 0l107 609q1 5 -0.5 7.5t-7.5 5.5l-28 13l14 37h477l-12 -66h-361l-41 -233h289l-11 -62h-289l-43 -245h369l-11 -66h-452zM421 750h-74l117 140h87z" />
    <glyph glyph-name="Ecircumflex" unicode="&#xca;" horiz-adv-x="583" 
d="M44 0l107 609q1 5 -0.5 7.5t-7.5 5.5l-28 13l14 37h477l-12 -66h-361l-41 -233h289l-11 -62h-289l-43 -245h369l-11 -66h-452zM289 715h-73l149 140h80l97 -140h-73l-72 95z" />
    <glyph glyph-name="Edieresis" unicode="&#xcb;" horiz-adv-x="583" 
d="M44 0l107 609q1 5 -0.5 7.5t-7.5 5.5l-28 13l14 37h477l-12 -66h-361l-41 -233h289l-11 -62h-289l-43 -245h369l-11 -66h-452zM494 761q-42 0 -42 38q0 60 58 60q43 0 43 -38q0 -29 -15 -44.5t-44 -15.5zM295 761q-43 0 -43 38q0 60 59 60q42 0 42 -38q0 -29 -14.5 -44.5
t-43.5 -15.5z" />
    <glyph glyph-name="Igrave" unicode="&#xcc;" horiz-adv-x="253" 
d="M44 0l107 609q1 5 -0.5 7.5t-7.5 5.5l-28 13l14 37h102q6 0 10 -1.5t2 -10.5l-116 -660h-83zM253 750h-74l-78 140h87z" />
    <glyph glyph-name="Iacute" unicode="&#xcd;" horiz-adv-x="253" 
d="M44 0l107 609q1 5 -0.5 7.5t-7.5 5.5l-28 13l14 37h102q6 0 10 -1.5t2 -10.5l-116 -660h-83zM256 750h-74l117 140h87z" />
    <glyph glyph-name="Icircumflex" unicode="&#xce;" horiz-adv-x="253" 
d="M44 0l107 609q1 5 -0.5 7.5t-7.5 5.5l-28 13l14 37h102q6 0 10 -1.5t2 -10.5l-116 -660h-83zM124 740h-76l146 140h80l98 -140h-68l-74 95z" />
    <glyph glyph-name="Idieresis" unicode="&#xcf;" horiz-adv-x="253" 
d="M44 0l107 609q1 5 -0.5 7.5t-7.5 5.5l-28 13l14 37h102q6 0 10 -1.5t2 -10.5l-116 -660h-83zM316 761q-42 0 -42 38q0 60 58 60q43 0 43 -38q0 -29 -15 -44.5t-44 -15.5zM117 761q-43 0 -43 38q0 60 59 60q42 0 42 -38q0 -29 -14.5 -44.5t-43.5 -15.5z" />
    <glyph glyph-name="Eth" unicode="&#xd0;" horiz-adv-x="712" 
d="M64 0l55 312h-79l10 60h79l42 237q1 5 -0.5 7.5t-7.5 5.5l-28 13l14 37h231q157 0 231.5 -59.5t74.5 -183.5q0 -209 -100 -319t-292 -110h-230zM158 66h139q150 0 227.5 91t77.5 266q0 96 -55.5 139.5t-176.5 43.5h-117l-41 -234h181l-10 -60h-182z" />
    <glyph glyph-name="Ntilde" unicode="&#xd1;" horiz-adv-x="716" 
d="M44 0l107 609q1 9 -8 13l-28 13l14 37h95q14 0 19 -2.5t10 -13.5l280 -542l98 558h77l-118 -672h-83l-287 558l-99 -558h-77zM291 751l2 14q8 52 31.5 75t68.5 23q20 0 36 -8t30.5 -17.5t27.5 -17.5t27 -8q20 0 31.5 11t15.5 37l2 10h59l-2 -14q-7 -53 -30.5 -76
t-68.5 -23q-20 0 -36 8t-30.5 17.5t-27.5 17.5t-27 8q-20 0 -31.5 -11t-16.5 -37l-1 -9h-60z" />
    <glyph glyph-name="Ograve" unicode="&#xd2;" horiz-adv-x="713" 
d="M329 -12q-134 0 -202 61.5t-68 181.5q0 106 24.5 190.5t70.5 142.5t112.5 89t150.5 31q134 0 202 -61.5t68 -181.5q0 -107 -24.5 -191t-70.5 -142t-112.5 -89t-150.5 -31zM333 55q63 0 113 25.5t85 74.5t53.5 118.5t18.5 158.5q0 185 -190 185q-63 0 -113 -25.5
t-85 -74.5t-53.5 -119t-18.5 -158q0 -185 190 -185zM483 750h-74l-78 140h87z" />
    <glyph glyph-name="Oacute" unicode="&#xd3;" horiz-adv-x="713" 
d="M329 -12q-134 0 -202 61.5t-68 181.5q0 106 24.5 190.5t70.5 142.5t112.5 89t150.5 31q134 0 202 -61.5t68 -181.5q0 -107 -24.5 -191t-70.5 -142t-112.5 -89t-150.5 -31zM333 55q63 0 113 25.5t85 74.5t53.5 118.5t18.5 158.5q0 185 -190 185q-63 0 -113 -25.5
t-85 -74.5t-53.5 -119t-18.5 -158q0 -185 190 -185zM486 750h-74l117 140h87z" />
    <glyph glyph-name="Ocircumflex" unicode="&#xd4;" horiz-adv-x="713" 
d="M329 -12q-134 0 -202 61.5t-68 181.5q0 106 24.5 190.5t70.5 142.5t112.5 89t150.5 31q134 0 202 -61.5t68 -181.5q0 -107 -24.5 -191t-70.5 -142t-112.5 -89t-150.5 -31zM333 55q63 0 113 25.5t85 74.5t53.5 118.5t18.5 158.5q0 185 -190 185q-63 0 -113 -25.5
t-85 -74.5t-53.5 -119t-18.5 -158q0 -185 190 -185zM354 715h-73l149 140h80l97 -140h-73l-72 95z" />
    <glyph glyph-name="Otilde" unicode="&#xd5;" horiz-adv-x="713" 
d="M329 -12q-134 0 -202 61.5t-68 181.5q0 106 24.5 190.5t70.5 142.5t112.5 89t150.5 31q134 0 202 -61.5t68 -181.5q0 -107 -24.5 -191t-70.5 -142t-112.5 -89t-150.5 -31zM333 55q63 0 113 25.5t85 74.5t53.5 118.5t18.5 158.5q0 185 -190 185q-63 0 -113 -25.5
t-85 -74.5t-53.5 -119t-18.5 -158q0 -185 190 -185zM300 761l2 10q10 54 35.5 78t71.5 24q21 0 36.5 -8t27.5 -17.5t23.5 -17.5t25.5 -8q23 0 34.5 11.5t16.5 39.5l1 7h58l-2 -11q-10 -54 -35.5 -78t-71.5 -24q-21 0 -36.5 8t-28 17.5t-24 17.5t-24.5 8q-23 0 -34.5 -11.5
t-16.5 -39.5l-1 -6h-58z" />
    <glyph glyph-name="Odieresis" unicode="&#xd6;" horiz-adv-x="713" 
d="M329 -12q-134 0 -202 61.5t-68 181.5q0 106 24.5 190.5t70.5 142.5t112.5 89t150.5 31q134 0 202 -61.5t68 -181.5q0 -107 -24.5 -191t-70.5 -142t-112.5 -89t-150.5 -31zM333 55q63 0 113 25.5t85 74.5t53.5 118.5t18.5 158.5q0 185 -190 185q-63 0 -113 -25.5
t-85 -74.5t-53.5 -119t-18.5 -158q0 -185 190 -185zM545 761q-42 0 -42 38q0 60 58 60q43 0 43 -38q0 -29 -15 -44.5t-44 -15.5zM346 761q-43 0 -43 38q0 60 59 60q42 0 42 -38q0 -29 -14.5 -44.5t-43.5 -15.5z" />
    <glyph glyph-name="multiply" unicode="&#xd7;" 
d="M295 240l-150 -150l-48 48l150 150l-150 150l48 48l150 -150l150 150l48 -48l-150 -150l150 -150l-48 -48z" />
    <glyph glyph-name="Oslash" unicode="&#xd8;" horiz-adv-x="713" 
d="M11 -32l94 106q-46 60 -46 157q0 106 24.5 190.5t70.5 142.5t112.5 89t150.5 31q119 0 187 -51l63 71h68l-95 -106q47 -61 47 -157q0 -107 -24.5 -191t-70.5 -142t-112.5 -89t-150.5 -31q-120 0 -188 50l-62 -70h-68zM332 52q64 0 115.5 26t87.5 75.5t55 120.5t19 160
q0 62 -23 103l-395 -443q49 -42 141 -42zM159 134l395 443q-49 43 -140 43q-65 0 -116 -26t-87 -75.5t-55 -120.5t-19 -160q0 -63 22 -104z" />
    <glyph glyph-name="Ugrave" unicode="&#xd9;" horiz-adv-x="716" 
d="M320 -12q-55 0 -99 13t-75 38t-47.5 59.5t-16.5 78.5q0 21 2 43t6 45l61 344q1 5 -0.5 7.5t-7.5 5.5l-28 13l14 37h116l-72 -407q-3 -19 -5 -38.5t-2 -36.5q0 -62 43.5 -98.5t117.5 -36.5q101 0 153 43.5t69 140.5l76 433h83l-77 -439q-11 -65 -34.5 -111.5t-61.5 -76
t-91.5 -43.5t-123.5 -14zM484 750h-74l-78 140h87z" />
    <glyph glyph-name="Uacute" unicode="&#xda;" horiz-adv-x="716" 
d="M320 -12q-55 0 -99 13t-75 38t-47.5 59.5t-16.5 78.5q0 21 2 43t6 45l61 344q1 5 -0.5 7.5t-7.5 5.5l-28 13l14 37h116l-72 -407q-3 -19 -5 -38.5t-2 -36.5q0 -62 43.5 -98.5t117.5 -36.5q101 0 153 43.5t69 140.5l76 433h83l-77 -439q-11 -65 -34.5 -111.5t-61.5 -76
t-91.5 -43.5t-123.5 -14zM487 750h-74l117 140h87z" />
    <glyph glyph-name="Ucircumflex" unicode="&#xdb;" horiz-adv-x="716" 
d="M320 -12q-55 0 -99 13t-75 38t-47.5 59.5t-16.5 78.5q0 21 2 43t6 45l61 344q1 5 -0.5 7.5t-7.5 5.5l-28 13l14 37h116l-72 -407q-3 -19 -5 -38.5t-2 -36.5q0 -62 43.5 -98.5t117.5 -36.5q101 0 153 43.5t69 140.5l76 433h83l-77 -439q-11 -65 -34.5 -111.5t-61.5 -76
t-91.5 -43.5t-123.5 -14zM356 740h-76l146 140h80l98 -140h-68l-74 95z" />
    <glyph glyph-name="Udieresis" unicode="&#xdc;" horiz-adv-x="716" 
d="M320 -12q-55 0 -99 13t-75 38t-47.5 59.5t-16.5 78.5q0 21 2 43t6 45l61 344q1 5 -0.5 7.5t-7.5 5.5l-28 13l14 37h116l-72 -407q-3 -19 -5 -38.5t-2 -36.5q0 -62 43.5 -98.5t117.5 -36.5q101 0 153 43.5t69 140.5l76 433h83l-77 -439q-11 -65 -34.5 -111.5t-61.5 -76
t-91.5 -43.5t-123.5 -14zM548 761q-42 0 -42 38q0 60 58 60q43 0 43 -38q0 -29 -15 -44.5t-44 -15.5zM349 761q-43 0 -43 38q0 60 59 60q42 0 42 -38q0 -29 -14.5 -44.5t-43.5 -15.5z" />
    <glyph glyph-name="Yacute" unicode="&#xdd;" horiz-adv-x="591" 
d="M294 0h-83l51 295l-171 377h85l137 -311l244 311h94l-307 -387zM425 750h-74l117 140h87z" />
    <glyph glyph-name="Thorn" unicode="&#xde;" horiz-adv-x="620" 
d="M44 0l107 609q1 5 -0.5 7.5t-7.5 5.5l-28 13l14 37h113l-22 -123h165q112 0 164 -38t52 -118q0 -128 -68 -193t-202 -65h-184l-23 -135h-80zM159 201h172q188 0 188 180q0 53 -35 77.5t-110 24.5h-165z" />
    <glyph glyph-name="germandbls" unicode="&#xdf;" horiz-adv-x="551" 
d="M272 -12q-25 0 -51 2.5t-51 7.5l11 62q21 -4 41.5 -6t40.5 -2q79 0 125 46.5t46 127.5q0 59 -33 85t-106 26h-29l12 62h32q36 0 63.5 12t46.5 33.5t29 51.5t10 65q0 91 -108 91q-66 0 -104.5 -34.5t-51.5 -109.5l-90 -508h-77l91 517q34 199 239 199q178 0 178 -145
q0 -72 -32 -126t-90 -73q49 -11 74 -47.5t25 -95.5q0 -113 -64 -177t-177 -64z" />
    <glyph glyph-name="agrave" unicode="&#xe0;" horiz-adv-x="557" 
d="M215 -12q-85 0 -130.5 44t-45.5 126q0 78 17 141t48 107t75.5 68t99.5 24q58 0 98 -17.5t66 -40.5l14 46h65l-73 -418q-1 -10 6 -14l28 -13l-15 -41h-74q-8 0 -11 1.5t-3 9.5v47q-70 -70 -165 -70zM238 52q127 0 150 126l38 215q-8 6 -21 13t-30.5 13t-38 10.5t-43.5 4.5
q-40 0 -71.5 -18.5t-54 -53t-34.5 -83.5t-12 -109q0 -58 30 -88t87 -30zM370 564h-74l-78 140h87z" />
    <glyph glyph-name="aacute" unicode="&#xe1;" horiz-adv-x="557" 
d="M215 -12q-85 0 -130.5 44t-45.5 126q0 78 17 141t48 107t75.5 68t99.5 24q58 0 98 -17.5t66 -40.5l14 46h65l-73 -418q-1 -10 6 -14l28 -13l-15 -41h-74q-8 0 -11 1.5t-3 9.5v47q-70 -70 -165 -70zM238 52q127 0 150 126l38 215q-8 6 -21 13t-30.5 13t-38 10.5t-43.5 4.5
q-40 0 -71.5 -18.5t-54 -53t-34.5 -83.5t-12 -109q0 -58 30 -88t87 -30zM373 564h-74l117 140h87z" />
    <glyph glyph-name="acircumflex" unicode="&#xe2;" horiz-adv-x="557" 
d="M215 -12q-85 0 -130.5 44t-45.5 126q0 78 17 141t48 107t75.5 68t99.5 24q58 0 98 -17.5t66 -40.5l14 46h65l-73 -418q-1 -10 6 -14l28 -13l-15 -41h-74q-8 0 -11 1.5t-3 9.5v47q-70 -70 -165 -70zM238 52q127 0 150 126l38 215q-8 6 -21 13t-30.5 13t-38 10.5t-43.5 4.5
q-40 0 -71.5 -18.5t-54 -53t-34.5 -83.5t-12 -109q0 -58 30 -88t87 -30zM241 529h-73l149 140h80l97 -140h-73l-72 95z" />
    <glyph glyph-name="atilde" unicode="&#xe3;" horiz-adv-x="557" 
d="M215 -12q-85 0 -130.5 44t-45.5 126q0 78 17 141t48 107t75.5 68t99.5 24q58 0 98 -17.5t66 -40.5l14 46h65l-73 -418q-1 -10 6 -14l28 -13l-15 -41h-74q-8 0 -11 1.5t-3 9.5v47q-70 -70 -165 -70zM238 52q127 0 150 126l38 215q-8 6 -21 13t-30.5 13t-38 10.5t-43.5 4.5
q-40 0 -71.5 -18.5t-54 -53t-34.5 -83.5t-12 -109q0 -58 30 -88t87 -30zM187 575l2 10q10 54 35.5 78t71.5 24q21 0 36.5 -8t27.5 -17.5t23.5 -17.5t25.5 -8q23 0 34.5 11.5t16.5 39.5l1 7h58l-2 -11q-10 -54 -35.5 -78t-71.5 -24q-21 0 -36.5 8t-28 17.5t-24 17.5t-24.5 8
q-23 0 -34.5 -11.5t-16.5 -39.5l-1 -6h-58z" />
    <glyph glyph-name="adieresis" unicode="&#xe4;" horiz-adv-x="557" 
d="M215 -12q-85 0 -130.5 44t-45.5 126q0 78 17 141t48 107t75.5 68t99.5 24q58 0 98 -17.5t66 -40.5l14 46h65l-73 -418q-1 -10 6 -14l28 -13l-15 -41h-74q-8 0 -11 1.5t-3 9.5v47q-70 -70 -165 -70zM238 52q127 0 150 126l38 215q-8 6 -21 13t-30.5 13t-38 10.5t-43.5 4.5
q-40 0 -71.5 -18.5t-54 -53t-34.5 -83.5t-12 -109q0 -58 30 -88t87 -30zM424 585q-42 0 -42 38q0 60 58 60q43 0 43 -38q0 -29 -15 -44.5t-44 -15.5zM225 585q-43 0 -43 38q0 60 59 60q42 0 42 -38q0 -29 -14.5 -44.5t-43.5 -15.5z" />
    <glyph glyph-name="aring" unicode="&#xe5;" horiz-adv-x="557" 
d="M215 -12q-85 0 -130.5 44t-45.5 126q0 78 17 141t48 107t75.5 68t99.5 24q58 0 98 -17.5t66 -40.5l14 46h65l-73 -418q-1 -10 6 -14l28 -13l-15 -41h-74q-8 0 -11 1.5t-3 9.5v47q-70 -70 -165 -70zM238 52q127 0 150 126l38 215q-8 6 -21 13t-30.5 13t-38 10.5t-43.5 4.5
q-40 0 -71.5 -18.5t-54 -53t-34.5 -83.5t-12 -109q0 -58 30 -88t87 -30zM320 540q-91 0 -91 74q0 54 32 84t86 30q91 0 91 -74q0 -53 -31.5 -83.5t-86.5 -30.5zM324 578q30 0 49 19t19 52q0 42 -49 42q-31 0 -49.5 -19.5t-18.5 -52.5q0 -41 49 -41z" />
    <glyph glyph-name="ae" unicode="&#xe6;" horiz-adv-x="853" 
d="M196 -12q-84 0 -127.5 31t-43.5 90q0 164 205 164q42 0 78.5 -7t67.5 -19l9 53q5 25 5 48q0 44 -33 65.5t-96 21.5q-35 0 -70 -4t-73 -15l11 63q73 19 150 19q139 0 167 -88q31 44 77 66t104 22q95 0 141 -42t46 -131q0 -52 -14 -105h-352q-3 -24 -3 -55q3 -54 43.5 -84
t112.5 -30q38 0 76.5 4.5t77.5 15.5l-11 -64q-70 -19 -152 -19q-78 0 -129 26t-73 75q-26 -48 -76 -74.5t-118 -26.5zM213 46q60 0 98 27t47 73l9 48q-56 24 -127 24q-69 0 -103 -24t-34 -76q0 -35 28 -53.5t82 -18.5zM457 275h275q6 24 6 53q0 57 -27.5 84.5t-87.5 27.5
q-67 0 -109.5 -42.5t-56.5 -122.5z" />
    <glyph glyph-name="ccedilla" unicode="&#xe7;" horiz-adv-x="455" 
d="M177 -231q-23 0 -46.5 3t-46.5 10l8 46q19 -6 39 -9.5t40 -3.5q34 0 53 14t19 39q0 18 -14 27t-46 9h-7l15 88q-153 20 -153 174q0 77 18.5 138.5t53 104.5t84 66t112.5 23q80 0 151 -23l-11 -65q-32 11 -65 17.5t-68 6.5q-92 0 -142.5 -68t-50.5 -189q0 -125 138 -125
q65 0 128 16l-12 -65q-30 -8 -61.5 -11t-64.5 -4l-9 -48q68 -6 68 -67q0 -49 -34.5 -76.5t-95.5 -27.5z" />
    <glyph glyph-name="egrave" unicode="&#xe8;" horiz-adv-x="523" 
d="M263 -12q-112 0 -168.5 45t-56.5 133q0 78 17.5 139.5t51 104.5t81.5 65.5t109 22.5q96 0 141.5 -42t45.5 -131q0 -52 -14 -105h-352q-2 -11 -2 -25.5t1 -29.5q2 -57 41 -85.5t113 -28.5q38 0 77 4.5t77 15.5l-11 -64q-70 -19 -151 -19zM127 275h276q6 24 6 53
q0 57 -27.5 84.5t-87.5 27.5q-67 0 -110 -42.5t-57 -122.5zM353 564h-74l-78 140h87z" />
    <glyph glyph-name="eacute" unicode="&#xe9;" horiz-adv-x="523" 
d="M263 -12q-112 0 -168.5 45t-56.5 133q0 78 17.5 139.5t51 104.5t81.5 65.5t109 22.5q96 0 141.5 -42t45.5 -131q0 -52 -14 -105h-352q-2 -11 -2 -25.5t1 -29.5q2 -57 41 -85.5t113 -28.5q38 0 77 4.5t77 15.5l-11 -64q-70 -19 -151 -19zM127 275h276q6 24 6 53
q0 57 -27.5 84.5t-87.5 27.5q-67 0 -110 -42.5t-57 -122.5zM356 564h-74l117 140h87z" />
    <glyph glyph-name="ecircumflex" unicode="&#xea;" horiz-adv-x="523" 
d="M263 -12q-112 0 -168.5 45t-56.5 133q0 78 17.5 139.5t51 104.5t81.5 65.5t109 22.5q96 0 141.5 -42t45.5 -131q0 -52 -14 -105h-352q-2 -11 -2 -25.5t1 -29.5q2 -57 41 -85.5t113 -28.5q38 0 77 4.5t77 15.5l-11 -64q-70 -19 -151 -19zM127 275h276q6 24 6 53
q0 57 -27.5 84.5t-87.5 27.5q-67 0 -110 -42.5t-57 -122.5zM224 529h-73l149 140h80l97 -140h-73l-72 95z" />
    <glyph glyph-name="edieresis" unicode="&#xeb;" horiz-adv-x="523" 
d="M263 -12q-112 0 -168.5 45t-56.5 133q0 78 17.5 139.5t51 104.5t81.5 65.5t109 22.5q96 0 141.5 -42t45.5 -131q0 -52 -14 -105h-352q-2 -11 -2 -25.5t1 -29.5q2 -57 41 -85.5t113 -28.5q38 0 77 4.5t77 15.5l-11 -64q-70 -19 -151 -19zM127 275h276q6 24 6 53
q0 57 -27.5 84.5t-87.5 27.5q-67 0 -110 -42.5t-57 -122.5zM417 585q-42 0 -42 38q0 60 58 60q43 0 43 -38q0 -29 -15 -44.5t-44 -15.5zM218 585q-43 0 -43 38q0 60 59 60q42 0 42 -38q0 -29 -14.5 -44.5t-43.5 -15.5z" />
    <glyph glyph-name="igrave" unicode="&#xec;" horiz-adv-x="237" 
d="M40 0l72 412q2 10 1.5 13.5t-8.5 7.5l-26 12l16 41h96q6 0 10 -1.5t2 -10.5l-83 -474h-80zM210 564h-74l-78 140h87z" />
    <glyph glyph-name="iacute" unicode="&#xed;" horiz-adv-x="237" 
d="M40 0l72 412q2 10 1.5 13.5t-8.5 7.5l-26 12l16 41h96q6 0 10 -1.5t2 -10.5l-83 -474h-80zM213 564h-74l117 140h87z" />
    <glyph glyph-name="icircumflex" unicode="&#xee;" horiz-adv-x="237" 
d="M40 0l72 412q2 10 1.5 13.5t-8.5 7.5l-26 12l16 41h96q6 0 10 -1.5t2 -10.5l-83 -474h-80zM89 564h-76l146 140h80l98 -140h-68l-74 95z" />
    <glyph glyph-name="idieresis" unicode="&#xef;" horiz-adv-x="237" 
d="M40 0l72 412q2 10 1.5 13.5t-8.5 7.5l-26 12l16 41h96q6 0 10 -1.5t2 -10.5l-83 -474h-80zM281 585q-42 0 -42 38q0 60 58 60q43 0 43 -38q0 -29 -15 -44.5t-44 -15.5zM82 585q-43 0 -43 38q0 60 59 60q42 0 42 -38q0 -29 -14.5 -44.5t-43.5 -15.5z" />
    <glyph glyph-name="eth" unicode="&#xf0;" horiz-adv-x="551" 
d="M236 -12q-98 0 -147 45.5t-49 132.5q0 73 17.5 132t49.5 101t77.5 64.5t102.5 22.5q50 0 89.5 -19t59.5 -54q0 64 -16.5 109.5t-53.5 75.5l-55 -55h-76l84 84q-44 20 -113 29l10 60q46 -5 84 -14.5t69 -24.5l49 49h76l-77 -77q51 -39 74.5 -101.5t23.5 -153.5
q0 -201 -72.5 -303.5t-206.5 -102.5zM240 49q42 0 76 18t58 51t37 80t13 106q0 61 -32.5 91t-92.5 30q-41 0 -74.5 -18t-56.5 -51t-35.5 -80t-12.5 -104q0 -123 120 -123z" />
    <glyph glyph-name="ntilde" unicode="&#xf1;" horiz-adv-x="561" 
d="M35 0l72 412q2 10 1.5 13.5t-8.5 7.5l-26 12l16 41h96q6 0 10 -1.5t2 -10.5l-6 -33q29 27 65 42t86 15q77 0 118.5 -37.5t41.5 -106.5q0 -17 -2 -32.5t-5 -31.5l-39 -222q-1 -10 6 -14l28 -13l-15 -41h-98q-6 0 -9.5 1.5t-1.5 9.5l50 279q5 28 5 51q0 91 -104 91
q-43 0 -79 -15t-56 -28l-68 -389h-80zM186 575l2 14q8 52 31.5 75t68.5 23q20 0 36 -8t30.5 -17.5t27.5 -17.5t27 -8q20 0 31.5 11t15.5 37l2 10h59l-2 -14q-7 -53 -30.5 -76t-68.5 -23q-20 0 -36 8t-30.5 17.5t-27.5 17.5t-27 8q-20 0 -31.5 -11t-16.5 -37l-1 -9h-60z" />
    <glyph glyph-name="ograve" unicode="&#xf2;" horiz-adv-x="545" 
d="M241 -12q-204 0 -204 178q0 77 18 138.5t52.5 104.5t84.5 66t113 23q101 0 152 -45t51 -133q0 -77 -18 -138.5t-52.5 -104.5t-84 -66t-112.5 -23zM245 52q42 0 76 18t57 52t35.5 81.5t12.5 107.5q0 123 -126 123q-42 0 -76 -18t-57 -52t-35.5 -81.5t-12.5 -107.5
q0 -123 126 -123zM364 564h-74l-78 140h87z" />
    <glyph glyph-name="oacute" unicode="&#xf3;" horiz-adv-x="545" 
d="M241 -12q-204 0 -204 178q0 77 18 138.5t52.5 104.5t84.5 66t113 23q101 0 152 -45t51 -133q0 -77 -18 -138.5t-52.5 -104.5t-84 -66t-112.5 -23zM245 52q42 0 76 18t57 52t35.5 81.5t12.5 107.5q0 123 -126 123q-42 0 -76 -18t-57 -52t-35.5 -81.5t-12.5 -107.5
q0 -123 126 -123zM367 564h-74l117 140h87z" />
    <glyph glyph-name="ocircumflex" unicode="&#xf4;" horiz-adv-x="545" 
d="M241 -12q-204 0 -204 178q0 77 18 138.5t52.5 104.5t84.5 66t113 23q101 0 152 -45t51 -133q0 -77 -18 -138.5t-52.5 -104.5t-84 -66t-112.5 -23zM245 52q42 0 76 18t57 52t35.5 81.5t12.5 107.5q0 123 -126 123q-42 0 -76 -18t-57 -52t-35.5 -81.5t-12.5 -107.5
q0 -123 126 -123zM235 529h-73l149 140h80l97 -140h-73l-72 95z" />
    <glyph glyph-name="otilde" unicode="&#xf5;" horiz-adv-x="545" 
d="M241 -12q-204 0 -204 178q0 77 18 138.5t52.5 104.5t84.5 66t113 23q101 0 152 -45t51 -133q0 -77 -18 -138.5t-52.5 -104.5t-84 -66t-112.5 -23zM245 52q42 0 76 18t57 52t35.5 81.5t12.5 107.5q0 123 -126 123q-42 0 -76 -18t-57 -52t-35.5 -81.5t-12.5 -107.5
q0 -123 126 -123zM181 575l2 10q10 54 35.5 78t71.5 24q21 0 36.5 -8t27.5 -17.5t23.5 -17.5t25.5 -8q23 0 34.5 11.5t16.5 39.5l1 7h58l-2 -11q-10 -54 -35.5 -78t-71.5 -24q-21 0 -36.5 8t-28 17.5t-24 17.5t-24.5 8q-23 0 -34.5 -11.5t-16.5 -39.5l-1 -6h-58z" />
    <glyph glyph-name="odieresis" unicode="&#xf6;" horiz-adv-x="545" 
d="M241 -12q-204 0 -204 178q0 77 18 138.5t52.5 104.5t84.5 66t113 23q101 0 152 -45t51 -133q0 -77 -18 -138.5t-52.5 -104.5t-84 -66t-112.5 -23zM245 52q42 0 76 18t57 52t35.5 81.5t12.5 107.5q0 123 -126 123q-42 0 -76 -18t-57 -52t-35.5 -81.5t-12.5 -107.5
q0 -123 126 -123zM431 585q-42 0 -42 38q0 60 58 60q43 0 43 -38q0 -29 -15 -44.5t-44 -15.5zM232 585q-43 0 -43 38q0 60 59 60q42 0 42 -38q0 -29 -14.5 -44.5t-43.5 -15.5z" />
    <glyph glyph-name="divide" unicode="&#xf7;" 
d="M295 66q-25 0 -36 10.5t-11 35.5t11 35.5t36 10.5q26 0 37 -10.5t11 -35.5t-11 -35.5t-37 -10.5zM295 418q-25 0 -36 10.5t-11 35.5t11 35.5t36 10.5q26 0 37 -10.5t11 -35.5t-11 -35.5t-37 -10.5zM509 257h-428v62h428v-62z" />
    <glyph glyph-name="oslash" unicode="&#xf8;" horiz-adv-x="545" 
d="M-1 -32l73 82q-35 44 -35 116q0 77 18 138.5t52.5 104.5t84.5 66t113 23q84 0 134 -33l47 53h60l-73 -83q35 -44 35 -115q0 -77 -18 -138.5t-52.5 -104.5t-84 -66t-112.5 -23q-84 0 -136 32l-46 -52h-60zM244 46q44 0 79.5 18.5t60 53t38 83.5t13.5 109q0 20 -3.5 37
t-9.5 31l-271 -307q32 -25 93 -25zM123 108l271 306q-34 26 -93 26q-44 0 -79.5 -19t-60 -53.5t-38 -83t-13.5 -108.5q0 -42 13 -68z" />
    <glyph glyph-name="ugrave" unicode="&#xf9;" horiz-adv-x="554" 
d="M239 -12q-84 0 -132 37.5t-48 103.5q0 32 6 64l38 219q2 10 1.5 13.5t-8.5 7.5l-25 12l16 41h95q6 0 10 -1.5t2 -10.5l-49 -281q-2 -13 -3.5 -26t-1.5 -25q0 -42 28.5 -66t78.5 -24q65 0 99.5 29t45.5 94l54 311h80l-55 -317q-16 -95 -71.5 -138t-160.5 -43zM368 564h-74
l-78 140h87z" />
    <glyph glyph-name="uacute" unicode="&#xfa;" horiz-adv-x="554" 
d="M239 -12q-84 0 -132 37.5t-48 103.5q0 32 6 64l38 219q2 10 1.5 13.5t-8.5 7.5l-25 12l16 41h95q6 0 10 -1.5t2 -10.5l-49 -281q-2 -13 -3.5 -26t-1.5 -25q0 -42 28.5 -66t78.5 -24q65 0 99.5 29t45.5 94l54 311h80l-55 -317q-16 -95 -71.5 -138t-160.5 -43zM371 564h-74
l117 140h87z" />
    <glyph glyph-name="ucircumflex" unicode="&#xfb;" horiz-adv-x="554" 
d="M239 -12q-84 0 -132 37.5t-48 103.5q0 32 6 64l38 219q2 10 1.5 13.5t-8.5 7.5l-25 12l16 41h95q6 0 10 -1.5t2 -10.5l-49 -281q-2 -13 -3.5 -26t-1.5 -25q0 -42 28.5 -66t78.5 -24q65 0 99.5 29t45.5 94l54 311h80l-55 -317q-16 -95 -71.5 -138t-160.5 -43zM245 564h-76
l146 140h80l98 -140h-68l-74 95z" />
    <glyph glyph-name="udieresis" unicode="&#xfc;" horiz-adv-x="554" 
d="M239 -12q-84 0 -132 37.5t-48 103.5q0 32 6 64l38 219q2 10 1.5 13.5t-8.5 7.5l-25 12l16 41h95q6 0 10 -1.5t2 -10.5l-49 -281q-2 -13 -3.5 -26t-1.5 -25q0 -42 28.5 -66t78.5 -24q65 0 99.5 29t45.5 94l54 311h80l-55 -317q-16 -95 -71.5 -138t-160.5 -43zM437 585
q-42 0 -42 38q0 60 58 60q43 0 43 -38q0 -29 -15 -44.5t-44 -15.5zM238 585q-43 0 -43 38q0 60 59 60q42 0 42 -38q0 -29 -14.5 -44.5t-43.5 -15.5z" />
    <glyph glyph-name="yacute" unicode="&#xfd;" horiz-adv-x="558" 
d="M188 -220q-26 0 -51 3t-43 8l11 63q23 -6 45 -8t37 -2q43 0 73.5 10.5t50.5 29t31 43t16 52.5l12 67q-25 -27 -60.5 -42.5t-80.5 -15.5q-80 0 -125 37.5t-45 103.5q0 32 6 64l38 219q2 10 1.5 13.5t-8.5 7.5l-25 12l16 41h95q6 0 10 -1.5t2 -10.5l-49 -281
q-2 -13 -3.5 -26t-1.5 -25q0 -42 28.5 -66t78.5 -24q60 0 97.5 31.5t48.5 94.5l53 308h80l-86 -501q-8 -47 -26 -85t-48.5 -64.5t-74 -41t-103.5 -14.5zM373 564h-74l117 140h87z" />
    <glyph glyph-name="thorn" unicode="&#xfe;" horiz-adv-x="556" 
d="M-2 -208l148 838q2 10 1.5 13.5t-8.5 7.5l-26 12l16 41h96q6 0 10 -1.5t2 -10.5l-45 -253q25 28 63.5 43.5t87.5 15.5q85 0 130 -44.5t45 -125.5q0 -78 -17 -141t-48.5 -107t-77 -68t-102.5 -24q-54 0 -91 15.5t-59 42.5l-45 -254h-80zM264 52q40 0 71.5 18.5t54 53
t34.5 83.5t12 109q0 58 -30 88t-87 30q-127 0 -150 -126l-37 -208q26 -20 58 -34t74 -14z" />
    <glyph glyph-name="ydieresis" unicode="&#xff;" horiz-adv-x="558" 
d="M188 -220q-26 0 -51 3t-43 8l11 63q23 -6 45 -8t37 -2q43 0 73.5 10.5t50.5 29t31 43t16 52.5l12 67q-25 -27 -60.5 -42.5t-80.5 -15.5q-80 0 -125 37.5t-45 103.5q0 32 6 64l38 219q2 10 1.5 13.5t-8.5 7.5l-25 12l16 41h95q6 0 10 -1.5t2 -10.5l-49 -281
q-2 -13 -3.5 -26t-1.5 -25q0 -42 28.5 -66t78.5 -24q60 0 97.5 31.5t48.5 94.5l53 308h80l-86 -501q-8 -47 -26 -85t-48.5 -64.5t-74 -41t-103.5 -14.5zM396 585q-42 0 -42 38q0 60 58 60q43 0 43 -38q0 -29 -15 -44.5t-44 -15.5zM197 585q-43 0 -43 38q0 60 59 60
q42 0 42 -38q0 -29 -14.5 -44.5t-43.5 -15.5z" />
    <glyph glyph-name="Amacron" unicode="&#x100;" horiz-adv-x="639" 
d="M50 0h-83q34 80 81.5 174t98.5 186t102 174t93 138h92q22 -56 44 -138t40.5 -174t33 -186t20.5 -174h-82q-4 40 -9 85.5t-13 93.5h-332q-24 -48 -46 -93.5t-40 -85.5zM168 241h290q-9 50 -18.5 100t-20 96t-21.5 87t-22 74q-23 -33 -49 -74t-52.5 -87t-53.5 -96t-53 -100
zM558 782h-301l10 57h301z" />
    <glyph glyph-name="amacron" unicode="&#x101;" horiz-adv-x="557" 
d="M215 -12q-85 0 -130.5 44t-45.5 126q0 78 17 141t48 107t75.5 68t99.5 24q58 0 98 -17.5t66 -40.5l14 46h65l-73 -418q-1 -10 6 -14l28 -13l-15 -41h-74q-8 0 -11 1.5t-3 9.5v47q-70 -70 -165 -70zM238 52q127 0 150 126l38 215q-8 6 -21 13t-30.5 13t-38 10.5t-43.5 4.5
q-40 0 -71.5 -18.5t-54 -53t-34.5 -83.5t-12 -109q0 -58 30 -88t87 -30zM477 606h-301l10 57h301z" />
    <glyph glyph-name="Abreve" unicode="&#x102;" horiz-adv-x="639" 
d="M50 0h-83q34 80 81.5 174t98.5 186t102 174t93 138h92q22 -56 44 -138t40.5 -174t33 -186t20.5 -174h-82q-4 40 -9 85.5t-13 93.5h-332q-24 -48 -46 -93.5t-40 -85.5zM168 241h290q-9 50 -18.5 100t-20 96t-21.5 87t-22 74q-23 -33 -49 -74t-52.5 -87t-53.5 -96t-53 -100
zM394 741q-80 0 -109.5 35t-14.5 114h58q-10 -51 7.5 -72.5t68.5 -21.5t76.5 21.5t35.5 72.5h58q-15 -79 -57.5 -114t-122.5 -35z" />
    <glyph glyph-name="abreve" unicode="&#x103;" horiz-adv-x="557" 
d="M215 -12q-85 0 -130.5 44t-45.5 126q0 78 17 141t48 107t75.5 68t99.5 24q58 0 98 -17.5t66 -40.5l14 46h65l-73 -418q-1 -10 6 -14l28 -13l-15 -41h-74q-8 0 -11 1.5t-3 9.5v47q-70 -70 -165 -70zM238 52q127 0 150 126l38 215q-8 6 -21 13t-30.5 13t-38 10.5t-43.5 4.5
q-40 0 -71.5 -18.5t-54 -53t-34.5 -83.5t-12 -109q0 -58 30 -88t87 -30zM338 555q-80 0 -109.5 35t-14.5 114h58q-10 -51 7.5 -72.5t68.5 -21.5t76.5 21.5t35.5 72.5h58q-15 -79 -57.5 -114t-122.5 -35z" />
    <glyph glyph-name="Aogonek" unicode="&#x104;" horiz-adv-x="639" 
d="M483 -231q-51 0 -74.5 18.5t-23.5 56.5q0 35 26 72.5t80 76.5q-4 39 -10 90t-13 96h-332q-24 -48 -46 -93.5t-40 -85.5h-83q34 80 81.5 174t98.5 186t102 174t93 138h92q22 -56 44 -138t40.5 -174t33 -186t20.5 -174q-65 -47 -93.5 -80t-28.5 -60q0 -41 55 -41q18 0 36 3
l-9 -49q-11 -2 -23 -3t-26 -1zM168 241h290q-9 50 -18.5 100t-20 96t-21.5 87t-22 74q-23 -33 -49 -74t-52.5 -87t-53.5 -96t-53 -100z" />
    <glyph glyph-name="aogonek" unicode="&#x105;" horiz-adv-x="557" 
d="M348 -231q-51 0 -74.5 18.5t-23.5 56.5q0 77 130 165v49q-70 -70 -165 -70q-85 0 -130.5 44t-45.5 126q0 78 17 141t48 107t75.5 68t99.5 24q58 0 98 -17.5t66 -40.5l14 46h65l-73 -418q-1 -10 6 -14l28 -13l-15 -41h-31q-65 -47 -93.5 -80t-28.5 -60q0 -41 55 -41
q18 0 36 3l-9 -49q-11 -2 -23 -3t-26 -1zM238 52q127 0 150 126l38 215q-8 6 -21 13t-30.5 13t-38 10.5t-43.5 4.5q-40 0 -71.5 -18.5t-54 -53t-34.5 -83.5t-12 -109q0 -58 30 -88t87 -30z" />
    <glyph glyph-name="Cacute" unicode="&#x106;" horiz-adv-x="596" 
d="M329 -12q-134 0 -202 61.5t-68 181.5q0 106 24.5 190.5t70.5 142.5t112.5 89t150.5 31q66 0 121 -11t86 -25l-24 -63q-34 14 -76 23t-99 9q-66 0 -118.5 -25t-89 -73t-55.5 -117.5t-19 -157.5q0 -189 202 -189q46 0 89.5 6t87.5 17l-13 -69q-42 -10 -87 -15.5t-93 -5.5z
M466 740h-78l141 140h92z" />
    <glyph glyph-name="cacute" unicode="&#x107;" horiz-adv-x="455" 
d="M242 -12q-204 0 -204 178q0 158 72 245t204 87q40 0 79 -7t66 -19l-24 -62q-29 11 -57.5 17.5t-64.5 6.5q-92 0 -142.5 -68t-50.5 -189q0 -125 138 -125q65 0 128 16l-12 -65q-32 -8 -64.5 -11.5t-67.5 -3.5zM346 564h-78l141 140h92z" />
    <glyph glyph-name="Ccircumflex" unicode="&#x108;" horiz-adv-x="596" 
d="M329 -12q-134 0 -202 61.5t-68 181.5q0 106 24.5 190.5t70.5 142.5t112.5 89t150.5 31q66 0 121 -11t86 -25l-24 -63q-34 14 -76 23t-99 9q-66 0 -118.5 -25t-89 -73t-55.5 -117.5t-19 -157.5q0 -189 202 -189q46 0 89.5 6t87.5 17l-13 -69q-42 -10 -87 -15.5t-93 -5.5z
M350 740h-76l146 140h80l98 -140h-68l-74 95z" />
    <glyph glyph-name="ccircumflex" unicode="&#x109;" horiz-adv-x="455" 
d="M242 -12q-204 0 -204 178q0 158 72 245t204 87q40 0 79 -7t66 -19l-24 -62q-29 11 -57.5 17.5t-64.5 6.5q-92 0 -142.5 -68t-50.5 -189q0 -125 138 -125q65 0 128 16l-12 -65q-32 -8 -64.5 -11.5t-67.5 -3.5zM230 564h-76l146 140h80l98 -140h-68l-74 95z" />
    <glyph glyph-name="Cdotaccent" unicode="&#x10a;" horiz-adv-x="596" 
d="M329 -12q-134 0 -202 61.5t-68 181.5q0 106 24.5 190.5t70.5 142.5t112.5 89t150.5 31q66 0 121 -11t86 -25l-24 -63q-34 14 -76 23t-99 9q-66 0 -118.5 -25t-89 -73t-55.5 -117.5t-19 -157.5q0 -189 202 -189q46 0 89.5 6t87.5 17l-13 -69q-42 -10 -87 -15.5t-93 -5.5z
M443 761q-43 0 -43 38q0 60 58 60q43 0 43 -38q0 -29 -14.5 -44.5t-43.5 -15.5z" />
    <glyph glyph-name="cdotaccent" unicode="&#x10b;" horiz-adv-x="457" 
d="M242 -12q-204 0 -204 178q0 158 72 245t204 87q40 0 79 -7t66 -19l-24 -62q-29 11 -57.5 17.5t-64.5 6.5q-92 0 -142.5 -68t-50.5 -189q0 -125 138 -125q65 0 128 16l-12 -65q-32 -8 -64.5 -11.5t-67.5 -3.5zM325 585q-43 0 -43 38q0 60 58 60q43 0 43 -38
q0 -29 -14.5 -44.5t-43.5 -15.5z" />
    <glyph glyph-name="Ccaron" unicode="&#x10c;" horiz-adv-x="596" 
d="M329 -12q-134 0 -202 61.5t-68 181.5q0 106 24.5 190.5t70.5 142.5t112.5 89t150.5 31q66 0 121 -11t86 -25l-24 -63q-34 14 -76 23t-99 9q-66 0 -118.5 -25t-89 -73t-55.5 -117.5t-19 -157.5q0 -189 202 -189q46 0 89.5 6t87.5 17l-13 -69q-42 -10 -87 -15.5t-93 -5.5z
M481 740h-80l-98 140h68l74 -95l106 95h76z" />
    <glyph glyph-name="ccaron" unicode="&#x10d;" horiz-adv-x="455" 
d="M242 -12q-204 0 -204 178q0 158 72 245t204 87q40 0 79 -7t66 -19l-24 -62q-29 11 -57.5 17.5t-64.5 6.5q-92 0 -142.5 -68t-50.5 -189q0 -125 138 -125q65 0 128 16l-12 -65q-32 -8 -64.5 -11.5t-67.5 -3.5zM361 564h-80l-98 140h68l74 -95l106 95h76z" />
    <glyph glyph-name="Dcaron" unicode="&#x10e;" horiz-adv-x="692" 
d="M44 0l107 609q1 5 -0.5 7.5t-7.5 5.5l-28 13l14 37h231q157 0 231.5 -59.5t74.5 -183.5q0 -209 -100 -319t-292 -110h-230zM138 66h139q150 0 227.5 91t77.5 266q0 96 -55.5 139.5t-176.5 43.5h-117zM459 740h-80l-98 140h68l74 -95l106 95h76z" />
    <glyph glyph-name="dcaron" unicode="&#x10f;" horiz-adv-x="659" 
d="M215 -12q-85 0 -130.5 44t-45.5 126q0 78 17 141t48 107t75.5 68t99.5 24q51 0 92 -19t61 -51l49 276h80l-112 -636q-1 -10 6 -14l28 -13l-15 -41h-73q-8 0 -11 1.5t-3 9.5v43q-27 -31 -70 -48.5t-96 -17.5zM238 52q49 0 82.5 16t51.5 30l35 186q6 28 6 59q0 39 -34 65
t-86 26q-40 0 -71.5 -18.5t-54 -53t-34.5 -83.5t-12 -110q0 -57 30 -87t87 -30zM652 554h-59l82 188h74z" />
    <glyph glyph-name="Dcroat" unicode="&#x110;" horiz-adv-x="712" 
d="M64 0l55 312h-79l10 60h79l42 237q1 5 -0.5 7.5t-7.5 5.5l-28 13l14 37h231q157 0 231.5 -59.5t74.5 -183.5q0 -209 -100 -319t-292 -110h-230zM158 66h139q150 0 227.5 91t77.5 266q0 96 -55.5 139.5t-176.5 43.5h-117l-41 -234h181l-10 -60h-182z" />
    <glyph glyph-name="dcroat" unicode="&#x111;" horiz-adv-x="557" 
d="M215 -12q-85 0 -130.5 44t-45.5 126q0 78 17 141t48 107t75.5 68t99.5 24q51 0 92 -19t61 -51l25 141h-177l9 56h178l14 79h80l-14 -79h65l-10 -56h-65l-88 -501q-1 -10 6 -14l28 -13l-15 -41h-70q-8 0 -10.5 1.5t-3.5 9.5l-3 43q-27 -31 -70 -48.5t-96 -17.5zM238 52
q49 0 82.5 16t51.5 30l35 186q6 28 6 59q0 39 -34 65t-86 26q-40 0 -71.5 -18.5t-54 -53t-34.5 -83.5t-12 -110q0 -57 30 -87t87 -30z" />
    <glyph glyph-name="Emacron" unicode="&#x112;" horiz-adv-x="583" 
d="M44 0l107 609q1 5 -0.5 7.5t-7.5 5.5l-28 13l14 37h477l-12 -66h-361l-41 -233h289l-11 -62h-289l-43 -245h369l-11 -66h-452zM548 782h-301l10 57h301z" />
    <glyph glyph-name="emacron" unicode="&#x113;" horiz-adv-x="523" 
d="M263 -12q-112 0 -168.5 45t-56.5 133q0 78 17.5 139.5t51 104.5t81.5 65.5t109 22.5q96 0 141.5 -42t45.5 -131q0 -52 -14 -105h-352q-2 -11 -2 -25.5t1 -29.5q2 -57 41 -85.5t113 -28.5q38 0 77 4.5t77 15.5l-11 -64q-70 -19 -151 -19zM127 275h276q6 24 6 53
q0 57 -27.5 84.5t-87.5 27.5q-67 0 -110 -42.5t-57 -122.5zM471 606h-301l10 57h301z" />
    <glyph glyph-name="Ebreve" unicode="&#x114;" horiz-adv-x="583" 
d="M44 0l107 609q1 5 -0.5 7.5t-7.5 5.5l-28 13l14 37h477l-12 -66h-361l-41 -233h289l-11 -62h-289l-43 -245h369l-11 -66h-452zM396 731q-136 0 -136 106q0 10 1 20.5t3 22.5h57q-8 -49 10.5 -71.5t69.5 -22.5q50 0 75 21.5t33 72.5h59q-12 -80 -52.5 -114.5t-119.5 -34.5
z" />
    <glyph glyph-name="ebreve" unicode="&#x115;" horiz-adv-x="523" 
d="M263 -12q-112 0 -168.5 45t-56.5 133q0 78 17.5 139.5t51 104.5t81.5 65.5t109 22.5q96 0 141.5 -42t45.5 -131q0 -52 -14 -105h-352q-2 -11 -2 -25.5t1 -29.5q2 -57 41 -85.5t113 -28.5q38 0 77 4.5t77 15.5l-11 -64q-70 -19 -151 -19zM127 275h276q6 24 6 53
q0 57 -27.5 84.5t-87.5 27.5q-67 0 -110 -42.5t-57 -122.5zM319 555q-136 0 -136 106q0 10 1 20.5t3 22.5h57q-8 -49 10.5 -71.5t69.5 -22.5q50 0 75 21.5t33 72.5h59q-12 -80 -52.5 -114.5t-119.5 -34.5z" />
    <glyph glyph-name="Edotaccent" unicode="&#x116;" horiz-adv-x="583" 
d="M44 0l107 609q1 5 -0.5 7.5t-7.5 5.5l-28 13l14 37h477l-12 -66h-361l-41 -233h289l-11 -62h-289l-43 -245h369l-11 -66h-452zM395 761q-43 0 -43 38q0 60 58 60q43 0 43 -38q0 -29 -14.5 -44.5t-43.5 -15.5z" />
    <glyph glyph-name="edotaccent" unicode="&#x117;" horiz-adv-x="523" 
d="M263 -12q-112 0 -168.5 45t-56.5 133q0 78 17.5 139.5t51 104.5t81.5 65.5t109 22.5q96 0 141.5 -42t45.5 -131q0 -52 -14 -105h-352q-2 -11 -2 -25.5t1 -29.5q2 -57 41 -85.5t113 -28.5q38 0 77 4.5t77 15.5l-11 -64q-70 -19 -151 -19zM127 275h276q6 24 6 53
q0 57 -27.5 84.5t-87.5 27.5q-67 0 -110 -42.5t-57 -122.5zM318 585q-43 0 -43 38q0 60 58 60q43 0 43 -38q0 -29 -14.5 -44.5t-43.5 -15.5z" />
    <glyph glyph-name="Eogonek" unicode="&#x118;" horiz-adv-x="583" 
d="M407 -231q-51 0 -74.5 18.5t-23.5 56.5q0 36 28.5 75t88.5 81h-382l107 609q1 5 -0.5 7.5t-7.5 5.5l-28 13l14 37h477l-12 -66h-361l-41 -233h289l-11 -62h-289l-43 -245h369l-11 -66q-65 -47 -93.5 -80t-28.5 -60q0 -41 55 -41q18 0 36 3l-9 -49q-11 -2 -23 -3t-26 -1z
" />
    <glyph glyph-name="eogonek" unicode="&#x119;" horiz-adv-x="523" 
d="M324 -231q-98 0 -98 75q0 32 24 70t73 77q-29 -3 -60 -3q-112 0 -168.5 45t-56.5 133q0 78 17.5 139.5t51 104.5t81.5 65.5t109 22.5q96 0 141.5 -42t45.5 -131q0 -52 -14 -105h-352q-2 -11 -2 -25.5t1 -29.5q2 -57 41 -85.5t113 -28.5q38 0 77 4.5t77 15.5l-11 -64
q-66 -49 -94.5 -84.5t-28.5 -62.5q0 -41 55 -41q18 0 36 3l-9 -49q-11 -2 -23 -3t-26 -1zM127 275h276q6 24 6 53q0 57 -27.5 84.5t-87.5 27.5q-67 0 -110 -42.5t-57 -122.5z" />
    <glyph glyph-name="Ecaron" unicode="&#x11a;" horiz-adv-x="583" 
d="M44 0l107 609q1 5 -0.5 7.5t-7.5 5.5l-28 13l14 37h477l-12 -66h-361l-41 -233h289l-11 -62h-289l-43 -245h369l-11 -66h-452zM433 740h-80l-98 140h68l74 -95l106 95h76z" />
    <glyph glyph-name="ecaron" unicode="&#x11b;" horiz-adv-x="523" 
d="M263 -12q-112 0 -168.5 45t-56.5 133q0 78 17.5 139.5t51 104.5t81.5 65.5t109 22.5q96 0 141.5 -42t45.5 -131q0 -52 -14 -105h-352q-2 -11 -2 -25.5t1 -29.5q2 -57 41 -85.5t113 -28.5q38 0 77 4.5t77 15.5l-11 -64q-70 -19 -151 -19zM127 275h276q6 24 6 53
q0 57 -27.5 84.5t-87.5 27.5q-67 0 -110 -42.5t-57 -122.5zM356 564h-80l-98 140h68l74 -95l106 95h76z" />
    <glyph glyph-name="Gcircumflex" unicode="&#x11c;" horiz-adv-x="657" 
d="M337 -12q-137 0 -207.5 62t-70.5 182q0 107 25 191t73 142t117.5 88.5t157.5 30.5q66 0 124.5 -11t89.5 -25l-24 -63q-33 14 -79.5 23.5t-103.5 9.5q-143 0 -221 -96.5t-78 -276.5q0 -191 210 -191q67 0 137 14l40 224h-166l11 59h240l-59 -340q-54 -11 -107 -17t-109 -6
zM365 740h-76l146 140h80l98 -140h-68l-74 95z" />
    <glyph glyph-name="gcircumflex" unicode="&#x11d;" horiz-adv-x="553" 
d="M182 -220q-26 0 -51 3t-43 8l11 63q23 -6 45 -8t37 -2q43 0 73.5 10.5t50.5 29t31 43t16 52.5l12 67q-25 -27 -63.5 -42.5t-86.5 -15.5q-85 0 -130.5 44t-45.5 126q0 78 17 141t48 107t75.5 68t99.5 24q58 0 98 -17.5t66 -40.5l14 46h65l-87 -501q-8 -47 -26 -85
t-48.5 -64.5t-74 -41t-103.5 -14.5zM237 52q127 0 150 126l38 215q-8 6 -21 13t-30.5 13t-38 10.5t-43.5 4.5q-40 0 -71.5 -18.5t-54 -53t-34.5 -83.5t-12 -109q0 -58 30 -88t87 -30zM240 564h-76l146 140h80l98 -140h-68l-74 95z" />
    <glyph glyph-name="Gbreve" unicode="&#x11e;" horiz-adv-x="657" 
d="M337 -12q-137 0 -207.5 62t-70.5 182q0 107 25 191t73 142t117.5 88.5t157.5 30.5q66 0 124.5 -11t89.5 -25l-24 -63q-33 14 -79.5 23.5t-103.5 9.5q-143 0 -221 -96.5t-78 -276.5q0 -191 210 -191q67 0 137 14l40 224h-166l11 59h240l-59 -340q-54 -11 -107 -17t-109 -6
zM459 731q-136 0 -136 106q0 10 1 20.5t3 22.5h57q-8 -49 10.5 -71.5t69.5 -22.5q50 0 75 21.5t33 72.5h59q-12 -80 -52.5 -114.5t-119.5 -34.5z" />
    <glyph glyph-name="gbreve" unicode="&#x11f;" horiz-adv-x="553" 
d="M182 -220q-26 0 -51 3t-43 8l11 63q23 -6 45 -8t37 -2q43 0 73.5 10.5t50.5 29t31 43t16 52.5l12 67q-25 -27 -63.5 -42.5t-86.5 -15.5q-85 0 -130.5 44t-45.5 126q0 78 17 141t48 107t75.5 68t99.5 24q58 0 98 -17.5t66 -40.5l14 46h65l-87 -501q-8 -47 -26 -85
t-48.5 -64.5t-74 -41t-103.5 -14.5zM237 52q127 0 150 126l38 215q-8 6 -21 13t-30.5 13t-38 10.5t-43.5 4.5q-40 0 -71.5 -18.5t-54 -53t-34.5 -83.5t-12 -109q0 -58 30 -88t87 -30zM334 555q-136 0 -136 106q0 10 1 20.5t3 22.5h57q-8 -49 10.5 -71.5t69.5 -22.5
q50 0 75 21.5t33 72.5h59q-12 -80 -52.5 -114.5t-119.5 -34.5z" />
    <glyph glyph-name="Gdotaccent" unicode="&#x120;" horiz-adv-x="657" 
d="M337 -12q-137 0 -207.5 62t-70.5 182q0 107 25 191t73 142t117.5 88.5t157.5 30.5q66 0 124.5 -11t89.5 -25l-24 -63q-33 14 -79.5 23.5t-103.5 9.5q-143 0 -221 -96.5t-78 -276.5q0 -191 210 -191q67 0 137 14l40 224h-166l11 59h240l-59 -340q-54 -11 -107 -17t-109 -6
zM458 761q-43 0 -43 38q0 60 58 60q43 0 43 -38q0 -29 -14.5 -44.5t-43.5 -15.5z" />
    <glyph glyph-name="gdotaccent" unicode="&#x121;" horiz-adv-x="553" 
d="M182 -220q-26 0 -51 3t-43 8l11 63q23 -6 45 -8t37 -2q43 0 73.5 10.5t50.5 29t31 43t16 52.5l12 67q-25 -27 -63.5 -42.5t-86.5 -15.5q-85 0 -130.5 44t-45.5 126q0 78 17 141t48 107t75.5 68t99.5 24q58 0 98 -17.5t66 -40.5l14 46h65l-87 -501q-8 -47 -26 -85
t-48.5 -64.5t-74 -41t-103.5 -14.5zM237 52q127 0 150 126l38 215q-8 6 -21 13t-30.5 13t-38 10.5t-43.5 4.5q-40 0 -71.5 -18.5t-54 -53t-34.5 -83.5t-12 -109q0 -58 30 -88t87 -30zM333 585q-43 0 -43 38q0 60 58 60q43 0 43 -38q0 -29 -14.5 -44.5t-43.5 -15.5z" />
    <glyph glyph-name="uni0122" unicode="&#x122;" horiz-adv-x="657" 
d="M337 -12q-137 0 -207.5 62t-70.5 182q0 107 25 191t73 142t117.5 88.5t157.5 30.5q66 0 124.5 -11t89.5 -25l-24 -63q-33 14 -79.5 23.5t-103.5 9.5q-143 0 -221 -96.5t-78 -276.5q0 -191 210 -191q67 0 137 14l40 224h-166l11 59h240l-59 -340q-54 -11 -107 -17t-109 -6
zM273 -256h-59l82 188h74z" />
    <glyph glyph-name="uni0123" unicode="&#x123;" horiz-adv-x="553" 
d="M182 -220q-26 0 -51 3t-43 8l11 63q23 -6 45 -8t37 -2q43 0 73.5 10.5t50.5 29t31 43t16 52.5l12 67q-25 -27 -63.5 -42.5t-86.5 -15.5q-85 0 -130.5 44t-45.5 126q0 78 17 141t48 107t75.5 68t99.5 24q58 0 98 -17.5t66 -40.5l14 46h65l-87 -501q-8 -47 -26 -85
t-48.5 -64.5t-74 -41t-103.5 -14.5zM237 52q127 0 150 126l38 215q-8 6 -21 13t-30.5 13t-38 10.5t-43.5 4.5q-40 0 -71.5 -18.5t-54 -53t-34.5 -83.5t-12 -109q0 -58 30 -88t87 -30zM347 554h-74l97 188h59z" />
    <glyph glyph-name="Hcircumflex" unicode="&#x124;" horiz-adv-x="716" 
d="M44 0l107 609q1 5 -0.5 7.5t-7.5 5.5l-28 13l14 37h102q6 0 10 -1.5t2 -10.5l-50 -284h381l51 296h83l-118 -672h-83l55 311h-381l-54 -311h-83zM356 740h-76l146 140h80l98 -140h-68l-74 95z" />
    <glyph glyph-name="hcircumflex" unicode="&#x125;" horiz-adv-x="557" 
d="M31 0l111 630q2 10 1.5 13.5t-8.5 7.5l-26 12l16 41h96q6 0 10 -1.5t2 -10.5l-45 -251q29 27 65 42t86 15q77 0 118.5 -37.5t41.5 -106.5q0 -17 -2 -32.5t-5 -31.5l-39 -222q-1 -10 6 -14l28 -13l-15 -41h-98q-6 0 -9.5 1.5t-1.5 9.5l50 279q5 28 5 51q0 91 -104 91
q-43 0 -79 -15t-56 -28l-68 -389h-80zM112 746h-76l145 134h79l100 -134h-68l-75 92z" />
    <glyph glyph-name="Hbar" unicode="&#x126;" horiz-adv-x="713" 
d="M124 0h-83l91 521h-71l11 56h70l17 95h83l-17 -95h380l17 95h83l-17 -95h71l-10 -56h-71l-91 -521h-83l54 306h-380zM215 521l-25 -149h380l25 149h-380z" />
    <glyph glyph-name="hbar" unicode="&#x127;" horiz-adv-x="557" 
d="M31 0l100 569h-66l10 56h66l14 79h80l-14 -79h177l-10 -56h-177l-23 -128q29 27 65 42t86 15q77 0 118.5 -37.5t41.5 -106.5q0 -17 -2 -32.5t-5 -31.5l-39 -222q-1 -10 6 -14l28 -13l-15 -41h-98q-6 0 -9.5 1.5t-1.5 9.5l50 279q5 28 5 51q0 91 -104 91q-43 0 -79 -15
t-56 -28l-68 -389h-80z" />
    <glyph glyph-name="Itilde" unicode="&#x128;" horiz-adv-x="253" 
d="M44 0l107 609q1 5 -0.5 7.5t-7.5 5.5l-28 13l14 37h102q6 0 10 -1.5t2 -10.5l-116 -660h-83zM70 761l2 10q10 54 35.5 78t71.5 24q21 0 36.5 -8t27.5 -17.5t23.5 -17.5t25.5 -8q23 0 34.5 11.5t16.5 39.5l1 7h58l-2 -11q-10 -54 -35.5 -78t-71.5 -24q-21 0 -36.5 8
t-28 17.5t-24 17.5t-24.5 8q-23 0 -34.5 -11.5t-16.5 -39.5l-1 -6h-58z" />
    <glyph glyph-name="itilde" unicode="&#x129;" horiz-adv-x="237" 
d="M40 0l72 412q2 10 1.5 13.5t-8.5 7.5l-26 12l16 41h96q6 0 10 -1.5t2 -10.5l-83 -474h-80zM27 575l2 10q10 54 35.5 78t71.5 24q21 0 36.5 -8t27.5 -17.5t23.5 -17.5t25.5 -8q23 0 34.5 11.5t16.5 39.5l1 7h58l-2 -11q-10 -54 -35.5 -78t-71.5 -24q-21 0 -36.5 8
t-28 17.5t-24 17.5t-24.5 8q-23 0 -34.5 -11.5t-16.5 -39.5l-1 -6h-58z" />
    <glyph glyph-name="Imacron" unicode="&#x12a;" horiz-adv-x="253" 
d="M44 0l107 609q1 5 -0.5 7.5t-7.5 5.5l-28 13l14 37h102q6 0 10 -1.5t2 -10.5l-116 -660h-83zM370 782h-301l10 57h301z" />
    <glyph glyph-name="imacron" unicode="&#x12b;" horiz-adv-x="237" 
d="M40 0l72 412q2 10 1.5 13.5t-8.5 7.5l-26 12l16 41h96q6 0 10 -1.5t2 -10.5l-83 -474h-80zM335 606h-301l10 57h301z" />
    <glyph glyph-name="Ibreve" unicode="&#x12c;" horiz-adv-x="253" 
d="M44 0l107 609q1 5 -0.5 7.5t-7.5 5.5l-28 13l14 37h102q6 0 10 -1.5t2 -10.5l-116 -660h-83zM218 731q-136 0 -136 106q0 10 1 20.5t3 22.5h57q-8 -49 10.5 -71.5t69.5 -22.5q50 0 75 21.5t33 72.5h59q-12 -80 -52.5 -114.5t-119.5 -34.5z" />
    <glyph glyph-name="ibreve" unicode="&#x12d;" horiz-adv-x="237" 
d="M40 0l72 412q2 10 1.5 13.5t-8.5 7.5l-26 12l16 41h96q6 0 10 -1.5t2 -10.5l-83 -474h-80zM183 555q-136 0 -136 106q0 10 1 20.5t3 22.5h57q-8 -49 10.5 -71.5t69.5 -22.5q50 0 75 21.5t33 72.5h59q-12 -80 -52.5 -114.5t-119.5 -34.5z" />
    <glyph glyph-name="Iogonek" unicode="&#x12e;" horiz-adv-x="253" 
d="M38 -231q-51 0 -74.5 18.5t-23.5 56.5q0 73 117 156h-13l107 609q1 5 -0.5 7.5t-7.5 5.5l-28 13l14 37h102q6 0 10 -1.5t2 -10.5l-116 -660v0q-65 -47 -93.5 -80t-28.5 -60q0 -41 55 -41q18 0 36 3l-9 -49q-11 -2 -23 -3t-26 -1z" />
    <glyph glyph-name="iogonek" unicode="&#x12f;" horiz-adv-x="237" 
d="M31 -231q-51 0 -74.5 18.5t-23.5 56.5q0 73 117 156h-10l72 412q2 10 1.5 13.5t-8.5 7.5l-26 12l16 41h96q6 0 10 -1.5t2 -10.5l-83 -474q-65 -47 -93.5 -80t-28.5 -60q0 -41 55 -41q18 0 36 3l-9 -49q-11 -2 -23 -3t-26 -1zM181 584q-44 0 -44 39q0 62 60 62
q44 0 44 -40q0 -61 -60 -61z" />
    <glyph glyph-name="Idotaccent" unicode="&#x130;" horiz-adv-x="253" 
d="M44 0l107 609q1 5 -0.5 7.5t-7.5 5.5l-28 13l14 37h102q6 0 10 -1.5t2 -10.5l-116 -660h-83zM217 761q-43 0 -43 38q0 60 58 60q43 0 43 -38q0 -29 -14.5 -44.5t-43.5 -15.5z" />
    <glyph glyph-name="dotlessi" unicode="&#x131;" horiz-adv-x="237" 
d="M40 0l72 412q2 10 1.5 13.5t-8.5 7.5l-26 12l16 41h96q6 0 10 -1.5t2 -10.5l-83 -474h-80z" />
    <glyph glyph-name="IJ" unicode="&#x132;" horiz-adv-x="692" 
d="M44 0l107 609q1 5 -0.5 7.5t-7.5 5.5l-28 13l14 37h102q6 0 10 -1.5t2 -10.5l-116 -660h-83zM380 -12q-38 0 -72.5 4t-66.5 13l11 67q29 -9 59.5 -13t60.5 -4q64 0 97 27.5t44 91.5l88 498h83l-90 -510q-17 -91 -67 -132.5t-147 -41.5z" />
    <glyph glyph-name="ij" unicode="&#x133;" horiz-adv-x="474" 
d="M40 0l72 412q2 10 1.5 13.5t-8.5 7.5l-26 12l16 41h96q6 0 10 -1.5t2 -10.5l-83 -474h-80zM181 584q-44 0 -44 39q0 62 60 62q44 0 44 -40q0 -61 -60 -61zM168 -217q-26 0 -45 3l11 60q11 -1 15 -1h9q49 0 74.5 22.5t35.5 78.5l81 466q2 10 1.5 13.5t-8.5 7.5l-26 12
l16 41h96q6 0 10 -1.5t2 -10.5l-92 -528q-14 -78 -54.5 -120.5t-125.5 -42.5zM418 584q-44 0 -44 39q0 62 60 62q44 0 44 -40q0 -61 -60 -61z" />
    <glyph glyph-name="Jcircumflex" unicode="&#x134;" horiz-adv-x="439" 
d="M127 -12q-38 0 -72.5 4t-66.5 13l11 67q29 -9 59.5 -13t60.5 -4q64 0 97 27.5t44 91.5l88 498h83l-90 -510q-17 -91 -67 -132.5t-147 -41.5zM310 740h-76l146 140h80l98 -140h-68l-74 95z" />
    <glyph glyph-name="jcircumflex" unicode="&#x135;" horiz-adv-x="236" 
d="M-70 -217q-26 0 -45 3l11 60q11 -1 15 -1h9q49 0 74.5 22.5t35.5 78.5l81 466q2 10 1.5 13.5t-8.5 7.5l-26 12l16 41h96q6 0 10 -1.5t2 -10.5l-92 -528q-14 -78 -54.5 -120.5t-125.5 -42.5zM88 564h-76l146 140h80l98 -140h-68l-74 95z" />
    <glyph glyph-name="uni0136" unicode="&#x136;" horiz-adv-x="600" 
d="M44 0l107 609q1 5 -0.5 7.5t-7.5 5.5l-28 13l14 37h100q6 0 10 -1.5t2 -10.5l-56 -319l373 331h97l-348 -312l232 -360h-87l-200 311l-83 -73l-44 -238h-81zM203 -256h-59l82 188h74z" />
    <glyph glyph-name="uni0137" unicode="&#x137;" horiz-adv-x="474" 
d="M31 0l111 630q2 10 1.5 13.5t-8.5 7.5l-26 12l16 41h93q6 0 10 -1.5t2 -10.5l-76 -428l246 222h94l-244 -221l165 -265h-84l-135 217l-60 -53l-28 -164h-77zM142 -256h-59l82 188h74z" />
    <glyph glyph-name="kgreenlandic" unicode="&#x138;" horiz-adv-x="474" 
d="M31 0l72 412q2 10 1.5 13.5t-8.5 7.5l-26 12l16 41h107l-39 -222l246 222h94l-247 -224l163 -262h-84l-133 214l-57 -50l-28 -164h-77z" />
    <glyph glyph-name="Lacute" unicode="&#x139;" horiz-adv-x="508" 
d="M44 0l107 609q1 5 -0.5 7.5t-7.5 5.5l-28 13l14 37h102q6 0 10 -1.5t2 -10.5l-104 -594h325l-11 -66h-409zM240 740h-78l141 140h92z" />
    <glyph glyph-name="lacute" unicode="&#x13a;" horiz-adv-x="236" 
d="M146 0h-98q-6 0 -9.5 1.5t-1.5 9.5l109 619q2 10 1.5 13.5t-8.5 7.5l-26 12l16 41h96q6 0 10 -1.5t2 -10.5l-110 -624q-1 -10 6 -14l28 -13zM232 746h-78l140 134h92z" />
    <glyph glyph-name="uni013B" unicode="&#x13b;" horiz-adv-x="508" 
d="M44 0l107 609q1 5 -0.5 7.5t-7.5 5.5l-28 13l14 37h102q6 0 10 -1.5t2 -10.5l-104 -594h325l-11 -66h-409zM194 -256h-59l82 188h74z" />
    <glyph glyph-name="uni013C" unicode="&#x13c;" horiz-adv-x="236" 
d="M146 0h-98q-6 0 -9.5 1.5t-1.5 9.5l109 619q2 10 1.5 13.5t-8.5 7.5l-26 12l16 41h96q6 0 10 -1.5t2 -10.5l-110 -624q-1 -10 6 -14l28 -13zM22 -256h-59l82 188h74z" />
    <glyph glyph-name="Lcaron" unicode="&#x13d;" horiz-adv-x="508" 
d="M44 0l107 609q1 5 -0.5 7.5t-7.5 5.5l-28 13l14 37h102q6 0 10 -1.5t2 -10.5l-104 -594h325l-11 -66h-409zM349 522h-59l82 188h74z" />
    <glyph glyph-name="lcaron" unicode="&#x13e;" horiz-adv-x="337" 
d="M146 0h-98q-6 0 -9.5 1.5t-1.5 9.5l109 619q2 10 1.5 13.5t-8.5 7.5l-26 12l16 41h96q6 0 10 -1.5t2 -10.5l-110 -624q-1 -10 6 -14l28 -13zM330 554h-59l82 188h74z" />
    <glyph glyph-name="Ldot" unicode="&#x13f;" horiz-adv-x="508" 
d="M44 0l107 609q1 5 -0.5 7.5t-7.5 5.5l-28 13l14 37h102q6 0 10 -1.5t2 -10.5l-104 -594h325l-11 -66h-409zM393 306q-43 0 -43 38q0 60 58 60q43 0 43 -38q0 -29 -14.5 -44.5t-43.5 -15.5z" />
    <glyph glyph-name="ldot" unicode="&#x140;" horiz-adv-x="321" 
d="M146 0h-98q-6 0 -9.5 1.5t-1.5 9.5l109 619q2 10 1.5 13.5t-8.5 7.5l-26 12l16 41h96q6 0 10 -1.5t2 -10.5l-110 -624q-1 -10 6 -14l28 -13zM288 312q-41 0 -41 36q0 56 55 56q41 0 41 -36q0 -56 -55 -56z" />
    <glyph glyph-name="Lslash" unicode="&#x141;" horiz-adv-x="531" 
d="M67 0l50 287l-85 -34l11 65l86 34l45 257q1 5 -0.5 7.5t-7.5 5.5l-28 13l14 37h102q6 0 10 -1.5t2 -10.5l-48 -272l179 73l-12 -65l-178 -73l-45 -257h325l-11 -66h-409z" />
    <glyph glyph-name="lslash" unicode="&#x142;" horiz-adv-x="293" 
d="M175 0h-98q-6 0 -9.5 1.5t-1.5 9.5l52 296l-105 -42l11 66l106 42l45 257q2 10 1.5 13.5t-8.5 7.5l-26 12l16 41h96q6 0 10 -1.5t2 -10.5l-50 -284l104 42l-11 -65l-105 -43l-48 -274q-1 -10 6 -14l28 -13z" />
    <glyph glyph-name="Nacute" unicode="&#x143;" horiz-adv-x="716" 
d="M44 0l107 609q1 9 -8 13l-28 13l14 37h95q14 0 19 -2.5t10 -13.5l280 -542l98 558h77l-118 -672h-83l-287 558l-99 -558h-77zM472 740h-78l141 140h92z" />
    <glyph glyph-name="nacute" unicode="&#x144;" horiz-adv-x="561" 
d="M35 0l72 412q2 10 1.5 13.5t-8.5 7.5l-26 12l16 41h96q6 0 10 -1.5t2 -10.5l-6 -33q29 27 65 42t86 15q77 0 118.5 -37.5t41.5 -106.5q0 -17 -2 -32.5t-5 -31.5l-39 -222q-1 -10 6 -14l28 -13l-15 -41h-98q-6 0 -9.5 1.5t-1.5 9.5l50 279q5 28 5 51q0 91 -104 91
q-43 0 -79 -15t-56 -28l-68 -389h-80zM367 564h-78l141 140h92z" />
    <glyph glyph-name="uni0145" unicode="&#x145;" horiz-adv-x="716" 
d="M44 0l107 609q1 9 -8 13l-28 13l14 37h95q14 0 19 -2.5t10 -13.5l280 -542l98 558h77l-118 -672h-83l-287 558l-99 -558h-77zM264 -256h-59l82 188h74z" />
    <glyph glyph-name="uni0146" unicode="&#x146;" horiz-adv-x="561" 
d="M35 0l72 412q2 10 1.5 13.5t-8.5 7.5l-26 12l16 41h96q6 0 10 -1.5t2 -10.5l-6 -33q29 27 65 42t86 15q77 0 118.5 -37.5t41.5 -106.5q0 -17 -2 -32.5t-5 -31.5l-39 -222q-1 -10 6 -14l28 -13l-15 -41h-98q-6 0 -9.5 1.5t-1.5 9.5l50 279q5 28 5 51q0 91 -104 91
q-43 0 -79 -15t-56 -28l-68 -389h-80zM189 -256h-59l82 188h74z" />
    <glyph glyph-name="Ncaron" unicode="&#x147;" horiz-adv-x="716" 
d="M44 0l107 609q1 9 -8 13l-28 13l14 37h95q14 0 19 -2.5t10 -13.5l280 -542l98 558h77l-118 -672h-83l-287 558l-99 -558h-77zM487 740h-80l-98 140h68l74 -95l106 95h76z" />
    <glyph glyph-name="ncaron" unicode="&#x148;" horiz-adv-x="561" 
d="M35 0l72 412q2 10 1.5 13.5t-8.5 7.5l-26 12l16 41h96q6 0 10 -1.5t2 -10.5l-6 -33q29 27 65 42t86 15q77 0 118.5 -37.5t41.5 -106.5q0 -17 -2 -32.5t-5 -31.5l-39 -222q-1 -10 6 -14l28 -13l-15 -41h-98q-6 0 -9.5 1.5t-1.5 9.5l50 279q5 28 5 51q0 91 -104 91
q-43 0 -79 -15t-56 -28l-68 -389h-80zM382 564h-80l-98 140h68l74 -95l106 95h76z" />
    <glyph glyph-name="napostrophe" unicode="&#x149;" horiz-adv-x="561" 
d="M35 0l72 412q2 10 1.5 13.5t-8.5 7.5l-26 12l16 41h96q6 0 10 -1.5t2 -10.5l-6 -33q29 27 65 42t86 15q77 0 118.5 -37.5t41.5 -106.5q0 -17 -2 -32.5t-5 -31.5l-39 -222q-1 -10 6 -14l28 -13l-15 -41h-98q-6 0 -9.5 1.5t-1.5 9.5l50 279q5 28 5 51q0 91 -104 91
q-43 0 -79 -15t-56 -28l-68 -389h-80zM74 484h-59l82 188h74z" />
    <glyph glyph-name="Eng" unicode="&#x14a;" horiz-adv-x="716" 
d="M368 -220q-38 0 -72.5 4t-66.5 13l12 67q29 -9 59 -13t60 -4q65 0 98 25t43 79l8 45l-289 562l-99 -558h-77l107 609q1 9 -8 13l-28 13l14 37h95q14 0 19 -2.5t10 -13.5l280 -542l98 558h77l-126 -718q-16 -91 -66.5 -132.5t-147.5 -41.5z" />
    <glyph glyph-name="eng" unicode="&#x14b;" horiz-adv-x="562" 
d="M262 -220q-52 0 -100 13l12 63q40 -12 79 -12q45 0 68 18.5t31 63.5l65 364q5 28 5 51q0 91 -104 91q-43 0 -79 -15t-56 -28l-68 -389h-80l72 412q2 10 1.5 13.5t-8.5 7.5l-26 12l16 41h96q6 0 10 -1.5t2 -10.5l-6 -33q29 27 65 42t86 15q77 0 118 -37.5t41 -106.5
q0 -33 -6 -64l-66 -376q-13 -72 -51.5 -103t-116.5 -31z" />
    <glyph glyph-name="Omacron" unicode="&#x14c;" horiz-adv-x="713" 
d="M329 -12q-134 0 -202 61.5t-68 181.5q0 106 24.5 190.5t70.5 142.5t112.5 89t150.5 31q134 0 202 -61.5t68 -181.5q0 -107 -24.5 -191t-70.5 -142t-112.5 -89t-150.5 -31zM333 55q63 0 113 25.5t85 74.5t53.5 118.5t18.5 158.5q0 185 -190 185q-63 0 -113 -25.5
t-85 -74.5t-53.5 -119t-18.5 -158q0 -185 190 -185zM599 782h-301l10 57h301z" />
    <glyph glyph-name="omacron" unicode="&#x14d;" horiz-adv-x="545" 
d="M241 -12q-204 0 -204 178q0 77 18 138.5t52.5 104.5t84.5 66t113 23q101 0 152 -45t51 -133q0 -77 -18 -138.5t-52.5 -104.5t-84 -66t-112.5 -23zM245 52q42 0 76 18t57 52t35.5 81.5t12.5 107.5q0 123 -126 123q-42 0 -76 -18t-57 -52t-35.5 -81.5t-12.5 -107.5
q0 -123 126 -123zM485 606h-301l10 57h301z" />
    <glyph glyph-name="Obreve" unicode="&#x14e;" horiz-adv-x="713" 
d="M329 -12q-134 0 -202 61.5t-68 181.5q0 106 24.5 190.5t70.5 142.5t112.5 89t150.5 31q134 0 202 -61.5t68 -181.5q0 -107 -24.5 -191t-70.5 -142t-112.5 -89t-150.5 -31zM333 55q63 0 113 25.5t85 74.5t53.5 118.5t18.5 158.5q0 185 -190 185q-63 0 -113 -25.5
t-85 -74.5t-53.5 -119t-18.5 -158q0 -185 190 -185zM447 731q-136 0 -136 106q0 10 1 20.5t3 22.5h57q-8 -49 10.5 -71.5t69.5 -22.5q50 0 75 21.5t33 72.5h59q-12 -80 -52.5 -114.5t-119.5 -34.5z" />
    <glyph glyph-name="obreve" unicode="&#x14f;" horiz-adv-x="545" 
d="M241 -12q-204 0 -204 178q0 77 18 138.5t52.5 104.5t84.5 66t113 23q101 0 152 -45t51 -133q0 -77 -18 -138.5t-52.5 -104.5t-84 -66t-112.5 -23zM245 52q42 0 76 18t57 52t35.5 81.5t12.5 107.5q0 123 -126 123q-42 0 -76 -18t-57 -52t-35.5 -81.5t-12.5 -107.5
q0 -123 126 -123zM333 555q-136 0 -136 106q0 10 1 20.5t3 22.5h57q-8 -49 10.5 -71.5t69.5 -22.5q50 0 75 21.5t33 72.5h59q-12 -80 -52.5 -114.5t-119.5 -34.5z" />
    <glyph glyph-name="Ohungarumlaut" unicode="&#x150;" horiz-adv-x="713" 
d="M329 -12q-134 0 -202 61.5t-68 181.5q0 106 24.5 190.5t70.5 142.5t112.5 89t150.5 31q134 0 202 -61.5t68 -181.5q0 -107 -24.5 -191t-70.5 -142t-112.5 -89t-150.5 -31zM333 55q63 0 113 25.5t85 74.5t53.5 118.5t18.5 158.5q0 185 -190 185q-63 0 -113 -25.5
t-85 -74.5t-53.5 -119t-18.5 -158q0 -185 190 -185zM369 740h-78l142 140h92zM569 740h-78l141 140h92z" />
    <glyph glyph-name="ohungarumlaut" unicode="&#x151;" horiz-adv-x="545" 
d="M241 -12q-204 0 -204 178q0 77 18 138.5t52.5 104.5t84.5 66t113 23q101 0 152 -45t51 -133q0 -77 -18 -138.5t-52.5 -104.5t-84 -66t-112.5 -23zM245 52q42 0 76 18t57 52t35.5 81.5t12.5 107.5q0 123 -126 123q-42 0 -76 -18t-57 -52t-35.5 -81.5t-12.5 -107.5
q0 -123 126 -123zM255 564h-78l142 140h92zM455 564h-78l141 140h92z" />
    <glyph glyph-name="OE" unicode="&#x152;" horiz-adv-x="1006" 
d="M919 0h-554q-157 0 -231.5 59t-74.5 184q0 209 100 319t292 110h578l-12 -64h-353l-42 -235h282l-11 -62h-282l-43 -247h362zM375 66h110l95 540h-132q-150 0 -227.5 -91t-77.5 -266q0 -96 55.5 -139.5t176.5 -43.5z" />
    <glyph glyph-name="oe" unicode="&#x153;" horiz-adv-x="905" 
d="M242 -12q-204 0 -204 178q0 78 18 139.5t52.5 104.5t84 65.5t113.5 22.5q75 0 120.5 -29.5t57.5 -86.5q29 57 78 86.5t118 29.5q95 0 140.5 -42t45.5 -131q0 -52 -14 -105h-351q-2 -13 -2.5 -27t0.5 -28q2 -55 42.5 -84.5t112.5 -29.5q38 0 77 4.5t78 15.5l-11 -64
q-72 -19 -153 -19q-84 0 -135.5 30.5t-64.5 87.5q-30 -57 -81.5 -87.5t-121.5 -30.5zM246 52q87 0 134 69t47 190q0 123 -126 123q-86 0 -133.5 -69t-47.5 -190q0 -123 126 -123zM510 275h274q6 24 6 53q0 57 -27.5 84.5t-87.5 27.5q-67 0 -109 -43t-56 -122z" />
    <glyph glyph-name="Racute" unicode="&#x154;" horiz-adv-x="636" 
d="M44 0l107 609q1 5 -0.5 7.5t-7.5 5.5l-28 13l14 37h286q106 0 156.5 -36.5t50.5 -114.5q0 -107 -50.5 -166.5t-150.5 -70.5l126 -284h-81l-122 275h-171l-48 -275h-81zM184 339h180q177 0 177 172q0 51 -33 74t-105 23h-171zM432 740h-78l141 140h92z" />
    <glyph glyph-name="racute" unicode="&#x155;" horiz-adv-x="365" 
d="M35 0l72 412q2 10 1.5 13.5t-8.5 7.5l-26 12l16 41h96q6 0 10 -1.5t2 -10.5l-7 -43q32 32 67.5 49.5t76.5 17.5q15 0 30.5 -1.5t29.5 -4.5l-20 -66q-26 6 -52 6q-32 0 -66 -10.5t-77 -48.5l-65 -373h-80zM288 564h-78l141 140h92z" />
    <glyph glyph-name="uni0156" unicode="&#x156;" horiz-adv-x="636" 
d="M44 0l107 609q1 5 -0.5 7.5t-7.5 5.5l-28 13l14 37h286q106 0 156.5 -36.5t50.5 -114.5q0 -107 -50.5 -166.5t-150.5 -70.5l126 -284h-81l-122 275h-171l-48 -275h-81zM184 339h180q177 0 177 172q0 51 -33 74t-105 23h-171zM224 -256h-59l82 188h74z" />
    <glyph glyph-name="uni0157" unicode="&#x157;" horiz-adv-x="365" 
d="M35 0l72 412q2 10 1.5 13.5t-8.5 7.5l-26 12l16 41h96q6 0 10 -1.5t2 -10.5l-7 -43q32 32 67.5 49.5t76.5 17.5q15 0 30.5 -1.5t29.5 -4.5l-20 -66q-26 6 -52 6q-32 0 -66 -10.5t-77 -48.5l-65 -373h-80zM6 -256h-59l82 188h74z" />
    <glyph glyph-name="Rcaron" unicode="&#x158;" horiz-adv-x="636" 
d="M44 0l107 609q1 5 -0.5 7.5t-7.5 5.5l-28 13l14 37h286q106 0 156.5 -36.5t50.5 -114.5q0 -107 -50.5 -166.5t-150.5 -70.5l126 -284h-81l-122 275h-171l-48 -275h-81zM184 339h180q177 0 177 172q0 51 -33 74t-105 23h-171zM447 740h-80l-98 140h68l74 -95l106 95h76z
" />
    <glyph glyph-name="rcaron" unicode="&#x159;" horiz-adv-x="365" 
d="M35 0l72 412q2 10 1.5 13.5t-8.5 7.5l-26 12l16 41h96q6 0 10 -1.5t2 -10.5l-7 -43q32 32 67.5 49.5t76.5 17.5q15 0 30.5 -1.5t29.5 -4.5l-20 -66q-26 6 -52 6q-32 0 -66 -10.5t-77 -48.5l-65 -373h-80zM303 564h-80l-98 140h68l74 -95l106 95h76z" />
    <glyph glyph-name="Sacute" unicode="&#x15a;" horiz-adv-x="579" 
d="M252 -12q-127 0 -232 39l11 66q105 -40 220 -40q88 0 137.5 35.5t49.5 103.5q0 43 -25.5 66.5t-63.5 37.5t-82 25t-82 30t-63.5 51t-25.5 89q0 46 19.5 82t54 61t82 37.5t103.5 12.5q66 0 122.5 -11.5t87.5 -25.5l-24 -60q-34 14 -81 23.5t-101 9.5q-88 0 -137 -32
t-49 -96q0 -39 25.5 -60.5t63.5 -35.5t82.5 -26t82.5 -31.5t63.5 -52.5t25.5 -89q0 -100 -69 -154.5t-195 -54.5zM396 740h-78l141 140h92z" />
    <glyph glyph-name="sacute" unicode="&#x15b;" horiz-adv-x="445" 
d="M192 -12q-98 0 -178 28l12 65q40 -15 79.5 -23t81.5 -8q61 0 96 23.5t35 68.5q0 27 -18.5 42t-46.5 24t-60.5 17t-60.5 21.5t-46.5 37.5t-18.5 65q0 69 54.5 109t148.5 40q40 0 79.5 -7t75.5 -22l-23 -61v0q-28 11 -58 19.5t-76 8.5q-60 0 -93 -21t-33 -63
q0 -25 18.5 -38.5t46.5 -23t60.5 -18t60.5 -23t46.5 -38.5t18.5 -64q0 -76 -53.5 -117.5t-147.5 -41.5zM310 564h-78l141 140h92z" />
    <glyph glyph-name="Scircumflex" unicode="&#x15c;" horiz-adv-x="579" 
d="M252 -12q-127 0 -232 39l11 66q105 -40 220 -40q88 0 137.5 35.5t49.5 103.5q0 43 -25.5 66.5t-63.5 37.5t-82 25t-82 30t-63.5 51t-25.5 89q0 46 19.5 82t54 61t82 37.5t103.5 12.5q66 0 122.5 -11.5t87.5 -25.5l-24 -60q-34 14 -81 23.5t-101 9.5q-88 0 -137 -32
t-49 -96q0 -39 25.5 -60.5t63.5 -35.5t82.5 -26t82.5 -31.5t63.5 -52.5t25.5 -89q0 -100 -69 -154.5t-195 -54.5zM284 740h-76l146 140h80l98 -140h-68l-74 95z" />
    <glyph glyph-name="scircumflex" unicode="&#x15d;" horiz-adv-x="445" 
d="M192 -12q-98 0 -178 28l12 65q40 -15 79.5 -23t81.5 -8q61 0 96 23.5t35 68.5q0 27 -18.5 42t-46.5 24t-60.5 17t-60.5 21.5t-46.5 37.5t-18.5 65q0 69 54.5 109t148.5 40q40 0 79.5 -7t75.5 -22l-23 -61v0q-28 11 -58 19.5t-76 8.5q-60 0 -93 -21t-33 -63
q0 -25 18.5 -38.5t46.5 -23t60.5 -18t60.5 -23t46.5 -38.5t18.5 -64q0 -76 -53.5 -117.5t-147.5 -41.5zM194 564h-76l146 140h80l98 -140h-68l-74 95z" />
    <glyph glyph-name="Scedilla" unicode="&#x15e;" horiz-adv-x="579" 
d="M199 -231q-23 0 -46.5 3t-46.5 10l8 46q19 -6 39 -9.5t40 -3.5q34 0 53 14t19 39q0 18 -14 27t-46 9h-7l15 85q-53 3 -100.5 12t-92.5 26l11 66q105 -40 220 -40q88 0 137.5 35.5t49.5 103.5q0 43 -25.5 66.5t-63.5 37.5t-82 25t-82 30t-63.5 51t-25.5 89q0 46 19.5 82
t54 61t82 37.5t103.5 12.5q66 0 122.5 -11.5t87.5 -25.5l-24 -60q-34 14 -81 23.5t-101 9.5q-88 0 -137 -32t-49 -96q0 -40 25.5 -62t63.5 -36t82.5 -25.5t82.5 -31t63.5 -52t25.5 -88.5q0 -96 -64 -150t-182 -59l-9 -48q68 -6 68 -67q0 -49 -34.5 -76.5t-95.5 -27.5z" />
    <glyph glyph-name="scedilla" unicode="&#x15f;" horiz-adv-x="442" 
d="M137 -231q-23 0 -46.5 3t-46.5 10l8 46q19 -6 39 -9.5t40 -3.5q34 0 53 14t19 39q0 18 -14 27t-46 9h-7l15 85q-74 5 -137 27l12 65q40 -15 79.5 -23t81.5 -8q61 0 96 23.5t35 68.5q0 27 -18.5 42t-46.5 24t-60.5 17t-60.5 21.5t-46.5 37.5t-18.5 65q0 69 54.5 109
t148.5 40q40 0 79.5 -7t75.5 -22l-23 -61q-28 11 -58 19.5t-76 8.5q-60 0 -93 -21t-33 -63q0 -26 18.5 -40t46.5 -23t60.5 -17.5t60.5 -22.5t46.5 -38t18.5 -64q0 -73 -49 -113.5t-136 -44.5l-9 -49q68 -6 68 -67q0 -49 -34.5 -76.5t-95.5 -27.5z" />
    <glyph glyph-name="Scaron" unicode="&#x160;" horiz-adv-x="579" 
d="M252 -12q-127 0 -232 39l11 66q105 -40 220 -40q88 0 137.5 35.5t49.5 103.5q0 43 -25.5 66.5t-63.5 37.5t-82 25t-82 30t-63.5 51t-25.5 89q0 46 19.5 82t54 61t82 37.5t103.5 12.5q66 0 122.5 -11.5t87.5 -25.5l-24 -60q-34 14 -81 23.5t-101 9.5q-88 0 -137 -32
t-49 -96q0 -39 25.5 -60.5t63.5 -35.5t82.5 -26t82.5 -31.5t63.5 -52.5t25.5 -89q0 -100 -69 -154.5t-195 -54.5zM415 740h-80l-98 140h68l74 -95l106 95h76z" />
    <glyph glyph-name="scaron" unicode="&#x161;" horiz-adv-x="445" 
d="M192 -12q-98 0 -178 28l12 65q40 -15 79.5 -23t81.5 -8q61 0 96 23.5t35 68.5q0 27 -18.5 42t-46.5 24t-60.5 17t-60.5 21.5t-46.5 37.5t-18.5 65q0 69 54.5 109t148.5 40q40 0 79.5 -7t75.5 -22l-23 -61v0q-28 11 -58 19.5t-76 8.5q-60 0 -93 -21t-33 -63
q0 -25 18.5 -38.5t46.5 -23t60.5 -18t60.5 -23t46.5 -38.5t18.5 -64q0 -76 -53.5 -117.5t-147.5 -41.5zM325 564h-80l-98 140h68l74 -95l106 95h76z" />
    <glyph glyph-name="uni0162" unicode="&#x162;" horiz-adv-x="585" 
d="M291 0h-82l106 606h-230l11 66h544l-12 -66h-230zM197 -256h-59l82 188h74z" />
    <glyph glyph-name="uni0163" unicode="&#x163;" horiz-adv-x="361" 
d="M212 -12q-75 0 -112.5 30.5t-37.5 89.5q0 23 5 51l43 246q2 10 1.5 14t-8.5 7l-55 19l16 41h60l25 145h80l-26 -145h168l-12 -63h-167l-45 -261q-2 -10 -3 -19.5t-1 -19.5q0 -71 87 -71q16 0 32 2t33 5l-11 -64q-31 -7 -72 -7zM98 -256h-59l82 188h74z" />
    <glyph glyph-name="Tcaron" unicode="&#x164;" horiz-adv-x="585" 
d="M291 0h-82l106 606h-230l11 66h544l-12 -66h-230zM420 740h-80l-98 140h68l74 -95l106 95h76z" />
    <glyph glyph-name="tcaron" unicode="&#x165;" horiz-adv-x="361" 
d="M212 -12q-75 0 -112.5 30.5t-37.5 89.5q0 23 5 51l43 246q2 10 1.5 14t-8.5 7l-55 19l16 41h60l25 145h80l-26 -145h168l-12 -63h-167l-45 -261q-2 -10 -3 -19.5t-1 -19.5q0 -71 87 -71q16 0 32 2t33 5l-11 -64q-31 -7 -72 -7zM324 554h-59l82 188h74z" />
    <glyph glyph-name="Tbar" unicode="&#x166;" horiz-adv-x="585" 
d="M291 0h-82l50 287h-152l10 59h152l46 260h-230l11 66h544l-12 -66h-230l-46 -260h151l-11 -59h-150z" />
    <glyph glyph-name="tbar" unicode="&#x167;" horiz-adv-x="371" 
d="M222 -12q-75 0 -112.5 30.5t-37.5 89.5q0 23 5 51l11 60h-93l10 53h92l23 133q2 10 1.5 14t-8.5 7l-55 19l16 41h60l25 145h81l-26 -145h167l-12 -63h-166l-26 -151h151l-10 -53h-150l-10 -57q-2 -10 -3 -19.5t-1 -19.5q0 -71 86 -71q16 0 32 2t33 5l-11 -64
q-31 -7 -72 -7z" />
    <glyph glyph-name="Utilde" unicode="&#x168;" horiz-adv-x="716" 
d="M320 -12q-55 0 -99 13t-75 38t-47.5 59.5t-16.5 78.5q0 21 2 43t6 45l61 344q1 5 -0.5 7.5t-7.5 5.5l-28 13l14 37h116l-72 -407q-3 -19 -5 -38.5t-2 -36.5q0 -62 43.5 -98.5t117.5 -36.5q101 0 153 43.5t69 140.5l76 433h83l-77 -439q-11 -65 -34.5 -111.5t-61.5 -76
t-91.5 -43.5t-123.5 -14zM301 761l2 10q10 54 35.5 78t71.5 24q21 0 36.5 -8t27.5 -17.5t23.5 -17.5t25.5 -8q23 0 34.5 11.5t16.5 39.5l1 7h58l-2 -11q-10 -54 -35.5 -78t-71.5 -24q-21 0 -36.5 8t-28 17.5t-24 17.5t-24.5 8q-23 0 -34.5 -11.5t-16.5 -39.5l-1 -6h-58z" />
    <glyph glyph-name="utilde" unicode="&#x169;" horiz-adv-x="554" 
d="M239 -12q-84 0 -132 37.5t-48 103.5q0 32 6 64l38 219q2 10 1.5 13.5t-8.5 7.5l-25 12l16 41h95q6 0 10 -1.5t2 -10.5l-49 -281q-2 -13 -3.5 -26t-1.5 -25q0 -42 28.5 -66t78.5 -24q65 0 99.5 29t45.5 94l54 311h80l-55 -317q-16 -95 -71.5 -138t-160.5 -43zM185 575
l2 10q10 54 35.5 78t71.5 24q21 0 36.5 -8t27.5 -17.5t23.5 -17.5t25.5 -8q23 0 34.5 11.5t16.5 39.5l1 7h58l-2 -11q-10 -54 -35.5 -78t-71.5 -24q-21 0 -36.5 8t-28 17.5t-24 17.5t-24.5 8q-23 0 -34.5 -11.5t-16.5 -39.5l-1 -6h-58z" />
    <glyph glyph-name="Umacron" unicode="&#x16a;" horiz-adv-x="716" 
d="M320 -12q-55 0 -99 13t-75 38t-47.5 59.5t-16.5 78.5q0 21 2 43t6 45l61 344q1 5 -0.5 7.5t-7.5 5.5l-28 13l14 37h116l-72 -407q-3 -19 -5 -38.5t-2 -36.5q0 -62 43.5 -98.5t117.5 -36.5q101 0 153 43.5t69 140.5l76 433h83l-77 -439q-11 -65 -34.5 -111.5t-61.5 -76
t-91.5 -43.5t-123.5 -14zM602 782h-301l10 57h301z" />
    <glyph glyph-name="umacron" unicode="&#x16b;" horiz-adv-x="554" 
d="M239 -12q-84 0 -132 37.5t-48 103.5q0 32 6 64l38 219q2 10 1.5 13.5t-8.5 7.5l-25 12l16 41h95q6 0 10 -1.5t2 -10.5l-49 -281q-2 -13 -3.5 -26t-1.5 -25q0 -42 28.5 -66t78.5 -24q65 0 99.5 29t45.5 94l54 311h80l-55 -317q-16 -95 -71.5 -138t-160.5 -43zM491 606
h-301l10 57h301z" />
    <glyph glyph-name="Ubreve" unicode="&#x16c;" horiz-adv-x="716" 
d="M320 -12q-55 0 -99 13t-75 38t-47.5 59.5t-16.5 78.5q0 21 2 43t6 45l61 344q1 5 -0.5 7.5t-7.5 5.5l-28 13l14 37h116l-72 -407q-3 -19 -5 -38.5t-2 -36.5q0 -62 43.5 -98.5t117.5 -36.5q101 0 153 43.5t69 140.5l76 433h83l-77 -439q-11 -65 -34.5 -111.5t-61.5 -76
t-91.5 -43.5t-123.5 -14zM450 731q-136 0 -136 106q0 10 1 20.5t3 22.5h57q-8 -49 10.5 -71.5t69.5 -22.5q50 0 75 21.5t33 72.5h59q-12 -80 -52.5 -114.5t-119.5 -34.5z" />
    <glyph glyph-name="ubreve" unicode="&#x16d;" horiz-adv-x="554" 
d="M239 -12q-84 0 -132 37.5t-48 103.5q0 32 6 64l38 219q2 10 1.5 13.5t-8.5 7.5l-25 12l16 41h95q6 0 10 -1.5t2 -10.5l-49 -281q-2 -13 -3.5 -26t-1.5 -25q0 -42 28.5 -66t78.5 -24q65 0 99.5 29t45.5 94l54 311h80l-55 -317q-16 -95 -71.5 -138t-160.5 -43zM339 555
q-136 0 -136 106q0 10 1 20.5t3 22.5h57q-8 -49 10.5 -71.5t69.5 -22.5q50 0 75 21.5t33 72.5h59q-12 -80 -52.5 -114.5t-119.5 -34.5z" />
    <glyph glyph-name="Uring" unicode="&#x16e;" horiz-adv-x="716" 
d="M320 -12q-55 0 -99 13t-75 38t-47.5 59.5t-16.5 78.5q0 21 2 43t6 45l61 344q1 5 -0.5 7.5t-7.5 5.5l-28 13l14 37h116l-72 -407q-3 -19 -5 -38.5t-2 -36.5q0 -62 43.5 -98.5t117.5 -36.5q101 0 153 43.5t69 140.5l76 433h83l-77 -439q-11 -65 -34.5 -111.5t-61.5 -76
t-91.5 -43.5t-123.5 -14zM443 716q-91 0 -91 74q0 54 32 84t86 30q91 0 91 -74q0 -53 -31.5 -83.5t-86.5 -30.5zM447 754q30 0 49 19t19 52q0 42 -49 42q-31 0 -49.5 -19.5t-18.5 -52.5q0 -41 49 -41z" />
    <glyph glyph-name="uring" unicode="&#x16f;" horiz-adv-x="554" 
d="M239 -12q-84 0 -132 37.5t-48 103.5q0 32 6 64l38 219q2 10 1.5 13.5t-8.5 7.5l-25 12l16 41h95q6 0 10 -1.5t2 -10.5l-49 -281q-2 -13 -3.5 -26t-1.5 -25q0 -42 28.5 -66t78.5 -24q65 0 99.5 29t45.5 94l54 311h80l-55 -317q-16 -95 -71.5 -138t-160.5 -43zM332 540
q-91 0 -91 74q0 54 32 84t86 30q91 0 91 -74q0 -53 -31.5 -83.5t-86.5 -30.5zM336 578q30 0 49 19t19 52q0 42 -49 42q-31 0 -49.5 -19.5t-18.5 -52.5q0 -41 49 -41z" />
    <glyph glyph-name="Uhungarumlaut" unicode="&#x170;" horiz-adv-x="716" 
d="M320 -12q-55 0 -99 13t-75 38t-47.5 59.5t-16.5 78.5q0 21 2 43t6 45l61 344q1 5 -0.5 7.5t-7.5 5.5l-28 13l14 37h116l-72 -407q-3 -19 -5 -38.5t-2 -36.5q0 -62 43.5 -98.5t117.5 -36.5q101 0 153 43.5t69 140.5l76 433h83l-77 -439q-11 -65 -34.5 -111.5t-61.5 -76
t-91.5 -43.5t-123.5 -14zM372 740h-78l142 140h92zM572 740h-78l141 140h92z" />
    <glyph glyph-name="uhungarumlaut" unicode="&#x171;" horiz-adv-x="554" 
d="M239 -12q-84 0 -132 37.5t-48 103.5q0 32 6 64l38 219q2 10 1.5 13.5t-8.5 7.5l-25 12l16 41h95q6 0 10 -1.5t2 -10.5l-49 -281q-2 -13 -3.5 -26t-1.5 -25q0 -42 28.5 -66t78.5 -24q65 0 99.5 29t45.5 94l54 311h80l-55 -317q-16 -95 -71.5 -138t-160.5 -43zM261 564h-78
l142 140h92zM461 564h-78l141 140h92z" />
    <glyph glyph-name="Uogonek" unicode="&#x172;" horiz-adv-x="716" 
d="M314 -231q-98 0 -98 75q0 37 32.5 75.5t89.5 70.5h-25.5t-26.5 1q-94 6 -149 56t-55 130q0 21 2 43t6 45l61 344q1 5 -0.5 7.5t-7.5 5.5l-28 13l14 37h116l-72 -407q-3 -19 -5 -38.5t-2 -36.5q0 -62 43.5 -98.5t117.5 -36.5q101 0 153 43.5t69 140.5l76 433h83l-77 -439
q-9 -48 -23 -84.5t-36.5 -64.5t-54 -49t-74.5 -38q-36 -14 -65.5 -31t-50.5 -35t-33 -36.5t-12 -34.5q0 -20 12.5 -30.5t41.5 -10.5q18 0 36 3l-9 -49q-11 -2 -23 -3t-26 -1z" />
    <glyph glyph-name="uogonek" unicode="&#x173;" horiz-adv-x="554" 
d="M225 -231q-98 0 -98 75q0 37 32 76.5t86 71.5q-17 -3 -39 -1q-68 5 -107.5 41.5t-39.5 96.5q0 29 6 64l38 219q2 10 1.5 13.5t-8.5 7.5l-25 12l16 41h95q6 0 10 -1.5t2 -10.5l-49 -281q-2 -14 -3.5 -26.5t-1.5 -24.5q0 -42 28.5 -66t78.5 -24q65 0 99.5 29t45.5 94
l54 311h80l-55 -317q-6 -33 -15.5 -58.5t-25 -45.5t-37 -36t-51.5 -30q-72 -35 -111 -71t-39 -68q0 -41 55 -41q18 0 36 3l-9 -49q-20 -4 -49 -4z" />
    <glyph glyph-name="Wcircumflex" unicode="&#x174;" horiz-adv-x="942" 
d="M257 0h-91q-17 76 -30.5 166t-24 180.5t-17 175t-7.5 150.5h79q6 -154 20 -300.5t40 -286.5h2q35 66 70 139t68.5 147t65 147.5t58.5 139.5h78q5 -86 10.5 -158.5t12.5 -140t16.5 -134t21.5 -140.5h2q31 55 65 124.5t69 146.5t69 158t64 158h81q-24 -66 -60 -150.5
t-78 -175t-88 -180.5t-90 -166h-93q-27 137 -44 273.5t-17 264.5h-1q-48 -137 -114 -273t-137 -265zM455 740h-76l146 140h80l98 -140h-68l-74 95z" />
    <glyph glyph-name="wcircumflex" unicode="&#x175;" horiz-adv-x="793" 
d="M238 0h-87q-12 46 -24 105.5t-23 125t-20 131.5t-15 124h78q11 -106 25.5 -208.5t34.5 -204.5h2q27 49 53.5 101t52 103.5t49 101t42.5 95.5h69q10 -109 24 -206.5t34 -194.5h2q57 109 108 210.5t96 202.5h78q-27 -58 -59.5 -124t-66 -131.5t-67 -125t-61.5 -105.5h-85
q-21 88 -37 181t-22 181q-19 -46 -40.5 -93.5t-45 -94t-47.5 -91t-48 -83.5zM367 564h-76l146 140h80l98 -140h-68l-74 95z" />
    <glyph glyph-name="Ycircumflex" unicode="&#x176;" horiz-adv-x="591" 
d="M294 0h-83l51 295l-171 377h85l137 -311l244 311h94l-307 -387zM292 740h-76l146 140h80l98 -140h-68l-74 95z" />
    <glyph glyph-name="ycircumflex" unicode="&#x177;" horiz-adv-x="558" 
d="M188 -220q-26 0 -51 3t-43 8l11 63q23 -6 45 -8t37 -2q43 0 73.5 10.5t50.5 29t31 43t16 52.5l12 67q-25 -27 -60.5 -42.5t-80.5 -15.5q-80 0 -125 37.5t-45 103.5q0 32 6 64l38 219q2 10 1.5 13.5t-8.5 7.5l-25 12l16 41h95q6 0 10 -1.5t2 -10.5l-49 -281
q-2 -13 -3.5 -26t-1.5 -25q0 -42 28.5 -66t78.5 -24q60 0 97.5 31.5t48.5 94.5l53 308h80l-86 -501q-8 -47 -26 -85t-48.5 -64.5t-74 -41t-103.5 -14.5zM204 564h-76l146 140h80l98 -140h-68l-74 95z" />
    <glyph glyph-name="Ydieresis" unicode="&#x178;" horiz-adv-x="591" 
d="M294 0h-83l51 295l-171 377h85l137 -311l244 311h94l-307 -387zM484 761q-42 0 -42 38q0 60 58 60q43 0 43 -38q0 -29 -15 -44.5t-44 -15.5zM285 761q-43 0 -43 38q0 60 59 60q42 0 42 -38q0 -29 -14.5 -44.5t-43.5 -15.5z" />
    <glyph glyph-name="Zacute" unicode="&#x179;" horiz-adv-x="612" 
d="M525 0h-523l11 63l502 543h-399l12 66h505l-11 -63l-503 -543h417zM418 740h-78l141 140h92z" />
    <glyph glyph-name="zacute" unicode="&#x17a;" horiz-adv-x="465" 
d="M386 0h-384l10 60l343 363h-272l11 63h369l-11 -60l-343 -363h288zM319 564h-78l141 140h92z" />
    <glyph glyph-name="Zdotaccent" unicode="&#x17b;" horiz-adv-x="612" 
d="M525 0h-523l11 63l502 543h-399l12 66h505l-11 -63l-503 -543h417zM395 761q-43 0 -43 38q0 60 58 60q43 0 43 -38q0 -29 -14.5 -44.5t-43.5 -15.5z" />
    <glyph glyph-name="zdotaccent" unicode="&#x17c;" horiz-adv-x="465" 
d="M386 0h-384l10 60l343 363h-272l11 63h369l-11 -60l-343 -363h288zM296 585q-43 0 -43 38q0 60 58 60q43 0 43 -38q0 -29 -14.5 -44.5t-43.5 -15.5z" />
    <glyph glyph-name="Zcaron" unicode="&#x17d;" horiz-adv-x="612" 
d="M525 0h-523l11 63l502 543h-399l12 66h505l-11 -63l-503 -543h417zM433 740h-80l-98 140h68l74 -95l106 95h76z" />
    <glyph glyph-name="zcaron" unicode="&#x17e;" horiz-adv-x="465" 
d="M386 0h-384l10 60l343 363h-272l11 63h369l-11 -60l-343 -363h288zM334 564h-80l-98 140h68l74 -95l106 95h76z" />
    <glyph glyph-name="florin" unicode="&#x192;" 
d="M136 -12q-43 0 -87 11l11 62q36 -9 66 -9q74 0 89 76l40 231h-119l12 63h118l22 123q24 139 162 139q48 0 92 -11l-12 -62q-35 9 -70 9q-78 0 -93 -81l-21 -117h127l-12 -63h-126l-41 -237q-24 -134 -158 -134z" />
    <glyph glyph-name="Ohorn" unicode="&#x1a0;" horiz-adv-x="713" 
d="M506 617l10 55q51 0 76.5 21.5t35.5 72.5h58q-15 -79 -57.5 -114t-122.5 -35zM329 -12q-134 0 -202 61.5t-68 181.5q0 106 24.5 190.5t70.5 142.5t112.5 89t150.5 31q134 0 202 -61.5t68 -181.5q0 -107 -24.5 -191t-70.5 -142t-112.5 -89t-150.5 -31zM333 55
q63 0 113 25.5t85 74.5t53.5 118.5t18.5 158.5q0 185 -190 185q-63 0 -113 -25.5t-85 -74.5t-53.5 -119t-18.5 -158q0 -185 190 -185z" />
    <glyph glyph-name="ohorn" unicode="&#x1a1;" horiz-adv-x="545" 
d="M379 431l10 55q51 0 76.5 21.5t35.5 72.5h58q-15 -79 -57.5 -114t-122.5 -35zM241 -12q-204 0 -204 178q0 77 18 138.5t52.5 104.5t84.5 66t113 23q101 0 152 -45t51 -133q0 -77 -18 -138.5t-52.5 -104.5t-84 -66t-112.5 -23zM245 52q42 0 76 18t57 52t35.5 81.5
t12.5 107.5q0 123 -126 123q-42 0 -76 -18t-57 -52t-35.5 -81.5t-12.5 -107.5q0 -123 126 -123z" />
    <glyph glyph-name="Uhorn" unicode="&#x1af;" horiz-adv-x="716" 
d="M635 617l10 55q51 0 76.5 21.5t35.5 72.5h58q-15 -79 -57.5 -114t-122.5 -35zM320 -12q-55 0 -99 13t-75 38t-47.5 59.5t-16.5 78.5q0 21 2 43t6 45l61 344q1 5 -0.5 7.5t-7.5 5.5l-28 13l14 37h116l-72 -407q-3 -19 -5 -38.5t-2 -36.5q0 -62 43.5 -98.5t117.5 -36.5
q101 0 153 43.5t69 140.5l76 433h83l-77 -439q-11 -65 -34.5 -111.5t-61.5 -76t-91.5 -43.5t-123.5 -14z" />
    <glyph glyph-name="uhorn" unicode="&#x1b0;" horiz-adv-x="554" 
d="M447 431l10 55q51 0 76.5 21.5t35.5 72.5h58q-15 -79 -57.5 -114t-122.5 -35zM239 -12q-84 0 -132 37.5t-48 103.5q0 32 6 64l38 219q2 10 1.5 13.5t-8.5 7.5l-25 12l16 41h95q6 0 10 -1.5t2 -10.5l-49 -281q-2 -13 -3.5 -26t-1.5 -25q0 -42 28.5 -66t78.5 -24
q65 0 99.5 29t45.5 94l54 311h80l-55 -317q-16 -95 -71.5 -138t-160.5 -43z" />
    <glyph glyph-name="uni01CD" unicode="&#x1cd;" horiz-adv-x="639" 
d="M50 0h-83q34 80 81.5 174t98.5 186t102 174t93 138h92q22 -56 44 -138t40.5 -174t33 -186t20.5 -174h-82q-4 40 -9 85.5t-13 93.5h-332q-24 -48 -46 -93.5t-40 -85.5zM168 241h290q-9 50 -18.5 100t-20 96t-21.5 87t-22 74q-23 -33 -49 -74t-52.5 -87t-53.5 -96t-53 -100
zM435 740h-80l-98 140h68l74 -95l106 95h76z" />
    <glyph glyph-name="uni01CE" unicode="&#x1ce;" horiz-adv-x="557" 
d="M215 -12q-85 0 -130.5 44t-45.5 126q0 78 17 141t48 107t75.5 68t99.5 24q58 0 98 -17.5t66 -40.5l14 46h65l-73 -418q-1 -10 6 -14l28 -13l-15 -41h-74q-8 0 -11 1.5t-3 9.5v47q-70 -70 -165 -70zM238 52q127 0 150 126l38 215q-8 6 -21 13t-30.5 13t-38 10.5t-43.5 4.5
q-40 0 -71.5 -18.5t-54 -53t-34.5 -83.5t-12 -109q0 -58 30 -88t87 -30zM362 564h-80l-98 140h68l74 -95l106 95h76z" />
    <glyph glyph-name="Aringacute" unicode="&#x1fa;" horiz-adv-x="639" 
d="M50 0h-83q34 80 81.5 174t98.5 186t102 174t93 138h92q22 -56 44 -138t40.5 -174t33 -186t20.5 -174h-82q-4 40 -9 85.5t-13 93.5h-332q-24 -48 -46 -93.5t-40 -85.5zM168 241h290q-9 50 -18.5 100t-20 96t-21.5 87t-22 74q-23 -33 -49 -74t-52.5 -87t-53.5 -96t-53 -100
zM399 716q-91 0 -91 74q0 48 25.5 77t70.5 35l109 106h92l-127 -113q39 -17 39 -65q0 -53 -31.5 -83.5t-86.5 -30.5zM403 754q30 0 49 19t19 52q0 42 -49 42q-31 0 -49.5 -19.5t-18.5 -52.5q0 -41 49 -41z" />
    <glyph glyph-name="aringacute" unicode="&#x1fb;" horiz-adv-x="557" 
d="M215 -12q-85 0 -130.5 44t-45.5 126q0 78 17 141t48 107t75.5 68t99.5 24q58 0 98 -17.5t66 -40.5l14 46h65l-73 -418q-1 -10 6 -14l28 -13l-15 -41h-74q-8 0 -11 1.5t-3 9.5v47q-70 -70 -165 -70zM238 52q127 0 150 126l38 215q-8 6 -21 13t-30.5 13t-38 10.5t-43.5 4.5
q-40 0 -71.5 -18.5t-54 -53t-34.5 -83.5t-12 -109q0 -58 30 -88t87 -30zM320 540q-91 0 -91 74q0 48 25.5 77t70.5 35l109 106h92l-127 -113q39 -17 39 -65q0 -53 -31.5 -83.5t-86.5 -30.5zM324 578q30 0 49 19t19 52q0 42 -49 42q-31 0 -49.5 -19.5t-18.5 -52.5
q0 -41 49 -41z" />
    <glyph glyph-name="AEacute" unicode="&#x1fc;" horiz-adv-x="981" 
d="M50 0h-88q69 96 144.5 192.5t150.5 184.5t144.5 164t126.5 131h476l-12 -66h-361l-41 -233h289l-11 -62h-289l-43 -245h369l-12 -66h-452l31 179h-287q-35 -45 -69 -89.5t-66 -89.5zM234 241h249l64 360q-66 -69 -147 -162t-166 -198zM674 740h-78l141 140h92z" />
    <glyph glyph-name="aeacute" unicode="&#x1fd;" horiz-adv-x="853" 
d="M196 -12q-84 0 -127.5 31t-43.5 90q0 164 205 164q42 0 78.5 -7t67.5 -19l9 53q5 25 5 48q0 44 -33 65.5t-96 21.5q-35 0 -70 -4t-73 -15l11 63q73 19 150 19q139 0 167 -88q31 44 77 66t104 22q95 0 141 -42t46 -131q0 -52 -14 -105h-352q-3 -24 -3 -55q3 -54 43.5 -84
t112.5 -30q38 0 76.5 4.5t77.5 15.5l-11 -64q-70 -19 -152 -19q-78 0 -129 26t-73 75q-26 -48 -76 -74.5t-118 -26.5zM213 46q60 0 98 27t47 73l9 48q-56 24 -127 24q-69 0 -103 -24t-34 -76q0 -35 28 -53.5t82 -18.5zM457 275h275q6 24 6 53q0 57 -27.5 84.5t-87.5 27.5
q-67 0 -109.5 -42.5t-56.5 -122.5zM507 564h-78l141 140h92z" />
    <glyph glyph-name="Oslashacute" unicode="&#x1fe;" horiz-adv-x="713" 
d="M11 -32l94 106q-46 60 -46 157q0 106 24.5 190.5t70.5 142.5t112.5 89t150.5 31q119 0 187 -51l63 71h68l-95 -106q47 -61 47 -157q0 -107 -24.5 -191t-70.5 -142t-112.5 -89t-150.5 -31q-120 0 -188 50l-62 -70h-68zM332 52q64 0 115.5 26t87.5 75.5t55 120.5t19 160
q0 62 -23 103l-395 -443q49 -42 141 -42zM159 134l395 443q-49 43 -140 43q-65 0 -116 -26t-87 -75.5t-55 -120.5t-19 -160q0 -63 22 -104zM469 740h-78l141 140h92z" />
    <glyph glyph-name="oslashacute" unicode="&#x1ff;" horiz-adv-x="545" 
d="M-1 -32l73 82q-35 44 -35 116q0 77 18 138.5t52.5 104.5t84.5 66t113 23q84 0 134 -33l47 53h60l-73 -83q35 -44 35 -115q0 -77 -18 -138.5t-52.5 -104.5t-84 -66t-112.5 -23q-84 0 -136 32l-46 -52h-60zM244 46q44 0 79.5 18.5t60 53t38 83.5t13.5 109q0 20 -3.5 37
t-9.5 31l-271 -307q32 -25 93 -25zM123 108l271 306q-34 26 -93 26q-44 0 -79.5 -19t-60 -53.5t-38 -83t-13.5 -108.5q0 -42 13 -68zM355 564h-78l141 140h92z" />
    <glyph glyph-name="uni0218" unicode="&#x218;" horiz-adv-x="579" 
d="M252 -12q-127 0 -232 39l11 66q105 -40 220 -40q88 0 137.5 35.5t49.5 103.5q0 43 -25.5 66.5t-63.5 37.5t-82 25t-82 30t-63.5 51t-25.5 89q0 46 19.5 82t54 61t82 37.5t103.5 12.5q66 0 122.5 -11.5t87.5 -25.5l-24 -60q-34 14 -81 23.5t-101 9.5q-88 0 -137 -32
t-49 -96q0 -39 25.5 -60.5t63.5 -35.5t82.5 -26t82.5 -31.5t63.5 -52.5t25.5 -89q0 -100 -69 -154.5t-195 -54.5zM190 -256h-59l82 188h74z" />
    <glyph glyph-name="uni0219" unicode="&#x219;" horiz-adv-x="445" 
d="M192 -12q-98 0 -178 28l12 65q40 -15 79.5 -23t81.5 -8q61 0 96 23.5t35 68.5q0 27 -18.5 42t-46.5 24t-60.5 17t-60.5 21.5t-46.5 37.5t-18.5 65q0 69 54.5 109t148.5 40q40 0 79.5 -7t75.5 -22l-23 -61v0q-28 11 -58 19.5t-76 8.5q-60 0 -93 -21t-33 -63
q0 -25 18.5 -38.5t46.5 -23t60.5 -18t60.5 -23t46.5 -38.5t18.5 -64q0 -76 -53.5 -117.5t-147.5 -41.5zM131 -256h-59l82 188h74z" />
    <glyph glyph-name="uni021A" unicode="&#x21a;" horiz-adv-x="585" 
d="M291 0h-82l106 606h-230l11 66h544l-12 -66h-230zM197 -256h-59l82 188h74z" />
    <glyph glyph-name="uni021B" unicode="&#x21b;" horiz-adv-x="361" 
d="M212 -12q-75 0 -112.5 30.5t-37.5 89.5q0 23 5 51l43 246q2 10 1.5 14t-8.5 7l-55 19l16 41h60l25 145h80l-26 -145h168l-12 -63h-167l-45 -261q-2 -10 -3 -19.5t-1 -19.5q0 -71 87 -71q16 0 32 2t33 5l-11 -64q-31 -7 -72 -7zM98 -256h-59l82 188h74z" />
    <glyph glyph-name="circumflex" unicode="&#x2c6;" horiz-adv-x="240" 
d="M86 564h-76l146 140h80l98 -140h-68l-74 95z" />
    <glyph glyph-name="caron" unicode="&#x2c7;" horiz-adv-x="240" 
d="M217 564h-80l-98 140h68l74 -95l106 95h76z" />
    <glyph glyph-name="breve" unicode="&#x2d8;" horiz-adv-x="240" 
d="M180 555q-136 0 -136 106q0 10 1 20.5t3 22.5h57q-8 -49 10.5 -71.5t69.5 -22.5q50 0 75 21.5t33 72.5h59q-12 -80 -52.5 -114.5t-119.5 -34.5z" />
    <glyph glyph-name="dotaccent" unicode="&#x2d9;" horiz-adv-x="240" 
d="M179 585q-43 0 -43 38q0 60 58 60q43 0 43 -38q0 -29 -14.5 -44.5t-43.5 -15.5z" />
    <glyph glyph-name="ring" unicode="&#x2da;" horiz-adv-x="240" 
d="M173 540q-91 0 -91 74q0 54 32 84t86 30q91 0 91 -74q0 -53 -31.5 -83.5t-86.5 -30.5zM177 578q30 0 49 19t19 52q0 42 -49 42q-31 0 -49.5 -19.5t-18.5 -52.5q0 -41 49 -41z" />
    <glyph glyph-name="ogonek" unicode="&#x2db;" horiz-adv-x="240" 
d="M28 -231q-51 0 -74.5 18.5t-23.5 56.5q0 79 136 169l51 -13q-65 -47 -93.5 -80t-28.5 -60q0 -41 55 -41q18 0 36 3l-9 -49q-11 -2 -23 -3t-26 -1z" />
    <glyph glyph-name="tilde" unicode="&#x2dc;" horiz-adv-x="240" 
d="M21 575l2 14q8 52 31.5 75t68.5 23q20 0 36 -8t30.5 -17.5t27.5 -17.5t27 -8q20 0 31.5 11t15.5 37l2 10h59l-2 -14q-7 -53 -30.5 -76t-68.5 -23q-20 0 -36 8t-30.5 17.5t-27.5 17.5t-27 8q-20 0 -31.5 -11t-16.5 -37l-1 -9h-60z" />
    <glyph glyph-name="hungarumlaut" unicode="&#x2dd;" horiz-adv-x="240" 
d="M102 564h-78l142 140h92zM302 564h-78l141 140h92z" />
    <glyph glyph-name="gravecomb" unicode="&#x300;" horiz-adv-x="0" 
d="M-80 564h-74l-78 140h87z" />
    <glyph glyph-name="acutecomb" unicode="&#x301;" horiz-adv-x="0" 
d="M-112 564h-74l117 140h87z" />
    <glyph glyph-name="uni0302" unicode="&#x302;" horiz-adv-x="0" 
d="M-223 564h-73l149 140h80l97 -140h-73l-72 95z" />
    <glyph glyph-name="tildecomb" unicode="&#x303;" horiz-adv-x="0" 
d="M-286 575l2 10q10 54 35.5 78t71.5 24q21 0 36.5 -8t27.5 -17.5t23.5 -17.5t25.5 -8q23 0 34.5 11.5t16.5 39.5l1 7h58l-2 -11q-10 -54 -35.5 -78t-71.5 -24q-21 0 -36.5 8t-28 17.5t-24 17.5t-24.5 8q-23 0 -34.5 -11.5t-16.5 -39.5l-1 -6h-58z" />
    <glyph glyph-name="uni0306" unicode="&#x306;" horiz-adv-x="0" 
d="M-134 555q-80 0 -109.5 35t-14.5 114h58q-10 -51 7.5 -72.5t68.5 -21.5t76.5 21.5t35.5 72.5h58q-15 -79 -57.5 -114t-122.5 -35z" />
    <glyph glyph-name="hookabovecomb" unicode="&#x309;" horiz-adv-x="0" 
d="M-167 548q33 19 49 35t21 40q1 4 1 12q0 31 -37 31q-25 0 -53 -30l-22 32q17 20 42 34t46 14q46 0 66 -14t20 -43t-9.5 -49.5t-31.5 -39.5t-65 -46z" />
    <glyph glyph-name="uni031B" unicode="&#x31b;" horiz-adv-x="0" 
d="M-134 431l10 55q51 0 76.5 21.5t35.5 72.5h58q-15 -79 -57.5 -114t-122.5 -35z" />
    <glyph glyph-name="dotbelowcomb" unicode="&#x323;" horiz-adv-x="0" 
d="M-157 -165q-43 0 -43 38q0 60 58 60q43 0 43 -38q0 -29 -14.5 -44.5t-43.5 -15.5z" />
    <glyph glyph-name="uni0394" unicode="&#x394;" horiz-adv-x="671" 
d="M589 0h-592l9 57l358 615h91l144 -619zM399 596l-304 -530h423z" />
    <glyph glyph-name="uni03A9" unicode="&#x3a9;" horiz-adv-x="713" 
d="M-17 0l12 66h185q-101 110 -101 265q0 82 22.5 147t65 111t105 70.5t143.5 24.5q136 0 203.5 -60.5t67.5 -175.5q0 -131 -53 -223.5t-159 -158.5h182l-11 -66h-279l12 63q111 63 167.5 157t56.5 216q0 181 -193 181q-119 0 -185 -76.5t-66 -215.5q0 -78 26.5 -145
t80.5 -121l-11 -59h-271z" />
    <glyph glyph-name="uni03BC" unicode="&#x3bc;" horiz-adv-x="551" 
d="M-9 -208l122 694h80l-51 -289q-5 -28 -5 -52q0 -91 109 -91q121 0 144 129l53 303h80l-85 -486h-60l3 57q-26 -34 -62.5 -51t-86.5 -17q-44 0 -74.5 15.5t-41.5 41.5l-45 -254h-80z" />
    <glyph glyph-name="pi" unicode="&#x3c0;" horiz-adv-x="583" 
d="M137 0h-77l74 423h-68l11 63h515l-11 -63h-69l-74 -423h-77l74 423h-224z" />
    <glyph glyph-name="uni0400" unicode="&#x400;" horiz-adv-x="580" 
d="M44 0l107 609q1 5 -0.5 7.5t-7.5 5.5l-28 13l14 37h477l-12 -66h-361l-41 -233h289l-11 -62h-289l-43 -245h369l-11 -66h-452zM440 740h-68l-109 140h81z" />
    <glyph glyph-name="uni0401" unicode="&#x401;" horiz-adv-x="580" 
d="M44 0l107 609q1 5 -0.5 7.5t-7.5 5.5l-28 13l14 37h477l-12 -66h-361l-41 -233h289l-11 -62h-289l-43 -245h369l-11 -66h-452zM491 761q-42 0 -42 38q0 60 58 60q43 0 43 -38q0 -29 -15 -44.5t-44 -15.5zM292 761q-43 0 -43 38q0 60 59 60q42 0 42 -38q0 -29 -14.5 -44.5
t-43.5 -15.5z" />
    <glyph glyph-name="uni0402" unicode="&#x402;" horiz-adv-x="832" 
d="M521 -12q-31 0 -62.5 3.5t-63.5 9.5l11 67q55 -13 110 -13q88 0 134 41.5t46 120.5q0 58 -38.5 83.5t-125.5 25.5q-47 0 -94 -5t-93 -16l-54 -305h-82l106 607h-230l11 65h544l-12 -65h-230l-42 -238q50 12 98 17.5t96 5.5q121 0 175.5 -38t54.5 -123q0 -115 -66 -179
t-193 -64z" />
    <glyph glyph-name="uni0403" unicode="&#x403;" horiz-adv-x="508" 
d="M44 0l107 609q1 5 -0.5 7.5t-7.5 5.5l-28 13l14 37h434l-12 -65h-318l-106 -607h-83zM402 740h-78l141 140h92z" />
    <glyph glyph-name="uni0404" unicode="&#x404;" horiz-adv-x="596" 
d="M329 -12q-134 0 -202 61.5t-68 181.5q0 106 24.5 190.5t70.5 142.5t112.5 89t150.5 31q66 0 121 -11t86 -25l-24 -63q-29 12 -73.5 22.5t-101.5 10.5q-107 0 -176.5 -63.5t-93.5 -181.5h346l-10 -62h-346q-2 -17 -3 -33.5t-1 -33.5q0 -93 52 -142t152 -49q46 0 89 6
t87 17l-12 -67q-42 -10 -87 -15.5t-93 -5.5z" />
    <glyph glyph-name="uni0405" unicode="&#x405;" horiz-adv-x="579" 
d="M252 -12q-127 0 -232 39l11 66q105 -40 220 -40q88 0 137.5 35.5t49.5 103.5q0 43 -25.5 66.5t-63.5 37.5t-82 25t-82 30t-63.5 51t-25.5 89q0 46 19.5 82t54 61t82 37.5t103.5 12.5q66 0 122.5 -11.5t87.5 -25.5l-24 -60q-34 14 -81 23.5t-101 9.5q-88 0 -137 -32
t-49 -96q0 -39 25.5 -60.5t63.5 -35.5t82.5 -26t82.5 -31.5t63.5 -52.5t25.5 -89q0 -100 -69 -154.5t-195 -54.5z" />
    <glyph glyph-name="uni0406" unicode="&#x406;" horiz-adv-x="253" 
d="M44 0l107 609q1 5 -0.5 7.5t-7.5 5.5l-28 13l14 37h102q6 0 10 -1.5t2 -10.5l-116 -660h-83z" />
    <glyph glyph-name="uni0407" unicode="&#x407;" horiz-adv-x="250" 
d="M44 0l107 609q1 5 -0.5 7.5t-7.5 5.5l-28 13l14 37h102q6 0 10 -1.5t2 -10.5l-116 -660h-83zM313 761q-42 0 -42 38q0 60 58 60q43 0 43 -38q0 -29 -15 -44.5t-44 -15.5zM114 761q-43 0 -43 38q0 60 59 60q42 0 42 -38q0 -29 -14.5 -44.5t-43.5 -15.5z" />
    <glyph glyph-name="uni0408" unicode="&#x408;" horiz-adv-x="439" 
d="M127 -12q-38 0 -72.5 4t-66.5 13l11 67q29 -9 59.5 -13t60.5 -4q64 0 97 27.5t44 91.5l88 498h83l-90 -510q-17 -91 -67 -132.5t-147 -41.5z" />
    <glyph glyph-name="uni0409" unicode="&#x409;" horiz-adv-x="1097" 
d="M25 -8q-12 0 -24 1t-24 3l13 70q13 -3 29 -3q42 0 73 17t55 57.5t43 108t37 168.5l35 195q1 5 -0.5 7.5t-7.5 5.5l-28 13l14 37h486l-46 -259h157q112 0 163.5 -37.5t51.5 -118.5q0 -127 -67.5 -192t-200.5 -65h-256l107 607h-294l-35 -199q-21 -118 -45.5 -197.5
t-57.5 -128t-76.5 -69.5t-101.5 -21zM619 65h167q185 0 185 180q0 53 -35.5 78t-110.5 25h-157z" />
    <glyph glyph-name="uni040A" unicode="&#x40a;" horiz-adv-x="1084" 
d="M44 0l107 609q1 5 -0.5 7.5t-7.5 5.5l-28 13l14 37h99q6 0 10 -1.5t2 -10.5l-49 -279h391l51 291h80l-51 -291h176q102 0 150 -34.5t48 -107.5q1 -116 -62 -177.5t-184 -61.5h-275l56 316h-392l-55 -316h-80zM606 65h182q83 0 126 40.5t41 121.5q-1 46 -30 67.5t-98 21.5
h-177z" />
    <glyph glyph-name="uni040B" unicode="&#x40b;" horiz-adv-x="832" 
d="M209 0l106 607h-230l11 65h544l-12 -65h-230l-42 -238q95 23 178 23q224 0 224 -183q0 -14 -2 -30l-4 -32l-26 -147h-82l25 144q2 14 3.5 26.5t1.5 23.5q0 132 -167 132q-78 0 -162 -21l-54 -305h-82z" />
    <glyph glyph-name="uni040C" unicode="&#x40c;" horiz-adv-x="597" 
d="M44 0l107 609q1 5 -0.5 7.5t-7.5 5.5l-28 13l14 37h100q6 0 10 -1.5t2 -10.5l-56 -319l373 331h97l-348 -312l232 -360h-87l-200 311l-83 -73l-44 -238h-81zM408 740h-78l141 140h92z" />
    <glyph glyph-name="uni040D" unicode="&#x40d;" horiz-adv-x="716" 
d="M44 0l107 609q1 5 -0.5 7.5t-7.5 5.5l-28 13l14 37h96q6 0 10 -1.5t2 -10.5l-94 -538l485 550h80l-118 -672h-77l96 550l-485 -550h-80zM497 740h-68l-109 140h81z" />
    <glyph glyph-name="uni040E" unicode="&#x40e;" horiz-adv-x="607" 
d="M103 -12q-21 0 -43.5 3t-44.5 10l13 66q20 -6 39 -9t36 -3q25 0 46.5 5.5t40 17.5t35.5 31.5t34 46.5l20 32l-176 484h84l142 -410l251 410h91l-335 -532q-26 -42 -51.5 -71t-53 -47t-59 -26t-69.5 -8zM402 731q-136 0 -136 106q0 10 1 20.5t3 22.5h57q-8 -49 10.5 -71.5
t69.5 -22.5q50 0 75 21.5t33 72.5h59q-12 -80 -52.5 -114.5t-119.5 -34.5z" />
    <glyph glyph-name="uni040F" unicode="&#x40f;" horiz-adv-x="716" 
d="M250 -160l28 160h-234l107 609q1 5 -0.5 7.5t-7.5 5.5l-28 13l14 37h102q6 0 10 -1.5t2 -10.5l-105 -595h381l106 607h83l-118 -672h-235l-28 -160h-77z" />
    <glyph glyph-name="uni0410" unicode="&#x410;" horiz-adv-x="639" 
d="M50 0h-83q34 80 81.5 174t98.5 186t102 174t93 138h92q22 -56 44 -138t40.5 -174t33 -186t20.5 -174h-82q-4 40 -9 85.5t-13 93.5h-332q-24 -48 -46 -93.5t-40 -85.5zM168 241h290q-9 50 -18.5 100t-20 96t-21.5 87t-22 74q-23 -33 -49 -74t-52.5 -87t-53.5 -96t-53 -100
z" />
    <glyph glyph-name="uni0411" unicode="&#x411;" horiz-adv-x="636" 
d="M44 0l107 609q1 5 -0.5 7.5t-7.5 5.5l-28 13l14 37h485l-11 -64h-373l-39 -223h186q104 0 153.5 -36t49.5 -112q0 -117 -63 -177t-185 -60h-288zM135 62h194q169 0 169 167q0 49 -32 71.5t-101 22.5h-185z" />
    <glyph glyph-name="uni0412" unicode="&#x412;" horiz-adv-x="636" 
d="M44 0l107 609q1 5 -0.5 7.5t-7.5 5.5l-28 13l14 37h297q94 0 139 -32.5t45 -101.5q0 -75 -30 -125t-90 -70q90 -21 90 -124q0 -109 -59 -164t-175 -55h-302zM136 63h201q161 0 161 156q0 49 -30.5 70.5t-99.5 21.5h-188zM191 373h185q154 0 154 149q0 47 -29.5 67
t-93.5 20h-174z" />
    <glyph glyph-name="uni0413" unicode="&#x413;" horiz-adv-x="508" 
d="M44 0l107 609q1 5 -0.5 7.5t-7.5 5.5l-28 13l14 37h434l-12 -65h-318l-106 -607h-83z" />
    <glyph glyph-name="uni0414" unicode="&#x414;" horiz-adv-x="777" 
d="M-50 -160l40 225h61q36 18 62.5 44t46.5 66.5t36 98.5t31 140l35 195q1 5 -0.5 7.5t-7.5 5.5l-28 13l14 37h491l-107 -607h93l-40 -225h-77l29 160h-574l-29 -160h-76zM164 65h380l96 542h-299l-35 -199q-14 -77 -27.5 -132.5t-30 -95.5t-37 -67t-47.5 -48z" />
    <glyph glyph-name="uni0415" unicode="&#x415;" horiz-adv-x="583" 
d="M44 0l107 609q1 5 -0.5 7.5t-7.5 5.5l-28 13l14 37h477l-12 -66h-361l-41 -233h289l-11 -62h-289l-43 -245h369l-11 -66h-452z" />
    <glyph glyph-name="uni0416" unicode="&#x416;" horiz-adv-x="905" 
d="M66 0h-89l344 364l-217 308h84l241 -340l60 340h77l-60 -340l355 340h91l-328 -318l217 -354h-83l-190 311l-78 -75l-42 -236h-77l42 239l-51 73z" />
    <glyph glyph-name="uni0417" unicode="&#x417;" horiz-adv-x="580" 
d="M222 -12q-56 0 -111 10.5t-106 30.5l13 66q48 -20 97.5 -31.5t100.5 -11.5q107 0 162.5 38t55.5 111q0 57 -42 83.5t-135 26.5h-100l11 62h95q206 0 206 142q0 56 -39.5 79.5t-128.5 23.5q-43 0 -91.5 -7t-88.5 -20l-1 66q38 11 88 19t104 8q128 0 184 -37.5t56 -118.5
q0 -74 -37 -121t-109 -64q112 -26 112 -144q0 -102 -76 -156.5t-220 -54.5z" />
    <glyph glyph-name="uni0418" unicode="&#x418;" horiz-adv-x="716" 
d="M44 0l107 609q1 5 -0.5 7.5t-7.5 5.5l-28 13l14 37h96q6 0 10 -1.5t2 -10.5l-94 -538l485 550h80l-118 -672h-77l96 550l-485 -550h-80z" />
    <glyph glyph-name="uni0419" unicode="&#x419;" horiz-adv-x="716" 
d="M44 0l107 609q1 5 -0.5 7.5t-7.5 5.5l-28 13l14 37h96q6 0 10 -1.5t2 -10.5l-94 -538l485 550h80l-118 -672h-77l96 550l-485 -550h-80zM450 731q-136 0 -136 106q0 10 1 20.5t3 22.5h57q-8 -49 10.5 -71.5t69.5 -22.5q50 0 75 21.5t33 72.5h59q-12 -80 -52.5 -114.5
t-119.5 -34.5z" />
    <glyph glyph-name="uni041A" unicode="&#x41a;" horiz-adv-x="600" 
d="M44 0l107 609q1 5 -0.5 7.5t-7.5 5.5l-28 13l14 37h100q6 0 10 -1.5t2 -10.5l-56 -319l373 331h97l-348 -312l232 -360h-87l-200 311l-83 -73l-44 -238h-81z" />
    <glyph glyph-name="uni041B" unicode="&#x41b;" horiz-adv-x="745" 
d="M25 -8q-12 0 -24 1t-24 3l13 70q13 -3 29 -3q42 0 73 17t55 57.5t43 108t37 168.5l35 195q1 5 -0.5 7.5t-7.5 5.5l-28 13l14 37h497l-118 -672h-83l107 607h-299l-35 -199q-21 -118 -45.5 -197.5t-58 -128t-77.5 -69.5t-103 -21z" />
    <glyph glyph-name="uni041C" unicode="&#x41c;" horiz-adv-x="804" 
d="M44 0l107 609q1 9 -8 13l-28 13l14 37h90q15 0 19.5 -4t11.5 -20l156 -368l305 392h85l-118 -672h-77l97 552l-274 -351h-23q-12 0 -19.5 1t-12.5 3.5t-8 8t-7 14.5l-137 321l-96 -549h-77z" />
    <glyph glyph-name="uni041D" unicode="&#x41d;" horiz-adv-x="716" 
d="M44 0l107 609q1 5 -0.5 7.5t-7.5 5.5l-28 13l14 37h102q6 0 10 -1.5t2 -10.5l-50 -284h381l51 296h83l-118 -672h-83l55 311h-381l-54 -311h-83z" />
    <glyph glyph-name="uni041E" unicode="&#x41e;" horiz-adv-x="713" 
d="M329 -12q-134 0 -202 61.5t-68 181.5q0 106 24.5 190.5t70.5 142.5t112.5 89t150.5 31q134 0 202 -61.5t68 -181.5q0 -107 -24.5 -191t-70.5 -142t-112.5 -89t-150.5 -31zM333 55q63 0 113 25.5t85 74.5t53.5 118.5t18.5 158.5q0 185 -190 185q-63 0 -113 -25.5
t-85 -74.5t-53.5 -119t-18.5 -158q0 -185 190 -185z" />
    <glyph glyph-name="uni041F" unicode="&#x41f;" horiz-adv-x="716" 
d="M44 0l107 609q1 5 -0.5 7.5t-7.5 5.5l-28 13l14 37h579l-118 -672h-83l107 607h-381l-106 -607h-83z" />
    <glyph glyph-name="uni0420" unicode="&#x420;" horiz-adv-x="620" 
d="M44 0l107 609q1 5 -0.5 7.5t-7.5 5.5l-28 13l14 37h278q111 0 163 -37.5t52 -118.5q0 -127 -68 -192t-201 -65h-184l-45 -259h-80zM181 324h175q185 0 185 180q0 53 -35.5 77.5t-110.5 24.5h-165z" />
    <glyph glyph-name="uni0421" unicode="&#x421;" horiz-adv-x="596" 
d="M329 -12q-134 0 -202 61.5t-68 181.5q0 106 24.5 190.5t70.5 142.5t112.5 89t150.5 31q66 0 121 -11t86 -25l-24 -63q-34 14 -76 23t-99 9q-66 0 -118.5 -25t-89 -73t-55.5 -117.5t-19 -157.5q0 -189 202 -189q46 0 89.5 6t87.5 17l-13 -69q-42 -10 -87 -15.5t-93 -5.5z
" />
    <glyph glyph-name="uni0422" unicode="&#x422;" horiz-adv-x="585" 
d="M291 0h-82l106 606h-230l11 66h544l-12 -66h-230z" />
    <glyph glyph-name="uni0423" unicode="&#x423;" horiz-adv-x="607" 
d="M103 -12q-21 0 -43.5 3t-44.5 10l13 66q20 -6 39 -9t36 -3q25 0 46.5 5.5t40 17.5t35.5 31.5t34 46.5l20 32l-176 484h84l142 -410l251 410h91l-335 -532q-26 -42 -51.5 -71t-53 -47t-59 -26t-69.5 -8z" />
    <glyph glyph-name="uni0424" unicode="&#x424;" horiz-adv-x="785" 
d="M294 -48l18 101q-260 7 -260 220q0 83 25 149t71.5 112.5t113.5 71.5t152 27l15 87h77l-15 -89q260 -7 260 -220q0 -83 -25 -149t-71.5 -112.5t-113.5 -72t-152 -26.5l-18 -99h-77zM323 117l80 451q-132 -4 -202.5 -79t-70.5 -210q0 -78 46.5 -119t146.5 -43zM480 567
l-80 -451q133 4 203 79t70 210q0 78 -46.5 119t-146.5 43z" />
    <glyph glyph-name="uni0425" unicode="&#x425;" horiz-adv-x="639" 
d="M80 0h-98l303 349l-170 323h84l144 -278l239 278h98l-295 -338l178 -334h-85l-151 289z" />
    <glyph glyph-name="uni0426" unicode="&#x426;" horiz-adv-x="754" 
d="M576 -160l29 160h-561l107 609q1 5 -0.5 7.5t-7.5 5.5l-28 13l14 37h102q6 0 10 -1.5t2 -10.5l-105 -595h381l106 607h83l-106 -607h92l-41 -225h-77z" />
    <glyph glyph-name="uni0427" unicode="&#x427;" horiz-adv-x="665" 
d="M456 0l50 287q-46 -11 -90 -17t-88 -6q-225 0 -225 183q0 30 6 62l18 100q1 5 -0.5 7.5t-7.5 5.5l-28 13l14 37h102q6 0 10 -1.5t2 -10.5l-26 -148q-3 -14 -4 -26.5t-1 -23.5q0 -67 40.5 -99.5t125.5 -32.5q78 0 164 21l56 321h83l-118 -672h-83z" />
    <glyph glyph-name="uni0428" unicode="&#x428;" horiz-adv-x="1020" 
d="M44 0l107 609q1 5 -0.5 7.5t-7.5 5.5l-28 13l14 37h102q6 0 10 -1.5t2 -10.5l-105 -595h301l107 607h82l-106 -607h301l106 607h83l-118 -672h-850z" />
    <glyph glyph-name="uni0429" unicode="&#x429;" horiz-adv-x="1058" 
d="M881 -160l28 160h-865l107 609q1 5 -0.5 7.5t-7.5 5.5l-28 13l14 37h102q6 0 10 -1.5t2 -10.5l-105 -595h304l106 607h83l-106 -607h298l106 607h83l-106 -607h92l-40 -225h-77z" />
    <glyph glyph-name="uni042A" unicode="&#x42a;" horiz-adv-x="769" 
d="M205 0l106 607h-226l11 65h307l-46 -259h157q112 0 163.5 -37.5t51.5 -118.5q0 -127 -67.5 -192t-201.5 -65h-255zM297 65h166q94 0 139.5 44t45.5 136q0 54 -35.5 78.5t-110.5 24.5h-156z" />
    <glyph glyph-name="uni042B" unicode="&#x42b;" horiz-adv-x="873" 
d="M44 0l107 609q1 5 -0.5 7.5t-7.5 5.5l-28 13l14 37h99q6 0 10 -1.5t2 -10.5l-44 -247h165q112 0 163.5 -37.5t51.5 -118.5q0 -127 -67.5 -192t-201.5 -65h-263zM136 65h174q185 0 185 180q0 53 -35.5 78t-110.5 25h-164zM664 0l107 609q1 5 -0.5 7.5t-7.5 5.5l-28 13
l14 37h102q6 0 10 -1.5t2 -10.5l-116 -660h-83z" />
    <glyph glyph-name="uni042C" unicode="&#x42c;" horiz-adv-x="620" 
d="M44 0l107 609q1 5 -0.5 7.5t-7.5 5.5l-28 13l14 37h99q6 0 10 -1.5t2 -10.5l-44 -247h165q112 0 163.5 -37.5t51.5 -118.5q0 -127 -67.5 -192t-201.5 -65h-263zM136 65h174q185 0 185 180q0 53 -35.5 78t-110.5 25h-164z" />
    <glyph glyph-name="uni042D" unicode="&#x42d;" horiz-adv-x="596" 
d="M211 -12q-109 0 -205 33l11 64q90 -33 187 -33q109 0 178.5 62.5t95.5 196.5h-350l11 62h347q1 10 1.5 25.5t0.5 36.5q0 51 -14 86t-40.5 56.5t-64 31t-83.5 9.5t-85 -5t-83 -16l-1 65q35 10 85 16t97 6q134 0 202 -60t68 -183q0 -107 -24.5 -191t-70.5 -142t-112.5 -89
t-150.5 -31z" />
    <glyph glyph-name="uni042E" unicode="&#x42e;" horiz-adv-x="948" 
d="M571 -12q-130 0 -196 61.5t-66 181.5q0 20 1 39.5t3 38.5h-136l-53 -309h-80l107 609q1 5 -0.5 7.5t-7.5 5.5l-28 13l14 37h99q6 0 10 -1.5t2 -10.5l-51 -285h134q29 148 115.5 228.5t220.5 80.5q130 0 196 -61.5t66 -181.5q0 -107 -24 -191t-69 -142t-110 -89t-147 -31z
M575 55q61 0 110 25.5t83.5 74.5t53 118.5t18.5 158.5q0 93 -47 139t-138 46q-61 0 -110 -25.5t-83.5 -74.5t-53 -119t-18.5 -158q0 -93 47 -139t138 -46z" />
    <glyph glyph-name="uni042F" unicode="&#x42f;" horiz-adv-x="633" 
d="M-1 0l228 285q-64 9 -98 44t-34 96q0 121 66.5 184t194.5 63h269l-118 -672h-80l48 275h-168l-216 -275h-92zM314 339h172l48 269h-181q-177 0 -177 -172q0 -51 33 -74t105 -23z" />
    <glyph glyph-name="uni0430" unicode="&#x430;" horiz-adv-x="557" 
d="M215 -12q-85 0 -130.5 44t-45.5 126q0 78 17 141t48 107t75.5 68t99.5 24q58 0 98 -17.5t66 -40.5l14 46h65l-73 -418q-1 -10 6 -14l28 -13l-15 -41h-74q-8 0 -11 1.5t-3 9.5v47q-70 -70 -165 -70zM238 52q127 0 150 126l38 215q-8 6 -21 13t-30.5 13t-38 10.5t-43.5 4.5
q-40 0 -71.5 -18.5t-54 -53t-34.5 -83.5t-12 -109q0 -58 30 -88t87 -30z" />
    <glyph glyph-name="uni0431" unicode="&#x431;" horiz-adv-x="551" 
d="M252 -12q-100 0 -150.5 53t-49.5 162q5 455 328 494q48 6 95.5 10.5t77.5 11.5l-27 -70q-28 -6 -58 -9t-72 -8q-99 -13 -154.5 -67t-75.5 -138q10 10 26 22t37.5 21.5t48 16t56.5 6.5q85 0 131 -44t46 -135q0 -74 -17.5 -134.5t-51 -103t-81.5 -65.5t-109 -23zM256 52
q40 0 72.5 17.5t55 50.5t34.5 80t12 105q0 123 -115 123q-45 0 -83.5 -17.5t-77.5 -44.5q-6 -25 -13 -70.5t-7 -102.5q0 -68 31.5 -104.5t90.5 -36.5z" />
    <glyph glyph-name="uni0432" unicode="&#x432;" horiz-adv-x="520" 
d="M35 0l72 412q2 10 1.5 13.5t-8.5 7.5l-26 12l16 41h257q135 0 135 -99q0 -106 -86 -138q62 -17 62 -91q0 -78 -44.5 -118t-129.5 -40h-249zM120 57h151q110 0 110 100q0 32 -20.5 47t-68.5 15h-143zM159 275h140q107 0 107 98q0 56 -83 56h-137z" />
    <glyph glyph-name="uni0433" unicode="&#x433;" horiz-adv-x="414" 
d="M35 0l72 412q2 10 1.5 13.5t-8.5 7.5l-26 12l16 41h346l-11 -63h-236l-74 -423h-80z" />
    <glyph glyph-name="uni0434" unicode="&#x434;" horiz-adv-x="607" 
d="M-47 -144l36 206h47q23 13 41 33t32 48.5t25 67t20 89.5l20 112q2 10 1.5 13.5t-8.5 7.5l-26 12l16 41h385l-75 -424h79l-37 -206h-74l26 144h-409l-26 -144h-73zM138 62h252l63 361h-200l-23 -129q-8 -47 -17 -82.5t-20 -63.5t-24.5 -48.5t-30.5 -37.5z" />
    <glyph glyph-name="uni0435" unicode="&#x435;" horiz-adv-x="523" 
d="M263 -12q-112 0 -168.5 45t-56.5 133q0 78 17.5 139.5t51 104.5t81.5 65.5t109 22.5q96 0 141.5 -42t45.5 -131q0 -52 -14 -105h-352q-2 -11 -2 -25.5t1 -29.5q2 -57 41 -85.5t113 -28.5q38 0 77 4.5t77 15.5l-11 -64q-70 -19 -151 -19zM127 275h276q6 24 6 53
q0 57 -27.5 84.5t-87.5 27.5q-67 0 -110 -42.5t-57 -122.5z" />
    <glyph glyph-name="uni0436" unicode="&#x436;" horiz-adv-x="730" 
d="M67 0h-89l260 266l-169 220h86l175 -232l41 232h74l-41 -232l252 232h92l-251 -230l168 -256h-82l-142 214l-53 -49l-28 -165h-75l30 168l-36 50z" />
    <glyph glyph-name="uni0437" unicode="&#x437;" horiz-adv-x="457" 
d="M169 -12q-44 0 -86 7t-84 22l11 62q39 -15 77 -23t76 -8q72 0 110.5 25.5t38.5 73.5q0 36 -29.5 54.5t-92.5 18.5h-83l10 54h79q70 0 107 24t37 72q0 36 -28 52t-88 16q-34 0 -65 -4.5t-71 -15.5l-1 61q38 9 75.5 14t72.5 5q95 0 140 -28t45 -87q0 -108 -106 -135
q37 -8 57.5 -34.5t21.5 -67.5q1 -75 -57.5 -116.5t-166.5 -41.5z" />
    <glyph glyph-name="uni0438" unicode="&#x438;" horiz-adv-x="562" 
d="M35 0l72 412q2 10 1.5 13.5t-8.5 7.5l-26 12l16 41h90q6 0 10 -1.5t2 -10.5l-63 -357l325 369h76l-85 -486h-74l65 369l-324 -369h-77z" />
    <glyph glyph-name="uni0439" unicode="&#x439;" horiz-adv-x="562" 
d="M35 0l72 412q2 10 1.5 13.5t-8.5 7.5l-26 12l16 41h90q6 0 10 -1.5t2 -10.5l-63 -357l325 369h76l-85 -486h-74l65 369l-324 -369h-77zM343 555q-136 0 -136 106q0 10 1 20.5t3 22.5h57q-8 -49 10.5 -71.5t69.5 -22.5q50 0 75 21.5t33 72.5h59q-12 -80 -52.5 -114.5
t-119.5 -34.5z" />
    <glyph glyph-name="uni043A" unicode="&#x43a;" horiz-adv-x="474" 
d="M31 0l72 412q2 10 1.5 13.5t-8.5 7.5l-26 12l16 41h107l-39 -222l246 222h94l-247 -224l163 -262h-84l-133 214l-57 -50l-28 -164h-77z" />
    <glyph glyph-name="uni043B" unicode="&#x43b;" horiz-adv-x="575" 
d="M17 -8q-10 0 -20 1t-20 3l12 67q12 -3 22 -3q28 0 50 12t39 39.5t30 73.5t25 115l19 112q2 10 1.5 13.5t-8.5 7.5l-26 12l16 41h390l-85 -486h-80l75 423h-201l-23 -129q-15 -84 -34 -141.5t-44.5 -93.5t-59 -51.5t-78.5 -15.5z" />
    <glyph glyph-name="uni043C" unicode="&#x43c;" horiz-adv-x="626" 
d="M35 0l72 412q2 10 1.5 13.5t-8.5 7.5l-26 12l16 41h85q15 0 19.5 -4t11.5 -20l101 -236l204 260h83l-85 -486h-74l65 371l-178 -223h-14q-12 0 -19.5 1t-12.5 3.5t-8 8t-7 14.5l-87 197l-65 -372h-74z" />
    <glyph glyph-name="uni043D" unicode="&#x43d;" horiz-adv-x="562" 
d="M35 0l72 412q2 10 1.5 13.5t-8.5 7.5l-26 12l16 41h96q6 0 10 -1.5t2 -10.5l-35 -196h251l36 208h80l-85 -486h-80l38 216h-251l-37 -216h-80z" />
    <glyph glyph-name="uni043E" unicode="&#x43e;" horiz-adv-x="545" 
d="M241 -12q-204 0 -204 178q0 77 18 138.5t52.5 104.5t84.5 66t113 23q101 0 152 -45t51 -133q0 -77 -18 -138.5t-52.5 -104.5t-84 -66t-112.5 -23zM245 52q42 0 76 18t57 52t35.5 81.5t12.5 107.5q0 123 -126 123q-42 0 -76 -18t-57 -52t-35.5 -81.5t-12.5 -107.5
q0 -123 126 -123z" />
    <glyph glyph-name="uni043F" unicode="&#x43f;" horiz-adv-x="562" 
d="M35 0l72 412q2 10 1.5 13.5t-8.5 7.5l-26 12l16 41h440l-85 -486h-80l74 423h-250l-74 -423h-80z" />
    <glyph glyph-name="uni0440" unicode="&#x440;" horiz-adv-x="556" 
d="M-2 -208l109 620q2 10 1.5 13.5t-8.5 7.5l-26 12l16 41h96q6 0 10 -1.5t2 -10.5l-6 -35q25 28 63.5 43.5t87.5 15.5q85 0 130 -44.5t45 -125.5q0 -78 -17 -141t-48.5 -107t-77 -68t-102.5 -24q-54 0 -91 15.5t-59 42.5l-45 -254h-80zM264 52q40 0 71.5 18.5t54 53
t34.5 83.5t12 109q0 58 -30 88t-87 30q-127 0 -150 -126l-37 -208q26 -20 58 -34t74 -14z" />
    <glyph glyph-name="uni0441" unicode="&#x441;" horiz-adv-x="455" 
d="M242 -12q-204 0 -204 178q0 158 72 245t204 87q40 0 79 -7t66 -19l-24 -62q-29 11 -57.5 17.5t-64.5 6.5q-92 0 -142.5 -68t-50.5 -189q0 -125 138 -125q65 0 128 16l-12 -65q-32 -8 -64.5 -11.5t-67.5 -3.5z" />
    <glyph glyph-name="uni0442" unicode="&#x442;" horiz-adv-x="447" 
d="M221 0h-80l74 423h-162l11 63h405l-11 -63h-163z" />
    <glyph glyph-name="uni0443" unicode="&#x443;" horiz-adv-x="558" 
d="M188 -220q-26 0 -51 3t-43 8l11 63q23 -6 45 -8t37 -2q43 0 73.5 10.5t50.5 29t31 43t16 52.5l12 67q-25 -27 -60.5 -42.5t-80.5 -15.5q-80 0 -125 37.5t-45 103.5q0 32 6 64l38 219q2 10 1.5 13.5t-8.5 7.5l-25 12l16 41h95q6 0 10 -1.5t2 -10.5l-49 -281
q-2 -13 -3.5 -26t-1.5 -25q0 -42 28.5 -66t78.5 -24q60 0 97.5 31.5t48.5 94.5l53 308h80l-86 -501q-8 -47 -26 -85t-48.5 -64.5t-74 -41t-103.5 -14.5z" />
    <glyph glyph-name="uni0444" unicode="&#x444;" horiz-adv-x="679" 
d="M169 -214l-24 50q25 16 42.5 29.5t30 29.5t22 38t18.5 56q-118 8 -172 54t-54 139q0 73 22 131t62.5 99t99 63t131.5 23q10 47 24.5 82t35 60t47 42t60.5 29l24 -50q-27 -17 -44.5 -30.5t-30.5 -31t-22 -41.5t-19 -62q118 -8 171.5 -53.5t53.5 -138.5q0 -73 -21.5 -131
t-62 -98.5t-99 -63t-131.5 -23.5q-10 -44 -24.5 -77t-34.5 -57t-46 -40t-59 -28zM269 54l67 378q-109 -2 -168.5 -65.5t-59.5 -178.5q0 -65 38.5 -97t122.5 -37zM410 432l-67 -379q109 2 168.5 66t59.5 179q0 65 -38.5 96.5t-122.5 37.5z" />
    <glyph glyph-name="uni0445" unicode="&#x445;" horiz-adv-x="501" 
d="M78 0h-93l217 252l-124 234h82l98 -188l159 188h92l-210 -244l128 -242h-83l-101 196z" />
    <glyph glyph-name="uni0446" unicode="&#x446;" horiz-adv-x="596" 
d="M424 -144l26 144h-415l72 412q2 10 1.5 13.5t-8.5 7.5l-26 12l16 41h96q6 0 10 -1.5t2 -10.5l-72 -412h250l74 424h80l-74 -424h80l-38 -206h-74z" />
    <glyph glyph-name="uni0447" unicode="&#x447;" horiz-adv-x="527" 
d="M334 -1l36 204q-32 -9 -62.5 -14t-60.5 -5q-181 0 -181 138q0 11 1.5 23t3.5 23l8 44q2 10 1.5 13.5t-8.5 7.5l-26 12l16 41h96q6 0 10 -1.5t2 -10.5l-19 -103q-3 -18 -3 -34q1 -45 30 -67t91 -22q55 0 112 16l38 222h80l-85 -486z" />
    <glyph glyph-name="uni0448" unicode="&#x448;" horiz-adv-x="834" 
d="M35 0l72 412q2 10 1.5 13.5t-8.5 7.5l-26 12l16 41h96q6 0 10 -1.5t2 -10.5l-72 -412h221l74 424h80l-74 -424h221l74 424h80l-85 -486h-682z" />
    <glyph glyph-name="uni0449" unicode="&#x449;" horiz-adv-x="868" 
d="M696 -144l26 144h-687l72 412q2 10 1.5 13.5t-8.5 7.5l-26 12l16 41h96q6 0 10 -1.5t2 -10.5l-72 -412h221l74 424h80l-74 -424h221l74 424h80l-74 -424h80l-38 -206h-74z" />
    <glyph glyph-name="uni044A" unicode="&#x44a;" horiz-adv-x="597" 
d="M135 0l75 423h-157l11 63h234l-32 -182h123q85 0 122 -26.5t37 -86.5q0 -94 -50.5 -142.5t-147.5 -48.5h-215zM223 60h124q123 0 123 119q0 35 -23 50t-74 15h-117z" />
    <glyph glyph-name="uni044B" unicode="&#x44b;" horiz-adv-x="739" 
d="M35 0l72 412q2 10 1.5 13.5t-8.5 7.5l-26 12l16 41h95q6 0 10 -1.5t2 -10.5l-29 -170h126q84 0 121.5 -26.5t37.5 -86.5q0 -94 -50.5 -142.5t-147.5 -48.5h-220zM124 60h128q122 0 122 119q0 35 -22.5 50t-73.5 15h-121zM542 0l72 412q2 10 1.5 13.5t-8.5 7.5l-26 12
l16 41h96q6 0 10 -1.5t2 -10.5l-83 -474h-80z" />
    <glyph glyph-name="uni044C" unicode="&#x44c;" horiz-adv-x="502" 
d="M35 0l72 412q2 10 1.5 13.5t-8.5 7.5l-26 12l16 41h95q6 0 10 -1.5t2 -10.5l-29 -170h126q84 0 121.5 -26.5t37.5 -86.5q0 -94 -50.5 -142.5t-147.5 -48.5h-220zM124 60h128q122 0 122 119q0 35 -22.5 50t-73.5 15h-121z" />
    <glyph glyph-name="uni044D" unicode="&#x44d;" horiz-adv-x="457" 
d="M150 -12q-82 0 -151 23l11 61q63 -23 133 -23q72 0 120 44.5t64 125.5h-244l10 56h242q1 11 1 20v21q0 60 -36 90t-102 30q-33 0 -65 -5t-56 -12l-1 62q24 8 61 12.5t77 4.5q101 0 152 -45t51 -133q0 -77 -18.5 -138.5t-53 -104.5t-84 -66t-111.5 -23z" />
    <glyph glyph-name="uni044E" unicode="&#x44e;" horiz-adv-x="761" 
d="M464 -12q-98 0 -147 44.5t-49 132.5q0 27 3 51h-121l-38 -216h-77l72 412q2 10 1.5 13.5t-8.5 7.5l-26 12l16 41h93q6 0 10 -1.5t2 -10.5l-34 -196h120q23 104 86 162t161 58q97 0 146 -45t49 -133q0 -77 -17.5 -138.5t-51 -104.5t-81.5 -66t-109 -23zM468 52q41 0 74 18
t55.5 52t34.5 81.5t12 107.5q0 123 -121 123q-41 0 -73.5 -18t-55.5 -52t-35 -81.5t-12 -107.5q0 -123 121 -123z" />
    <glyph glyph-name="uni044F" unicode="&#x44f;" horiz-adv-x="511" 
d="M-3 0l160 200q-43 8 -66 34.5t-23 68.5q0 90 50 136.5t147 46.5h218l-85 -486h-76l34 190h-125l-146 -190h-88zM235 249h131l31 177h-135q-117 0 -117 -114q0 -32 21 -47.5t69 -15.5z" />
    <glyph glyph-name="uni0450" unicode="&#x450;" horiz-adv-x="523" 
d="M263 -12q-112 0 -168.5 45t-56.5 133q0 78 17.5 139.5t51 104.5t81.5 65.5t109 22.5q96 0 141.5 -42t45.5 -131q0 -52 -14 -105h-352q-2 -11 -2 -25.5t1 -29.5q2 -57 41 -85.5t113 -28.5q38 0 77 4.5t77 15.5l-11 -64q-70 -19 -151 -19zM127 275h276q6 24 6 53
q0 57 -27.5 84.5t-87.5 27.5q-67 0 -110 -42.5t-57 -122.5zM367 564h-68l-109 140h81z" />
    <glyph glyph-name="uni0451" unicode="&#x451;" horiz-adv-x="523" 
d="M263 -12q-112 0 -168.5 45t-56.5 133q0 78 17.5 139.5t51 104.5t81.5 65.5t109 22.5q96 0 141.5 -42t45.5 -131q0 -52 -14 -105h-352q-2 -11 -2 -25.5t1 -29.5q2 -57 41 -85.5t113 -28.5q38 0 77 4.5t77 15.5l-11 -64q-70 -19 -151 -19zM127 275h276q6 24 6 53
q0 57 -27.5 84.5t-87.5 27.5q-67 0 -110 -42.5t-57 -122.5zM418 585q-42 0 -42 38q0 60 58 60q43 0 43 -38q0 -29 -15 -44.5t-44 -15.5zM219 585q-43 0 -43 38q0 60 59 60q42 0 42 -38q0 -29 -14.5 -44.5t-43.5 -15.5z" />
    <glyph glyph-name="uni0452" unicode="&#x452;" horiz-adv-x="551" 
d="M255 -220q-52 0 -100 13l12 63q40 -12 79 -12q45 0 68 18.5t31 63.5l65 364q5 28 5 51q0 91 -104 91q-43 0 -79 -15t-56 -28l-68 -389h-80l100 569h-66l10 56h66l1 6q2 10 1.5 13t-8.5 7l-26 12l16 41h96q6 0 10 -1.5t2 -10.5l-12 -67h177l-10 -56h-177l-23 -128
q29 27 65 42t86 15q77 0 118.5 -37.5t41.5 -106.5q0 -17 -2 -32.5t-5 -31.5l-66 -376q-13 -72 -51.5 -103t-116.5 -31z" />
    <glyph glyph-name="uni0453" unicode="&#x453;" horiz-adv-x="414" 
d="M35 0l72 412q2 10 1.5 13.5t-8.5 7.5l-26 12l16 41h346l-11 -63h-236l-74 -423h-80zM312 564h-78l141 140h92z" />
    <glyph glyph-name="uni0454" unicode="&#x454;" horiz-adv-x="457" 
d="M244 -12q-204 0 -204 178q0 158 72 245t204 87q42 0 82.5 -7.5t63.5 -17.5l-24 -62q-20 8 -54 16t-69 8q-72 0 -118.5 -42t-63.5 -118h243l-10 -56h-244q-2 -13 -2 -25.5v-26.5q6 -118 140 -118q64 0 127 16l-11 -62q-32 -8 -64.5 -11.5t-67.5 -3.5z" />
    <glyph glyph-name="uni0455" unicode="&#x455;" horiz-adv-x="445" 
d="M192 -12q-98 0 -178 28l12 65q40 -15 79.5 -23t81.5 -8q61 0 96 23.5t35 68.5q0 27 -18.5 42t-46.5 24t-60.5 17t-60.5 21.5t-46.5 37.5t-18.5 65q0 69 54.5 109t148.5 40q40 0 79.5 -7t75.5 -22l-23 -61v0q-28 11 -58 19.5t-76 8.5q-60 0 -93 -21t-33 -63
q0 -25 18.5 -38.5t46.5 -23t60.5 -18t60.5 -23t46.5 -38.5t18.5 -64q0 -76 -53.5 -117.5t-147.5 -41.5z" />
    <glyph glyph-name="uni0456" unicode="&#x456;" horiz-adv-x="237" 
d="M40 0l72 412q2 10 1.5 13.5t-8.5 7.5l-26 12l16 41h96q6 0 10 -1.5t2 -10.5l-83 -474h-80zM181 584q-44 0 -44 39q0 62 60 62q44 0 44 -40q0 -61 -60 -61z" />
    <glyph glyph-name="uni0457" unicode="&#x457;" horiz-adv-x="237" 
d="M40 0l72 412q2 10 1.5 13.5t-8.5 7.5l-26 12l16 41h96q6 0 10 -1.5t2 -10.5l-83 -474h-80zM277 585q-42 0 -42 38q0 60 58 60q43 0 43 -38q0 -29 -15 -44.5t-44 -15.5zM78 585q-43 0 -43 38q0 60 59 60q42 0 42 -38q0 -29 -14.5 -44.5t-43.5 -15.5z" />
    <glyph glyph-name="uni0458" unicode="&#x458;" horiz-adv-x="237" 
d="M-69 -217q-26 0 -45 3l11 60q11 -1 15 -1h9q49 0 74.5 22.5t35.5 78.5l81 466q2 10 1.5 13.5t-8.5 7.5l-26 12l16 41h96q6 0 10 -1.5t2 -10.5l-92 -528q-14 -78 -54.5 -120.5t-125.5 -42.5zM181 584q-44 0 -44 39q0 62 60 62q44 0 44 -40q0 -61 -60 -61z" />
    <glyph glyph-name="uni0459" unicode="&#x459;" horiz-adv-x="833" 
d="M17 -8q-10 0 -20 1t-20 3l12 67q12 -3 22 -3q28 0 50 12t39 39.5t30 73.5t25 115l19 112q2 10 1.5 13.5t-8.5 7.5l-26 12l16 41h379l-31 -182h120q85 0 122 -26.5t37 -86.5q0 -94 -50.5 -142.5t-147.5 -48.5h-212l75 423h-193l-23 -129q-15 -84 -34 -141.5t-44.5 -93.5
t-59 -51.5t-78.5 -15.5zM462 60h121q123 0 123 119q0 35 -23 50t-74 15h-115z" />
    <glyph glyph-name="uni045A" unicode="&#x45a;" horiz-adv-x="824" 
d="M35 0l72 412q2 10 1.5 13.5t-8.5 7.5l-26 12l16 41h93q6 0 10 -1.5t2 -10.5l-33 -189h253l35 201h77l-35 -201h133q76 0 112 -26t36 -82q0 -86 -48.5 -131.5t-140.5 -45.5h-219l39 223h-253l-39 -223h-77zM451 57h130q114 0 114 111q0 32 -21 46t-66 14h-126z" />
    <glyph glyph-name="uni045B" unicode="&#x45b;" horiz-adv-x="557" 
d="M31 0l99 559h-65l10 54h64l3 17q2 10 1.5 13.5t-8.5 7.5l-26 12l16 41h96q6 0 10 -1.5t2 -10.5l-14 -79h179l-10 -54h-179l-21 -118q29 27 65 42t86 15q77 0 118.5 -37.5t41.5 -106.5q0 -17 -2 -32.5t-5 -31.5l-39 -222q-1 -10 6 -14l28 -13l-15 -41h-98q-6 0 -9.5 1.5
t-1.5 9.5l50 279q5 28 5 51q0 91 -104 91q-43 0 -79 -15t-56 -28l-68 -389h-80z" />
    <glyph glyph-name="uni045C" unicode="&#x45c;" horiz-adv-x="478" 
d="M31 0l72 412q2 10 1.5 13.5t-8.5 7.5l-26 12l16 41h107l-39 -222l246 222h94l-247 -224l163 -262h-84l-133 214l-57 -50l-28 -164h-77zM322 564h-78l141 140h92z" />
    <glyph glyph-name="uni045D" unicode="&#x45d;" horiz-adv-x="562" 
d="M35 0l72 412q2 10 1.5 13.5t-8.5 7.5l-26 12l16 41h90q6 0 10 -1.5t2 -10.5l-63 -357l325 369h76l-85 -486h-74l65 369l-324 -369h-77zM390 564h-68l-109 140h81z" />
    <glyph glyph-name="uni045E" unicode="&#x45e;" horiz-adv-x="558" 
d="M188 -220q-26 0 -51 3t-43 8l11 63q23 -6 45 -8t37 -2q43 0 73.5 10.5t50.5 29t31 43t16 52.5l12 67q-25 -27 -60.5 -42.5t-80.5 -15.5q-80 0 -125 37.5t-45 103.5q0 32 6 64l38 219q2 10 1.5 13.5t-8.5 7.5l-25 12l16 41h95q6 0 10 -1.5t2 -10.5l-49 -281
q-2 -13 -3.5 -26t-1.5 -25q0 -42 28.5 -66t78.5 -24q60 0 97.5 31.5t48.5 94.5l53 308h80l-86 -501q-8 -47 -26 -85t-48.5 -64.5t-74 -41t-103.5 -14.5zM331 555q-136 0 -136 106q0 10 1 20.5t3 22.5h57q-8 -49 10.5 -71.5t69.5 -22.5q50 0 75 21.5t33 72.5h59
q-12 -80 -52.5 -114.5t-119.5 -34.5z" />
    <glyph glyph-name="uni045F" unicode="&#x45f;" horiz-adv-x="562" 
d="M177 -144l26 144h-168l72 412q2 10 1.5 13.5t-8.5 7.5l-26 12l16 41h96q6 0 10 -1.5t2 -10.5l-72 -412h250l74 424h80l-85 -486h-168l-26 -144h-74z" />
    <glyph glyph-name="uni0490" unicode="&#x490;" horiz-adv-x="508" 
d="M44 0l107 609q1 5 -0.5 7.5t-7.5 5.5l-28 13l14 37h357l28 160h77l-40 -225h-318l-106 -607h-83z" />
    <glyph glyph-name="uni0491" unicode="&#x491;" horiz-adv-x="414" 
d="M35 0l72 412q2 10 1.5 13.5t-8.5 7.5l-26 12l16 41h280l26 144h74l-37 -207h-244l-74 -423h-80z" />
    <glyph glyph-name="uni0492" unicode="&#x492;" horiz-adv-x="521" 
d="M57 0l50 287h-86l10 59h87l46 263q1 5 -0.5 7.5t-7.5 5.5l-28 13l14 37h434l-12 -65h-318l-45 -261h195l-10 -59h-196l-50 -287h-83z" />
    <glyph glyph-name="uni0493" unicode="&#x493;" horiz-adv-x="423" 
d="M44 0l34 198h-81l10 57h81l28 157q2 10 1.5 13.5t-8.5 7.5l-26 12l16 41h346l-11 -63h-236l-30 -168h140l-10 -57h-140l-34 -198h-80z" />
    <glyph glyph-name="uni049A" unicode="&#x49a;" horiz-adv-x="658" 
d="M497 -160l28 160h-73l-200 311l-87 -76l-41 -235h-80l107 609q1 5 -0.5 7.5t-7.5 5.5l-28 13l14 37h99q6 0 10 -1.5t2 -10.5l-56 -320l374 332h96l-347 -312l194 -295h112l-39 -225h-77z" />
    <glyph glyph-name="uni049B" unicode="&#x49b;" horiz-adv-x="530" 
d="M374 -144l26 144h-70l-133 214l-57 -50l-28 -164h-77l72 412q2 10 1.5 13.5t-8.5 7.5l-26 12l16 41h93q6 0 10 -1.5t2 -10.5l-37 -210l246 222h94l-247 -224l130 -200h104l-37 -206h-74z" />
    <glyph glyph-name="uni04A2" unicode="&#x4a2;" horiz-adv-x="754" 
d="M577 -160l28 160h-98l55 309h-381l-54 -309h-83l107 609q1 5 -0.5 7.5t-7.5 5.5l-28 13l14 37h102q6 0 10 -1.5t2 -10.5l-50 -285h380l52 297h83l-107 -607h93l-40 -225h-77z" />
    <glyph glyph-name="uni04A3" unicode="&#x4a3;" horiz-adv-x="596" 
d="M424 -144l26 144h-85l37 216h-250l-37 -216h-80l72 412q2 10 1.5 13.5t-8.5 7.5l-26 12l16 41h96q6 0 10 -1.5t2 -10.5l-35 -196h251l36 208h80l-74 -424h79l-37 -206h-74z" />
    <glyph glyph-name="uni04AE" unicode="&#x4ae;" horiz-adv-x="591" 
d="M294 0h-83l51 295l-171 377h85l137 -311l244 311h94l-307 -387z" />
    <glyph glyph-name="uni04AF" unicode="&#x4af;" horiz-adv-x="485" 
d="M203 -208h-80l34 198l-98 496h78l74 -405l217 405h84l-275 -500z" />
    <glyph glyph-name="uni04B0" unicode="&#x4b0;" horiz-adv-x="591" 
d="M294 0h-83l46 264h-163l10 60h146l-159 348h85l137 -311l244 311h94l-278 -348h150l-10 -60h-173z" />
    <glyph glyph-name="uni04B1" unicode="&#x4b1;" horiz-adv-x="493" 
d="M203 -208h-80l34 194h-139l10 56h120l-89 444h78l74 -405l217 405h84l-245 -444h137l-10 -56h-157z" />
    <glyph glyph-name="uni04BA" unicode="&#x4ba;" horiz-adv-x="668" 
d="M44 0l107 609q1 5 -0.5 7.5t-7.5 5.5l-28 13l14 37h102q6 0 10 -1.5t2 -10.5l-48 -275q46 11 90 17t88 6q225 0 225 -183q0 -31 -6 -62l-29 -163h-83l28 160q3 14 4 26.5t1 23.5q0 67 -40.5 99.5t-125.5 32.5q-38 0 -79.5 -5.5t-84.5 -15.5l-56 -321h-83z" />
    <glyph glyph-name="uni04BB" unicode="&#x4bb;" horiz-adv-x="557" 
d="M31 0l111 630q2 10 1.5 13.5t-8.5 7.5l-26 12l16 41h96q6 0 10 -1.5t2 -10.5l-45 -251q29 27 65 42t86 15q77 0 118.5 -37.5t41.5 -106.5q0 -17 -2 -32.5t-5 -31.5l-39 -222q-1 -10 6 -14l28 -13l-15 -41h-98q-6 0 -9.5 1.5t-1.5 9.5l50 279q5 28 5 51q0 91 -104 91
q-43 0 -79 -15t-56 -28l-68 -389h-80z" />
    <glyph glyph-name="uni04D8" unicode="&#x4d8;" horiz-adv-x="676" 
d="M302 -12q-127 0 -188 55.5t-61 175.5q0 35 5.5 70.5t13.5 70.5h494q2 17 2.5 31t0.5 38q0 102 -60 145.5t-171 43.5q-50 0 -95 -6.5t-98 -21.5l-1 65q48 13 100 21t103 8q149 0 225.5 -61t76.5 -182q0 -108 -23.5 -192.5t-67.5 -142t-109 -88t-147 -30.5zM305 49
q206 0 251 251h-415q-5 -18 -7 -40.5t-2 -43.5q0 -87 41.5 -127t131.5 -40z" />
    <glyph glyph-name="uni04D9" unicode="&#x4d9;" horiz-adv-x="521" 
d="M222 -12q-95 0 -141 42t-46 131q0 51 14 105h353q1 11 1 22.5v26.5q0 62 -40 90.5t-115 28.5q-38 0 -73.5 -4.5t-74.5 -15.5l-1 64q36 9 76.5 14.5t81.5 5.5q111 0 167.5 -45t56.5 -133q0 -78 -17.5 -139.5t-50.5 -104.5t-81.5 -65.5t-109.5 -22.5zM226 46q67 0 109.5 43
t56.5 123h-276q-2 -12 -3.5 -26t-1.5 -28q0 -57 27.5 -84.5t87.5 -27.5z" />
    <glyph glyph-name="uni04E8" unicode="&#x4e8;" horiz-adv-x="713" 
d="M329 -12q-134 0 -202 61.5t-68 181.5q0 106 24.5 190.5t70.5 142.5t112.5 89t150.5 31q134 0 202 -61.5t68 -181.5q0 -107 -24.5 -191t-70.5 -142t-112.5 -89t-150.5 -31zM332 52q106 0 174.5 67.5t91.5 191.5h-458q-3 -36 -3 -73q0 -93 49 -139.5t146 -46.5zM150 373
h456q3 28 3 61q0 93 -49 139.5t-146 46.5q-103 0 -171 -64.5t-93 -182.5z" />
    <glyph glyph-name="uni04E9" unicode="&#x4e9;" horiz-adv-x="545" 
d="M241 -12q-204 0 -204 178q0 77 18 138.5t52.5 104.5t84.5 66t113 23q101 0 152 -45t51 -133q0 -77 -18 -138.5t-52.5 -104.5t-84 -66t-112.5 -23zM244 46q69 0 116.5 45.5t64.5 125.5h-314q-1 -10 -1 -20v-21q0 -130 134 -130zM120 273h314q1 9 1 18v19q0 130 -134 130
q-69 0 -116 -44.5t-65 -122.5z" />
    <glyph glyph-name="Wgrave" unicode="&#x1e80;" horiz-adv-x="942" 
d="M257 0h-91q-17 76 -30.5 166t-24 180.5t-17 175t-7.5 150.5h79q6 -154 20 -300.5t40 -286.5h2q35 66 70 139t68.5 147t65 147.5t58.5 139.5h78q5 -86 10.5 -158.5t12.5 -140t16.5 -134t21.5 -140.5h2q31 55 65 124.5t69 146.5t69 158t64 158h81q-24 -66 -60 -150.5
t-78 -175t-88 -180.5t-90 -166h-93q-27 137 -44 273.5t-17 264.5h-1q-48 -137 -114 -273t-137 -265zM596 740h-68l-109 140h81z" />
    <glyph glyph-name="wgrave" unicode="&#x1e81;" horiz-adv-x="793" 
d="M238 0h-87q-12 46 -24 105.5t-23 125t-20 131.5t-15 124h78q11 -106 25.5 -208.5t34.5 -204.5h2q27 49 53.5 101t52 103.5t49 101t42.5 95.5h69q10 -109 24 -206.5t34 -194.5h2q57 109 108 210.5t96 202.5h78q-27 -58 -59.5 -124t-66 -131.5t-67 -125t-61.5 -105.5h-85
q-21 88 -37 181t-22 181q-19 -46 -40.5 -93.5t-45 -94t-47.5 -91t-48 -83.5zM493 564h-68l-109 140h81z" />
    <glyph glyph-name="Wacute" unicode="&#x1e82;" horiz-adv-x="942" 
d="M257 0h-91q-17 76 -30.5 166t-24 180.5t-17 175t-7.5 150.5h79q6 -154 20 -300.5t40 -286.5h2q35 66 70 139t68.5 147t65 147.5t58.5 139.5h78q5 -86 10.5 -158.5t12.5 -140t16.5 -134t21.5 -140.5h2q31 55 65 124.5t69 146.5t69 158t64 158h81q-24 -66 -60 -150.5
t-78 -175t-88 -180.5t-90 -166h-93q-27 137 -44 273.5t-17 264.5h-1q-48 -137 -114 -273t-137 -265zM571 740h-78l141 140h92z" />
    <glyph glyph-name="wacute" unicode="&#x1e83;" horiz-adv-x="793" 
d="M238 0h-87q-12 46 -24 105.5t-23 125t-20 131.5t-15 124h78q11 -106 25.5 -208.5t34.5 -204.5h2q27 49 53.5 101t52 103.5t49 101t42.5 95.5h69q10 -109 24 -206.5t34 -194.5h2q57 109 108 210.5t96 202.5h78q-27 -58 -59.5 -124t-66 -131.5t-67 -125t-61.5 -105.5h-85
q-21 88 -37 181t-22 181q-19 -46 -40.5 -93.5t-45 -94t-47.5 -91t-48 -83.5zM488 564h-78l141 140h92z" />
    <glyph glyph-name="Wdieresis" unicode="&#x1e84;" horiz-adv-x="942" 
d="M257 0h-91q-17 76 -30.5 166t-24 180.5t-17 175t-7.5 150.5h79q6 -154 20 -300.5t40 -286.5h2q35 66 70 139t68.5 147t65 147.5t58.5 139.5h78q5 -86 10.5 -158.5t12.5 -140t16.5 -134t21.5 -140.5h2q31 55 65 124.5t69 146.5t69 158t64 158h81q-24 -66 -60 -150.5
t-78 -175t-88 -180.5t-90 -166h-93q-27 137 -44 273.5t-17 264.5h-1q-48 -137 -114 -273t-137 -265zM645 761q-42 0 -42 38q0 60 58 60q43 0 43 -38q0 -29 -15 -44.5t-44 -15.5zM446 761q-43 0 -43 38q0 60 59 60q42 0 42 -38q0 -29 -14.5 -44.5t-43.5 -15.5z" />
    <glyph glyph-name="wdieresis" unicode="&#x1e85;" horiz-adv-x="793" 
d="M238 0h-87q-12 46 -24 105.5t-23 125t-20 131.5t-15 124h78q11 -106 25.5 -208.5t34.5 -204.5h2q27 49 53.5 101t52 103.5t49 101t42.5 95.5h69q10 -109 24 -206.5t34 -194.5h2q57 109 108 210.5t96 202.5h78q-27 -58 -59.5 -124t-66 -131.5t-67 -125t-61.5 -105.5h-85
q-21 88 -37 181t-22 181q-19 -46 -40.5 -93.5t-45 -94t-47.5 -91t-48 -83.5zM561 585q-42 0 -42 38q0 60 58 60q43 0 43 -38q0 -29 -15 -44.5t-44 -15.5zM362 585q-43 0 -43 38q0 60 59 60q42 0 42 -38q0 -29 -14.5 -44.5t-43.5 -15.5z" />
    <glyph glyph-name="uni1E9E" unicode="&#x1e9e;" horiz-adv-x="721" 
d="M391 -12q-44 0 -84.5 5.5t-77.5 16.5l12 65q37 -12 74 -17.5t76 -5.5q92 0 142.5 46t50.5 126q0 102 -152 102h-21l11 59l193 217q-37 9 -78.5 13.5t-85.5 4.5q-114 0 -175.5 -46t-79.5 -151l-75 -423h-80l76 428q23 133 104.5 194.5t235.5 61.5q128 0 255 -29l-11 -62
l-191 -213q76 -5 115.5 -42t39.5 -105q0 -115 -71.5 -180t-202.5 -65z" />
    <glyph glyph-name="uni1EA0" unicode="&#x1ea0;" horiz-adv-x="639" 
d="M50 0h-83q34 80 81.5 174t98.5 186t102 174t93 138h92q22 -56 44 -138t40.5 -174t33 -186t20.5 -174h-82q-4 40 -9 85.5t-13 93.5h-332q-24 -48 -46 -93.5t-40 -85.5zM168 241h290q-9 50 -18.5 100t-20 96t-21.5 87t-22 74q-23 -33 -49 -74t-52.5 -87t-53.5 -96t-53 -100
zM237 -165q-43 0 -43 38q0 60 58 60q43 0 43 -38q0 -29 -14.5 -44.5t-43.5 -15.5z" />
    <glyph glyph-name="uni1EA1" unicode="&#x1ea1;" horiz-adv-x="557" 
d="M215 -12q-85 0 -130.5 44t-45.5 126q0 78 17 141t48 107t75.5 68t99.5 24q58 0 98 -17.5t66 -40.5l14 46h65l-73 -418q-1 -10 6 -14l28 -13l-15 -41h-74q-8 0 -11 1.5t-3 9.5v47q-70 -70 -165 -70zM238 52q127 0 150 126l38 215q-8 6 -21 13t-30.5 13t-38 10.5t-43.5 4.5
q-40 0 -71.5 -18.5t-54 -53t-34.5 -83.5t-12 -109q0 -58 30 -88t87 -30zM196 -165q-43 0 -43 38q0 60 58 60q43 0 43 -38q0 -29 -14.5 -44.5t-43.5 -15.5z" />
    <glyph glyph-name="uni1EA2" unicode="&#x1ea2;" horiz-adv-x="639" 
d="M50 0h-83q34 80 81.5 174t98.5 186t102 174t93 138h92q22 -56 44 -138t40.5 -174t33 -186t20.5 -174h-82q-4 40 -9 85.5t-13 93.5h-332q-24 -48 -46 -93.5t-40 -85.5zM168 241h290q-9 50 -18.5 100t-20 96t-21.5 87t-22 74q-23 -33 -49 -74t-52.5 -87t-53.5 -96t-53 -100
zM370 750q33 19 49 35t21 40q1 4 1 12q0 31 -37 31q-25 0 -53 -30l-22 32q17 20 42 34t46 14q46 0 66 -14t20 -43t-9.5 -49.5t-31.5 -39.5t-65 -46z" />
    <glyph glyph-name="uni1EA3" unicode="&#x1ea3;" horiz-adv-x="557" 
d="M215 -12q-85 0 -130.5 44t-45.5 126q0 78 17 141t48 107t75.5 68t99.5 24q58 0 98 -17.5t66 -40.5l14 46h65l-73 -418q-1 -10 6 -14l28 -13l-15 -41h-74q-8 0 -11 1.5t-3 9.5v47q-70 -70 -165 -70zM238 52q127 0 150 126l38 215q-8 6 -21 13t-30.5 13t-38 10.5t-43.5 4.5
q-40 0 -71.5 -18.5t-54 -53t-34.5 -83.5t-12 -109q0 -58 30 -88t87 -30zM314 564q33 19 49 35t21 40q1 4 1 12q0 31 -37 31q-25 0 -53 -30l-22 32q17 20 42 34t46 14q46 0 66 -14t20 -43t-9.5 -49.5t-31.5 -39.5t-65 -46z" />
    <glyph glyph-name="uni1EA4" unicode="&#x1ea4;" horiz-adv-x="639" 
d="M50 0h-83q34 80 81.5 174t98.5 186t102 174t93 138h92q22 -56 44 -138t40.5 -174t33 -186t20.5 -174h-82q-4 40 -9 85.5t-13 93.5h-332q-24 -48 -46 -93.5t-40 -85.5zM168 241h290q-9 50 -18.5 100t-20 96t-21.5 87t-22 74q-23 -33 -49 -74t-52.5 -87t-53.5 -96t-53 -100
zM297 715h-73l149 140h80l97 -140h-73l-72 95zM632 829h-74l117 140h87z" />
    <glyph glyph-name="uni1EA5" unicode="&#x1ea5;" horiz-adv-x="557" 
d="M215 -12q-85 0 -130.5 44t-45.5 126q0 78 17 141t48 107t75.5 68t99.5 24q58 0 98 -17.5t66 -40.5l14 46h65l-73 -418q-1 -10 6 -14l28 -13l-15 -41h-74q-8 0 -11 1.5t-3 9.5v47q-70 -70 -165 -70zM238 52q127 0 150 126l38 215q-8 6 -21 13t-30.5 13t-38 10.5t-43.5 4.5
q-40 0 -71.5 -18.5t-54 -53t-34.5 -83.5t-12 -109q0 -58 30 -88t87 -30zM241 529h-73l149 140h80l97 -140h-73l-72 95zM576 643h-74l117 140h87z" />
    <glyph glyph-name="uni1EA6" unicode="&#x1ea6;" horiz-adv-x="639" 
d="M50 0h-83q34 80 81.5 174t98.5 186t102 174t93 138h92q22 -56 44 -138t40.5 -174t33 -186t20.5 -174h-82q-4 40 -9 85.5t-13 93.5h-332q-24 -48 -46 -93.5t-40 -85.5zM168 241h290q-9 50 -18.5 100t-20 96t-21.5 87t-22 74q-23 -33 -49 -74t-52.5 -87t-53.5 -96t-53 -100
zM297 715h-73l149 140h80l97 -140h-73l-72 95zM629 829h-74l-78 140h87z" />
    <glyph glyph-name="uni1EA7" unicode="&#x1ea7;" horiz-adv-x="557" 
d="M215 -12q-85 0 -130.5 44t-45.5 126q0 78 17 141t48 107t75.5 68t99.5 24q58 0 98 -17.5t66 -40.5l14 46h65l-73 -418q-1 -10 6 -14l28 -13l-15 -41h-74q-8 0 -11 1.5t-3 9.5v47q-70 -70 -165 -70zM238 52q127 0 150 126l38 215q-8 6 -21 13t-30.5 13t-38 10.5t-43.5 4.5
q-40 0 -71.5 -18.5t-54 -53t-34.5 -83.5t-12 -109q0 -58 30 -88t87 -30zM241 529h-73l149 140h80l97 -140h-73l-72 95zM573 643h-74l-78 140h87z" />
    <glyph glyph-name="uni1EA8" unicode="&#x1ea8;" horiz-adv-x="639" 
d="M50 0h-83q34 80 81.5 174t98.5 186t102 174t93 138h92q22 -56 44 -138t40.5 -174t33 -186t20.5 -174h-82q-4 40 -9 85.5t-13 93.5h-332q-24 -48 -46 -93.5t-40 -85.5zM168 241h290q-9 50 -18.5 100t-20 96t-21.5 87t-22 74q-23 -33 -49 -74t-52.5 -87t-53.5 -96t-53 -100
zM297 715h-73l149 140h80l97 -140h-73l-72 95zM573 829q33 19 49 35t21 40q1 4 1 12q0 31 -37 31q-25 0 -53 -30l-22 32q17 20 42 34t46 14q46 0 66 -14t20 -43t-9.5 -49.5t-31.5 -39.5t-65 -46z" />
    <glyph glyph-name="uni1EA9" unicode="&#x1ea9;" horiz-adv-x="557" 
d="M215 -12q-85 0 -130.5 44t-45.5 126q0 78 17 141t48 107t75.5 68t99.5 24q58 0 98 -17.5t66 -40.5l14 46h65l-73 -418q-1 -10 6 -14l28 -13l-15 -41h-74q-8 0 -11 1.5t-3 9.5v47q-70 -70 -165 -70zM238 52q127 0 150 126l38 215q-8 6 -21 13t-30.5 13t-38 10.5t-43.5 4.5
q-40 0 -71.5 -18.5t-54 -53t-34.5 -83.5t-12 -109q0 -58 30 -88t87 -30zM241 529h-73l149 140h80l97 -140h-73l-72 95zM517 643q33 19 49 35t21 40q1 4 1 12q0 31 -37 31q-25 0 -53 -30l-22 32q17 20 42 34t46 14q46 0 66 -14t20 -43t-9.5 -49.5t-31.5 -39.5t-65 -46z" />
    <glyph glyph-name="uni1EAA" unicode="&#x1eaa;" horiz-adv-x="639" 
d="M50 0h-83q34 80 81.5 174t98.5 186t102 174t93 138h92q22 -56 44 -138t40.5 -174t33 -186t20.5 -174h-82q-4 40 -9 85.5t-13 93.5h-332q-24 -48 -46 -93.5t-40 -85.5zM168 241h290q-9 50 -18.5 100t-20 96t-21.5 87t-22 74q-23 -33 -49 -74t-52.5 -87t-53.5 -96t-53 -100
zM297 715h-73l149 140h80l97 -140h-73l-72 95zM258 891l2 10q10 54 35.5 78t71.5 24q21 0 36.5 -8t27.5 -17.5t23.5 -17.5t25.5 -8q23 0 34.5 11.5t16.5 39.5l1 7h58l-2 -11q-10 -54 -35.5 -78t-71.5 -24q-21 0 -36.5 8t-28 17.5t-24 17.5t-24.5 8q-23 0 -34.5 -11.5
t-16.5 -39.5l-1 -6h-58z" />
    <glyph glyph-name="uni1EAB" unicode="&#x1eab;" horiz-adv-x="557" 
d="M215 -12q-85 0 -130.5 44t-45.5 126q0 78 17 141t48 107t75.5 68t99.5 24q58 0 98 -17.5t66 -40.5l14 46h65l-73 -418q-1 -10 6 -14l28 -13l-15 -41h-74q-8 0 -11 1.5t-3 9.5v47q-70 -70 -165 -70zM238 52q127 0 150 126l38 215q-8 6 -21 13t-30.5 13t-38 10.5t-43.5 4.5
q-40 0 -71.5 -18.5t-54 -53t-34.5 -83.5t-12 -109q0 -58 30 -88t87 -30zM241 529h-73l149 140h80l97 -140h-73l-72 95zM202 705l2 10q10 54 35.5 78t71.5 24q21 0 36.5 -8t27.5 -17.5t23.5 -17.5t25.5 -8q23 0 34.5 11.5t16.5 39.5l1 7h58l-2 -11q-10 -54 -35.5 -78
t-71.5 -24q-21 0 -36.5 8t-28 17.5t-24 17.5t-24.5 8q-23 0 -34.5 -11.5t-16.5 -39.5l-1 -6h-58z" />
    <glyph glyph-name="uni1EAC" unicode="&#x1eac;" horiz-adv-x="639" 
d="M50 0h-83q34 80 81.5 174t98.5 186t102 174t93 138h92q22 -56 44 -138t40.5 -174t33 -186t20.5 -174h-82q-4 40 -9 85.5t-13 93.5h-332q-24 -48 -46 -93.5t-40 -85.5zM168 241h290q-9 50 -18.5 100t-20 96t-21.5 87t-22 74q-23 -33 -49 -74t-52.5 -87t-53.5 -96t-53 -100
zM237 -165q-43 0 -43 38q0 60 58 60q43 0 43 -38q0 -29 -14.5 -44.5t-43.5 -15.5zM297 715h-73l149 140h80l97 -140h-73l-72 95z" />
    <glyph glyph-name="uni1EAD" unicode="&#x1ead;" horiz-adv-x="557" 
d="M215 -12q-85 0 -130.5 44t-45.5 126q0 78 17 141t48 107t75.5 68t99.5 24q58 0 98 -17.5t66 -40.5l14 46h65l-73 -418q-1 -10 6 -14l28 -13l-15 -41h-74q-8 0 -11 1.5t-3 9.5v47q-70 -70 -165 -70zM238 52q127 0 150 126l38 215q-8 6 -21 13t-30.5 13t-38 10.5t-43.5 4.5
q-40 0 -71.5 -18.5t-54 -53t-34.5 -83.5t-12 -109q0 -58 30 -88t87 -30zM196 -165q-43 0 -43 38q0 60 58 60q43 0 43 -38q0 -29 -14.5 -44.5t-43.5 -15.5zM241 529h-73l149 140h80l97 -140h-73l-72 95z" />
    <glyph glyph-name="uni1EAE" unicode="&#x1eae;" horiz-adv-x="639" 
d="M50 0h-83q34 80 81.5 174t98.5 186t102 174t93 138h92q22 -56 44 -138t40.5 -174t33 -186t20.5 -174h-82q-4 40 -9 85.5t-13 93.5h-332q-24 -48 -46 -93.5t-40 -85.5zM168 241h290q-9 50 -18.5 100t-20 96t-21.5 87t-22 74q-23 -33 -49 -74t-52.5 -87t-53.5 -96t-53 -100
zM394 741q-80 0 -109.5 35t-14.5 114h58q-10 -51 7.5 -72.5t68.5 -21.5t76.5 21.5t35.5 72.5h58q-15 -79 -57.5 -114t-122.5 -35zM460 917h-74l117 140h87z" />
    <glyph glyph-name="uni1EAF" unicode="&#x1eaf;" horiz-adv-x="557" 
d="M215 -12q-85 0 -130.5 44t-45.5 126q0 78 17 141t48 107t75.5 68t99.5 24q58 0 98 -17.5t66 -40.5l14 46h65l-73 -418q-1 -10 6 -14l28 -13l-15 -41h-74q-8 0 -11 1.5t-3 9.5v47q-70 -70 -165 -70zM238 52q127 0 150 126l38 215q-8 6 -21 13t-30.5 13t-38 10.5t-43.5 4.5
q-40 0 -71.5 -18.5t-54 -53t-34.5 -83.5t-12 -109q0 -58 30 -88t87 -30zM338 555q-80 0 -109.5 35t-14.5 114h58q-10 -51 7.5 -72.5t68.5 -21.5t76.5 21.5t35.5 72.5h58q-15 -79 -57.5 -114t-122.5 -35zM404 731h-74l117 140h87z" />
    <glyph glyph-name="uni1EB0" unicode="&#x1eb0;" horiz-adv-x="639" 
d="M50 0h-83q34 80 81.5 174t98.5 186t102 174t93 138h92q22 -56 44 -138t40.5 -174t33 -186t20.5 -174h-82q-4 40 -9 85.5t-13 93.5h-332q-24 -48 -46 -93.5t-40 -85.5zM168 241h290q-9 50 -18.5 100t-20 96t-21.5 87t-22 74q-23 -33 -49 -74t-52.5 -87t-53.5 -96t-53 -100
zM394 741q-80 0 -109.5 35t-14.5 114h58q-10 -51 7.5 -72.5t68.5 -21.5t76.5 21.5t35.5 72.5h58q-15 -79 -57.5 -114t-122.5 -35zM457 917h-74l-78 140h87z" />
    <glyph glyph-name="uni1EB1" unicode="&#x1eb1;" horiz-adv-x="557" 
d="M215 -12q-85 0 -130.5 44t-45.5 126q0 78 17 141t48 107t75.5 68t99.5 24q58 0 98 -17.5t66 -40.5l14 46h65l-73 -418q-1 -10 6 -14l28 -13l-15 -41h-74q-8 0 -11 1.5t-3 9.5v47q-70 -70 -165 -70zM238 52q127 0 150 126l38 215q-8 6 -21 13t-30.5 13t-38 10.5t-43.5 4.5
q-40 0 -71.5 -18.5t-54 -53t-34.5 -83.5t-12 -109q0 -58 30 -88t87 -30zM338 555q-80 0 -109.5 35t-14.5 114h58q-10 -51 7.5 -72.5t68.5 -21.5t76.5 21.5t35.5 72.5h58q-15 -79 -57.5 -114t-122.5 -35zM401 731h-74l-78 140h87z" />
    <glyph glyph-name="uni1EB2" unicode="&#x1eb2;" horiz-adv-x="639" 
d="M50 0h-83q34 80 81.5 174t98.5 186t102 174t93 138h92q22 -56 44 -138t40.5 -174t33 -186t20.5 -174h-82q-4 40 -9 85.5t-13 93.5h-332q-24 -48 -46 -93.5t-40 -85.5zM168 241h290q-9 50 -18.5 100t-20 96t-21.5 87t-22 74q-23 -33 -49 -74t-52.5 -87t-53.5 -96t-53 -100
zM394 741q-80 0 -109.5 35t-14.5 114h58q-10 -51 7.5 -72.5t68.5 -21.5t76.5 21.5t35.5 72.5h58q-15 -79 -57.5 -114t-122.5 -35zM401 917q33 19 49 35t21 40q1 4 1 12q0 31 -37 31q-25 0 -53 -30l-22 32q17 20 42 34t46 14q46 0 66 -14t20 -43t-9.5 -49.5t-31.5 -39.5
t-65 -46z" />
    <glyph glyph-name="uni1EB3" unicode="&#x1eb3;" horiz-adv-x="557" 
d="M215 -12q-85 0 -130.5 44t-45.5 126q0 78 17 141t48 107t75.5 68t99.5 24q58 0 98 -17.5t66 -40.5l14 46h65l-73 -418q-1 -10 6 -14l28 -13l-15 -41h-74q-8 0 -11 1.5t-3 9.5v47q-70 -70 -165 -70zM238 52q127 0 150 126l38 215q-8 6 -21 13t-30.5 13t-38 10.5t-43.5 4.5
q-40 0 -71.5 -18.5t-54 -53t-34.5 -83.5t-12 -109q0 -58 30 -88t87 -30zM338 555q-80 0 -109.5 35t-14.5 114h58q-10 -51 7.5 -72.5t68.5 -21.5t76.5 21.5t35.5 72.5h58q-15 -79 -57.5 -114t-122.5 -35zM345 731q33 19 49 35t21 40q1 4 1 12q0 31 -37 31q-25 0 -53 -30
l-22 32q17 20 42 34t46 14q46 0 66 -14t20 -43t-9.5 -49.5t-31.5 -39.5t-65 -46z" />
    <glyph glyph-name="uni1EB4" unicode="&#x1eb4;" horiz-adv-x="639" 
d="M50 0h-83q34 80 81.5 174t98.5 186t102 174t93 138h92q22 -56 44 -138t40.5 -174t33 -186t20.5 -174h-82q-4 40 -9 85.5t-13 93.5h-332q-24 -48 -46 -93.5t-40 -85.5zM168 241h290q-9 50 -18.5 100t-20 96t-21.5 87t-22 74q-23 -33 -49 -74t-52.5 -87t-53.5 -96t-53 -100
zM394 741q-80 0 -109.5 35t-14.5 114h58q-10 -51 7.5 -72.5t68.5 -21.5t76.5 21.5t35.5 72.5h58q-15 -79 -57.5 -114t-122.5 -35zM274 928l2 10q10 54 35.5 78t71.5 24q21 0 36.5 -8t27.5 -17.5t23.5 -17.5t25.5 -8q23 0 34.5 11.5t16.5 39.5l1 7h58l-2 -11
q-10 -54 -35.5 -78t-71.5 -24q-21 0 -36.5 8t-28 17.5t-24 17.5t-24.5 8q-23 0 -34.5 -11.5t-16.5 -39.5l-1 -6h-58z" />
    <glyph glyph-name="uni1EB5" unicode="&#x1eb5;" horiz-adv-x="557" 
d="M215 -12q-85 0 -130.5 44t-45.5 126q0 78 17 141t48 107t75.5 68t99.5 24q58 0 98 -17.5t66 -40.5l14 46h65l-73 -418q-1 -10 6 -14l28 -13l-15 -41h-74q-8 0 -11 1.5t-3 9.5v47q-70 -70 -165 -70zM238 52q127 0 150 126l38 215q-8 6 -21 13t-30.5 13t-38 10.5t-43.5 4.5
q-40 0 -71.5 -18.5t-54 -53t-34.5 -83.5t-12 -109q0 -58 30 -88t87 -30zM338 555q-80 0 -109.5 35t-14.5 114h58q-10 -51 7.5 -72.5t68.5 -21.5t76.5 21.5t35.5 72.5h58q-15 -79 -57.5 -114t-122.5 -35zM218 742l2 10q10 54 35.5 78t71.5 24q21 0 36.5 -8t27.5 -17.5
t23.5 -17.5t25.5 -8q23 0 34.5 11.5t16.5 39.5l1 7h58l-2 -11q-10 -54 -35.5 -78t-71.5 -24q-21 0 -36.5 8t-28 17.5t-24 17.5t-24.5 8q-23 0 -34.5 -11.5t-16.5 -39.5l-1 -6h-58z" />
    <glyph glyph-name="uni1EB6" unicode="&#x1eb6;" horiz-adv-x="639" 
d="M50 0h-83q34 80 81.5 174t98.5 186t102 174t93 138h92q22 -56 44 -138t40.5 -174t33 -186t20.5 -174h-82q-4 40 -9 85.5t-13 93.5h-332q-24 -48 -46 -93.5t-40 -85.5zM168 241h290q-9 50 -18.5 100t-20 96t-21.5 87t-22 74q-23 -33 -49 -74t-52.5 -87t-53.5 -96t-53 -100
zM237 -165q-43 0 -43 38q0 60 58 60q43 0 43 -38q0 -29 -14.5 -44.5t-43.5 -15.5zM394 741q-80 0 -109.5 35t-14.5 114h58q-10 -51 7.5 -72.5t68.5 -21.5t76.5 21.5t35.5 72.5h58q-15 -79 -57.5 -114t-122.5 -35z" />
    <glyph glyph-name="uni1EB7" unicode="&#x1eb7;" horiz-adv-x="557" 
d="M215 -12q-85 0 -130.5 44t-45.5 126q0 78 17 141t48 107t75.5 68t99.5 24q58 0 98 -17.5t66 -40.5l14 46h65l-73 -418q-1 -10 6 -14l28 -13l-15 -41h-74q-8 0 -11 1.5t-3 9.5v47q-70 -70 -165 -70zM238 52q127 0 150 126l38 215q-8 6 -21 13t-30.5 13t-38 10.5t-43.5 4.5
q-40 0 -71.5 -18.5t-54 -53t-34.5 -83.5t-12 -109q0 -58 30 -88t87 -30zM196 -165q-43 0 -43 38q0 60 58 60q43 0 43 -38q0 -29 -14.5 -44.5t-43.5 -15.5zM338 555q-80 0 -109.5 35t-14.5 114h58q-10 -51 7.5 -72.5t68.5 -21.5t76.5 21.5t35.5 72.5h58q-15 -79 -57.5 -114
t-122.5 -35z" />
    <glyph glyph-name="uni1EB8" unicode="&#x1eb8;" horiz-adv-x="583" 
d="M44 0l107 609q1 5 -0.5 7.5t-7.5 5.5l-28 13l14 37h477l-12 -66h-361l-41 -233h289l-11 -62h-289l-43 -245h369l-11 -66h-452zM209 -165q-43 0 -43 38q0 60 58 60q43 0 43 -38q0 -29 -14.5 -44.5t-43.5 -15.5z" />
    <glyph glyph-name="uni1EB9" unicode="&#x1eb9;" horiz-adv-x="523" 
d="M263 -12q-112 0 -168.5 45t-56.5 133q0 78 17.5 139.5t51 104.5t81.5 65.5t109 22.5q96 0 141.5 -42t45.5 -131q0 -52 -14 -105h-352q-2 -11 -2 -25.5t1 -29.5q2 -57 41 -85.5t113 -28.5q38 0 77 4.5t77 15.5l-11 -64q-70 -19 -151 -19zM127 275h276q6 24 6 53
q0 57 -27.5 84.5t-87.5 27.5q-67 0 -110 -42.5t-57 -122.5zM179 -165q-43 0 -43 38q0 60 58 60q43 0 43 -38q0 -29 -14.5 -44.5t-43.5 -15.5z" />
    <glyph glyph-name="uni1EBA" unicode="&#x1eba;" horiz-adv-x="583" 
d="M44 0l107 609q1 5 -0.5 7.5t-7.5 5.5l-28 13l14 37h477l-12 -66h-361l-41 -233h289l-11 -62h-289l-43 -245h369l-11 -66h-452zM362 750q33 19 49 35t21 40q1 4 1 12q0 31 -37 31q-25 0 -53 -30l-22 32q17 20 42 34t46 14q46 0 66 -14t20 -43t-9.5 -49.5t-31.5 -39.5
t-65 -46z" />
    <glyph glyph-name="uni1EBB" unicode="&#x1ebb;" horiz-adv-x="523" 
d="M263 -12q-112 0 -168.5 45t-56.5 133q0 78 17.5 139.5t51 104.5t81.5 65.5t109 22.5q96 0 141.5 -42t45.5 -131q0 -52 -14 -105h-352q-2 -11 -2 -25.5t1 -29.5q2 -57 41 -85.5t113 -28.5q38 0 77 4.5t77 15.5l-11 -64q-70 -19 -151 -19zM127 275h276q6 24 6 53
q0 57 -27.5 84.5t-87.5 27.5q-67 0 -110 -42.5t-57 -122.5zM297 564q33 19 49 35t21 40q1 4 1 12q0 31 -37 31q-25 0 -53 -30l-22 32q17 20 42 34t46 14q46 0 66 -14t20 -43t-9.5 -49.5t-31.5 -39.5t-65 -46z" />
    <glyph glyph-name="uni1EBC" unicode="&#x1ebc;" horiz-adv-x="583" 
d="M44 0l107 609q1 5 -0.5 7.5t-7.5 5.5l-28 13l14 37h477l-12 -66h-361l-41 -233h289l-11 -62h-289l-43 -245h369l-11 -66h-452zM235 761l2 10q10 54 35.5 78t71.5 24q21 0 36.5 -8t27.5 -17.5t23.5 -17.5t25.5 -8q23 0 34.5 11.5t16.5 39.5l1 7h58l-2 -11
q-10 -54 -35.5 -78t-71.5 -24q-21 0 -36.5 8t-28 17.5t-24 17.5t-24.5 8q-23 0 -34.5 -11.5t-16.5 -39.5l-1 -6h-58z" />
    <glyph glyph-name="uni1EBD" unicode="&#x1ebd;" horiz-adv-x="523" 
d="M263 -12q-112 0 -168.5 45t-56.5 133q0 78 17.5 139.5t51 104.5t81.5 65.5t109 22.5q96 0 141.5 -42t45.5 -131q0 -52 -14 -105h-352q-2 -11 -2 -25.5t1 -29.5q2 -57 41 -85.5t113 -28.5q38 0 77 4.5t77 15.5l-11 -64q-70 -19 -151 -19zM127 275h276q6 24 6 53
q0 57 -27.5 84.5t-87.5 27.5q-67 0 -110 -42.5t-57 -122.5zM170 575l2 10q10 54 35.5 78t71.5 24q21 0 36.5 -8t27.5 -17.5t23.5 -17.5t25.5 -8q23 0 34.5 11.5t16.5 39.5l1 7h58l-2 -11q-10 -54 -35.5 -78t-71.5 -24q-21 0 -36.5 8t-28 17.5t-24 17.5t-24.5 8
q-23 0 -34.5 -11.5t-16.5 -39.5l-1 -6h-58z" />
    <glyph glyph-name="uni1EBE" unicode="&#x1ebe;" horiz-adv-x="583" 
d="M44 0l107 609q1 5 -0.5 7.5t-7.5 5.5l-28 13l14 37h477l-12 -66h-361l-41 -233h289l-11 -62h-289l-43 -245h369l-11 -66h-452zM289 715h-73l149 140h80l97 -140h-73l-72 95zM624 829h-74l117 140h87z" />
    <glyph glyph-name="uni1EBF" unicode="&#x1ebf;" horiz-adv-x="523" 
d="M263 -12q-112 0 -168.5 45t-56.5 133q0 78 17.5 139.5t51 104.5t81.5 65.5t109 22.5q96 0 141.5 -42t45.5 -131q0 -52 -14 -105h-352q-2 -11 -2 -25.5t1 -29.5q2 -57 41 -85.5t113 -28.5q38 0 77 4.5t77 15.5l-11 -64q-70 -19 -151 -19zM127 275h276q6 24 6 53
q0 57 -27.5 84.5t-87.5 27.5q-67 0 -110 -42.5t-57 -122.5zM224 529h-73l149 140h80l97 -140h-73l-72 95zM559 643h-74l117 140h87z" />
    <glyph glyph-name="uni1EC0" unicode="&#x1ec0;" horiz-adv-x="583" 
d="M44 0l107 609q1 5 -0.5 7.5t-7.5 5.5l-28 13l14 37h477l-12 -66h-361l-41 -233h289l-11 -62h-289l-43 -245h369l-11 -66h-452zM289 715h-73l149 140h80l97 -140h-73l-72 95zM621 829h-74l-78 140h87z" />
    <glyph glyph-name="uni1EC1" unicode="&#x1ec1;" horiz-adv-x="523" 
d="M263 -12q-112 0 -168.5 45t-56.5 133q0 78 17.5 139.5t51 104.5t81.5 65.5t109 22.5q96 0 141.5 -42t45.5 -131q0 -52 -14 -105h-352q-2 -11 -2 -25.5t1 -29.5q2 -57 41 -85.5t113 -28.5q38 0 77 4.5t77 15.5l-11 -64q-70 -19 -151 -19zM127 275h276q6 24 6 53
q0 57 -27.5 84.5t-87.5 27.5q-67 0 -110 -42.5t-57 -122.5zM224 529h-73l149 140h80l97 -140h-73l-72 95zM556 643h-74l-78 140h87z" />
    <glyph glyph-name="uni1EC2" unicode="&#x1ec2;" horiz-adv-x="583" 
d="M44 0l107 609q1 5 -0.5 7.5t-7.5 5.5l-28 13l14 37h477l-12 -66h-361l-41 -233h289l-11 -62h-289l-43 -245h369l-11 -66h-452zM289 715h-73l149 140h80l97 -140h-73l-72 95zM565 829q33 19 49 35t21 40q1 4 1 12q0 31 -37 31q-25 0 -53 -30l-22 32q17 20 42 34t46 14
q46 0 66 -14t20 -43t-9.5 -49.5t-31.5 -39.5t-65 -46z" />
    <glyph glyph-name="uni1EC3" unicode="&#x1ec3;" horiz-adv-x="523" 
d="M263 -12q-112 0 -168.5 45t-56.5 133q0 78 17.5 139.5t51 104.5t81.5 65.5t109 22.5q96 0 141.5 -42t45.5 -131q0 -52 -14 -105h-352q-2 -11 -2 -25.5t1 -29.5q2 -57 41 -85.5t113 -28.5q38 0 77 4.5t77 15.5l-11 -64q-70 -19 -151 -19zM127 275h276q6 24 6 53
q0 57 -27.5 84.5t-87.5 27.5q-67 0 -110 -42.5t-57 -122.5zM224 529h-73l149 140h80l97 -140h-73l-72 95zM500 643q33 19 49 35t21 40q1 4 1 12q0 31 -37 31q-25 0 -53 -30l-22 32q17 20 42 34t46 14q46 0 66 -14t20 -43t-9.5 -49.5t-31.5 -39.5t-65 -46z" />
    <glyph glyph-name="uni1EC4" unicode="&#x1ec4;" horiz-adv-x="583" 
d="M44 0l107 609q1 5 -0.5 7.5t-7.5 5.5l-28 13l14 37h477l-12 -66h-361l-41 -233h289l-11 -62h-289l-43 -245h369l-11 -66h-452zM289 715h-73l149 140h80l97 -140h-73l-72 95zM250 891l2 10q10 54 35.5 78t71.5 24q21 0 36.5 -8t27.5 -17.5t23.5 -17.5t25.5 -8
q23 0 34.5 11.5t16.5 39.5l1 7h58l-2 -11q-10 -54 -35.5 -78t-71.5 -24q-21 0 -36.5 8t-28 17.5t-24 17.5t-24.5 8q-23 0 -34.5 -11.5t-16.5 -39.5l-1 -6h-58z" />
    <glyph glyph-name="uni1EC5" unicode="&#x1ec5;" horiz-adv-x="523" 
d="M263 -12q-112 0 -168.5 45t-56.5 133q0 78 17.5 139.5t51 104.5t81.5 65.5t109 22.5q96 0 141.5 -42t45.5 -131q0 -52 -14 -105h-352q-2 -11 -2 -25.5t1 -29.5q2 -57 41 -85.5t113 -28.5q38 0 77 4.5t77 15.5l-11 -64q-70 -19 -151 -19zM127 275h276q6 24 6 53
q0 57 -27.5 84.5t-87.5 27.5q-67 0 -110 -42.5t-57 -122.5zM224 529h-73l149 140h80l97 -140h-73l-72 95zM185 705l2 10q10 54 35.5 78t71.5 24q21 0 36.5 -8t27.5 -17.5t23.5 -17.5t25.5 -8q23 0 34.5 11.5t16.5 39.5l1 7h58l-2 -11q-10 -54 -35.5 -78t-71.5 -24
q-21 0 -36.5 8t-28 17.5t-24 17.5t-24.5 8q-23 0 -34.5 -11.5t-16.5 -39.5l-1 -6h-58z" />
    <glyph glyph-name="uni1EC6" unicode="&#x1ec6;" horiz-adv-x="583" 
d="M44 0l107 609q1 5 -0.5 7.5t-7.5 5.5l-28 13l14 37h477l-12 -66h-361l-41 -233h289l-11 -62h-289l-43 -245h369l-11 -66h-452zM209 -165q-43 0 -43 38q0 60 58 60q43 0 43 -38q0 -29 -14.5 -44.5t-43.5 -15.5zM289 715h-73l149 140h80l97 -140h-73l-72 95z" />
    <glyph glyph-name="uni1EC7" unicode="&#x1ec7;" horiz-adv-x="523" 
d="M263 -12q-112 0 -168.5 45t-56.5 133q0 78 17.5 139.5t51 104.5t81.5 65.5t109 22.5q96 0 141.5 -42t45.5 -131q0 -52 -14 -105h-352q-2 -11 -2 -25.5t1 -29.5q2 -57 41 -85.5t113 -28.5q38 0 77 4.5t77 15.5l-11 -64q-70 -19 -151 -19zM127 275h276q6 24 6 53
q0 57 -27.5 84.5t-87.5 27.5q-67 0 -110 -42.5t-57 -122.5zM179 -165q-43 0 -43 38q0 60 58 60q43 0 43 -38q0 -29 -14.5 -44.5t-43.5 -15.5zM224 529h-73l149 140h80l97 -140h-73l-72 95z" />
    <glyph glyph-name="uni1EC8" unicode="&#x1ec8;" horiz-adv-x="253" 
d="M44 0l107 609q1 5 -0.5 7.5t-7.5 5.5l-28 13l14 37h102q6 0 10 -1.5t2 -10.5l-116 -660h-83zM197 750q33 19 49 35t21 40q1 4 1 12q0 31 -37 31q-25 0 -53 -30l-22 32q17 20 42 34t46 14q46 0 66 -14t20 -43t-9.5 -49.5t-31.5 -39.5t-65 -46z" />
    <glyph glyph-name="uni1EC9" unicode="&#x1ec9;" horiz-adv-x="237" 
d="M40 0l72 412q2 10 1.5 13.5t-8.5 7.5l-26 12l16 41h96q6 0 10 -1.5t2 -10.5l-83 -474h-80zM154 564q33 19 49 35t21 40q1 4 1 12q0 31 -37 31q-25 0 -53 -30l-22 32q17 20 42 34t46 14q46 0 66 -14t20 -43t-9.5 -49.5t-31.5 -39.5t-65 -46z" />
    <glyph glyph-name="uni1ECA" unicode="&#x1eca;" horiz-adv-x="253" 
d="M44 0l107 609q1 5 -0.5 7.5t-7.5 5.5l-28 13l14 37h102q6 0 10 -1.5t2 -10.5l-116 -660h-83zM44 -165q-43 0 -43 38q0 60 58 60q43 0 43 -38q0 -29 -14.5 -44.5t-43.5 -15.5z" />
    <glyph glyph-name="uni1ECB" unicode="&#x1ecb;" horiz-adv-x="237" 
d="M40 0l72 412q2 10 1.5 13.5t-8.5 7.5l-26 12l16 41h96q6 0 10 -1.5t2 -10.5l-83 -474h-80zM181 584q-44 0 -44 39q0 62 60 62q44 0 44 -40q0 -61 -60 -61zM36 -165q-43 0 -43 38q0 60 58 60q43 0 43 -38q0 -29 -14.5 -44.5t-43.5 -15.5z" />
    <glyph glyph-name="uni1ECC" unicode="&#x1ecc;" horiz-adv-x="713" 
d="M329 -12q-134 0 -202 61.5t-68 181.5q0 106 24.5 190.5t70.5 142.5t112.5 89t150.5 31q134 0 202 -61.5t68 -181.5q0 -107 -24.5 -191t-70.5 -142t-112.5 -89t-150.5 -31zM333 55q63 0 113 25.5t85 74.5t53.5 118.5t18.5 158.5q0 185 -190 185q-63 0 -113 -25.5
t-85 -74.5t-53.5 -119t-18.5 -158q0 -185 190 -185zM274 -165q-43 0 -43 38q0 60 58 60q43 0 43 -38q0 -29 -14.5 -44.5t-43.5 -15.5z" />
    <glyph glyph-name="uni1ECD" unicode="&#x1ecd;" horiz-adv-x="545" 
d="M241 -12q-204 0 -204 178q0 77 18 138.5t52.5 104.5t84.5 66t113 23q101 0 152 -45t51 -133q0 -77 -18 -138.5t-52.5 -104.5t-84 -66t-112.5 -23zM245 52q42 0 76 18t57 52t35.5 81.5t12.5 107.5q0 123 -126 123q-42 0 -76 -18t-57 -52t-35.5 -81.5t-12.5 -107.5
q0 -123 126 -123zM190 -165q-43 0 -43 38q0 60 58 60q43 0 43 -38q0 -29 -14.5 -44.5t-43.5 -15.5z" />
    <glyph glyph-name="uni1ECE" unicode="&#x1ece;" horiz-adv-x="713" 
d="M329 -12q-134 0 -202 61.5t-68 181.5q0 106 24.5 190.5t70.5 142.5t112.5 89t150.5 31q134 0 202 -61.5t68 -181.5q0 -107 -24.5 -191t-70.5 -142t-112.5 -89t-150.5 -31zM333 55q63 0 113 25.5t85 74.5t53.5 118.5t18.5 158.5q0 185 -190 185q-63 0 -113 -25.5
t-85 -74.5t-53.5 -119t-18.5 -158q0 -185 190 -185zM427 750q33 19 49 35t21 40q1 4 1 12q0 31 -37 31q-25 0 -53 -30l-22 32q17 20 42 34t46 14q46 0 66 -14t20 -43t-9.5 -49.5t-31.5 -39.5t-65 -46z" />
    <glyph glyph-name="uni1ECF" unicode="&#x1ecf;" horiz-adv-x="545" 
d="M241 -12q-204 0 -204 178q0 77 18 138.5t52.5 104.5t84.5 66t113 23q101 0 152 -45t51 -133q0 -77 -18 -138.5t-52.5 -104.5t-84 -66t-112.5 -23zM245 52q42 0 76 18t57 52t35.5 81.5t12.5 107.5q0 123 -126 123q-42 0 -76 -18t-57 -52t-35.5 -81.5t-12.5 -107.5
q0 -123 126 -123zM308 564q33 19 49 35t21 40q1 4 1 12q0 31 -37 31q-25 0 -53 -30l-22 32q17 20 42 34t46 14q46 0 66 -14t20 -43t-9.5 -49.5t-31.5 -39.5t-65 -46z" />
    <glyph glyph-name="uni1ED0" unicode="&#x1ed0;" horiz-adv-x="713" 
d="M329 -12q-134 0 -202 61.5t-68 181.5q0 106 24.5 190.5t70.5 142.5t112.5 89t150.5 31q134 0 202 -61.5t68 -181.5q0 -107 -24.5 -191t-70.5 -142t-112.5 -89t-150.5 -31zM333 55q63 0 113 25.5t85 74.5t53.5 118.5t18.5 158.5q0 185 -190 185q-63 0 -113 -25.5
t-85 -74.5t-53.5 -119t-18.5 -158q0 -185 190 -185zM354 715h-73l149 140h80l97 -140h-73l-72 95zM689 829h-74l117 140h87z" />
    <glyph glyph-name="uni1ED1" unicode="&#x1ed1;" horiz-adv-x="545" 
d="M241 -12q-204 0 -204 178q0 77 18 138.5t52.5 104.5t84.5 66t113 23q101 0 152 -45t51 -133q0 -77 -18 -138.5t-52.5 -104.5t-84 -66t-112.5 -23zM245 52q42 0 76 18t57 52t35.5 81.5t12.5 107.5q0 123 -126 123q-42 0 -76 -18t-57 -52t-35.5 -81.5t-12.5 -107.5
q0 -123 126 -123zM235 529h-73l149 140h80l97 -140h-73l-72 95zM570 643h-74l117 140h87z" />
    <glyph glyph-name="uni1ED2" unicode="&#x1ed2;" horiz-adv-x="713" 
d="M329 -12q-134 0 -202 61.5t-68 181.5q0 106 24.5 190.5t70.5 142.5t112.5 89t150.5 31q134 0 202 -61.5t68 -181.5q0 -107 -24.5 -191t-70.5 -142t-112.5 -89t-150.5 -31zM333 55q63 0 113 25.5t85 74.5t53.5 118.5t18.5 158.5q0 185 -190 185q-63 0 -113 -25.5
t-85 -74.5t-53.5 -119t-18.5 -158q0 -185 190 -185zM354 715h-73l149 140h80l97 -140h-73l-72 95zM686 829h-74l-78 140h87z" />
    <glyph glyph-name="uni1ED3" unicode="&#x1ed3;" horiz-adv-x="545" 
d="M241 -12q-204 0 -204 178q0 77 18 138.5t52.5 104.5t84.5 66t113 23q101 0 152 -45t51 -133q0 -77 -18 -138.5t-52.5 -104.5t-84 -66t-112.5 -23zM245 52q42 0 76 18t57 52t35.5 81.5t12.5 107.5q0 123 -126 123q-42 0 -76 -18t-57 -52t-35.5 -81.5t-12.5 -107.5
q0 -123 126 -123zM235 529h-73l149 140h80l97 -140h-73l-72 95zM567 643h-74l-78 140h87z" />
    <glyph glyph-name="uni1ED4" unicode="&#x1ed4;" horiz-adv-x="713" 
d="M329 -12q-134 0 -202 61.5t-68 181.5q0 106 24.5 190.5t70.5 142.5t112.5 89t150.5 31q134 0 202 -61.5t68 -181.5q0 -107 -24.5 -191t-70.5 -142t-112.5 -89t-150.5 -31zM333 55q63 0 113 25.5t85 74.5t53.5 118.5t18.5 158.5q0 185 -190 185q-63 0 -113 -25.5
t-85 -74.5t-53.5 -119t-18.5 -158q0 -185 190 -185zM354 715h-73l149 140h80l97 -140h-73l-72 95zM630 829q33 19 49 35t21 40q1 4 1 12q0 31 -37 31q-25 0 -53 -30l-22 32q17 20 42 34t46 14q46 0 66 -14t20 -43t-9.5 -49.5t-31.5 -39.5t-65 -46z" />
    <glyph glyph-name="uni1ED5" unicode="&#x1ed5;" horiz-adv-x="545" 
d="M241 -12q-204 0 -204 178q0 77 18 138.5t52.5 104.5t84.5 66t113 23q101 0 152 -45t51 -133q0 -77 -18 -138.5t-52.5 -104.5t-84 -66t-112.5 -23zM245 52q42 0 76 18t57 52t35.5 81.5t12.5 107.5q0 123 -126 123q-42 0 -76 -18t-57 -52t-35.5 -81.5t-12.5 -107.5
q0 -123 126 -123zM235 529h-73l149 140h80l97 -140h-73l-72 95zM511 643q33 19 49 35t21 40q1 4 1 12q0 31 -37 31q-25 0 -53 -30l-22 32q17 20 42 34t46 14q46 0 66 -14t20 -43t-9.5 -49.5t-31.5 -39.5t-65 -46z" />
    <glyph glyph-name="uni1ED6" unicode="&#x1ed6;" horiz-adv-x="713" 
d="M329 -12q-134 0 -202 61.5t-68 181.5q0 106 24.5 190.5t70.5 142.5t112.5 89t150.5 31q134 0 202 -61.5t68 -181.5q0 -107 -24.5 -191t-70.5 -142t-112.5 -89t-150.5 -31zM333 55q63 0 113 25.5t85 74.5t53.5 118.5t18.5 158.5q0 185 -190 185q-63 0 -113 -25.5
t-85 -74.5t-53.5 -119t-18.5 -158q0 -185 190 -185zM354 715h-73l149 140h80l97 -140h-73l-72 95zM315 891l2 10q10 54 35.5 78t71.5 24q21 0 36.5 -8t27.5 -17.5t23.5 -17.5t25.5 -8q23 0 34.5 11.5t16.5 39.5l1 7h58l-2 -11q-10 -54 -35.5 -78t-71.5 -24q-21 0 -36.5 8
t-28 17.5t-24 17.5t-24.5 8q-23 0 -34.5 -11.5t-16.5 -39.5l-1 -6h-58z" />
    <glyph glyph-name="uni1ED7" unicode="&#x1ed7;" horiz-adv-x="545" 
d="M241 -12q-204 0 -204 178q0 77 18 138.5t52.5 104.5t84.5 66t113 23q101 0 152 -45t51 -133q0 -77 -18 -138.5t-52.5 -104.5t-84 -66t-112.5 -23zM245 52q42 0 76 18t57 52t35.5 81.5t12.5 107.5q0 123 -126 123q-42 0 -76 -18t-57 -52t-35.5 -81.5t-12.5 -107.5
q0 -123 126 -123zM235 529h-73l149 140h80l97 -140h-73l-72 95zM196 705l2 10q10 54 35.5 78t71.5 24q21 0 36.5 -8t27.5 -17.5t23.5 -17.5t25.5 -8q23 0 34.5 11.5t16.5 39.5l1 7h58l-2 -11q-10 -54 -35.5 -78t-71.5 -24q-21 0 -36.5 8t-28 17.5t-24 17.5t-24.5 8
q-23 0 -34.5 -11.5t-16.5 -39.5l-1 -6h-58z" />
    <glyph glyph-name="uni1ED8" unicode="&#x1ed8;" horiz-adv-x="713" 
d="M329 -12q-134 0 -202 61.5t-68 181.5q0 106 24.5 190.5t70.5 142.5t112.5 89t150.5 31q134 0 202 -61.5t68 -181.5q0 -107 -24.5 -191t-70.5 -142t-112.5 -89t-150.5 -31zM333 55q63 0 113 25.5t85 74.5t53.5 118.5t18.5 158.5q0 185 -190 185q-63 0 -113 -25.5
t-85 -74.5t-53.5 -119t-18.5 -158q0 -185 190 -185zM274 -165q-43 0 -43 38q0 60 58 60q43 0 43 -38q0 -29 -14.5 -44.5t-43.5 -15.5zM354 715h-73l149 140h80l97 -140h-73l-72 95z" />
    <glyph glyph-name="uni1ED9" unicode="&#x1ed9;" horiz-adv-x="545" 
d="M241 -12q-204 0 -204 178q0 77 18 138.5t52.5 104.5t84.5 66t113 23q101 0 152 -45t51 -133q0 -77 -18 -138.5t-52.5 -104.5t-84 -66t-112.5 -23zM245 52q42 0 76 18t57 52t35.5 81.5t12.5 107.5q0 123 -126 123q-42 0 -76 -18t-57 -52t-35.5 -81.5t-12.5 -107.5
q0 -123 126 -123zM190 -165q-43 0 -43 38q0 60 58 60q43 0 43 -38q0 -29 -14.5 -44.5t-43.5 -15.5zM235 529h-73l149 140h80l97 -140h-73l-72 95z" />
    <glyph glyph-name="uni1EDA" unicode="&#x1eda;" horiz-adv-x="713" 
d="M506 617l10 55q51 0 76.5 21.5t35.5 72.5h58q-15 -79 -57.5 -114t-122.5 -35zM329 -12q-134 0 -202 61.5t-68 181.5q0 106 24.5 190.5t70.5 142.5t112.5 89t150.5 31q134 0 202 -61.5t68 -181.5q0 -107 -24.5 -191t-70.5 -142t-112.5 -89t-150.5 -31zM333 55
q63 0 113 25.5t85 74.5t53.5 118.5t18.5 158.5q0 185 -190 185q-63 0 -113 -25.5t-85 -74.5t-53.5 -119t-18.5 -158q0 -185 190 -185zM486 750h-74l117 140h87z" />
    <glyph glyph-name="uni1EDB" unicode="&#x1edb;" horiz-adv-x="545" 
d="M379 431l10 55q51 0 76.5 21.5t35.5 72.5h58q-15 -79 -57.5 -114t-122.5 -35zM241 -12q-204 0 -204 178q0 77 18 138.5t52.5 104.5t84.5 66t113 23q101 0 152 -45t51 -133q0 -77 -18 -138.5t-52.5 -104.5t-84 -66t-112.5 -23zM245 52q42 0 76 18t57 52t35.5 81.5
t12.5 107.5q0 123 -126 123q-42 0 -76 -18t-57 -52t-35.5 -81.5t-12.5 -107.5q0 -123 126 -123zM367 564h-74l117 140h87z" />
    <glyph glyph-name="uni1EDC" unicode="&#x1edc;" horiz-adv-x="713" 
d="M506 617l10 55q51 0 76.5 21.5t35.5 72.5h58q-15 -79 -57.5 -114t-122.5 -35zM329 -12q-134 0 -202 61.5t-68 181.5q0 106 24.5 190.5t70.5 142.5t112.5 89t150.5 31q134 0 202 -61.5t68 -181.5q0 -107 -24.5 -191t-70.5 -142t-112.5 -89t-150.5 -31zM333 55
q63 0 113 25.5t85 74.5t53.5 118.5t18.5 158.5q0 185 -190 185q-63 0 -113 -25.5t-85 -74.5t-53.5 -119t-18.5 -158q0 -185 190 -185zM483 750h-74l-78 140h87z" />
    <glyph glyph-name="uni1EDD" unicode="&#x1edd;" horiz-adv-x="545" 
d="M379 431l10 55q51 0 76.5 21.5t35.5 72.5h58q-15 -79 -57.5 -114t-122.5 -35zM241 -12q-204 0 -204 178q0 77 18 138.5t52.5 104.5t84.5 66t113 23q101 0 152 -45t51 -133q0 -77 -18 -138.5t-52.5 -104.5t-84 -66t-112.5 -23zM245 52q42 0 76 18t57 52t35.5 81.5
t12.5 107.5q0 123 -126 123q-42 0 -76 -18t-57 -52t-35.5 -81.5t-12.5 -107.5q0 -123 126 -123zM364 564h-74l-78 140h87z" />
    <glyph glyph-name="uni1EDE" unicode="&#x1ede;" horiz-adv-x="713" 
d="M506 617l10 55q51 0 76.5 21.5t35.5 72.5h58q-15 -79 -57.5 -114t-122.5 -35zM329 -12q-134 0 -202 61.5t-68 181.5q0 106 24.5 190.5t70.5 142.5t112.5 89t150.5 31q134 0 202 -61.5t68 -181.5q0 -107 -24.5 -191t-70.5 -142t-112.5 -89t-150.5 -31zM333 55
q63 0 113 25.5t85 74.5t53.5 118.5t18.5 158.5q0 185 -190 185q-63 0 -113 -25.5t-85 -74.5t-53.5 -119t-18.5 -158q0 -185 190 -185zM427 750q33 19 49 35t21 40q1 4 1 12q0 31 -37 31q-25 0 -53 -30l-22 32q17 20 42 34t46 14q46 0 66 -14t20 -43t-9.5 -49.5t-31.5 -39.5
t-65 -46z" />
    <glyph glyph-name="uni1EDF" unicode="&#x1edf;" horiz-adv-x="545" 
d="M379 431l10 55q51 0 76.5 21.5t35.5 72.5h58q-15 -79 -57.5 -114t-122.5 -35zM241 -12q-204 0 -204 178q0 77 18 138.5t52.5 104.5t84.5 66t113 23q101 0 152 -45t51 -133q0 -77 -18 -138.5t-52.5 -104.5t-84 -66t-112.5 -23zM245 52q42 0 76 18t57 52t35.5 81.5
t12.5 107.5q0 123 -126 123q-42 0 -76 -18t-57 -52t-35.5 -81.5t-12.5 -107.5q0 -123 126 -123zM308 564q33 19 49 35t21 40q1 4 1 12q0 31 -37 31q-25 0 -53 -30l-22 32q17 20 42 34t46 14q46 0 66 -14t20 -43t-9.5 -49.5t-31.5 -39.5t-65 -46z" />
    <glyph glyph-name="uni1EE0" unicode="&#x1ee0;" horiz-adv-x="713" 
d="M506 617l10 55q51 0 76.5 21.5t35.5 72.5h58q-15 -79 -57.5 -114t-122.5 -35zM329 -12q-134 0 -202 61.5t-68 181.5q0 106 24.5 190.5t70.5 142.5t112.5 89t150.5 31q134 0 202 -61.5t68 -181.5q0 -107 -24.5 -191t-70.5 -142t-112.5 -89t-150.5 -31zM333 55
q63 0 113 25.5t85 74.5t53.5 118.5t18.5 158.5q0 185 -190 185q-63 0 -113 -25.5t-85 -74.5t-53.5 -119t-18.5 -158q0 -185 190 -185zM300 761l2 10q10 54 35.5 78t71.5 24q21 0 36.5 -8t27.5 -17.5t23.5 -17.5t25.5 -8q23 0 34.5 11.5t16.5 39.5l1 7h58l-2 -11
q-10 -54 -35.5 -78t-71.5 -24q-21 0 -36.5 8t-28 17.5t-24 17.5t-24.5 8q-23 0 -34.5 -11.5t-16.5 -39.5l-1 -6h-58z" />
    <glyph glyph-name="uni1EE1" unicode="&#x1ee1;" horiz-adv-x="545" 
d="M379 431l10 55q51 0 76.5 21.5t35.5 72.5h58q-15 -79 -57.5 -114t-122.5 -35zM241 -12q-204 0 -204 178q0 77 18 138.5t52.5 104.5t84.5 66t113 23q101 0 152 -45t51 -133q0 -77 -18 -138.5t-52.5 -104.5t-84 -66t-112.5 -23zM245 52q42 0 76 18t57 52t35.5 81.5
t12.5 107.5q0 123 -126 123q-42 0 -76 -18t-57 -52t-35.5 -81.5t-12.5 -107.5q0 -123 126 -123zM181 575l2 10q10 54 35.5 78t71.5 24q21 0 36.5 -8t27.5 -17.5t23.5 -17.5t25.5 -8q23 0 34.5 11.5t16.5 39.5l1 7h58l-2 -11q-10 -54 -35.5 -78t-71.5 -24q-21 0 -36.5 8
t-28 17.5t-24 17.5t-24.5 8q-23 0 -34.5 -11.5t-16.5 -39.5l-1 -6h-58z" />
    <glyph glyph-name="uni1EE2" unicode="&#x1ee2;" horiz-adv-x="713" 
d="M506 617l10 55q51 0 76.5 21.5t35.5 72.5h58q-15 -79 -57.5 -114t-122.5 -35zM329 -12q-134 0 -202 61.5t-68 181.5q0 106 24.5 190.5t70.5 142.5t112.5 89t150.5 31q134 0 202 -61.5t68 -181.5q0 -107 -24.5 -191t-70.5 -142t-112.5 -89t-150.5 -31zM333 55
q63 0 113 25.5t85 74.5t53.5 118.5t18.5 158.5q0 185 -190 185q-63 0 -113 -25.5t-85 -74.5t-53.5 -119t-18.5 -158q0 -185 190 -185zM274 -165q-43 0 -43 38q0 60 58 60q43 0 43 -38q0 -29 -14.5 -44.5t-43.5 -15.5z" />
    <glyph glyph-name="uni1EE3" unicode="&#x1ee3;" horiz-adv-x="545" 
d="M379 431l10 55q51 0 76.5 21.5t35.5 72.5h58q-15 -79 -57.5 -114t-122.5 -35zM241 -12q-204 0 -204 178q0 77 18 138.5t52.5 104.5t84.5 66t113 23q101 0 152 -45t51 -133q0 -77 -18 -138.5t-52.5 -104.5t-84 -66t-112.5 -23zM245 52q42 0 76 18t57 52t35.5 81.5
t12.5 107.5q0 123 -126 123q-42 0 -76 -18t-57 -52t-35.5 -81.5t-12.5 -107.5q0 -123 126 -123zM190 -165q-43 0 -43 38q0 60 58 60q43 0 43 -38q0 -29 -14.5 -44.5t-43.5 -15.5z" />
    <glyph glyph-name="uni1EE4" unicode="&#x1ee4;" horiz-adv-x="716" 
d="M320 -12q-55 0 -99 13t-75 38t-47.5 59.5t-16.5 78.5q0 21 2 43t6 45l61 344q1 5 -0.5 7.5t-7.5 5.5l-28 13l14 37h116l-72 -407q-3 -19 -5 -38.5t-2 -36.5q0 -62 43.5 -98.5t117.5 -36.5q101 0 153 43.5t69 140.5l76 433h83l-77 -439q-11 -65 -34.5 -111.5t-61.5 -76
t-91.5 -43.5t-123.5 -14zM275 -165q-43 0 -43 38q0 60 58 60q43 0 43 -38q0 -29 -14.5 -44.5t-43.5 -15.5z" />
    <glyph glyph-name="uni1EE5" unicode="&#x1ee5;" horiz-adv-x="554" 
d="M239 -12q-84 0 -132 37.5t-48 103.5q0 32 6 64l38 219q2 10 1.5 13.5t-8.5 7.5l-25 12l16 41h95q6 0 10 -1.5t2 -10.5l-49 -281q-2 -13 -3.5 -26t-1.5 -25q0 -42 28.5 -66t78.5 -24q65 0 99.5 29t45.5 94l54 311h80l-55 -317q-16 -95 -71.5 -138t-160.5 -43zM194 -165
q-43 0 -43 38q0 60 58 60q43 0 43 -38q0 -29 -14.5 -44.5t-43.5 -15.5z" />
    <glyph glyph-name="uni1EE6" unicode="&#x1ee6;" horiz-adv-x="716" 
d="M320 -12q-55 0 -99 13t-75 38t-47.5 59.5t-16.5 78.5q0 21 2 43t6 45l61 344q1 5 -0.5 7.5t-7.5 5.5l-28 13l14 37h116l-72 -407q-3 -19 -5 -38.5t-2 -36.5q0 -62 43.5 -98.5t117.5 -36.5q101 0 153 43.5t69 140.5l76 433h83l-77 -439q-11 -65 -34.5 -111.5t-61.5 -76
t-91.5 -43.5t-123.5 -14zM428 750q33 19 49 35t21 40q1 4 1 12q0 31 -37 31q-25 0 -53 -30l-22 32q17 20 42 34t46 14q46 0 66 -14t20 -43t-9.5 -49.5t-31.5 -39.5t-65 -46z" />
    <glyph glyph-name="uni1EE7" unicode="&#x1ee7;" horiz-adv-x="554" 
d="M239 -12q-84 0 -132 37.5t-48 103.5q0 32 6 64l38 219q2 10 1.5 13.5t-8.5 7.5l-25 12l16 41h95q6 0 10 -1.5t2 -10.5l-49 -281q-2 -13 -3.5 -26t-1.5 -25q0 -42 28.5 -66t78.5 -24q65 0 99.5 29t45.5 94l54 311h80l-55 -317q-16 -95 -71.5 -138t-160.5 -43zM312 564
q33 19 49 35t21 40q1 4 1 12q0 31 -37 31q-25 0 -53 -30l-22 32q17 20 42 34t46 14q46 0 66 -14t20 -43t-9.5 -49.5t-31.5 -39.5t-65 -46z" />
    <glyph glyph-name="uni1EE8" unicode="&#x1ee8;" horiz-adv-x="716" 
d="M635 617l10 55q51 0 76.5 21.5t35.5 72.5h58q-15 -79 -57.5 -114t-122.5 -35zM320 -12q-55 0 -99 13t-75 38t-47.5 59.5t-16.5 78.5q0 21 2 43t6 45l61 344q1 5 -0.5 7.5t-7.5 5.5l-28 13l14 37h116l-72 -407q-3 -19 -5 -38.5t-2 -36.5q0 -62 43.5 -98.5t117.5 -36.5
q101 0 153 43.5t69 140.5l76 433h83l-77 -439q-11 -65 -34.5 -111.5t-61.5 -76t-91.5 -43.5t-123.5 -14zM487 750h-74l117 140h87z" />
    <glyph glyph-name="uni1EE9" unicode="&#x1ee9;" horiz-adv-x="554" 
d="M447 431l10 55q51 0 76.5 21.5t35.5 72.5h58q-15 -79 -57.5 -114t-122.5 -35zM239 -12q-84 0 -132 37.5t-48 103.5q0 32 6 64l38 219q2 10 1.5 13.5t-8.5 7.5l-25 12l16 41h95q6 0 10 -1.5t2 -10.5l-49 -281q-2 -13 -3.5 -26t-1.5 -25q0 -42 28.5 -66t78.5 -24
q65 0 99.5 29t45.5 94l54 311h80l-55 -317q-16 -95 -71.5 -138t-160.5 -43zM371 564h-74l117 140h87z" />
    <glyph glyph-name="uni1EEA" unicode="&#x1eea;" horiz-adv-x="716" 
d="M635 617l10 55q51 0 76.5 21.5t35.5 72.5h58q-15 -79 -57.5 -114t-122.5 -35zM320 -12q-55 0 -99 13t-75 38t-47.5 59.5t-16.5 78.5q0 21 2 43t6 45l61 344q1 5 -0.5 7.5t-7.5 5.5l-28 13l14 37h116l-72 -407q-3 -19 -5 -38.5t-2 -36.5q0 -62 43.5 -98.5t117.5 -36.5
q101 0 153 43.5t69 140.5l76 433h83l-77 -439q-11 -65 -34.5 -111.5t-61.5 -76t-91.5 -43.5t-123.5 -14zM484 750h-74l-78 140h87z" />
    <glyph glyph-name="uni1EEB" unicode="&#x1eeb;" horiz-adv-x="554" 
d="M447 431l10 55q51 0 76.5 21.5t35.5 72.5h58q-15 -79 -57.5 -114t-122.5 -35zM239 -12q-84 0 -132 37.5t-48 103.5q0 32 6 64l38 219q2 10 1.5 13.5t-8.5 7.5l-25 12l16 41h95q6 0 10 -1.5t2 -10.5l-49 -281q-2 -13 -3.5 -26t-1.5 -25q0 -42 28.5 -66t78.5 -24
q65 0 99.5 29t45.5 94l54 311h80l-55 -317q-16 -95 -71.5 -138t-160.5 -43zM368 564h-74l-78 140h87z" />
    <glyph glyph-name="uni1EEC" unicode="&#x1eec;" horiz-adv-x="716" 
d="M635 617l10 55q51 0 76.5 21.5t35.5 72.5h58q-15 -79 -57.5 -114t-122.5 -35zM320 -12q-55 0 -99 13t-75 38t-47.5 59.5t-16.5 78.5q0 21 2 43t6 45l61 344q1 5 -0.5 7.5t-7.5 5.5l-28 13l14 37h116l-72 -407q-3 -19 -5 -38.5t-2 -36.5q0 -62 43.5 -98.5t117.5 -36.5
q101 0 153 43.5t69 140.5l76 433h83l-77 -439q-11 -65 -34.5 -111.5t-61.5 -76t-91.5 -43.5t-123.5 -14zM428 750q33 19 49 35t21 40q1 4 1 12q0 31 -37 31q-25 0 -53 -30l-22 32q17 20 42 34t46 14q46 0 66 -14t20 -43t-9.5 -49.5t-31.5 -39.5t-65 -46z" />
    <glyph glyph-name="uni1EED" unicode="&#x1eed;" horiz-adv-x="554" 
d="M447 431l10 55q51 0 76.5 21.5t35.5 72.5h58q-15 -79 -57.5 -114t-122.5 -35zM239 -12q-84 0 -132 37.5t-48 103.5q0 32 6 64l38 219q2 10 1.5 13.5t-8.5 7.5l-25 12l16 41h95q6 0 10 -1.5t2 -10.5l-49 -281q-2 -13 -3.5 -26t-1.5 -25q0 -42 28.5 -66t78.5 -24
q65 0 99.5 29t45.5 94l54 311h80l-55 -317q-16 -95 -71.5 -138t-160.5 -43zM312 564q33 19 49 35t21 40q1 4 1 12q0 31 -37 31q-25 0 -53 -30l-22 32q17 20 42 34t46 14q46 0 66 -14t20 -43t-9.5 -49.5t-31.5 -39.5t-65 -46z" />
    <glyph glyph-name="uni1EEE" unicode="&#x1eee;" horiz-adv-x="716" 
d="M635 617l10 55q51 0 76.5 21.5t35.5 72.5h58q-15 -79 -57.5 -114t-122.5 -35zM320 -12q-55 0 -99 13t-75 38t-47.5 59.5t-16.5 78.5q0 21 2 43t6 45l61 344q1 5 -0.5 7.5t-7.5 5.5l-28 13l14 37h116l-72 -407q-3 -19 -5 -38.5t-2 -36.5q0 -62 43.5 -98.5t117.5 -36.5
q101 0 153 43.5t69 140.5l76 433h83l-77 -439q-11 -65 -34.5 -111.5t-61.5 -76t-91.5 -43.5t-123.5 -14zM301 761l2 10q10 54 35.5 78t71.5 24q21 0 36.5 -8t27.5 -17.5t23.5 -17.5t25.5 -8q23 0 34.5 11.5t16.5 39.5l1 7h58l-2 -11q-10 -54 -35.5 -78t-71.5 -24
q-21 0 -36.5 8t-28 17.5t-24 17.5t-24.5 8q-23 0 -34.5 -11.5t-16.5 -39.5l-1 -6h-58z" />
    <glyph glyph-name="uni1EEF" unicode="&#x1eef;" horiz-adv-x="554" 
d="M447 431l10 55q51 0 76.5 21.5t35.5 72.5h58q-15 -79 -57.5 -114t-122.5 -35zM239 -12q-84 0 -132 37.5t-48 103.5q0 32 6 64l38 219q2 10 1.5 13.5t-8.5 7.5l-25 12l16 41h95q6 0 10 -1.5t2 -10.5l-49 -281q-2 -13 -3.5 -26t-1.5 -25q0 -42 28.5 -66t78.5 -24
q65 0 99.5 29t45.5 94l54 311h80l-55 -317q-16 -95 -71.5 -138t-160.5 -43zM185 575l2 10q10 54 35.5 78t71.5 24q21 0 36.5 -8t27.5 -17.5t23.5 -17.5t25.5 -8q23 0 34.5 11.5t16.5 39.5l1 7h58l-2 -11q-10 -54 -35.5 -78t-71.5 -24q-21 0 -36.5 8t-28 17.5t-24 17.5
t-24.5 8q-23 0 -34.5 -11.5t-16.5 -39.5l-1 -6h-58z" />
    <glyph glyph-name="uni1EF0" unicode="&#x1ef0;" horiz-adv-x="716" 
d="M635 617l10 55q51 0 76.5 21.5t35.5 72.5h58q-15 -79 -57.5 -114t-122.5 -35zM320 -12q-55 0 -99 13t-75 38t-47.5 59.5t-16.5 78.5q0 21 2 43t6 45l61 344q1 5 -0.5 7.5t-7.5 5.5l-28 13l14 37h116l-72 -407q-3 -19 -5 -38.5t-2 -36.5q0 -62 43.5 -98.5t117.5 -36.5
q101 0 153 43.5t69 140.5l76 433h83l-77 -439q-11 -65 -34.5 -111.5t-61.5 -76t-91.5 -43.5t-123.5 -14zM275 -165q-43 0 -43 38q0 60 58 60q43 0 43 -38q0 -29 -14.5 -44.5t-43.5 -15.5z" />
    <glyph glyph-name="uni1EF1" unicode="&#x1ef1;" horiz-adv-x="554" 
d="M447 431l10 55q51 0 76.5 21.5t35.5 72.5h58q-15 -79 -57.5 -114t-122.5 -35zM239 -12q-84 0 -132 37.5t-48 103.5q0 32 6 64l38 219q2 10 1.5 13.5t-8.5 7.5l-25 12l16 41h95q6 0 10 -1.5t2 -10.5l-49 -281q-2 -13 -3.5 -26t-1.5 -25q0 -42 28.5 -66t78.5 -24
q65 0 99.5 29t45.5 94l54 311h80l-55 -317q-16 -95 -71.5 -138t-160.5 -43zM194 -165q-43 0 -43 38q0 60 58 60q43 0 43 -38q0 -29 -14.5 -44.5t-43.5 -15.5z" />
    <glyph glyph-name="Ygrave" unicode="&#x1ef2;" horiz-adv-x="591" 
d="M294 0h-83l51 295l-171 377h85l137 -311l244 311h94l-307 -387zM422 750h-74l-78 140h87z" />
    <glyph glyph-name="ygrave" unicode="&#x1ef3;" horiz-adv-x="558" 
d="M188 -220q-26 0 -51 3t-43 8l11 63q23 -6 45 -8t37 -2q43 0 73.5 10.5t50.5 29t31 43t16 52.5l12 67q-25 -27 -60.5 -42.5t-80.5 -15.5q-80 0 -125 37.5t-45 103.5q0 32 6 64l38 219q2 10 1.5 13.5t-8.5 7.5l-25 12l16 41h95q6 0 10 -1.5t2 -10.5l-49 -281
q-2 -13 -3.5 -26t-1.5 -25q0 -42 28.5 -66t78.5 -24q60 0 97.5 31.5t48.5 94.5l53 308h80l-86 -501q-8 -47 -26 -85t-48.5 -64.5t-74 -41t-103.5 -14.5zM370 564h-74l-78 140h87z" />
    <glyph glyph-name="uni1EF4" unicode="&#x1ef4;" horiz-adv-x="591" 
d="M294 0h-83l51 295l-171 377h85l137 -311l244 311h94l-307 -387zM213 -165q-43 0 -43 38q0 60 58 60q43 0 43 -38q0 -29 -14.5 -44.5t-43.5 -15.5z" />
    <glyph glyph-name="uni1EF5" unicode="&#x1ef5;" horiz-adv-x="558" 
d="M188 -220q-26 0 -51 3t-43 8l11 63q23 -6 45 -8t37 -2q43 0 73.5 10.5t50.5 29t31 43t16 52.5l12 67q-25 -27 -60.5 -42.5t-80.5 -15.5q-80 0 -125 37.5t-45 103.5q0 32 6 64l38 219q2 10 1.5 13.5t-8.5 7.5l-25 12l16 41h95q6 0 10 -1.5t2 -10.5l-49 -281
q-2 -13 -3.5 -26t-1.5 -25q0 -42 28.5 -66t78.5 -24q60 0 97.5 31.5t48.5 94.5l53 308h80l-86 -501q-8 -47 -26 -85t-48.5 -64.5t-74 -41t-103.5 -14.5zM502 -165q-43 0 -43 38q0 60 58 60q43 0 43 -38q0 -29 -14.5 -44.5t-43.5 -15.5z" />
    <glyph glyph-name="uni1EF6" unicode="&#x1ef6;" horiz-adv-x="591" 
d="M294 0h-83l51 295l-171 377h85l137 -311l244 311h94l-307 -387zM366 750q33 19 49 35t21 40q1 4 1 12q0 31 -37 31q-25 0 -53 -30l-22 32q17 20 42 34t46 14q46 0 66 -14t20 -43t-9.5 -49.5t-31.5 -39.5t-65 -46z" />
    <glyph glyph-name="uni1EF7" unicode="&#x1ef7;" horiz-adv-x="558" 
d="M188 -220q-26 0 -51 3t-43 8l11 63q23 -6 45 -8t37 -2q43 0 73.5 10.5t50.5 29t31 43t16 52.5l12 67q-25 -27 -60.5 -42.5t-80.5 -15.5q-80 0 -125 37.5t-45 103.5q0 32 6 64l38 219q2 10 1.5 13.5t-8.5 7.5l-25 12l16 41h95q6 0 10 -1.5t2 -10.5l-49 -281
q-2 -13 -3.5 -26t-1.5 -25q0 -42 28.5 -66t78.5 -24q60 0 97.5 31.5t48.5 94.5l53 308h80l-86 -501q-8 -47 -26 -85t-48.5 -64.5t-74 -41t-103.5 -14.5zM314 564q33 19 49 35t21 40q1 4 1 12q0 31 -37 31q-25 0 -53 -30l-22 32q17 20 42 34t46 14q46 0 66 -14t20 -43
t-9.5 -49.5t-31.5 -39.5t-65 -46z" />
    <glyph glyph-name="uni1EF8" unicode="&#x1ef8;" horiz-adv-x="591" 
d="M294 0h-83l51 295l-171 377h85l137 -311l244 311h94l-307 -387zM239 761l2 10q10 54 35.5 78t71.5 24q21 0 36.5 -8t27.5 -17.5t23.5 -17.5t25.5 -8q23 0 34.5 11.5t16.5 39.5l1 7h58l-2 -11q-10 -54 -35.5 -78t-71.5 -24q-21 0 -36.5 8t-28 17.5t-24 17.5t-24.5 8
q-23 0 -34.5 -11.5t-16.5 -39.5l-1 -6h-58z" />
    <glyph glyph-name="uni1EF9" unicode="&#x1ef9;" horiz-adv-x="558" 
d="M188 -220q-26 0 -51 3t-43 8l11 63q23 -6 45 -8t37 -2q43 0 73.5 10.5t50.5 29t31 43t16 52.5l12 67q-25 -27 -60.5 -42.5t-80.5 -15.5q-80 0 -125 37.5t-45 103.5q0 32 6 64l38 219q2 10 1.5 13.5t-8.5 7.5l-25 12l16 41h95q6 0 10 -1.5t2 -10.5l-49 -281
q-2 -13 -3.5 -26t-1.5 -25q0 -42 28.5 -66t78.5 -24q60 0 97.5 31.5t48.5 94.5l53 308h80l-86 -501q-8 -47 -26 -85t-48.5 -64.5t-74 -41t-103.5 -14.5zM187 575l2 10q10 54 35.5 78t71.5 24q21 0 36.5 -8t27.5 -17.5t23.5 -17.5t25.5 -8q23 0 34.5 11.5t16.5 39.5l1 7h58
l-2 -11q-10 -54 -35.5 -78t-71.5 -24q-21 0 -36.5 8t-28 17.5t-24 17.5t-24.5 8q-23 0 -34.5 -11.5t-16.5 -39.5l-1 -6h-58z" />
    <glyph glyph-name="endash" unicode="&#x2013;" 
d="M545 216h-524l11 62h524z" />
    <glyph glyph-name="emdash" unicode="&#x2014;" horiz-adv-x="864" 
d="M833 216h-812l11 62h812z" />
    <glyph glyph-name="quoteleft" unicode="&#x2018;" horiz-adv-x="231" 
d="M166 445h-87l112 227h69z" />
    <glyph glyph-name="quoteright" unicode="&#x2019;" horiz-adv-x="231" 
d="M151 445h-68l93 227h87z" />
    <glyph glyph-name="quotesinglbase" unicode="&#x201a;" horiz-adv-x="231" 
d="M31 -144h-68l93 227h87z" />
    <glyph glyph-name="quotedblleft" unicode="&#x201c;" horiz-adv-x="431" 
d="M166 445h-87l112 227h69zM365 445h-87l112 227h69z" />
    <glyph glyph-name="quotedblright" unicode="&#x201d;" horiz-adv-x="431" 
d="M151 445h-68l93 227h87zM350 445h-68l93 227h87z" />
    <glyph glyph-name="quotedblbase" unicode="&#x201e;" horiz-adv-x="431" 
d="M31 -144h-68l93 227h87zM230 -144h-68l93 227h87z" />
    <glyph glyph-name="dagger" unicode="&#x2020;" horiz-adv-x="471" 
d="M227 0h-68l76 435h-168l12 62h167l31 175h68l-31 -175h168l-12 -62h-167z" />
    <glyph glyph-name="daggerdbl" unicode="&#x2021;" horiz-adv-x="471" 
d="M227 0h-68l30 175h-167l12 62h167l34 198h-168l12 62h167l31 175h68l-31 -175h168l-12 -62h-167l-34 -198h167l-11 -62h-167z" />
    <glyph glyph-name="bullet" unicode="&#x2022;" horiz-adv-x="480" 
d="M248 144q-30 0 -56.5 11t-46 30.5t-30.5 46t-11 56.5t11 56t30.5 45.5t46 31t56.5 11.5t56 -11.5t45.5 -31t31 -45.5t11.5 -56t-11.5 -56.5t-31 -46t-45.5 -30.5t-56 -11z" />
    <glyph glyph-name="ellipsis" unicode="&#x2026;" horiz-adv-x="864" 
d="M101 -9q-47 0 -47 42q0 30 16.5 47t45.5 17q48 0 48 -42q0 -30 -17 -47t-46 -17zM389 -9q-47 0 -47 42q0 30 16.5 47t45.5 17q48 0 48 -42q0 -30 -17 -47t-46 -17zM677 -9q-47 0 -47 42q0 30 16.5 47t45.5 17q48 0 48 -42q0 -30 -17 -47t-46 -17z" />
    <glyph glyph-name="perthousand" unicode="&#x2030;" horiz-adv-x="1248" 
d="M229 324q-76 0 -110 29t-34 94q0 111 50.5 174t141.5 63q77 0 111 -29t34 -94q0 -111 -51 -174t-142 -63zM233 379q60 0 92.5 46.5t32.5 127.5q0 42 -19.5 59t-64.5 17q-60 0 -93 -46t-33 -128q0 -42 20 -59t65 -17zM619 -12q-76 0 -110 29t-34 94q0 111 50.5 174
t141.5 63q77 0 111 -29t34 -94q0 -111 -51 -174t-142 -63zM623 43q60 0 92.5 46.5t32.5 127.5q0 42 -19.5 59t-64.5 17q-60 0 -93 -46t-33 -128q0 -42 20 -59t65 -17zM1003 -12q-76 0 -110 29t-34 94q0 111 50.5 174t141.5 63q77 0 111 -29t34 -94q0 -111 -51 -174t-142 -63
zM1007 43q60 0 92.5 46.5t32.5 127.5q0 42 -19.5 59t-64.5 17q-60 0 -93 -46t-33 -128q0 -42 20 -59t65 -17zM268 0h-56l416 672h57z" />
    <glyph glyph-name="guilsinglleft" unicode="&#x2039;" horiz-adv-x="279" 
d="M214 50h-72l-111 193l170 193h77l-167 -197z" />
    <glyph glyph-name="guilsinglright" unicode="&#x203a;" horiz-adv-x="279" 
d="M78 50h-77l167 197l-103 189h72l112 -193z" />
    <glyph glyph-name="fraction" unicode="&#x2044;" horiz-adv-x="128" 
d="M-100 0h-56l416 672h57z" />
    </font>
</defs>
</svg>
