<?xml version="1.0" standalone="no"?>
<!DOCTYPE svg PUBLIC "-//W3C//DTD SVG 1.1//EN" "http://www.w3.org/Graphics/SVG/1.1/DTD/svg11.dtd" >
<svg xmlns="http://www.w3.org/2000/svg" xmlns:xlink="http://www.w3.org/1999/xlink" version="1.1">
<metadata>
Created by FontForge 20170731 at Tue Jul 28 17:50:06 2020
 By Aleksey,,,
Copyright (c) 2015 by Fontsmith Ltd. All rights reserved.
</metadata>
<defs>
<font id="HBM-Bold" horiz-adv-x="576" >
  <font-face 
    font-family="HBM Bold"
    font-weight="700"
    font-stretch="normal"
    units-per-em="1000"
    panose-1="2 0 5 4 4 0 0 2 0 4"
    ascent="745"
    descent="-255"
    x-height="490"
    cap-height="672"
    bbox="-305 -256 1212 1119"
    underline-thickness="50"
    underline-position="-150"
    unicode-range="U+0020-FB04"
  />
<missing-glyph horiz-adv-x="500" 
d="M12 0v672h476v-672h-476zM250 380l162 244h-324zM60 92l162 244l-162 244v-488zM440 92v488l-162 -244zM88 48h324l-162 244z" />
    <glyph glyph-name="f_f" unicode="ff" horiz-adv-x="724" 
d="M80 0v374q0 15 -1.5 19t-11.5 6l-62 17l12 74h63v33q0 99 46 142.5t151 43.5q12 0 26 -1t27.5 -2.5t25 -4t19.5 -5.5l-19 -97q-11 3 -29 6.5t-35 3.5q-45 0 -65 -19t-20 -62v-38h232v40q0 99 46 142.5t151 43.5q12 0 26 -1t27.5 -2.5t25 -4t19.5 -5.5l-19 -97
q-11 3 -29 6.5t-35 3.5q-45 0 -65 -19t-20 -62v-45h134v-97h-134v-393h-127v393h-232v-393h-127z" />
    <glyph glyph-name="fi" unicode="fi" horiz-adv-x="628" 
d="M80 0v374q0 15 -1.5 19t-11.5 6l-62 17l12 74h63v40q0 99 46 142.5t151 43.5q12 0 26 -1t27.5 -2.5t25 -4t19.5 -5.5l-19 -97q-11 3 -29 6.5t-35 3.5q-45 0 -65 -19t-20 -62v-45h351q9 0 9 -10v-480h-128v393h-232v-393h-127zM503 556q-40 0 -58 17.5t-18 56.5
q0 38 18 55.5t58 17.5q41 0 58.5 -17.5t17.5 -55.5q0 -39 -17.5 -56.5t-58.5 -17.5z" />
    <glyph glyph-name="fl" unicode="fl" horiz-adv-x="626" 
d="M80 0v374q0 15 -1.5 19t-11.5 6l-62 17l12 74h63v28q0 51 13.5 88t44.5 62q60 48 204 48q55 0 108 -8.5t85 -19.5q14 -5 18.5 -11t4.5 -18v-564q0 -11 2 -14.5t12 -7.5l35 -14l-12 -59h-156q-9 0 -9 10v597q-23 5 -45.5 7t-46.5 2q-74 0 -105 -28q-26 -23 -26 -68v-30
h134v-97h-134v-393h-127z" />
    <glyph glyph-name="f_f_i" unicode="ffi" horiz-adv-x="987" 
d="M80 0v374q0 15 -1.5 19t-11.5 6l-62 17l12 74h63v33q0 99 46 142.5t151 43.5q12 0 26 -1t27.5 -2.5t25 -4t19.5 -5.5l-19 -97q-11 3 -29 6.5t-35 3.5q-45 0 -65 -19t-20 -62v-38h232v40q0 99 46 142.5t151 43.5q12 0 26 -1t27.5 -2.5t25 -4t19.5 -5.5l-19 -97
q-11 3 -29 6.5t-35 3.5q-45 0 -65 -19t-20 -62v-45h351q9 0 9 -10v-480h-128v393h-232v-393h-127v393h-232v-393h-127zM862 556q-40 0 -58 17.5t-18 56.5q0 38 18 55.5t58 17.5q41 0 58.5 -17.5t17.5 -55.5q0 -39 -17.5 -56.5t-58.5 -17.5z" />
    <glyph glyph-name="f_f_l" unicode="ffl" horiz-adv-x="985" 
d="M80 0v374q0 15 -1.5 19t-11.5 6l-62 17l12 74h63v33q0 99 49 142.5t154 43.5q12 0 26.5 -1t29.5 -2.5t27.5 -4t20.5 -5.5l-19 -97q-11 3 -32 6.5t-38 3.5q-45 0 -68 -19t-23 -62v-38h232v28q0 51 13.5 88t44.5 62q60 48 204 48q55 0 108 -8.5t85 -19.5q14 -5 18.5 -11
t4.5 -18v-564q0 -11 2 -14.5t12 -7.5l35 -14l-12 -59h-156q-9 0 -9 10v597q-23 5 -45.5 7t-46.5 2q-74 0 -105 -28q-26 -23 -26 -68v-30h134v-97h-134v-393h-127v393h-232v-393h-127z" />
    <glyph glyph-name="f_t" unicode="ft" horiz-adv-x="748" 
d="M626 -12q-101 0 -145 41.5t-44 136.5v227h-230v-393h-127v374q0 15 -1.5 19t-11.5 6l-62 17l12 74h63v40q0 99 46 142.5t151 43.5q12 0 26 -1t27.5 -2.5t25 -4t19.5 -5.5l-19 -97q-11 3 -29 6.5t-35 3.5q-45 0 -65 -19t-20 -62v-45h230v141h127v-141h154v-97h-154v-222
q0 -45 19 -64t63 -19q37 0 72 9v-100q-44 -9 -92 -9z" />
    <glyph glyph-name="t_t" unicode="tt" horiz-adv-x="772" 
d="M267 -12q-101 0 -145 41.5t-44 136.5v208q0 15 -1.5 19t-11.5 6l-62 17l12 74h63v141h127v-141h256v141h127v-141h154v-97h-154v-222q0 -45 19 -64t63 -19q37 0 72 9v-100q-44 -9 -92 -9q-101 0 -145 41.5t-44 136.5v227h-256v-222q0 -45 19 -64t63 -19q37 0 72 9v-100
q-44 -9 -92 -9z" />
    <glyph glyph-name=".notdef" horiz-adv-x="500" 
d="M12 0v672h476v-672h-476zM250 380l162 244h-324zM60 92l162 244l-162 244v-488zM440 92v488l-162 -244zM88 48h324l-162 244z" />
    <glyph glyph-name=".null" horiz-adv-x="0" 
 />
    <glyph glyph-name="nonmarkingreturn" horiz-adv-x="224" 
 />
    <glyph glyph-name="space" unicode=" " horiz-adv-x="224" 
 />
    <glyph glyph-name="exclam" unicode="!" horiz-adv-x="265" 
d="M132 -11q-42 0 -60 17.5t-18 58.5q0 40 18 57.5t60 17.5t60 -17.5t18 -57.5q0 -41 -18 -58.5t-60 -17.5zM74 212l-6 460h129l-6 -460h-117z" />
    <glyph glyph-name="quotedbl" unicode="&#x22;" horiz-adv-x="465" 
d="M71 419v253h107v-253h-107zM287 419v253h108v-253h-108z" />
    <glyph glyph-name="numbersign" unicode="#" horiz-adv-x="660" 
d="M104 0l20 159h-103v88h114l22 178h-103v88h114l20 159h98l-20 -159h173l19 159h98l-20 -159h104v-88h-115l-22 -178h104v-88h-115l-20 -159h-97l20 159h-173l-20 -159h-98zM232 247h174l22 178h-173z" />
    <glyph glyph-name="dollar" unicode="$" 
d="M229 -144v165q-90 6 -168 30v102q105 -33 209 -33q68 0 95 19.5t27 63.5q0 33 -25 49t-63 26t-82 18.5t-82 27.5t-63 53t-25 94q0 82 42 124.5t135 53.5v167h118v-166q75 -4 148 -23v-102q-96 27 -189 27q-66 0 -92 -18t-26 -61q0 -32 25 -46.5t63 -23.5t82 -18t82 -28.5
t63 -54.5t25 -97q0 -85 -43.5 -128t-137.5 -54v-167h-118z" />
    <glyph glyph-name="percent" unicode="%" horiz-adv-x="864" 
d="M208 324q-91 0 -131.5 42t-40.5 138t40.5 138t131.5 42t131.5 -42t40.5 -138t-40.5 -138t-131.5 -42zM208 397q43 0 61.5 25t18.5 82t-18.5 82t-61.5 25t-61.5 -25t-18.5 -82t18.5 -82t61.5 -25zM656 -12q-91 0 -131.5 42t-40.5 138t40.5 138t131.5 42t131.5 -42
t40.5 -138t-40.5 -138t-131.5 -42zM656 61q43 0 61.5 25t18.5 82t-18.5 82t-61.5 25t-61.5 -25t-18.5 -82t18.5 -82t61.5 -25zM241 0l302 672h80l-302 -672h-80z" />
    <glyph glyph-name="ampersand" unicode="&#x26;" horiz-adv-x="687" 
d="M285 -12q-127 0 -186.5 47t-59.5 148q0 61 33.5 110.5t107.5 83.5q-42 35 -59.5 71t-17.5 73q0 163 202 163q100 0 147.5 -38.5t47.5 -117.5q0 -58 -36.5 -101.5t-111.5 -81.5l124 -125q11 24 15 52t4 58h117q-1 -59 -15 -110.5t-40 -88.5l124 -131h-141l-58 59
q-35 -35 -85 -53t-112 -18zM285 85q38 0 69 13.5t53 40.5l-163 167q-83 -41 -83 -114q0 -107 124 -107zM286 418q49 23 71.5 46.5t22.5 55.5q0 69 -77 69q-80 0 -80 -71q0 -26 15.5 -48.5t47.5 -51.5z" />
    <glyph glyph-name="quotesingle" unicode="'" horiz-adv-x="249" 
d="M71 419v253h107v-253h-107z" />
    <glyph glyph-name="parenleft" unicode="(" horiz-adv-x="329" 
d="M314 -128h-124q-127 174 -127 416t127 416h124q-66 -88 -98.5 -193t-32.5 -223t32.5 -223t98.5 -193z" />
    <glyph glyph-name="parenright" unicode=")" horiz-adv-x="329" 
d="M139 -128h-124q66 88 98.5 193t32.5 223t-32.5 223t-98.5 193h124q127 -174 127 -416t-127 -416z" />
    <glyph glyph-name="asterisk" unicode="*" horiz-adv-x="489" 
d="M161 280l-71 52l83 115l-135 44l28 83l135 -44v142h87v-142l135 44l27 -83l-135 -44l83 -115l-71 -52l-83 116z" />
    <glyph glyph-name="plus" unicode="+" 
d="M234 70v164h-164v108h164v164h108v-164h164v-108h-164v-164h-108z" />
    <glyph glyph-name="comma" unicode="," horiz-adv-x="249" 
d="M17 -144l57 253h130l-84 -253h-103z" />
    <glyph glyph-name="hyphen" unicode="-" horiz-adv-x="320" 
d="M22 200v98h276v-98h-276z" />
    <glyph glyph-name="period" unicode="." horiz-adv-x="249" 
d="M124 -11q-42 0 -60.5 18t-18.5 59t18.5 59t60.5 18t61 -18t19 -59t-19 -59t-61 -18z" />
    <glyph glyph-name="slash" unicode="/" horiz-adv-x="384" 
d="M-9 -128l289 832h113l-289 -832h-113z" />
    <glyph glyph-name="zero" unicode="0" 
d="M288 -12q-68 0 -116.5 20t-80 62t-46 108t-14.5 158t14.5 158t46 108t80 62t116.5 20t116.5 -20t80 -62t46 -108t14.5 -158t-14.5 -158t-46 -108t-80 -62t-116.5 -20zM288 93q71 0 103 57t32 186t-32 186t-103 57t-103 -57t-32 -186t32 -186t103 -57z" />
    <glyph glyph-name="one" unicode="1" 
d="M280 0v559l-175 -77v103l196 87h107v-672h-128z" />
    <glyph glyph-name="two" unicode="2" 
d="M49 0v92l243 233q40 38 60 73t20 70q0 60 -30 85.5t-98 25.5q-86 0 -176 -30v106q46 15 95 22t101 7q125 0 182 -47.5t57 -152.5q0 -54 -24.5 -103.5t-74.5 -97.5l-188 -181h289v-102h-456z" />
    <glyph glyph-name="three" unicode="3" 
d="M224 -12q-94 0 -175 25v102q81 -27 165 -27q89 0 127.5 25.5t38.5 84.5q0 58 -41 83t-136 25h-31v75l163 194h-278v97h422v-87l-167 -197q102 -9 150.5 -56.5t48.5 -136.5q0 -55 -16.5 -94t-51.5 -64t-89 -37t-130 -12z" />
    <glyph glyph-name="four" unicode="4" 
d="M349 0v140h-329v92l313 440h134v-435h86v-97h-86v-140h-118zM140 237h209v295z" />
    <glyph glyph-name="five" unicode="5" 
d="M238 -12q-94 0 -175 25v102q79 -27 165 -27q87 0 125 26.5t38 87.5q0 60 -40 86t-131 26q-34 0 -68.5 -1.5t-70.5 -5.5v365h408v-97h-290v-171q36 3 72 3q132 0 191 -49.5t59 -158.5q0 -111 -66.5 -161t-216.5 -50z" />
    <glyph glyph-name="six" unicode="6" 
d="M296 -12q-68 0 -116 18t-79 56t-45.5 98t-14.5 144q0 100 17.5 172t55 118.5t96.5 68t142 21.5q84 0 156 -21v-101q-37 11 -74 16.5t-72 5.5q-101 0 -146 -49t-49 -155q38 59 150 59q121 0 174.5 -52t53.5 -168q0 -61 -14 -104.5t-44.5 -71.5t-77.5 -41.5t-113 -13.5z
M293 88q69 0 99.5 30t30.5 99q0 65 -28 94.5t-93 29.5q-69 0 -100 -28.5t-31 -88.5q0 -136 122 -136z" />
    <glyph glyph-name="seven" unicode="7" 
d="M130 0l258 570h-336v102h469v-87l-262 -585h-129z" />
    <glyph glyph-name="eight" unicode="8" 
d="M288 -12q-134 0 -194.5 45t-60.5 146q0 70 32 109t104 56q-62 16 -91 53.5t-29 103.5q0 97 56.5 140t182.5 43t182.5 -43t56.5 -140q0 -66 -29 -103.5t-91 -53.5q72 -17 104 -56t32 -109q0 -101 -60.5 -146t-194.5 -45zM288 85q69 0 99 23t30 76q0 51 -29 76t-100 35
q-71 -10 -100 -35t-29 -76q0 -53 30 -76t99 -23zM288 393q63 9 89.5 32.5t26.5 70.5q0 48 -27 69.5t-89 21.5t-89 -21.5t-27 -69.5q0 -47 26.5 -70.5t89.5 -32.5z" />
    <glyph glyph-name="nine" unicode="9" 
d="M224 -12q-84 0 -156 21v101q37 -11 74 -16.5t72 -5.5q51 0 87 12t59 37t35 63.5t14 91.5q-38 -59 -150 -59q-121 0 -174.5 52t-53.5 168q0 121 58.5 176t190.5 55q67 0 115.5 -18t79.5 -56t45.5 -98t14.5 -144q0 -101 -17.5 -172.5t-55 -118t-96.5 -68t-142 -21.5z
M274 331q69 0 100 28.5t31 88.5q0 136 -122 136q-69 0 -99.5 -30t-30.5 -99q0 -65 28 -94.5t93 -29.5z" />
    <glyph glyph-name="colon" unicode=":" horiz-adv-x="265" 
d="M132 -11q-42 0 -60.5 18t-18.5 59t18.5 59t60.5 18t61 -18t19 -59t-19 -59t-61 -18zM132 347q-42 0 -60.5 18t-18.5 59t18.5 59t60.5 18t61 -18t19 -59t-19 -59t-61 -18z" />
    <glyph glyph-name="semicolon" unicode=";" horiz-adv-x="265" 
d="M25 -144l57 253h130l-84 -253h-103zM132 347q-42 0 -60.5 18t-18.5 59t18.5 59t60.5 18t61 -18t19 -59t-19 -59t-61 -18z" />
    <glyph glyph-name="less" unicode="&#x3c;" 
d="M506 55l-436 173v120l436 173v-114l-308 -119l308 -119v-114z" />
    <glyph glyph-name="equal" unicode="=" 
d="M70 343v107h436v-107h-436zM70 126v107h436v-107h-436z" />
    <glyph glyph-name="greater" unicode="&#x3e;" 
d="M70 55v114l308 119l-308 119v114l436 -173v-120z" />
    <glyph glyph-name="question" unicode="?" horiz-adv-x="452" 
d="M132 212v19q0 42 12 72t29.5 51.5t38 37.5t38 31.5t29.5 32.5t12 41q0 47 -26 67t-86 20q-35 0 -73.5 -7t-80.5 -21v101q81 27 169 27q121 0 174.5 -41.5t53.5 -134.5q0 -43 -13.5 -73t-33.5 -52t-44 -39.5t-44 -35.5t-33.5 -38.5t-13.5 -49.5v-8h-108zM186 -11
q-42 0 -60 17.5t-18 58.5q0 40 18 57.5t60 17.5t60 -17.5t18 -57.5q0 -41 -18 -58.5t-60 -17.5z" />
    <glyph glyph-name="at" unicode="@" horiz-adv-x="991" 
d="M524 -204q-126 0 -216.5 25.5t-148.5 80t-85 139.5t-27 204t26.5 204t82.5 139.5t143 80t209 25.5q115 0 197.5 -22.5t135.5 -70.5t78 -123t25 -180q0 -142 -49 -207.5t-159 -65.5q-42 0 -74 14t-50 40q-53 -54 -153 -54q-99 0 -143 52t-44 168t44 168t143 52
q92 0 137 -48l8 36h100v-279q0 -54 52 -54q42 0 60 40t18 128q0 82 -19 141t-59 97t-102.5 55.5t-150.5 17.5q-92 0 -157.5 -20t-107.5 -63t-61.5 -110t-19.5 -161t21 -161t66 -110t115.5 -63t169.5 -20q72 0 141 11t137 33v-98q-67 -21 -137.5 -31t-145.5 -10zM492 125
q48 0 68.5 21.5t20.5 71.5v54q0 50 -20.5 71.5t-68.5 21.5q-51 0 -73 -28t-22 -92t22 -92t73 -28z" />
    <glyph glyph-name="A" unicode="A" horiz-adv-x="664" 
d="M138 0h-134q12 47 30 105t39.5 121t45.5 127t48.5 123t47.5 109.5t43 86.5h148q20 -36 43 -86.5t47.5 -109.5t48.5 -123t45.5 -127t39.5 -121t30 -105h-134q-11 41 -23 80t-23 77h-296q-12 -38 -23.5 -77t-22.5 -80zM216 255h232q-54 155 -116 299q-64 -144 -116 -299z
" />
    <glyph glyph-name="B" unicode="B" horiz-adv-x="672" 
d="M85 0v578q0 11 -2.5 14.5t-12.5 7.5l-36 14l11 58h357q110 0 158.5 -43.5t48.5 -140.5q0 -103 -79 -139q103 -34 103 -161q0 -98 -50.5 -143t-164.5 -45h-333zM213 97h179q60 0 85 23t25 76t-25 76t-85 23h-179v-198zM213 389h163q57 0 81 22t24 71t-24 71t-81 22h-163
v-186z" />
    <glyph glyph-name="C" unicode="C" horiz-adv-x="612" 
d="M375 -12q-89 0 -152.5 20t-104.5 62t-60 108t-19 158t19 158t60 108t104.5 62t152.5 20q73 0 129.5 -10t81.5 -18l-18 -101q-38 11 -80.5 17.5t-91.5 6.5q-118 0 -170 -57t-52 -186t52 -186t170 -57q88 0 181 26v-106q-48 -12 -98 -18.5t-104 -6.5z" />
    <glyph glyph-name="D" unicode="D" horiz-adv-x="736" 
d="M85 0v578q0 11 -2.5 14.5t-12.5 7.5l-36 14l11 58h298q94 0 161 -19t110 -60t63 -104.5t20 -152.5t-20 -152.5t-63 -104.5t-110 -60t-161 -19h-258zM218 102h115q61 0 104 13.5t70.5 42t40.5 72.5t13 106t-13 106t-40.5 72.5t-70.5 42t-104 13.5h-115v-468z" />
    <glyph glyph-name="E" unicode="E" horiz-adv-x="613" 
d="M85 0v578q0 11 -2.5 14.5t-12.5 7.5l-36 14l11 58h525v-102h-352v-179h280v-98h-280v-191h360v-102h-493z" />
    <glyph glyph-name="F" unicode="F" horiz-adv-x="597" 
d="M85 0v578q0 11 -2.5 14.5t-12.5 7.5l-36 14l11 58h525v-102h-352v-206h280v-100h-280v-264h-133z" />
    <glyph glyph-name="G" unicode="G" horiz-adv-x="687" 
d="M383 -12q-91 0 -156 20t-107 62t-61.5 108t-19.5 158t20 158t64 108t114.5 62t171.5 20q73 0 129.5 -10t81.5 -18l-18 -101q-38 11 -84 19t-95 8q-65 0 -112.5 -12t-79 -40.5t-47 -76t-15.5 -117.5q0 -65 13 -111.5t41 -76.5t71.5 -44t104.5 -14q29 0 58.5 3t56.5 8v175
h-156v93h279v-354q-60 -13 -123 -20t-131 -7z" />
    <glyph glyph-name="H" unicode="H" horiz-adv-x="768" 
d="M85 0v578q0 11 -2.5 14.5t-12.5 7.5l-36 14l11 58h164q9 0 9 -10v-269h348v279h133v-672h-133v291h-348v-291h-133z" />
    <glyph glyph-name="I" unicode="I" horiz-adv-x="287" 
d="M85 0v578q0 11 -2.5 14.5t-12.5 7.5l-36 14l11 58h164q9 0 9 -10v-662h-133z" />
    <glyph glyph-name="J" unicode="J" horiz-adv-x="457" 
d="M151 -12q-32 0 -63.5 3.5t-60.5 9.5v105q52 -13 104 -13q66 0 95 29t29 97v453h133v-458q0 -118 -56.5 -172t-180.5 -54z" />
    <glyph glyph-name="K" unicode="K" horiz-adv-x="644" 
d="M85 0v578q0 11 -2.5 14.5t-12.5 7.5l-36 14l11 58h164q9 0 9 -10v-278l262 288h151l-278 -309l286 -363h-150l-217 281l-54 -58v-223h-133z" />
    <glyph glyph-name="L" unicode="L" horiz-adv-x="544" 
d="M85 0v578q0 11 -2.5 14.5t-12.5 7.5l-36 14l11 58h164q9 0 9 -10v-560h307v-102h-440z" />
    <glyph glyph-name="M" unicode="M" horiz-adv-x="848" 
d="M85 0v578q0 11 -2.5 14.5t-12.5 7.5l-36 14l11 58h146q16 0 21 -4t14 -19l206 -341l221 364h126v-672h-123v472l-178 -291h-58q-13 0 -20.5 0.5t-12 3t-8 7.5t-9.5 15l-162 265v-472h-123z" />
    <glyph glyph-name="N" unicode="N" horiz-adv-x="768" 
d="M85 0v578q0 11 -2.5 14.5t-12.5 7.5l-36 14l11 58h150q15 0 19.5 -3.5t16.5 -19.5l345 -467v490h123v-672h-129l-362 490v-490h-123z" />
    <glyph glyph-name="O" unicode="O" horiz-adv-x="751" 
d="M375 -12q-89 0 -153 20t-104.5 62t-59.5 108t-19 158t19 158t59.5 108t104.5 62t153 20t153 -20t105 -62t60 -108t19 -158t-19 -158t-60 -108t-105 -62t-153 -20zM375 93q107 0 154 57t47 186t-47 186t-154 57q-53 0 -91 -14t-62.5 -43t-36 -75.5t-11.5 -110.5
q0 -65 11.5 -111t36 -75t62.5 -43t91 -14z" />
    <glyph glyph-name="P" unicode="P" horiz-adv-x="656" 
d="M85 0v578q0 11 -2.5 14.5t-12.5 7.5l-36 14l11 58h328q133 0 192.5 -51t59.5 -166q0 -58 -14.5 -99t-45 -67.5t-78.5 -39t-114 -12.5h-155v-237h-133zM218 340h145q70 0 100.5 26.5t30.5 88.5q0 61 -30.5 88t-100.5 27h-145v-230z" />
    <glyph glyph-name="Q" unicode="Q" horiz-adv-x="751" 
d="M531 -118l-69 112q-41 -6 -87 -6q-89 0 -153 20t-104.5 62t-59.5 108t-19 158t19 158t59.5 108t104.5 62t153 20t153 -20t105 -62t60 -108t19 -158q0 -122 -33.5 -198t-106.5 -113l89 -143h-130zM375 88h13.5t13.5 1l-63 101h130l41 -66q37 29 54 80.5t17 131.5
q0 129 -48.5 186t-157.5 57q-55 0 -94 -14t-64 -43t-36.5 -75.5t-11.5 -110.5q0 -66 11.5 -113t36.5 -77t64 -44t94 -14z" />
    <glyph glyph-name="R" unicode="R" horiz-adv-x="672" 
d="M85 0v578q0 11 -2.5 14.5t-12.5 7.5l-36 14l11 58h336q130 0 187 -49.5t57 -159.5q0 -87 -35.5 -134t-110.5 -61l164 -268h-147l-149 253h-129v-253h-133zM218 353h148q69 0 98.5 25t29.5 85q0 59 -29.5 84t-98.5 25h-148v-219z" />
    <glyph glyph-name="S" unicode="S" horiz-adv-x="589" 
d="M293 -12q-124 0 -238 33v105q112 -36 228 -36q77 0 112.5 22.5t35.5 74.5q0 37 -28.5 56t-71.5 30.5t-92.5 22t-92.5 31.5t-71.5 58t-28.5 102q0 106 70.5 151.5t211.5 45.5q55 0 110.5 -9t94.5 -23l-19 -100v0q-41 14 -92.5 22t-102.5 8q-74 0 -108.5 -21t-34.5 -72
q0 -35 28.5 -52.5t71.5 -29t92.5 -22.5t92.5 -32.5t71.5 -60t28.5 -103.5q0 -105 -66 -153t-202 -48z" />
    <glyph glyph-name="T" unicode="T" horiz-adv-x="607" 
d="M237 0v570h-218v102h569v-102h-218v-570h-133z" />
    <glyph glyph-name="U" unicode="U" horiz-adv-x="770" 
d="M394 -12q-81 0 -139.5 15.5t-95.5 49t-54.5 85.5t-17.5 125v315q0 11 -2.5 14.5t-12.5 7.5l-36 14l11 58h164q9 0 9 -10v-389q0 -96 41 -138t133 -42q93 0 133.5 42t40.5 138v399h133v-409q0 -73 -17.5 -125t-54.5 -85.5t-95.5 -49t-139.5 -15.5z" />
    <glyph glyph-name="V" unicode="V" horiz-adv-x="664" 
d="M406 0h-148q-20 36 -43 86.5t-47.5 109.5t-48.5 123t-45.5 127t-39.5 121t-30 105h134q43 -157 90.5 -292t103.5 -262q28 64 53.5 129t49.5 133.5t46.5 141t44.5 150.5h134q-12 -47 -30 -105t-39.5 -121t-45.5 -127t-48.5 -123t-47.5 -109.5t-43 -86.5z" />
    <glyph glyph-name="W" unicode="W" horiz-adv-x="1017" 
d="M369 0h-152q-27 66 -56 153t-57 178.5t-51.5 180.5t-38.5 160h130q9 -42 25.5 -107.5t40.5 -156.5q9 -36 20 -74t22.5 -75.5t22.5 -72t21 -62.5h1q10 28 21 62.5t22 72t22 75.5t20 74q23 85 38 146.5t25 103.5h127q10 -42 25 -103.5t38 -146.5q9 -36 20 -74t22 -75.5
t22 -72t21 -62.5h1q10 28 21 62.5t22.5 72t22.5 75.5t20 74q24 91 40.5 156.5t25.5 107.5h130q-15 -71 -38.5 -160t-51.5 -180.5t-57 -178.5t-56 -153h-152q-19 46 -37 96t-32 91q-12 37 -23.5 77t-20.5 78t-15.5 72t-10.5 61h-1q-4 -27 -10.5 -61t-15.5 -72t-20.5 -78
t-23.5 -77q-14 -41 -32 -91t-37 -96z" />
    <glyph glyph-name="X" unicode="X" horiz-adv-x="665" 
d="M12 0l235 342l-227 330h149l163 -245l164 245h148l-227 -330l235 -342h-149l-171 257l-170 -257h-150z" />
    <glyph glyph-name="Y" unicode="Y" horiz-adv-x="617" 
d="M242 0v273l-246 399h150l162 -281l163 281h149l-245 -399v-273h-133z" />
    <glyph glyph-name="Z" unicode="Z" horiz-adv-x="628" 
d="M36 0v92l383 478h-375v102h541v-92l-384 -478h392v-102h-557z" />
    <glyph glyph-name="bracketleft" unicode="[" horiz-adv-x="329" 
d="M81 -128v832h226v-97h-108v-638h108v-97h-226z" />
    <glyph glyph-name="backslash" unicode="\" horiz-adv-x="384" 
d="M280 -128l-289 832h113l289 -832h-113z" />
    <glyph glyph-name="bracketright" unicode="]" horiz-adv-x="329" 
d="M22 -128v97h107v638h-107v97h225v-832h-225z" />
    <glyph glyph-name="asciicircum" unicode="^" 
d="M29 236l194 436h130l194 -436h-124l-135 307l-135 -307h-124z" />
    <glyph glyph-name="underscore" unicode="_" horiz-adv-x="480" 
d="M0 -177v98h480v-98h-480z" />
    <glyph glyph-name="grave" unicode="`" horiz-adv-x="240" 
d="M83 556l-114 148h133l93 -148h-112z" />
    <glyph glyph-name="a" unicode="a" horiz-adv-x="543" 
d="M224 -12q-100 0 -145.5 36.5t-45.5 114.5q0 75 49 110t155 35q65 0 122 -17v46q0 50 -29 71t-98 21q-75 0 -154 -24v98q81 23 169 23q124 0 179.5 -46.5t55.5 -152.5v-208q0 -11 2 -14.5t12 -7.5l35 -14l-12 -59h-109q-15 0 -19 4t-7 17l-4 21q-50 -54 -156 -54zM249 78
q58 0 84 19t26 61v28q-46 16 -102 16q-51 0 -75 -14.5t-24 -47.5q0 -32 21.5 -47t69.5 -15z" />
    <glyph glyph-name="b" unicode="b" horiz-adv-x="591" 
d="M339 -12q-58 0 -100.5 16t-68.5 54l-8 -58h-98v609q0 11 -2 14.5t-12 7.5l-35 14l12 59h156q9 0 9 -10v-240q51 48 147 48q57 0 98.5 -14.5t67.5 -45.5t38.5 -80t12.5 -117t-12.5 -117t-38.5 -80t-67.5 -45.5t-98.5 -14.5zM306 88q64 0 92 36.5t28 120.5t-28 120.5
t-92 36.5q-61 0 -87.5 -28t-26.5 -93v-158q17 -12 43.5 -23.5t70.5 -11.5z" />
    <glyph glyph-name="c" unicode="c" horiz-adv-x="485" 
d="M292 -12q-68 0 -116.5 14.5t-79.5 46t-45.5 80t-14.5 116.5t14.5 117t45.5 80t79.5 45.5t116.5 14.5q63 0 104.5 -8t58.5 -14l-18 -96q-18 6 -51 12t-73 6q-78 0 -112.5 -36.5t-34.5 -120.5t34.5 -120.5t112.5 -36.5q67 0 133 20v-101q-67 -19 -154 -19z" />
    <glyph glyph-name="d" unicode="d" horiz-adv-x="594" 
d="M251 -12q-57 0 -98 14.5t-67 45.5t-38.5 80t-12.5 117q0 136 51 196.5t165 60.5q98 0 147 -48v250h128v-609q0 -11 2 -14.5t12 -7.5l35 -14l-12 -59h-109q-15 0 -19 4t-7 17l-6 31q-27 -33 -70.5 -48.5t-100.5 -15.5zM284 88q44 0 70.5 11.5t43.5 23.5v158q0 65 -26.5 93
t-87.5 28q-64 0 -91.5 -36.5t-27.5 -120.5t27.5 -120.5t91.5 -36.5z" />
    <glyph glyph-name="e" unicode="e" horiz-adv-x="539" 
d="M309 -12q-73 0 -125 14.5t-85.5 46t-49 80t-15.5 116.5t14 117t43.5 80t76 45.5t111.5 14.5q120 0 173 -58.5t53 -190.5q0 -13 -0.5 -23.5t-1.5 -21.5h-344q4 -66 41.5 -94.5t118.5 -28.5q82 0 165 24v-98q-40 -12 -83 -17.5t-92 -5.5zM159 290h223q-2 66 -25.5 94
t-77.5 28q-60 0 -88 -28.5t-32 -93.5z" />
    <glyph glyph-name="f" unicode="f" horiz-adv-x="365" 
d="M80 0v374q0 15 -1.5 19t-11.5 6l-62 17l12 74h63v40q0 99 46 142.5t151 43.5q12 0 26 -1t27.5 -2.5t25 -4t19.5 -5.5l-19 -97q-11 3 -29 6.5t-35 3.5q-45 0 -65 -19t-20 -62v-45h134v-97h-134v-393h-127z" />
    <glyph glyph-name="g" unicode="g" horiz-adv-x="584" 
d="M274 -220q-29 0 -55.5 2t-40.5 4v98q20 -3 43 -4.5t43 -1.5q72 0 103.5 26t31.5 81v52q-49 -49 -148 -49q-57 0 -98 14.5t-67 45.5t-38.5 80t-12.5 117q0 136 51 196.5t165 60.5q113 0 168 -59l10 47h97v-487q0 -63 -16.5 -105.5t-48.5 -68.5t-79 -37.5t-108 -11.5z
M284 88q61 0 87.5 28t26.5 93v158q-17 12 -43.5 23.5t-70.5 11.5q-64 0 -91.5 -36.5t-27.5 -120.5t27.5 -120.5t91.5 -36.5z" />
    <glyph glyph-name="h" unicode="h" horiz-adv-x="595" 
d="M64 0v609q0 11 -2 14.5t-12 7.5l-35 14l12 59h156q9 0 9 -10v-240q57 48 148 48q97 0 145.5 -46.5t48.5 -153.5v-207q0 -11 2 -14.5t12 -7.5l35 -14l-12 -59h-156q-9 0 -9 10v287q0 55 -22.5 79t-75.5 24q-38 0 -70.5 -10t-45.5 -18v-372h-128z" />
    <glyph glyph-name="i" unicode="i" horiz-adv-x="261" 
d="M72 0v395q0 11 -2 14.5t-12 7.5l-35 14l12 59h156q9 0 9 -10v-480h-128zM136 556q-40 0 -58 17.5t-18 56.5q0 38 18 55.5t58 17.5q41 0 58.5 -17.5t17.5 -55.5q0 -39 -17.5 -56.5t-58.5 -17.5z" />
    <glyph glyph-name="j" unicode="j" horiz-adv-x="261" 
d="M15 -217q-27 0 -51 3v95q8 -1 15.5 -1h14.5q49 0 63.5 23t14.5 69v423q0 11 -2 14.5t-12 7.5l-35 14l12 59h156q9 0 9 -10v-511q0 -46 -9.5 -81t-31.5 -58t-57 -35t-87 -12zM136 556q-40 0 -58 17.5t-18 56.5q0 38 18 55.5t58 17.5q41 0 58.5 -17.5t17.5 -55.5
q0 -39 -17.5 -56.5t-58.5 -17.5z" />
    <glyph glyph-name="k" unicode="k" horiz-adv-x="514" 
d="M64 0v609q0 11 -2 14.5t-12 7.5l-35 14l12 59h156q9 0 9 -10v-394l165 190h146l-187 -210l200 -280h-147l-134 199l-43 -46v-153h-128z" />
    <glyph glyph-name="l" unicode="l" horiz-adv-x="261" 
d="M230 0h-156q-9 0 -9 10v599q0 11 -2 14.5t-12 7.5l-35 14l12 59h156q9 0 9 -10v-599q0 -11 2 -14.5t12 -7.5l35 -14z" />
    <glyph glyph-name="m" unicode="m" horiz-adv-x="902" 
d="M67 0v395q0 11 -2 14.5t-12 7.5l-35 14l12 59h151q9 0 9 -10v-29q33 27 67.5 39t78.5 12q54 0 91.5 -16.5t56.5 -45.5q32 29 72 45.5t95 16.5q102 0 146 -48.5t44 -142.5v-216q0 -11 2 -14.5t12 -7.5l35 -14l-12 -59h-156q-9 0 -9 10v293q0 52 -19 74.5t-70 22.5
q-33 0 -62 -9t-50 -23q2 -5 4 -23t2 -43v-302h-128v303q0 52 -19 74.5t-70 22.5q-36 0 -65 -10t-41 -18v-372h-128z" />
    <glyph glyph-name="n" unicode="n" horiz-adv-x="598" 
d="M67 0v395q0 11 -2 14.5t-12 7.5l-35 14l12 59h151q9 0 9 -10v-29q33 27 70 39t83 12q97 0 145.5 -46.5t48.5 -153.5v-207q0 -11 2 -14.5t12 -7.5l35 -14l-12 -59h-156q-9 0 -9 10v287q0 55 -22.5 79t-75.5 24q-38 0 -70.5 -10t-45.5 -18v-372h-128z" />
    <glyph glyph-name="o" unicode="o" horiz-adv-x="579" 
d="M289 -12q-68 0 -116.5 14.5t-79.5 46t-45.5 80t-14.5 116.5t14.5 117t45.5 80t79.5 45.5t116.5 14.5t116.5 -14.5t80 -45.5t46 -80t14.5 -117q0 -136 -60.5 -196.5t-196.5 -60.5zM289 88q68 0 97.5 36.5t29.5 120.5t-29.5 120.5t-97.5 36.5q-67 0 -96.5 -36.5
t-29.5 -120.5t29.5 -120.5t96.5 -36.5z" />
    <glyph glyph-name="p" unicode="p" horiz-adv-x="594" 
d="M67 -208v603q0 11 -2 14.5t-12 7.5l-35 14l12 59h151q9 0 9 -10v-34q28 30 62 43t90 13q57 0 98.5 -14.5t67.5 -45.5t38.5 -80t12.5 -117t-12.5 -117t-38.5 -80t-67.5 -45.5t-98.5 -14.5q-96 0 -147 48v-244h-128zM309 88q64 0 92 36.5t28 120.5t-28 120.5t-92 36.5
q-61 0 -87.5 -28t-26.5 -93v-158q17 -12 43.5 -23.5t70.5 -11.5z" />
    <glyph glyph-name="q" unicode="q" horiz-adv-x="584" 
d="M398 -219v255q-49 -48 -147 -48q-57 0 -98 14.5t-67 45.5t-38.5 80t-12.5 117q0 136 51 196.5t165 60.5q112 0 168 -59l10 47h97v-687zM284 88q44 0 70.5 11.5t43.5 23.5v158q0 65 -26.5 93t-87.5 28q-64 0 -91.5 -36.5t-27.5 -120.5t27.5 -120.5t91.5 -36.5z" />
    <glyph glyph-name="r" unicode="r" horiz-adv-x="396" 
d="M67 0v395q0 11 -2 14.5t-12 7.5l-35 14l12 59h151q9 0 9 -10v-54q26 37 61 56.5t86 19.5q17 0 30.5 -1t22.5 -3l-22 -103q-7 2 -20.5 3.5t-27.5 1.5q-32 0 -66 -12t-59 -36v-352h-128z" />
    <glyph glyph-name="s" unicode="s" horiz-adv-x="467" 
d="M227 -12q-100 0 -182 24v99q42 -13 85 -20t87 -7q97 0 97 57q0 24 -20.5 35t-51.5 17.5t-67 12.5t-67 21t-51.5 43.5t-20.5 79.5q0 41 16 70t44 47t66.5 26.5t83.5 8.5q47 0 93.5 -6.5t80.5 -17.5l-19 -95q-35 11 -71.5 17t-74.5 6q-50 0 -72 -13.5t-22 -39.5
q0 -23 20.5 -33.5t51.5 -16.5t67 -12.5t67 -22t51.5 -44.5t20.5 -80q0 -81 -51.5 -118.5t-160.5 -37.5z" />
    <glyph glyph-name="t" unicode="t" horiz-adv-x="389" 
d="M267 -12q-101 0 -145 41.5t-44 136.5v208q0 15 -1.5 19t-11.5 6l-62 17l12 74h63v141h127v-141h154v-97h-154v-222q0 -45 19 -64t63 -19q37 0 72 9v-100q-44 -9 -92 -9z" />
    <glyph glyph-name="u" unicode="u" horiz-adv-x="587" 
d="M298 -12q-62 0 -106.5 11.5t-73 36.5t-42 63t-13.5 92v204q0 11 -2 14.5t-12 7.5l-35 14l12 59h156q9 0 9 -10v-279q0 -61 25 -87t82 -26t82 26t25 87v289h128v-299q0 -107 -55 -155t-180 -48z" />
    <glyph glyph-name="v" unicode="v" horiz-adv-x="541" 
d="M336 0h-131q-23 45 -51 109.5t-54.5 133.5t-49 134.5t-34.5 112.5h133v0q24 -88 54.5 -182t66.5 -185q36 91 66.5 185t55.5 182h133q-12 -47 -34.5 -112.5t-49 -134.5t-54.5 -133.5t-51 -109.5z" />
    <glyph glyph-name="w" unicode="w" horiz-adv-x="838" 
d="M321 0h-138q-26 62 -49 126.5t-44 127.5t-38.5 123t-30.5 113h126q9 -38 22 -85t25 -89q14 -48 29 -96.5t32 -95.5h1q14 41 30 89.5t31 102.5q11 38 22 80t20 78h120q9 -36 20 -78t22 -80q15 -54 31 -102.5t30 -89.5h1q17 47 32 95.5t29 96.5q12 42 25 89t22 85h126
q-14 -53 -31 -113t-38 -123t-44.5 -127.5t-48.5 -126.5h-138q-27 66 -52 146t-45 159h-2q-20 -79 -45 -159t-52 -146z" />
    <glyph glyph-name="x" unicode="x" horiz-adv-x="532" 
d="M18 0l168 249l-162 241h139l103 -162l104 162h138l-162 -241l168 -249h-139l-109 171l-108 -171h-140z" />
    <glyph glyph-name="y" unicode="y" horiz-adv-x="544" 
d="M110 -220q-10 0 -22 0.5t-20 1.5v98q7 -1 17 -1.5t18 -0.5q22 0 38 4.5t28.5 15t22.5 27t19 41.5l11 29l-214 495h139l134 -339l114 339h133l-204 -550q-16 -42 -34.5 -72.5t-43.5 -50t-58 -28.5t-78 -9z" />
    <glyph glyph-name="z" unicode="z" horiz-adv-x="493" 
d="M38 0v87l255 306h-247v97h407v-86l-255 -307h263v-97h-423z" />
    <glyph glyph-name="braceleft" unicode="{" horiz-adv-x="329" 
d="M307 -128h-34q-93 0 -134.5 40t-41.5 131v118q0 42 -18 60t-60 18h-13v98h13q42 0 60 18t18 60v118q0 91 41.5 131t134.5 40h34v-97h-13q-42 0 -60.5 -18.5t-18.5 -60.5v-123q0 -95 -72 -117q72 -22 72 -117v-123q0 -43 18.5 -61t60.5 -18h13v-97z" />
    <glyph glyph-name="bar" unicode="|" horiz-adv-x="240" 
d="M66 -224v960h108v-960h-108z" />
    <glyph glyph-name="braceright" unicode="}" horiz-adv-x="329" 
d="M22 -128v97h13q42 0 60 18.5t18 60.5v123q0 95 73 117q-73 22 -73 117v123q0 43 -18 61t-60 18h-13v97h33q94 0 135 -40t41 -131v-118q0 -42 18.5 -60t60.5 -18h13v-98h-13q-42 0 -60.5 -18t-18.5 -60v-118q0 -91 -41 -131t-135 -40h-33z" />
    <glyph glyph-name="asciitilde" unicode="~" 
d="M390 187q-41 0 -68 14.5t-47.5 31.5t-38.5 31.5t-40 14.5q-32 0 -45.5 -20.5t-14.5 -65.5h-108q1 103 38.5 149.5t119.5 46.5q41 0 68 -14.5t47.5 -31.5t38.5 -31.5t40 -14.5q32 0 45.5 20.5t14.5 65.5h108q-1 -103 -38.5 -149.5t-119.5 -46.5z" />
    <glyph glyph-name="uni00A0" unicode="&#xa0;" horiz-adv-x="224" 
 />
    <glyph glyph-name="exclamdown" unicode="&#xa1;" horiz-adv-x="265" 
d="M132 350q-42 0 -60 17.5t-18 57.5q0 41 18 58.5t60 17.5t60 -17.5t18 -58.5q0 -40 -18 -57.5t-60 -17.5zM68 -182l6 460h117l6 -460h-129z" />
    <glyph glyph-name="cent" unicode="&#xa2;" 
d="M264 -85v169q-95 16 -137.5 76.5t-42.5 175.5t42.5 175.5t137.5 75.5v170h118v-165q31 -2 59 -6t54 -12v-101q-32 10 -65 15t-69 5q-78 0 -112 -36.5t-34 -120.5t34 -120.5t112 -36.5q36 0 69 5t65 15v-101q-53 -15 -113 -18v-165h-118z" />
    <glyph glyph-name="sterling" unicode="&#xa3;" 
d="M65 0v100h86v193h-70v98h70v66q0 118 57 172.5t181 54.5q67 0 124 -15v-102q-53 15 -104 15q-67 0 -96 -30.5t-29 -99.5v-61h179v-98h-179v-193h237v-100h-456z" />
    <glyph glyph-name="currency" unicode="&#xa4;" 
d="M108 80l-76 76l74 73q-11 21 -16 47.5t-5 59.5t5 59.5t16 47.5l-74 73l76 76l73 -74q42 21 107 21t107 -21l73 74l76 -76l-74 -73q21 -42 21 -107t-21 -107l74 -73l-76 -76l-73 74q-21 -11 -47.5 -16t-59.5 -5t-59.5 5t-47.5 16zM288 233q55 0 79 24t24 79t-24 79t-79 24
t-79 -24t-24 -79t24 -79t79 -24z" />
    <glyph glyph-name="yen" unicode="&#xa5;" 
d="M221 0v119h-145v77h145v77h-145v78h110l-202 321h145l159 -268l159 268h145l-202 -321h110v-78h-145v-77h145v-77h-145v-119h-134z" />
    <glyph glyph-name="brokenbar" unicode="&#xa6;" horiz-adv-x="240" 
d="M66 304v384h108v-384h-108zM66 -176v384h108v-384h-108z" />
    <glyph glyph-name="section" unicode="&#xa7;" horiz-adv-x="564" 
d="M266 -156q-59 0 -113.5 8t-103.5 23v102q100 -33 207 -33q66 0 92 19.5t26 63.5q0 32 -24.5 48.5t-62 26t-80.5 19t-80.5 28t-62 51.5t-24.5 92q0 38 13 67.5t36 51.5q-15 17 -24 40t-9 54q0 95 57.5 137t184.5 42q53 0 101.5 -6.5t93.5 -18.5v-102q-92 27 -185 27
q-65 0 -90.5 -18t-25.5 -61q0 -31 24.5 -46t62 -24.5t80.5 -18t80.5 -28t62 -54t24.5 -94.5q0 -72 -47 -119q31 -36 31 -94q0 -97 -58 -140t-186 -43zM375 179q20 23 20 58q0 33 -20 50t-50.5 27t-65.5 18t-65 23q-24 -20 -24 -60q0 -32 21 -48.5t51.5 -26t66.5 -17.5
t66 -24z" />
    <glyph glyph-name="dieresis" unicode="&#xa8;" horiz-adv-x="240" 
d="M228 559q-38 0 -55.5 16.5t-17.5 54.5t17.5 54.5t55.5 16.5q39 0 56.5 -16.5t17.5 -54.5t-17.5 -54.5t-56.5 -16.5zM12 559q-39 0 -56.5 16.5t-17.5 54.5t17.5 54.5t56.5 16.5q38 0 55.5 -16.5t17.5 -54.5t-17.5 -54.5t-55.5 -16.5z" />
    <glyph glyph-name="copyright" unicode="&#xa9;" horiz-adv-x="832" 
d="M416 -32q-100 0 -171.5 22t-117.5 67t-67.5 114.5t-21.5 164.5t21.5 164.5t67.5 114.5t117.5 67t171.5 22t171.5 -22t117.5 -67t67.5 -114.5t21.5 -164.5t-21.5 -164.5t-67.5 -114.5t-117.5 -67t-171.5 -22zM434 120q-114 0 -164 51t-50 165t50 165t164 51q34 0 65.5 -4
t62.5 -12v-78q-29 8 -56 12.5t-56 4.5q-72 0 -102 -32.5t-30 -106.5t30 -106.5t102 -32.5q29 0 56 4.5t56 12.5v-78q-31 -8 -62.5 -12t-65.5 -4zM416 32q154 0 229 71.5t75 232.5q0 81 -17.5 138.5t-54 94t-94 54t-138.5 17.5t-138.5 -17.5t-94 -54t-54 -94t-17.5 -138.5
q0 -161 75 -232.5t229 -71.5z" />
    <glyph glyph-name="ordfeminine" unicode="&#xaa;" horiz-adv-x="386" 
d="M162 339q-68 0 -98.5 24t-30.5 77q0 52 32.5 75.5t105.5 23.5q45 0 78 -11v24q0 32 -18 45.5t-60 13.5q-27 0 -53 -4t-53 -11v70q27 7 55 10.5t59 3.5q85 0 122.5 -31.5t37.5 -103.5v-198h-72l-7 26q-31 -34 -98 -34zM179 405q37 0 53.5 12t16.5 39v16q-13 4 -29.5 6.5
t-33.5 2.5q-34 0 -48 -9t-14 -29q0 -21 13 -29.5t42 -8.5zM38 214v74h310v-74h-310z" />
    <glyph glyph-name="guillemotleft" unicode="&#xab;" horiz-adv-x="529" 
d="M156 46l-139 199l139 199h118l-126 -199l126 -199h-118zM388 46l-138 199l138 199h119l-127 -199l127 -199h-119z" />
    <glyph glyph-name="logicalnot" unicode="&#xac;" 
d="M399 70v164h-329v108h436v-272h-107z" />
    <glyph glyph-name="uni00AD" unicode="&#xad;" horiz-adv-x="336" 
d="M22 200v98h276v-98h-276z" />
    <glyph glyph-name="registered" unicode="&#xae;" horiz-adv-x="832" 
d="M416 -32q-100 0 -171.5 22t-117.5 67t-67.5 114.5t-21.5 164.5t21.5 164.5t67.5 114.5t117.5 67t171.5 22t171.5 -22t117.5 -67t67.5 -114.5t21.5 -164.5t-21.5 -164.5t-67.5 -114.5t-117.5 -67t-171.5 -22zM416 32q154 0 229 71.5t75 232.5q0 81 -17.5 138.5t-54 94
t-94 54t-138.5 17.5t-138.5 -17.5t-94 -54t-54 -94t-17.5 -138.5q0 -161 75 -232.5t229 -71.5zM252 128v416h191q83 0 119.5 -31t36.5 -102q0 -103 -86 -122l97 -161h-102l-87 151h-78v-151h-91zM343 352h92q37 0 52.5 14t15.5 46t-15.5 45.5t-52.5 13.5h-92v-119z" />
    <glyph glyph-name="macron" unicode="&#xaf;" horiz-adv-x="240" 
d="M-41 586v87h322v-87h-322z" />
    <glyph glyph-name="degree" unicode="&#xb0;" horiz-adv-x="361" 
d="M180 408q-68 0 -103.5 35.5t-35.5 101.5q0 68 35.5 103t103.5 35q69 0 104.5 -35.5t35.5 -102.5q0 -66 -35.5 -101.5t-104.5 -35.5zM180 478q68 0 68 67q0 68 -68 68q-67 0 -67 -68q0 -67 67 -67z" />
    <glyph glyph-name="plusminus" unicode="&#xb1;" 
d="M234 175v164h-164v107h164v165h108v-165h164v-107h-164v-164h-108zM70 0v108h436v-108h-436z" />
    <glyph glyph-name="uni00B2" unicode="&#xb2;" horiz-adv-x="352" 
d="M24 384v66l148 139q45 42 45 80q0 33 -16.5 47.5t-54.5 14.5q-53 0 -110 -18v78q60 17 125 17q81 0 116.5 -30.5t35.5 -97.5q0 -32 -16 -62.5t-45 -57.5l-104 -100h167v-76h-291z" />
    <glyph glyph-name="uni00B3" unicode="&#xb3;" horiz-adv-x="352" 
d="M137 376q-61 0 -113 15v74q28 -8 54 -12t51 -4q51 0 72.5 14t21.5 46t-23 45t-77 13h-21v55l89 106h-161v72h269v-62l-95 -111q115 -16 115 -120q0 -69 -43 -100t-139 -31z" />
    <glyph glyph-name="acute" unicode="&#xb4;" horiz-adv-x="240" 
d="M45 556l93 148h133l-114 -148h-112z" />
    <glyph glyph-name="uni00B5" unicode="&#xb5;" horiz-adv-x="585" 
d="M57 -208v698h128v-290q0 -58 24 -84t78 -26q60 0 86 27.5t26 89.5v283h128v-490h-97l-10 51q-45 -60 -136 -60q-32 0 -57.5 7.5t-41.5 24.5v-231h-128z" />
    <glyph glyph-name="paragraph" unicode="&#xb6;" horiz-adv-x="607" 
d="M431 -144v719h-104v-338h-58q-238 0 -238 218q0 217 238 217h269v-816h-107z" />
    <glyph glyph-name="periodcentered" unicode="&#xb7;" horiz-adv-x="249" 
d="M124 172q-42 0 -60.5 18t-18.5 59t18.5 59t60.5 18t61 -18t19 -59t-19 -59t-61 -18z" />
    <glyph glyph-name="cedilla" unicode="&#xb8;" horiz-adv-x="240" 
d="M99 -237q-47 0 -87 12v69q36 -11 69 -11q31 0 44.5 8t13.5 27q0 20 -12.5 28t-42.5 8h-8v96h88v-44q75 -11 75 -90q0 -54 -33 -78.5t-107 -24.5z" />
    <glyph glyph-name="uni00B9" unicode="&#xb9;" horiz-adv-x="284" 
d="M129 384v332l-101 -42v76l120 50h74v-416h-93z" />
    <glyph glyph-name="ordmasculine" unicode="&#xba;" horiz-adv-x="413" 
d="M207 339q-93 0 -133.5 40t-40.5 131q0 90 41 130t133 40q91 0 132.5 -40t41.5 -130q0 -91 -41 -131t-133 -40zM207 414q42 0 60 22t18 74q0 51 -18 73.5t-60 22.5t-60 -22.5t-18 -73.5q0 -52 18 -74t60 -22zM38 214v74h338v-74h-338z" />
    <glyph glyph-name="guillemotright" unicode="&#xbb;" horiz-adv-x="529" 
d="M23 46l126 199l-126 199h118l138 -199l-138 -199h-118zM255 46l127 199l-127 199h119l138 -199l-138 -199h-119z" />
    <glyph glyph-name="onequarter" unicode="&#xbc;" horiz-adv-x="864" 
d="M171 256v332l-101 -42v76l120 50h74v-416h-93zM241 0l302 672h80l-302 -672h-80zM712 0v84h-206v67l194 265h97v-263h55v-69h-55v-84h-85zM593 153h119v164z" />
    <glyph glyph-name="onehalf" unicode="&#xbd;" horiz-adv-x="764" 
d="M436 384v66l148 139q45 42 45 80q0 33 -16.5 47.5t-54.5 14.5q-53 0 -110 -18v78q60 17 125 17q81 0 116.5 -30.5t35.5 -97.5q0 -32 -16 -62.5t-45 -57.5l-104 -100h167v-76h-291zM129 384v332l-101 -42v76l120 50h74v-416h-93zM157 0l302 672h80l-302 -672h-80z" />
    <glyph glyph-name="threequarters" unicode="&#xbe;" horiz-adv-x="864" 
d="M145 248q-61 0 -113 15v74q28 -8 54 -12t51 -4q51 0 72.5 14t21.5 46t-23 45t-77 13h-21v55l89 106h-161v72h269v-62l-95 -111q115 -16 115 -120q0 -69 -43 -100t-139 -31zM241 0l302 672h80l-302 -672h-80zM712 0v84h-206v67l194 265h97v-263h55v-69h-55v-84h-85z
M593 153h119v164z" />
    <glyph glyph-name="questiondown" unicode="&#xbf;" horiz-adv-x="420" 
d="M258 -194q-121 0 -174 41.5t-53 135.5q0 42 13.5 72t33.5 52t43.5 39.5t43.5 35.5t33.5 38.5t13.5 49.5v8h108v-18q0 -43 -12 -72.5t-29.5 -51.5t-38 -38t-38 -31.5t-29.5 -32.5t-12 -41q0 -47 26 -67t86 -20q36 0 74.5 7t80.5 21v-101q-81 -27 -170 -27zM266 350
q-42 0 -60 17.5t-18 57.5q0 41 18 58.5t60 17.5t60 -17.5t18 -58.5q0 -40 -18 -57.5t-60 -17.5z" />
    <glyph glyph-name="Agrave" unicode="&#xc0;" horiz-adv-x="664" 
d="M138 0h-134q12 47 30 105t39.5 121t45.5 127t48.5 123t47.5 109.5t43 86.5h148q20 -36 43 -86.5t47.5 -109.5t48.5 -123t45.5 -127t39.5 -121t30 -105h-134q-11 41 -23 80t-23 77h-296q-12 -38 -23.5 -77t-22.5 -80zM216 255h232q-54 155 -116 299q-64 -144 -116 -299z
M270 738l-114 148h133l93 -148h-112z" />
    <glyph glyph-name="Aacute" unicode="&#xc1;" horiz-adv-x="664" 
d="M138 0h-134q12 47 30 105t39.5 121t45.5 127t48.5 123t47.5 109.5t43 86.5h148q20 -36 43 -86.5t47.5 -109.5t48.5 -123t45.5 -127t39.5 -121t30 -105h-134q-11 41 -23 80t-23 77h-296q-12 -38 -23.5 -77t-22.5 -80zM216 255h232q-54 155 -116 299q-64 -144 -116 -299z
M269 738l93 148h133l-114 -148h-112z" />
    <glyph glyph-name="Acircumflex" unicode="&#xc2;" horiz-adv-x="664" 
d="M138 0h-134q12 47 30 105t39.5 121t45.5 127t48.5 123t47.5 109.5t43 86.5h148q20 -36 43 -86.5t47.5 -109.5t48.5 -123t45.5 -127t39.5 -121t30 -105h-134q-11 41 -23 80t-23 77h-296q-12 -38 -23.5 -77t-22.5 -80zM216 255h232q-54 155 -116 299q-64 -144 -116 -299z
M147 738l123 148h124l123 -148h-109l-76 81l-76 -81h-109z" />
    <glyph glyph-name="Atilde" unicode="&#xc3;" horiz-adv-x="664" 
d="M138 0h-134q12 47 30 105t39.5 121t45.5 127t48.5 123t47.5 109.5t43 86.5h148q20 -36 43 -86.5t47.5 -109.5t48.5 -123t45.5 -127t39.5 -121t30 -105h-134q-11 41 -23 80t-23 77h-296q-12 -38 -23.5 -77t-22.5 -80zM216 255h232q-54 155 -116 299q-64 -144 -116 -299z
M163 743v14q0 63 24 90.5t80 27.5q21 0 37 -6.5t29 -14t24.5 -14t22.5 -6.5q17 0 24 9t7 32v5h90v-13q0 -63 -24 -90.5t-80 -27.5q-21 0 -37 6.5t-29 14t-24.5 14t-22.5 6.5q-17 0 -24 -9t-7 -32v-6h-90z" />
    <glyph glyph-name="Adieresis" unicode="&#xc4;" horiz-adv-x="664" 
d="M138 0h-134q12 47 30 105t39.5 121t45.5 127t48.5 123t47.5 109.5t43 86.5h148q20 -36 43 -86.5t47.5 -109.5t48.5 -123t45.5 -127t39.5 -121t30 -105h-134q-11 41 -23 80t-23 77h-296q-12 -38 -23.5 -77t-22.5 -80zM216 255h232q-54 155 -116 299q-64 -144 -116 -299z
M440 735q-38 0 -55.5 16.5t-17.5 54.5t17.5 54.5t55.5 16.5q39 0 56.5 -16.5t17.5 -54.5t-17.5 -54.5t-56.5 -16.5zM224 735q-39 0 -56.5 16.5t-17.5 54.5t17.5 54.5t56.5 16.5q38 0 55.5 -16.5t17.5 -54.5t-17.5 -54.5t-55.5 -16.5z" />
    <glyph glyph-name="Aring" unicode="&#xc5;" horiz-adv-x="664" 
d="M138 0h-134q12 47 30 105t39.5 121t45.5 127t48.5 123t47.5 109.5t43 86.5h148q20 -36 43 -86.5t47.5 -109.5t48.5 -123t45.5 -127t39.5 -121t30 -105h-134q-11 41 -23 80t-23 77h-296q-12 -38 -23.5 -77t-22.5 -80zM216 255h232q-54 155 -116 299q-64 -144 -116 -299z
M332 704q-62 0 -89.5 24t-27.5 78t27.5 78t89.5 24t89.5 -24t27.5 -78t-27.5 -78t-89.5 -24zM332 758q25 0 36.5 11t11.5 37t-11 36.5t-37 10.5t-37 -10.5t-11 -36.5t11 -37t37 -11z" />
    <glyph glyph-name="AE" unicode="&#xc6;" horiz-adv-x="1024" 
d="M130 0h-137q52 96 111.5 195t118.5 188.5t112.5 164.5t93.5 124h552v-102h-352v-179h280v-98h-280v-191h360v-102h-493v157h-276q-25 -42 -47.5 -81.5t-42.5 -75.5zM279 255h217v323q-22 -29 -47.5 -65t-53.5 -78t-57.5 -87.5t-58.5 -92.5z" />
    <glyph glyph-name="Ccedilla" unicode="&#xc7;" horiz-adv-x="612" 
d="M341 -237q-47 0 -87 12v69q36 -11 69 -11q31 0 44.5 8t13.5 27q0 20 -12.5 28t-42.5 8h-8v86q-74 6 -126.5 29t-86.5 65.5t-50 105t-16 146.5q0 92 19 158t60 108t104.5 62t152.5 20q54 0 104 -6.5t98 -18.5v-106q-93 26 -181 26q-118 0 -170 -57t-52 -186t52 -186
t170 -57q88 0 181 26v-106q-41 -10 -83.5 -16t-87.5 -8v-33q75 -11 75 -90q0 -54 -33 -78.5t-107 -24.5z" />
    <glyph glyph-name="Egrave" unicode="&#xc8;" horiz-adv-x="613" 
d="M85 0v578q0 11 -2.5 14.5t-12.5 7.5l-36 14l11 58h525v-102h-352v-179h280v-98h-280v-191h360v-102h-493zM245 738l-114 148h133l93 -148h-112z" />
    <glyph glyph-name="Eacute" unicode="&#xc9;" horiz-adv-x="613" 
d="M85 0v578q0 11 -2.5 14.5t-12.5 7.5l-36 14l11 58h525v-102h-352v-179h280v-98h-280v-191h360v-102h-493zM244 738l93 148h133l-114 -148h-112z" />
    <glyph glyph-name="Ecircumflex" unicode="&#xca;" horiz-adv-x="613" 
d="M85 0v578q0 11 -2.5 14.5t-12.5 7.5l-36 14l11 58h525v-102h-352v-179h280v-98h-280v-191h360v-102h-493zM122 738l123 148h124l123 -148h-109l-76 81l-76 -81h-109z" />
    <glyph glyph-name="Edieresis" unicode="&#xcb;" horiz-adv-x="613" 
d="M85 0v578q0 11 -2.5 14.5t-12.5 7.5l-36 14l11 58h525v-102h-352v-179h280v-98h-280v-191h360v-102h-493zM434 735q-38 0 -55.5 16.5t-17.5 54.5t17.5 54.5t55.5 16.5q39 0 56.5 -16.5t17.5 -54.5t-17.5 -54.5t-56.5 -16.5zM218 735q-39 0 -56.5 16.5t-17.5 54.5
t17.5 54.5t56.5 16.5q38 0 55.5 -16.5t17.5 -54.5t-17.5 -54.5t-55.5 -16.5z" />
    <glyph glyph-name="Igrave" unicode="&#xcc;" horiz-adv-x="287" 
d="M85 0v578q0 11 -2.5 14.5t-12.5 7.5l-36 14l11 58h164q9 0 9 -10v-662h-133zM82 738l-114 148h133l93 -148h-112z" />
    <glyph glyph-name="Iacute" unicode="&#xcd;" horiz-adv-x="287" 
d="M85 0v578q0 11 -2.5 14.5t-12.5 7.5l-36 14l11 58h164q9 0 9 -10v-662h-133zM81 738l93 148h133l-114 -148h-112z" />
    <glyph glyph-name="Icircumflex" unicode="&#xce;" horiz-adv-x="287" 
d="M85 0v578q0 11 -2.5 14.5t-12.5 7.5l-36 14l11 58h164q9 0 9 -10v-662h-133zM-41 738l123 148h124l123 -148h-109l-76 81l-76 -81h-109z" />
    <glyph glyph-name="Idieresis" unicode="&#xcf;" horiz-adv-x="287" 
d="M85 0v578q0 11 -2.5 14.5t-12.5 7.5l-36 14l11 58h164q9 0 9 -10v-662h-133zM260 735q-38 0 -55.5 16.5t-17.5 54.5t17.5 54.5t55.5 16.5q39 0 56.5 -16.5t17.5 -54.5t-17.5 -54.5t-56.5 -16.5zM44 735q-39 0 -56.5 16.5t-17.5 54.5t17.5 54.5t56.5 16.5q38 0 55.5 -16.5
t17.5 -54.5t-17.5 -54.5t-55.5 -16.5z" />
    <glyph glyph-name="Eth" unicode="&#xd0;" horiz-adv-x="756" 
d="M105 0v296h-65v92h65v190q0 11 -2.5 14.5t-12.5 7.5l-36 14l11 58h298q94 0 161 -19t110 -60t63 -104.5t20 -152.5t-20 -152.5t-63 -104.5t-110 -60t-161 -19h-258zM238 102h115q61 0 104 13.5t70.5 42t40.5 72.5t13 106t-13 106t-40.5 72.5t-70.5 42t-104 13.5h-115
v-182h163v-92h-163v-194z" />
    <glyph glyph-name="Ntilde" unicode="&#xd1;" horiz-adv-x="768" 
d="M85 0v578q0 11 -2.5 14.5t-12.5 7.5l-36 14l11 58h150q15 0 19.5 -3.5t16.5 -19.5l345 -467v490h123v-672h-129l-362 490v-490h-123zM215 743v14q0 63 24 90.5t80 27.5q21 0 37 -6.5t29 -14t24.5 -14t22.5 -6.5q17 0 24 9t7 32v5h90v-13q0 -63 -24 -90.5t-80 -27.5
q-21 0 -37 6.5t-29 14t-24.5 14t-22.5 6.5q-17 0 -24 -9t-7 -32v-6h-90z" />
    <glyph glyph-name="Ograve" unicode="&#xd2;" horiz-adv-x="751" 
d="M375 -12q-89 0 -153 20t-104.5 62t-59.5 108t-19 158t19 158t59.5 108t104.5 62t153 20t153 -20t105 -62t60 -108t19 -158t-19 -158t-60 -108t-105 -62t-153 -20zM375 93q107 0 154 57t47 186t-47 186t-154 57q-53 0 -91 -14t-62.5 -43t-36 -75.5t-11.5 -110.5
q0 -65 11.5 -111t36 -75t62.5 -43t91 -14zM314 738l-114 148h133l93 -148h-112z" />
    <glyph glyph-name="Oacute" unicode="&#xd3;" horiz-adv-x="751" 
d="M375 -12q-89 0 -153 20t-104.5 62t-59.5 108t-19 158t19 158t59.5 108t104.5 62t153 20t153 -20t105 -62t60 -108t19 -158t-19 -158t-60 -108t-105 -62t-153 -20zM375 93q107 0 154 57t47 186t-47 186t-154 57q-53 0 -91 -14t-62.5 -43t-36 -75.5t-11.5 -110.5
q0 -65 11.5 -111t36 -75t62.5 -43t91 -14zM313 738l93 148h133l-114 -148h-112z" />
    <glyph glyph-name="Ocircumflex" unicode="&#xd4;" horiz-adv-x="751" 
d="M375 -12q-89 0 -153 20t-104.5 62t-59.5 108t-19 158t19 158t59.5 108t104.5 62t153 20t153 -20t105 -62t60 -108t19 -158t-19 -158t-60 -108t-105 -62t-153 -20zM375 93q107 0 154 57t47 186t-47 186t-154 57q-53 0 -91 -14t-62.5 -43t-36 -75.5t-11.5 -110.5
q0 -65 11.5 -111t36 -75t62.5 -43t91 -14zM191 738l123 148h124l123 -148h-109l-76 81l-76 -81h-109z" />
    <glyph glyph-name="Otilde" unicode="&#xd5;" horiz-adv-x="751" 
d="M375 -12q-89 0 -153 20t-104.5 62t-59.5 108t-19 158t19 158t59.5 108t104.5 62t153 20t153 -20t105 -62t60 -108t19 -158t-19 -158t-60 -108t-105 -62t-153 -20zM375 93q107 0 154 57t47 186t-47 186t-154 57q-53 0 -91 -14t-62.5 -43t-36 -75.5t-11.5 -110.5
q0 -65 11.5 -111t36 -75t62.5 -43t91 -14zM207 743v14q0 63 24 90.5t80 27.5q21 0 37 -6.5t29 -14t24.5 -14t22.5 -6.5q17 0 24 9t7 32v5h90v-13q0 -63 -24 -90.5t-80 -27.5q-21 0 -37 6.5t-29 14t-24.5 14t-22.5 6.5q-17 0 -24 -9t-7 -32v-6h-90z" />
    <glyph glyph-name="Odieresis" unicode="&#xd6;" horiz-adv-x="751" 
d="M375 -12q-89 0 -153 20t-104.5 62t-59.5 108t-19 158t19 158t59.5 108t104.5 62t153 20t153 -20t105 -62t60 -108t19 -158t-19 -158t-60 -108t-105 -62t-153 -20zM375 93q107 0 154 57t47 186t-47 186t-154 57q-53 0 -91 -14t-62.5 -43t-36 -75.5t-11.5 -110.5
q0 -65 11.5 -111t36 -75t62.5 -43t91 -14zM483 735q-38 0 -55.5 16.5t-17.5 54.5t17.5 54.5t55.5 16.5q39 0 56.5 -16.5t17.5 -54.5t-17.5 -54.5t-56.5 -16.5zM267 735q-39 0 -56.5 16.5t-17.5 54.5t17.5 54.5t56.5 16.5q38 0 55.5 -16.5t17.5 -54.5t-17.5 -54.5
t-55.5 -16.5z" />
    <glyph glyph-name="multiply" unicode="&#xd7;" 
d="M149 73l-76 76l139 139l-139 139l76 76l139 -139l139 139l76 -76l-139 -139l139 -139l-76 -76l-139 139z" />
    <glyph glyph-name="Oslash" unicode="&#xd8;" horiz-adv-x="751" 
d="M51 -32l72 96q-44 42 -64 109t-20 163q0 92 19 158t59.5 108t104.5 62t153 20q116 0 188 -34l40 54h96l-72 -96q85 -82 85 -272q0 -92 -19 -158t-60 -108t-105 -62t-153 -20q-115 0 -188 33l-40 -53h-96zM199 165l296 395q-47 24 -120 24q-112 0 -161.5 -58t-49.5 -190
q0 -113 35 -171zM375 88q112 0 162 58t50 190q0 111 -36 171l-296 -395q46 -24 120 -24z" />
    <glyph glyph-name="Ugrave" unicode="&#xd9;" horiz-adv-x="770" 
d="M394 -12q-81 0 -139.5 15.5t-95.5 49t-54.5 85.5t-17.5 125v315q0 11 -2.5 14.5t-12.5 7.5l-36 14l11 58h164q9 0 9 -10v-389q0 -96 41 -138t133 -42q93 0 133.5 42t40.5 138v399h133v-409q0 -73 -17.5 -125t-54.5 -85.5t-95.5 -49t-139.5 -15.5zM323 738l-114 148h133
l93 -148h-112z" />
    <glyph glyph-name="Uacute" unicode="&#xda;" horiz-adv-x="770" 
d="M394 -12q-81 0 -139.5 15.5t-95.5 49t-54.5 85.5t-17.5 125v315q0 11 -2.5 14.5t-12.5 7.5l-36 14l11 58h164q9 0 9 -10v-389q0 -96 41 -138t133 -42q93 0 133.5 42t40.5 138v399h133v-409q0 -73 -17.5 -125t-54.5 -85.5t-95.5 -49t-139.5 -15.5zM322 738l93 148h133
l-114 -148h-112z" />
    <glyph glyph-name="Ucircumflex" unicode="&#xdb;" horiz-adv-x="770" 
d="M394 -12q-81 0 -139.5 15.5t-95.5 49t-54.5 85.5t-17.5 125v315q0 11 -2.5 14.5t-12.5 7.5l-36 14l11 58h164q9 0 9 -10v-389q0 -96 41 -138t133 -42q93 0 133.5 42t40.5 138v399h133v-409q0 -73 -17.5 -125t-54.5 -85.5t-95.5 -49t-139.5 -15.5zM200 738l123 148h124
l123 -148h-109l-76 81l-76 -81h-109z" />
    <glyph glyph-name="Udieresis" unicode="&#xdc;" horiz-adv-x="770" 
d="M394 -12q-81 0 -139.5 15.5t-95.5 49t-54.5 85.5t-17.5 125v315q0 11 -2.5 14.5t-12.5 7.5l-36 14l11 58h164q9 0 9 -10v-389q0 -96 41 -138t133 -42q93 0 133.5 42t40.5 138v399h133v-409q0 -73 -17.5 -125t-54.5 -85.5t-95.5 -49t-139.5 -15.5zM502 735
q-38 0 -55.5 16.5t-17.5 54.5t17.5 54.5t55.5 16.5q39 0 56.5 -16.5t17.5 -54.5t-17.5 -54.5t-56.5 -16.5zM286 735q-39 0 -56.5 16.5t-17.5 54.5t17.5 54.5t56.5 16.5q38 0 55.5 -16.5t17.5 -54.5t-17.5 -54.5t-55.5 -16.5z" />
    <glyph glyph-name="Yacute" unicode="&#xdd;" horiz-adv-x="617" 
d="M242 0v273l-246 399h150l162 -281l163 281h149l-245 -399v-273h-133zM246 738l93 148h133l-114 -148h-112z" />
    <glyph glyph-name="Thorn" unicode="&#xde;" horiz-adv-x="656" 
d="M85 0v578q0 11 -2.5 14.5t-12.5 7.5l-36 14l11 58h159q9 0 9 -10v-103h160q133 0 192.5 -51t59.5 -166t-59.5 -166t-192.5 -51h-160v-125h-128zM213 227h150q70 0 100.5 26.5t30.5 88.5q0 61 -30.5 88t-100.5 27h-150v-230z" />
    <glyph glyph-name="germandbls" unicode="&#xdf;" horiz-adv-x="585" 
d="M329 -12q-22 0 -44.5 1.5t-44.5 5.5v100q17 -4 34.5 -5.5t33.5 -1.5q67 0 95.5 27t28.5 89q0 61 -30.5 88t-101.5 27h-32v98h24q59 0 84.5 23t25.5 76q0 54 -24 77t-81 23q-63 0 -90 -31.5t-27 -103.5v-481h-123v491q0 118 58 171.5t187 53.5q118 0 170.5 -44.5
t52.5 -145.5q0 -62 -22.5 -98t-64.5 -54q57 -17 88 -62.5t31 -117.5q0 -109 -54 -157.5t-174 -48.5z" />
    <glyph glyph-name="agrave" unicode="&#xe0;" horiz-adv-x="543" 
d="M224 -12q-100 0 -145.5 36.5t-45.5 114.5q0 75 49 110t155 35q65 0 122 -17v46q0 50 -29 71t-98 21q-75 0 -154 -24v98q81 23 169 23q124 0 179.5 -46.5t55.5 -152.5v-208q0 -11 2 -14.5t12 -7.5l35 -14l-12 -59h-109q-15 0 -19 4t-7 17l-4 21q-50 -54 -156 -54zM249 78
q58 0 84 19t26 61v28q-46 16 -102 16q-51 0 -75 -14.5t-24 -47.5q0 -32 21.5 -47t69.5 -15zM210 556l-114 148h133l93 -148h-112z" />
    <glyph glyph-name="aacute" unicode="&#xe1;" horiz-adv-x="543" 
d="M224 -12q-100 0 -145.5 36.5t-45.5 114.5q0 75 49 110t155 35q65 0 122 -17v46q0 50 -29 71t-98 21q-75 0 -154 -24v98q81 23 169 23q124 0 179.5 -46.5t55.5 -152.5v-208q0 -11 2 -14.5t12 -7.5l35 -14l-12 -59h-109q-15 0 -19 4t-7 17l-4 21q-50 -54 -156 -54zM249 78
q58 0 84 19t26 61v28q-46 16 -102 16q-51 0 -75 -14.5t-24 -47.5q0 -32 21.5 -47t69.5 -15zM209 556l93 148h133l-114 -148h-112z" />
    <glyph glyph-name="acircumflex" unicode="&#xe2;" horiz-adv-x="543" 
d="M224 -12q-100 0 -145.5 36.5t-45.5 114.5q0 75 49 110t155 35q65 0 122 -17v46q0 50 -29 71t-98 21q-75 0 -154 -24v98q81 23 169 23q124 0 179.5 -46.5t55.5 -152.5v-208q0 -11 2 -14.5t12 -7.5l35 -14l-12 -59h-109q-15 0 -19 4t-7 17l-4 21q-50 -54 -156 -54zM249 78
q58 0 84 19t26 61v28q-46 16 -102 16q-51 0 -75 -14.5t-24 -47.5q0 -32 21.5 -47t69.5 -15zM87 556l123 148h124l123 -148h-109l-76 81l-76 -81h-109z" />
    <glyph glyph-name="atilde" unicode="&#xe3;" horiz-adv-x="543" 
d="M224 -12q-100 0 -145.5 36.5t-45.5 114.5q0 75 49 110t155 35q65 0 122 -17v46q0 50 -29 71t-98 21q-75 0 -154 -24v98q81 23 169 23q124 0 179.5 -46.5t55.5 -152.5v-208q0 -11 2 -14.5t12 -7.5l35 -14l-12 -59h-109q-15 0 -19 4t-7 17l-4 21q-50 -54 -156 -54zM249 78
q58 0 84 19t26 61v28q-46 16 -102 16q-51 0 -75 -14.5t-24 -47.5q0 -32 21.5 -47t69.5 -15zM103 561v14q0 63 24 90.5t80 27.5q21 0 37 -6.5t29 -14t24.5 -14t22.5 -6.5q17 0 24 9t7 32v5h90v-13q0 -63 -24 -90.5t-80 -27.5q-21 0 -37 6.5t-29 14t-24.5 14t-22.5 6.5
q-17 0 -24 -9t-7 -32v-6h-90z" />
    <glyph glyph-name="adieresis" unicode="&#xe4;" horiz-adv-x="543" 
d="M224 -12q-100 0 -145.5 36.5t-45.5 114.5q0 75 49 110t155 35q65 0 122 -17v46q0 50 -29 71t-98 21q-75 0 -154 -24v98q81 23 169 23q124 0 179.5 -46.5t55.5 -152.5v-208q0 -11 2 -14.5t12 -7.5l35 -14l-12 -59h-109q-15 0 -19 4t-7 17l-4 21q-50 -54 -156 -54zM249 78
q58 0 84 19t26 61v28q-46 16 -102 16q-51 0 -75 -14.5t-24 -47.5q0 -32 21.5 -47t69.5 -15zM376 559q-38 0 -55.5 16.5t-17.5 54.5t17.5 54.5t55.5 16.5q39 0 56.5 -16.5t17.5 -54.5t-17.5 -54.5t-56.5 -16.5zM160 559q-39 0 -56.5 16.5t-17.5 54.5t17.5 54.5t56.5 16.5
q38 0 55.5 -16.5t17.5 -54.5t-17.5 -54.5t-55.5 -16.5z" />
    <glyph glyph-name="aring" unicode="&#xe5;" horiz-adv-x="543" 
d="M224 -12q-100 0 -145.5 36.5t-45.5 114.5q0 75 49 110t155 35q65 0 122 -17v46q0 50 -29 71t-98 21q-75 0 -154 -24v98q81 23 169 23q124 0 179.5 -46.5t55.5 -152.5v-208q0 -11 2 -14.5t12 -7.5l35 -14l-12 -59h-109q-15 0 -19 4t-7 17l-4 21q-50 -54 -156 -54zM249 78
q58 0 84 19t26 61v28q-46 16 -102 16q-51 0 -75 -14.5t-24 -47.5q0 -32 21.5 -47t69.5 -15zM268 528q-62 0 -89.5 24t-27.5 78t27.5 78t89.5 24t89.5 -24t27.5 -78t-27.5 -78t-89.5 -24zM268 582q25 0 36.5 11t11.5 37t-11 36.5t-37 10.5t-37 -10.5t-11 -36.5t11 -37t37 -11
z" />
    <glyph glyph-name="ae" unicode="&#xe6;" horiz-adv-x="859" 
d="M225 -12q-100 0 -146 36.5t-46 114.5q0 75 49 110t155 35q65 0 122 -17v46q0 50 -29 71t-98 21q-75 0 -154 -24v98q81 23 169 23q67 0 110.5 -16.5t66.5 -52.5q54 69 175 69q120 0 173 -58.5t53 -190.5v-23.5t-2 -21.5h-343q4 -66 41.5 -94.5t118.5 -28.5t164 24v-98
q-39 -12 -82.5 -17.5t-91.5 -5.5q-153 0 -219 73q-52 -73 -186 -73zM251 78q57 0 82.5 19t25.5 61v28q-46 16 -102 16q-51 0 -75 -14.5t-24 -47.5q0 -32 22.5 -47t70.5 -15zM480 290h223q-2 66 -26 94t-78 28q-60 0 -88 -28.5t-31 -93.5z" />
    <glyph glyph-name="ccedilla" unicode="&#xe7;" horiz-adv-x="485" 
d="M253 -237q-47 0 -87 12v69q36 -11 69 -11q31 0 44.5 8t13.5 27q0 20 -12.5 28t-42.5 8h-8v88q-103 12 -148.5 72.5t-45.5 180.5q0 68 14.5 117t45.5 80t79.5 45.5t116.5 14.5q87 0 154 -19v-101q-66 20 -133 20q-78 0 -112.5 -36.5t-34.5 -120.5t34.5 -120.5t112.5 -36.5
q67 0 133 20v-101q-57 -16 -128 -19v-32q75 -11 75 -90q0 -54 -33 -78.5t-107 -24.5z" />
    <glyph glyph-name="egrave" unicode="&#xe8;" horiz-adv-x="539" 
d="M309 -12q-73 0 -125 14.5t-85.5 46t-49 80t-15.5 116.5t14 117t43.5 80t76 45.5t111.5 14.5q120 0 173 -58.5t53 -190.5q0 -13 -0.5 -23.5t-1.5 -21.5h-344q4 -66 41.5 -94.5t118.5 -28.5q82 0 165 24v-98q-40 -12 -83 -17.5t-92 -5.5zM159 290h223q-2 66 -25.5 94
t-77.5 28q-60 0 -88 -28.5t-32 -93.5zM208 556l-114 148h133l93 -148h-112z" />
    <glyph glyph-name="eacute" unicode="&#xe9;" horiz-adv-x="539" 
d="M309 -12q-73 0 -125 14.5t-85.5 46t-49 80t-15.5 116.5t14 117t43.5 80t76 45.5t111.5 14.5q120 0 173 -58.5t53 -190.5q0 -13 -0.5 -23.5t-1.5 -21.5h-344q4 -66 41.5 -94.5t118.5 -28.5q82 0 165 24v-98q-40 -12 -83 -17.5t-92 -5.5zM159 290h223q-2 66 -25.5 94
t-77.5 28q-60 0 -88 -28.5t-32 -93.5zM207 556l93 148h133l-114 -148h-112z" />
    <glyph glyph-name="ecircumflex" unicode="&#xea;" horiz-adv-x="539" 
d="M309 -12q-73 0 -125 14.5t-85.5 46t-49 80t-15.5 116.5t14 117t43.5 80t76 45.5t111.5 14.5q120 0 173 -58.5t53 -190.5q0 -13 -0.5 -23.5t-1.5 -21.5h-344q4 -66 41.5 -94.5t118.5 -28.5q82 0 165 24v-98q-40 -12 -83 -17.5t-92 -5.5zM159 290h223q-2 66 -25.5 94
t-77.5 28q-60 0 -88 -28.5t-32 -93.5zM85 556l123 148h124l123 -148h-109l-76 81l-76 -81h-109z" />
    <glyph glyph-name="edieresis" unicode="&#xeb;" horiz-adv-x="539" 
d="M309 -12q-73 0 -125 14.5t-85.5 46t-49 80t-15.5 116.5t14 117t43.5 80t76 45.5t111.5 14.5q120 0 173 -58.5t53 -190.5q0 -13 -0.5 -23.5t-1.5 -21.5h-344q4 -66 41.5 -94.5t118.5 -28.5q82 0 165 24v-98q-40 -12 -83 -17.5t-92 -5.5zM159 290h223q-2 66 -25.5 94
t-77.5 28q-60 0 -88 -28.5t-32 -93.5zM385 559q-38 0 -55.5 16.5t-17.5 54.5t17.5 54.5t55.5 16.5q39 0 56.5 -16.5t17.5 -54.5t-17.5 -54.5t-56.5 -16.5zM169 559q-39 0 -56.5 16.5t-17.5 54.5t17.5 54.5t56.5 16.5q38 0 55.5 -16.5t17.5 -54.5t-17.5 -54.5t-55.5 -16.5z
" />
    <glyph glyph-name="igrave" unicode="&#xec;" horiz-adv-x="261" 
d="M72 0v395q0 11 -2 14.5t-12 7.5l-35 14l12 59h156q9 0 9 -10v-480h-128zM69 556l-114 148h133l93 -148h-112z" />
    <glyph glyph-name="iacute" unicode="&#xed;" horiz-adv-x="261" 
d="M72 0v395q0 11 -2 14.5t-12 7.5l-35 14l12 59h156q9 0 9 -10v-480h-128zM68 556l93 148h133l-114 -148h-112z" />
    <glyph glyph-name="icircumflex" unicode="&#xee;" horiz-adv-x="261" 
d="M72 0v395q0 11 -2 14.5t-12 7.5l-35 14l12 59h156q9 0 9 -10v-480h-128zM-54 556l123 148h124l123 -148h-109l-76 81l-76 -81h-109z" />
    <glyph glyph-name="idieresis" unicode="&#xef;" horiz-adv-x="261" 
d="M72 0v395q0 11 -2 14.5t-12 7.5l-35 14l12 59h156q9 0 9 -10v-480h-128zM244 559q-38 0 -55.5 16.5t-17.5 54.5t17.5 54.5t55.5 16.5q39 0 56.5 -16.5t17.5 -54.5t-17.5 -54.5t-56.5 -16.5zM28 559q-39 0 -56.5 16.5t-17.5 54.5t17.5 54.5t56.5 16.5q38 0 55.5 -16.5
t17.5 -54.5t-17.5 -54.5t-55.5 -16.5z" />
    <glyph glyph-name="eth" unicode="&#xf0;" horiz-adv-x="585" 
d="M284 -12q-131 0 -189.5 58t-58.5 189q0 130 53 188.5t173 58.5q89 0 136 -46q-16 92 -84 138l-36 -45h-108l63 80q-23 6 -50.5 9t-58.5 5v93q51 -1 94.5 -6.5t81.5 -16.5l30 37h108l-57 -72q82 -48 121 -140t39 -237q0 -153 -61 -223t-196 -70zM284 83q67 0 97 36.5
t30 120.5q0 76 -28.5 111.5t-92.5 35.5q-66 0 -95 -35.5t-29 -116.5t27.5 -116.5t90.5 -35.5z" />
    <glyph glyph-name="ntilde" unicode="&#xf1;" horiz-adv-x="598" 
d="M67 0v395q0 11 -2 14.5t-12 7.5l-35 14l12 59h151q9 0 9 -10v-29q33 27 70 39t83 12q97 0 145.5 -46.5t48.5 -153.5v-207q0 -11 2 -14.5t12 -7.5l35 -14l-12 -59h-156q-9 0 -9 10v287q0 55 -22.5 79t-75.5 24q-38 0 -70.5 -10t-45.5 -18v-372h-128zM130 561v14
q0 63 24 90.5t80 27.5q21 0 37 -6.5t29 -14t24.5 -14t22.5 -6.5q17 0 24 9t7 32v5h90v-13q0 -63 -24 -90.5t-80 -27.5q-21 0 -37 6.5t-29 14t-24.5 14t-22.5 6.5q-17 0 -24 -9t-7 -32v-6h-90z" />
    <glyph glyph-name="ograve" unicode="&#xf2;" horiz-adv-x="579" 
d="M289 -12q-68 0 -116.5 14.5t-79.5 46t-45.5 80t-14.5 116.5t14.5 117t45.5 80t79.5 45.5t116.5 14.5t116.5 -14.5t80 -45.5t46 -80t14.5 -117q0 -136 -60.5 -196.5t-196.5 -60.5zM289 88q68 0 97.5 36.5t29.5 120.5t-29.5 120.5t-97.5 36.5q-67 0 -96.5 -36.5
t-29.5 -120.5t29.5 -120.5t96.5 -36.5zM228 556l-114 148h133l93 -148h-112z" />
    <glyph glyph-name="oacute" unicode="&#xf3;" horiz-adv-x="579" 
d="M289 -12q-68 0 -116.5 14.5t-79.5 46t-45.5 80t-14.5 116.5t14.5 117t45.5 80t79.5 45.5t116.5 14.5t116.5 -14.5t80 -45.5t46 -80t14.5 -117q0 -136 -60.5 -196.5t-196.5 -60.5zM289 88q68 0 97.5 36.5t29.5 120.5t-29.5 120.5t-97.5 36.5q-67 0 -96.5 -36.5
t-29.5 -120.5t29.5 -120.5t96.5 -36.5zM227 556l93 148h133l-114 -148h-112z" />
    <glyph glyph-name="ocircumflex" unicode="&#xf4;" horiz-adv-x="579" 
d="M289 -12q-68 0 -116.5 14.5t-79.5 46t-45.5 80t-14.5 116.5t14.5 117t45.5 80t79.5 45.5t116.5 14.5t116.5 -14.5t80 -45.5t46 -80t14.5 -117q0 -136 -60.5 -196.5t-196.5 -60.5zM289 88q68 0 97.5 36.5t29.5 120.5t-29.5 120.5t-97.5 36.5q-67 0 -96.5 -36.5
t-29.5 -120.5t29.5 -120.5t96.5 -36.5zM105 556l123 148h124l123 -148h-109l-76 81l-76 -81h-109z" />
    <glyph glyph-name="otilde" unicode="&#xf5;" horiz-adv-x="579" 
d="M289 -12q-68 0 -116.5 14.5t-79.5 46t-45.5 80t-14.5 116.5t14.5 117t45.5 80t79.5 45.5t116.5 14.5t116.5 -14.5t80 -45.5t46 -80t14.5 -117q0 -136 -60.5 -196.5t-196.5 -60.5zM289 88q68 0 97.5 36.5t29.5 120.5t-29.5 120.5t-97.5 36.5q-67 0 -96.5 -36.5
t-29.5 -120.5t29.5 -120.5t96.5 -36.5zM121 561v14q0 63 24 90.5t80 27.5q21 0 37 -6.5t29 -14t24.5 -14t22.5 -6.5q17 0 24 9t7 32v5h90v-13q0 -63 -24 -90.5t-80 -27.5q-21 0 -37 6.5t-29 14t-24.5 14t-22.5 6.5q-17 0 -24 -9t-7 -32v-6h-90z" />
    <glyph glyph-name="odieresis" unicode="&#xf6;" horiz-adv-x="579" 
d="M289 -12q-68 0 -116.5 14.5t-79.5 46t-45.5 80t-14.5 116.5t14.5 117t45.5 80t79.5 45.5t116.5 14.5t116.5 -14.5t80 -45.5t46 -80t14.5 -117q0 -136 -60.5 -196.5t-196.5 -60.5zM289 88q68 0 97.5 36.5t29.5 120.5t-29.5 120.5t-97.5 36.5q-67 0 -96.5 -36.5
t-29.5 -120.5t29.5 -120.5t96.5 -36.5zM396 559q-38 0 -55.5 16.5t-17.5 54.5t17.5 54.5t55.5 16.5q39 0 56.5 -16.5t17.5 -54.5t-17.5 -54.5t-56.5 -16.5zM180 559q-39 0 -56.5 16.5t-17.5 54.5t17.5 54.5t56.5 16.5q38 0 55.5 -16.5t17.5 -54.5t-17.5 -54.5t-55.5 -16.5z
" />
    <glyph glyph-name="divide" unicode="&#xf7;" 
d="M288 46q-36 0 -52 15.5t-16 50.5t16 50.5t52 15.5t52 -15.5t16 -50.5t-16 -50.5t-52 -15.5zM288 398q-36 0 -52 15.5t-16 50.5t16 50.5t52 15.5t52 -15.5t16 -50.5t-16 -50.5t-52 -15.5zM70 239v98h436v-98h-436z" />
    <glyph glyph-name="oslash" unicode="&#xf8;" horiz-adv-x="579" 
d="M39 -32l57 76q-33 32 -48.5 81t-15.5 120q0 68 14.5 117t45.5 80t79.5 45.5t116.5 14.5q81 0 135 -21l31 41h84l-58 -77q34 -31 49.5 -80.5t15.5 -119.5q0 -136 -60.5 -196.5t-196.5 -60.5q-81 0 -135 21l-31 -41h-83zM166 138l195 260q-31 14 -73 14q-75 0 -108 -39
t-33 -128q0 -69 19 -107zM288 78q75 0 108.5 39t33.5 128q0 70 -20 107l-196 -261q29 -13 74 -13z" />
    <glyph glyph-name="ugrave" unicode="&#xf9;" horiz-adv-x="587" 
d="M298 -12q-62 0 -106.5 11.5t-73 36.5t-42 63t-13.5 92v204q0 11 -2 14.5t-12 7.5l-35 14l12 59h156q9 0 9 -10v-279q0 -61 25 -87t82 -26t82 26t25 87v289h128v-299q0 -107 -55 -155t-180 -48zM232 556l-114 148h133l93 -148h-112z" />
    <glyph glyph-name="uacute" unicode="&#xfa;" horiz-adv-x="587" 
d="M298 -12q-62 0 -106.5 11.5t-73 36.5t-42 63t-13.5 92v204q0 11 -2 14.5t-12 7.5l-35 14l12 59h156q9 0 9 -10v-279q0 -61 25 -87t82 -26t82 26t25 87v289h128v-299q0 -107 -55 -155t-180 -48zM231 556l93 148h133l-114 -148h-112z" />
    <glyph glyph-name="ucircumflex" unicode="&#xfb;" horiz-adv-x="587" 
d="M298 -12q-62 0 -106.5 11.5t-73 36.5t-42 63t-13.5 92v204q0 11 -2 14.5t-12 7.5l-35 14l12 59h156q9 0 9 -10v-279q0 -61 25 -87t82 -26t82 26t25 87v289h128v-299q0 -107 -55 -155t-180 -48zM109 556l123 148h124l123 -148h-109l-76 81l-76 -81h-109z" />
    <glyph glyph-name="udieresis" unicode="&#xfc;" horiz-adv-x="587" 
d="M298 -12q-62 0 -106.5 11.5t-73 36.5t-42 63t-13.5 92v204q0 11 -2 14.5t-12 7.5l-35 14l12 59h156q9 0 9 -10v-279q0 -61 25 -87t82 -26t82 26t25 87v289h128v-299q0 -107 -55 -155t-180 -48zM406 559q-38 0 -55.5 16.5t-17.5 54.5t17.5 54.5t55.5 16.5q39 0 56.5 -16.5
t17.5 -54.5t-17.5 -54.5t-56.5 -16.5zM190 559q-39 0 -56.5 16.5t-17.5 54.5t17.5 54.5t56.5 16.5q38 0 55.5 -16.5t17.5 -54.5t-17.5 -54.5t-55.5 -16.5z" />
    <glyph glyph-name="yacute" unicode="&#xfd;" horiz-adv-x="544" 
d="M110 -220q-10 0 -22 0.5t-20 1.5v98q7 -1 17 -1.5t18 -0.5q22 0 38 4.5t28.5 15t22.5 27t19 41.5l11 29l-214 495h139l134 -339l114 339h133l-204 -550q-16 -42 -34.5 -72.5t-43.5 -50t-58 -28.5t-78 -9zM209 556l93 148h133l-114 -148h-112z" />
    <glyph glyph-name="thorn" unicode="&#xfe;" horiz-adv-x="592" 
d="M65 -208v817q0 11 -2 14.5t-12 7.5l-35 14l12 59h156q9 0 9 -10v-240q51 48 147 48q57 0 98.5 -14.5t67.5 -45.5t38.5 -80t12.5 -117t-12.5 -117t-38.5 -80t-67.5 -45.5t-98.5 -14.5q-96 0 -147 48v-244h-128zM307 88q64 0 92 36.5t28 120.5t-28 120.5t-92 36.5
q-61 0 -87.5 -28t-26.5 -93v-158q17 -12 43.5 -23.5t70.5 -11.5z" />
    <glyph glyph-name="ydieresis" unicode="&#xff;" horiz-adv-x="544" 
d="M110 -220q-10 0 -22 0.5t-20 1.5v98q7 -1 17 -1.5t18 -0.5q22 0 38 4.5t28.5 15t22.5 27t19 41.5l11 29l-214 495h139l134 -339l114 339h133l-204 -550q-16 -42 -34.5 -72.5t-43.5 -50t-58 -28.5t-78 -9zM380 559q-38 0 -55.5 16.5t-17.5 54.5t17.5 54.5t55.5 16.5
q39 0 56.5 -16.5t17.5 -54.5t-17.5 -54.5t-56.5 -16.5zM164 559q-39 0 -56.5 16.5t-17.5 54.5t17.5 54.5t56.5 16.5q38 0 55.5 -16.5t17.5 -54.5t-17.5 -54.5t-55.5 -16.5z" />
    <glyph glyph-name="Amacron" unicode="&#x100;" horiz-adv-x="664" 
d="M138 0h-134q12 47 30 105t39.5 121t45.5 127t48.5 123t47.5 109.5t43 86.5h148q20 -36 43 -86.5t47.5 -109.5t48.5 -123t45.5 -127t39.5 -121t30 -105h-134q-11 41 -23 80t-23 77h-296q-12 -38 -23.5 -77t-22.5 -80zM216 255h232q-54 155 -116 299q-64 -144 -116 -299z
M171 762v87h322v-87h-322z" />
    <glyph glyph-name="amacron" unicode="&#x101;" horiz-adv-x="543" 
d="M224 -12q-100 0 -145.5 36.5t-45.5 114.5q0 75 49 110t155 35q65 0 122 -17v46q0 50 -29 71t-98 21q-75 0 -154 -24v98q81 23 169 23q124 0 179.5 -46.5t55.5 -152.5v-208q0 -11 2 -14.5t12 -7.5l35 -14l-12 -59h-109q-15 0 -19 4t-7 17l-4 21q-50 -54 -156 -54zM249 78
q58 0 84 19t26 61v28q-46 16 -102 16q-51 0 -75 -14.5t-24 -47.5q0 -32 21.5 -47t69.5 -15zM107 586v87h322v-87h-322z" />
    <glyph glyph-name="Abreve" unicode="&#x102;" horiz-adv-x="664" 
d="M138 0h-134q12 47 30 105t39.5 121t45.5 127t48.5 123t47.5 109.5t43 86.5h148q20 -36 43 -86.5t47.5 -109.5t48.5 -123t45.5 -127t39.5 -121t30 -105h-134q-11 41 -23 80t-23 77h-296q-12 -38 -23.5 -77t-22.5 -80zM216 255h232q-54 155 -116 299q-64 -144 -116 -299z
M332 727q-88 0 -128 37t-40 122h90q0 -39 18 -56.5t60 -17.5t60 17.5t18 56.5h90q0 -85 -40 -122t-128 -37z" />
    <glyph glyph-name="abreve" unicode="&#x103;" horiz-adv-x="543" 
d="M224 -12q-100 0 -145.5 36.5t-45.5 114.5q0 75 49 110t155 35q65 0 122 -17v46q0 50 -29 71t-98 21q-75 0 -154 -24v98q81 23 169 23q124 0 179.5 -46.5t55.5 -152.5v-208q0 -11 2 -14.5t12 -7.5l35 -14l-12 -59h-109q-15 0 -19 4t-7 17l-4 21q-50 -54 -156 -54zM249 78
q58 0 84 19t26 61v28q-46 16 -102 16q-51 0 -75 -14.5t-24 -47.5q0 -32 21.5 -47t69.5 -15zM272 545q-88 0 -128 37t-40 122h90q0 -39 18 -56.5t60 -17.5t60 17.5t18 56.5h90q0 -85 -40 -122t-128 -37z" />
    <glyph glyph-name="Aogonek" unicode="&#x104;" horiz-adv-x="664" 
d="M595 -237q-66 0 -95 22.5t-29 72.5q0 34 21 67.5t67 74.5h-33q-11 41 -23 80t-23 77h-296q-12 -38 -23.5 -77t-22.5 -80h-134q12 47 30 105t39.5 121t45.5 127t48.5 123t47.5 109.5t43 86.5h148q20 -36 43 -86.5t47.5 -109.5t48.5 -123t45.5 -127t39.5 -121t30 -105
q-50 -45 -69.5 -72t-19.5 -48t12.5 -31t41.5 -10q10 0 19 1t16 2v-73q-14 -2 -30.5 -4t-34.5 -2zM216 255h232q-54 155 -116 299q-64 -144 -116 -299z" />
    <glyph glyph-name="aogonek" unicode="&#x105;" horiz-adv-x="543" 
d="M417 -237q-66 0 -95 22.5t-29 72.5q0 35 22 70t72 77l-7 37q-50 -54 -156 -54q-100 0 -145.5 36.5t-45.5 114.5q0 75 49 110t155 35q65 0 122 -17v46q0 50 -29 71t-98 21q-75 0 -154 -24v98q81 23 169 23q124 0 179.5 -46.5t55.5 -152.5v-208q0 -11 2 -14.5t12 -7.5
l35 -14l-12 -59h-37q-50 -45 -69.5 -72t-19.5 -48t12.5 -31t41.5 -10q10 0 19 1t16 2v-73q-14 -2 -30.5 -4t-34.5 -2zM249 78q58 0 84 19t26 61v28q-46 16 -102 16q-51 0 -75 -14.5t-24 -47.5q0 -32 21.5 -47t69.5 -15z" />
    <glyph glyph-name="Cacute" unicode="&#x106;" horiz-adv-x="612" 
d="M375 -12q-89 0 -152.5 20t-104.5 62t-60 108t-19 158t19 158t60 108t104.5 62t152.5 20q73 0 129.5 -10t81.5 -18l-18 -101q-38 11 -80.5 17.5t-91.5 6.5q-118 0 -170 -57t-52 -186t52 -186t170 -57q88 0 181 26v-106q-48 -12 -98 -18.5t-104 -6.5zM243 738l93 148h133
l-114 -148h-112z" />
    <glyph glyph-name="cacute" unicode="&#x107;" horiz-adv-x="485" 
d="M292 -12q-68 0 -116.5 14.5t-79.5 46t-45.5 80t-14.5 116.5t14.5 117t45.5 80t79.5 45.5t116.5 14.5q63 0 104.5 -8t58.5 -14l-18 -96q-18 6 -51 12t-73 6q-78 0 -112.5 -36.5t-34.5 -120.5t34.5 -120.5t112.5 -36.5q67 0 133 20v-101q-67 -19 -154 -19zM180 556l93 148
h133l-114 -148h-112z" />
    <glyph glyph-name="Ccircumflex" unicode="&#x108;" horiz-adv-x="612" 
d="M375 -12q-89 0 -152.5 20t-104.5 62t-60 108t-19 158t19 158t60 108t104.5 62t152.5 20q73 0 129.5 -10t81.5 -18l-18 -101q-38 11 -80.5 17.5t-91.5 6.5q-118 0 -170 -57t-52 -186t52 -186t170 -57q88 0 181 26v-106q-48 -12 -98 -18.5t-104 -6.5zM121 738l123 148h124
l123 -148h-109l-76 81l-76 -81h-109z" />
    <glyph glyph-name="ccircumflex" unicode="&#x109;" horiz-adv-x="485" 
d="M292 -12q-68 0 -116.5 14.5t-79.5 46t-45.5 80t-14.5 116.5t14.5 117t45.5 80t79.5 45.5t116.5 14.5q63 0 104.5 -8t58.5 -14l-18 -96q-18 6 -51 12t-73 6q-78 0 -112.5 -36.5t-34.5 -120.5t34.5 -120.5t112.5 -36.5q67 0 133 20v-101q-67 -19 -154 -19zM58 556l123 148
h124l123 -148h-109l-76 81l-76 -81h-109z" />
    <glyph glyph-name="Cdotaccent" unicode="&#x10a;" horiz-adv-x="612" 
d="M375 -12q-89 0 -152.5 20t-104.5 62t-60 108t-19 158t19 158t60 108t104.5 62t152.5 20q73 0 129.5 -10t81.5 -18l-18 -101q-38 11 -80.5 17.5t-91.5 6.5q-118 0 -170 -57t-52 -186t52 -186t170 -57q88 0 181 26v-106q-48 -12 -98 -18.5t-104 -6.5zM362 735
q-39 0 -56 16.5t-17 54.5t17 54.5t56 16.5t56 -16.5t17 -54.5t-17 -54.5t-56 -16.5z" />
    <glyph glyph-name="cdotaccent" unicode="&#x10b;" horiz-adv-x="485" 
d="M292 -12q-68 0 -116.5 14.5t-79.5 46t-45.5 80t-14.5 116.5t14.5 117t45.5 80t79.5 45.5t116.5 14.5q63 0 104.5 -8t58.5 -14l-18 -96q-18 6 -51 12t-73 6q-78 0 -112.5 -36.5t-34.5 -120.5t34.5 -120.5t112.5 -36.5q67 0 133 20v-101q-67 -19 -154 -19zM274 559
q-39 0 -56 16.5t-17 54.5t17 54.5t56 16.5t56 -16.5t17 -54.5t-17 -54.5t-56 -16.5z" />
    <glyph glyph-name="Ccaron" unicode="&#x10c;" horiz-adv-x="612" 
d="M375 -12q-89 0 -152.5 20t-104.5 62t-60 108t-19 158t19 158t60 108t104.5 62t152.5 20q73 0 129.5 -10t81.5 -18l-18 -101q-38 11 -80.5 17.5t-91.5 6.5q-118 0 -170 -57t-52 -186t52 -186t170 -57q88 0 181 26v-106q-48 -12 -98 -18.5t-104 -6.5zM300 732l-123 148h109
l76 -81l76 81h109l-123 -148h-124z" />
    <glyph glyph-name="ccaron" unicode="&#x10d;" horiz-adv-x="485" 
d="M292 -12q-68 0 -116.5 14.5t-79.5 46t-45.5 80t-14.5 116.5t14.5 117t45.5 80t79.5 45.5t116.5 14.5q63 0 104.5 -8t58.5 -14l-18 -96q-18 6 -51 12t-73 6q-78 0 -112.5 -36.5t-34.5 -120.5t34.5 -120.5t112.5 -36.5q67 0 133 20v-101q-67 -19 -154 -19zM212 556
l-123 148h109l76 -81l76 81h109l-123 -148h-124z" />
    <glyph glyph-name="Dcaron" unicode="&#x10e;" horiz-adv-x="736" 
d="M85 0v578q0 11 -2.5 14.5t-12.5 7.5l-36 14l11 58h298q94 0 161 -19t110 -60t63 -104.5t20 -152.5t-20 -152.5t-63 -104.5t-110 -60t-161 -19h-258zM218 102h115q61 0 104 13.5t70.5 42t40.5 72.5t13 106t-13 106t-40.5 72.5t-70.5 42t-104 13.5h-115v-468zM298 732
l-123 148h109l76 -81l76 81h109l-123 -148h-124z" />
    <glyph glyph-name="dcaron" unicode="&#x10f;" horiz-adv-x="733" 
d="M251 -12q-57 0 -98 14.5t-67 45.5t-38.5 80t-12.5 117q0 136 51 196.5t165 60.5q98 0 147 -48v250h128v-609q0 -11 2 -14.5t12 -7.5l35 -14l-12 -59h-109q-15 0 -19 4t-7 17l-6 31q-27 -33 -70.5 -48.5t-100.5 -15.5zM284 88q44 0 70.5 11.5t43.5 23.5v158q0 65 -26.5 93
t-87.5 28q-64 0 -91.5 -36.5t-27.5 -120.5t27.5 -120.5t91.5 -36.5zM568 550l50 196h109l-71 -196h-88z" />
    <glyph glyph-name="Dcroat" unicode="&#x110;" horiz-adv-x="756" 
d="M105 0v296h-65v92h65v190q0 11 -2.5 14.5t-12.5 7.5l-36 14l11 58h298q94 0 161 -19t110 -60t63 -104.5t20 -152.5t-20 -152.5t-63 -104.5t-110 -60t-161 -19h-258zM238 102h115q61 0 104 13.5t70.5 42t40.5 72.5t13 106t-13 106t-40.5 72.5t-70.5 42t-104 13.5h-115
v-182h163v-92h-163v-194z" />
    <glyph glyph-name="dcroat" unicode="&#x111;" horiz-adv-x="594" 
d="M251 -12q-57 0 -98 14.5t-67 45.5t-38.5 80t-12.5 117q0 136 50.5 196.5t164.5 60.5q99 0 148 -62v111h-166v88h166v65h128v-65h55v-88h-55v-456q0 -11 2 -14.5t12 -7.5l35 -14l-12 -59h-109q-15 0 -19 4t-7 17l-6 31q-27 -33 -70.5 -48.5t-100.5 -15.5zM284 88
q44 0 70.5 11.5t43.5 23.5v144q0 72 -26.5 103.5t-88.5 31.5q-63 0 -90.5 -36.5t-27.5 -120.5t27.5 -120.5t91.5 -36.5z" />
    <glyph glyph-name="Emacron" unicode="&#x112;" horiz-adv-x="613" 
d="M85 0v578q0 11 -2.5 14.5t-12.5 7.5l-36 14l11 58h525v-102h-352v-179h280v-98h-280v-191h360v-102h-493zM165 762v87h322v-87h-322z" />
    <glyph glyph-name="emacron" unicode="&#x113;" horiz-adv-x="539" 
d="M309 -12q-73 0 -125 14.5t-85.5 46t-49 80t-15.5 116.5t14 117t43.5 80t76 45.5t111.5 14.5q120 0 173 -58.5t53 -190.5q0 -13 -0.5 -23.5t-1.5 -21.5h-344q4 -66 41.5 -94.5t118.5 -28.5q82 0 165 24v-98q-40 -12 -83 -17.5t-92 -5.5zM159 290h223q-2 66 -25.5 94
t-77.5 28q-60 0 -88 -28.5t-32 -93.5zM116 586v87h322v-87h-322z" />
    <glyph glyph-name="Ebreve" unicode="&#x114;" horiz-adv-x="613" 
d="M85 0v578q0 11 -2.5 14.5t-12.5 7.5l-36 14l11 58h525v-102h-352v-179h280v-98h-280v-191h360v-102h-493zM307 727q-88 0 -128 37t-40 122h90q0 -39 18 -56.5t60 -17.5t60 17.5t18 56.5h90q0 -85 -40 -122t-128 -37z" />
    <glyph glyph-name="ebreve" unicode="&#x115;" horiz-adv-x="539" 
d="M309 -12q-73 0 -125 14.5t-85.5 46t-49 80t-15.5 116.5t14 117t43.5 80t76 45.5t111.5 14.5q120 0 173 -58.5t53 -190.5q0 -13 -0.5 -23.5t-1.5 -21.5h-344q4 -66 41.5 -94.5t118.5 -28.5q82 0 165 24v-98q-40 -12 -83 -17.5t-92 -5.5zM159 290h223q-2 66 -25.5 94
t-77.5 28q-60 0 -88 -28.5t-32 -93.5zM270 545q-88 0 -128 37t-40 122h90q0 -39 18 -56.5t60 -17.5t60 17.5t18 56.5h90q0 -85 -40 -122t-128 -37z" />
    <glyph glyph-name="Edotaccent" unicode="&#x116;" horiz-adv-x="613" 
d="M85 0v578q0 11 -2.5 14.5t-12.5 7.5l-36 14l11 58h525v-102h-352v-179h280v-98h-280v-191h360v-102h-493zM326 735q-39 0 -56 16.5t-17 54.5t17 54.5t56 16.5t56 -16.5t17 -54.5t-17 -54.5t-56 -16.5z" />
    <glyph glyph-name="edotaccent" unicode="&#x117;" horiz-adv-x="539" 
d="M309 -12q-73 0 -125 14.5t-85.5 46t-49 80t-15.5 116.5t14 117t43.5 80t76 45.5t111.5 14.5q120 0 173 -58.5t53 -190.5q0 -13 -0.5 -23.5t-1.5 -21.5h-344q4 -66 41.5 -94.5t118.5 -28.5q82 0 165 24v-98q-40 -12 -83 -17.5t-92 -5.5zM159 290h223q-2 66 -25.5 94
t-77.5 28q-60 0 -88 -28.5t-32 -93.5zM277 559q-39 0 -56 16.5t-17 54.5t17 54.5t56 16.5t56 -16.5t17 -54.5t-17 -54.5t-56 -16.5z" />
    <glyph glyph-name="Eogonek" unicode="&#x118;" horiz-adv-x="613" 
d="M513 -237q-66 0 -95 22.5t-29 72.5q0 34 21 67.5t67 74.5h-392v578q0 11 -2.5 14.5t-12.5 7.5l-36 14l11 58h525v-100h-352v-181h280v-98h-280v-193h360v-100q-50 -45 -69.5 -72t-19.5 -48t12.5 -31t41.5 -10q10 0 19 1t16 2v-73q-14 -2 -30.5 -4t-34.5 -2z" />
    <glyph glyph-name="eogonek" unicode="&#x119;" horiz-adv-x="539" 
d="M418 -237q-65 0 -94 22.5t-29 72.5q0 58 69 132q-14 -1 -27.5 -1.5t-27.5 -0.5q-73 0 -125 14.5t-85.5 46t-49 80t-15.5 116.5t14 117t43.5 80t76 45.5t111.5 14.5q120 0 173 -58.5t53 -190.5q0 -13 -0.5 -23.5t-1.5 -21.5h-344q4 -66 41.5 -94.5t118.5 -28.5
q82 0 165 24v-98q-50 -47 -69.5 -77t-19.5 -53q0 -22 12.5 -32t41.5 -10q10 0 19 1t16 2v-73q-14 -2 -30.5 -4t-35.5 -2zM159 290h223q-2 66 -25.5 94t-77.5 28q-60 0 -88 -28.5t-32 -93.5z" />
    <glyph glyph-name="Ecaron" unicode="&#x11a;" horiz-adv-x="613" 
d="M85 0v578q0 11 -2.5 14.5t-12.5 7.5l-36 14l11 58h525v-102h-352v-179h280v-98h-280v-191h360v-102h-493zM264 732l-123 148h109l76 -81l76 81h109l-123 -148h-124z" />
    <glyph glyph-name="ecaron" unicode="&#x11b;" horiz-adv-x="539" 
d="M309 -12q-73 0 -125 14.5t-85.5 46t-49 80t-15.5 116.5t14 117t43.5 80t76 45.5t111.5 14.5q120 0 173 -58.5t53 -190.5q0 -13 -0.5 -23.5t-1.5 -21.5h-344q4 -66 41.5 -94.5t118.5 -28.5q82 0 165 24v-98q-40 -12 -83 -17.5t-92 -5.5zM159 290h223q-2 66 -25.5 94
t-77.5 28q-60 0 -88 -28.5t-32 -93.5zM215 556l-123 148h109l76 -81l76 81h109l-123 -148h-124z" />
    <glyph glyph-name="Gcircumflex" unicode="&#x11c;" horiz-adv-x="687" 
d="M383 -12q-91 0 -156 20t-107 62t-61.5 108t-19.5 158t20 158t64 108t114.5 62t171.5 20q73 0 129.5 -10t81.5 -18l-18 -101q-38 11 -84 19t-95 8q-65 0 -112.5 -12t-79 -40.5t-47 -76t-15.5 -117.5q0 -65 13 -111.5t41 -76.5t71.5 -44t104.5 -14q29 0 58.5 3t56.5 8v175
h-156v93h279v-354q-60 -13 -123 -20t-131 -7zM159 738l123 148h124l123 -148h-109l-76 81l-76 -81h-109z" />
    <glyph glyph-name="gcircumflex" unicode="&#x11d;" horiz-adv-x="584" 
d="M274 -220q-29 0 -55.5 2t-40.5 4v98q20 -3 43 -4.5t43 -1.5q72 0 103.5 26t31.5 81v52q-49 -49 -148 -49q-57 0 -98 14.5t-67 45.5t-38.5 80t-12.5 117q0 136 51 196.5t165 60.5q113 0 168 -59l10 47h97v-487q0 -63 -16.5 -105.5t-48.5 -68.5t-79 -37.5t-108 -11.5z
M284 88q61 0 87.5 28t26.5 93v158q-17 12 -43.5 23.5t-70.5 11.5q-64 0 -91.5 -36.5t-27.5 -120.5t27.5 -120.5t91.5 -36.5zM107 556l123 148h124l123 -148h-109l-76 81l-76 -81h-109z" />
    <glyph glyph-name="Gbreve" unicode="&#x11e;" horiz-adv-x="687" 
d="M383 -12q-91 0 -156 20t-107 62t-61.5 108t-19.5 158t20 158t64 108t114.5 62t171.5 20q73 0 129.5 -10t81.5 -18l-18 -101q-38 11 -84 19t-95 8q-65 0 -112.5 -12t-79 -40.5t-47 -76t-15.5 -117.5q0 -65 13 -111.5t41 -76.5t71.5 -44t104.5 -14q29 0 58.5 3t56.5 8v175
h-156v93h279v-354q-60 -13 -123 -20t-131 -7zM344 727q-88 0 -128 37t-40 122h90q0 -39 18 -56.5t60 -17.5t60 17.5t18 56.5h90q0 -85 -40 -122t-128 -37z" />
    <glyph glyph-name="gbreve" unicode="&#x11f;" horiz-adv-x="584" 
d="M274 -220q-29 0 -55.5 2t-40.5 4v98q20 -3 43 -4.5t43 -1.5q72 0 103.5 26t31.5 81v52q-49 -49 -148 -49q-57 0 -98 14.5t-67 45.5t-38.5 80t-12.5 117q0 136 51 196.5t165 60.5q113 0 168 -59l10 47h97v-487q0 -63 -16.5 -105.5t-48.5 -68.5t-79 -37.5t-108 -11.5z
M284 88q61 0 87.5 28t26.5 93v158q-17 12 -43.5 23.5t-70.5 11.5q-64 0 -91.5 -36.5t-27.5 -120.5t27.5 -120.5t91.5 -36.5zM292 545q-88 0 -128 37t-40 122h90q0 -39 18 -56.5t60 -17.5t60 17.5t18 56.5h90q0 -85 -40 -122t-128 -37z" />
    <glyph glyph-name="Gdotaccent" unicode="&#x120;" horiz-adv-x="687" 
d="M383 -12q-91 0 -156 20t-107 62t-61.5 108t-19.5 158t20 158t64 108t114.5 62t171.5 20q73 0 129.5 -10t81.5 -18l-18 -101q-38 11 -84 19t-95 8q-65 0 -112.5 -12t-79 -40.5t-47 -76t-15.5 -117.5q0 -65 13 -111.5t41 -76.5t71.5 -44t104.5 -14q29 0 58.5 3t56.5 8v175
h-156v93h279v-354q-60 -13 -123 -20t-131 -7zM363 735q-39 0 -56 16.5t-17 54.5t17 54.5t56 16.5t56 -16.5t17 -54.5t-17 -54.5t-56 -16.5z" />
    <glyph glyph-name="gdotaccent" unicode="&#x121;" horiz-adv-x="584" 
d="M274 -220q-29 0 -55.5 2t-40.5 4v98q20 -3 43 -4.5t43 -1.5q72 0 103.5 26t31.5 81v52q-49 -49 -148 -49q-57 0 -98 14.5t-67 45.5t-38.5 80t-12.5 117q0 136 51 196.5t165 60.5q113 0 168 -59l10 47h97v-487q0 -63 -16.5 -105.5t-48.5 -68.5t-79 -37.5t-108 -11.5z
M284 88q61 0 87.5 28t26.5 93v158q-17 12 -43.5 23.5t-70.5 11.5q-64 0 -91.5 -36.5t-27.5 -120.5t27.5 -120.5t91.5 -36.5zM291 559q-39 0 -56 16.5t-17 54.5t17 54.5t56 16.5t56 -16.5t17 -54.5t-17 -54.5t-56 -16.5z" />
    <glyph glyph-name="uni0122" unicode="&#x122;" horiz-adv-x="687" 
d="M383 -12q-91 0 -156 20t-107 62t-61.5 108t-19.5 158t20 158t64 108t114.5 62t171.5 20q73 0 129.5 -10t81.5 -18l-18 -101q-38 11 -84 19t-95 8q-65 0 -112.5 -12t-79 -40.5t-47 -76t-15.5 -117.5q0 -65 13 -111.5t41 -76.5t71.5 -44t104.5 -14q29 0 58.5 3t56.5 8v175
h-156v93h279v-354q-60 -13 -123 -20t-131 -7zM279 -256l50 196h109l-71 -196h-88z" />
    <glyph glyph-name="uni0123" unicode="&#x123;" horiz-adv-x="584" 
d="M274 -220q-29 0 -55.5 2t-40.5 4v98q20 -3 43 -4.5t43 -1.5q72 0 103.5 26t31.5 81v52q-49 -49 -148 -49q-57 0 -98 14.5t-67 45.5t-38.5 80t-12.5 117q0 136 51 196.5t165 60.5q113 0 168 -59l10 47h97v-487q0 -63 -16.5 -105.5t-48.5 -68.5t-79 -37.5t-108 -11.5z
M284 88q61 0 87.5 28t26.5 93v158q-17 12 -43.5 23.5t-70.5 11.5q-64 0 -91.5 -36.5t-27.5 -120.5t27.5 -120.5t91.5 -36.5zM216 550l71 196h88l-50 -196h-109z" />
    <glyph glyph-name="Hcircumflex" unicode="&#x124;" horiz-adv-x="768" 
d="M85 0v578q0 11 -2.5 14.5t-12.5 7.5l-36 14l11 58h164q9 0 9 -10v-269h348v279h133v-672h-133v291h-348v-291h-133zM199 738l123 148h124l123 -148h-109l-76 81l-76 -81h-109z" />
    <glyph glyph-name="hcircumflex" unicode="&#x125;" horiz-adv-x="595" 
d="M64 0v609q0 11 -2 14.5t-12 7.5l-35 14l12 59h156q9 0 9 -10v-240q57 48 148 48q97 0 145.5 -46.5t48.5 -153.5v-207q0 -11 2 -14.5t12 -7.5l35 -14l-12 -59h-156q-9 0 -9 10v287q0 55 -22.5 79t-75.5 24q-38 0 -70.5 -10t-45.5 -18v-372h-128zM-57 742l123 138h125
l123 -138h-109l-77 76l-76 -76h-109z" />
    <glyph glyph-name="Hbar" unicode="&#x126;" horiz-adv-x="771" 
d="M78 0v503h-57v88h57v81h133v-81h348v81h133v-81h58v-88h-58v-503h-133v286h-348v-286h-133zM211 388h348v115h-348v-115z" />
    <glyph glyph-name="hbar" unicode="&#x127;" horiz-adv-x="595" 
d="M64 0v551h-54v88h54v65h128v-65h167v-88h-167v-98q49 49 142 49q107 0 153.5 -46.5t46.5 -153.5v-207q0 -11 2 -14.5t12 -7.5l35 -14l-12 -59h-156q-9 0 -9 10v287q0 55 -22.5 79t-75.5 24q-38 0 -70.5 -10t-45.5 -18v-372h-128z" />
    <glyph glyph-name="Itilde" unicode="&#x128;" horiz-adv-x="287" 
d="M85 0v578q0 11 -2.5 14.5t-12.5 7.5l-36 14l11 58h164q9 0 9 -10v-662h-133zM-25 743v14q0 63 24 90.5t80 27.5q21 0 37 -6.5t29 -14t24.5 -14t22.5 -6.5q17 0 24 9t7 32v5h90v-13q0 -63 -24 -90.5t-80 -27.5q-21 0 -37 6.5t-29 14t-24.5 14t-22.5 6.5q-17 0 -24 -9
t-7 -32v-6h-90z" />
    <glyph glyph-name="itilde" unicode="&#x129;" horiz-adv-x="261" 
d="M72 0v395q0 11 -2 14.5t-12 7.5l-35 14l12 59h156q9 0 9 -10v-480h-128zM-38 561v14q0 63 24 90.5t80 27.5q21 0 37 -6.5t29 -14t24.5 -14t22.5 -6.5q17 0 24 9t7 32v5h90v-13q0 -63 -24 -90.5t-80 -27.5q-21 0 -37 6.5t-29 14t-24.5 14t-22.5 6.5q-17 0 -24 -9t-7 -32
v-6h-90z" />
    <glyph glyph-name="Imacron" unicode="&#x12a;" horiz-adv-x="287" 
d="M85 0v578q0 11 -2.5 14.5t-12.5 7.5l-36 14l11 58h164q9 0 9 -10v-662h-133zM-9 762v87h322v-87h-322z" />
    <glyph glyph-name="imacron" unicode="&#x12b;" horiz-adv-x="261" 
d="M72 0v395q0 11 -2 14.5t-12 7.5l-35 14l12 59h156q9 0 9 -10v-480h-128zM-25 586v87h322v-87h-322z" />
    <glyph glyph-name="Ibreve" unicode="&#x12c;" horiz-adv-x="287" 
d="M85 0v578q0 11 -2.5 14.5t-12.5 7.5l-36 14l11 58h164q9 0 9 -10v-662h-133zM144 727q-88 0 -128 37t-40 122h90q0 -39 18 -56.5t60 -17.5t60 17.5t18 56.5h90q0 -85 -40 -122t-128 -37z" />
    <glyph glyph-name="ibreve" unicode="&#x12d;" horiz-adv-x="261" 
d="M72 0v395q0 11 -2 14.5t-12 7.5l-35 14l12 59h156q9 0 9 -10v-480h-128zM131 545q-88 0 -128 37t-40 122h90q0 -39 18 -56.5t60 -17.5t60 17.5t18 56.5h90q0 -85 -40 -122t-128 -37z" />
    <glyph glyph-name="Iogonek" unicode="&#x12e;" horiz-adv-x="287" 
d="M153 -237q-66 0 -95 22.5t-29 72.5q0 34 21 67.5t67 74.5h-32v578q0 11 -2.5 14.5t-12.5 7.5l-36 14l11 58h164q9 0 9 -10v-662q-50 -45 -69.5 -72t-19.5 -48t12.5 -31t41.5 -10q10 0 19 1t16 2v-73q-14 -2 -30.5 -4t-34.5 -2z" />
    <glyph glyph-name="iogonek" unicode="&#x12f;" horiz-adv-x="261" 
d="M135 -237q-66 0 -95 22.5t-29 72.5q0 34 21 67.5t67 74.5h-27v395q0 11 -2 14.5t-12 7.5l-35 14l12 59h156q9 0 9 -10v-480q-50 -45 -69.5 -72t-19.5 -48t12.5 -31t41.5 -10q10 0 19 1t16 2v-73q-14 -2 -30.5 -4t-34.5 -2zM136 556q-40 0 -58 17.5t-18 56.5q0 38 18 55.5
t58 17.5q41 0 58.5 -17.5t17.5 -55.5q0 -39 -17.5 -56.5t-58.5 -17.5z" />
    <glyph glyph-name="Idotaccent" unicode="&#x130;" horiz-adv-x="287" 
d="M85 0v578q0 11 -2.5 14.5t-12.5 7.5l-36 14l11 58h164q9 0 9 -10v-662h-133zM152 735q-39 0 -56 16.5t-17 54.5t17 54.5t56 16.5t56 -16.5t17 -54.5t-17 -54.5t-56 -16.5z" />
    <glyph glyph-name="dotlessi" unicode="&#x131;" horiz-adv-x="261" 
d="M72 0v395q0 11 -2 14.5t-12 7.5l-35 14l12 59h156q9 0 9 -10v-480h-128z" />
    <glyph glyph-name="IJ" unicode="&#x132;" horiz-adv-x="744" 
d="M85 0v578q0 11 -2.5 14.5t-12.5 7.5l-36 14l11 58h164q9 0 9 -10v-662h-133zM438 -12q-32 0 -63.5 3.5t-60.5 9.5v105q52 -13 104 -13q66 0 95 29t29 97v453h133v-458q0 -118 -56.5 -172t-180.5 -54z" />
    <glyph glyph-name="ij" unicode="&#x133;" horiz-adv-x="522" 
d="M72 0v395q0 11 -2 14.5t-12 7.5l-35 14l12 59h156q9 0 9 -10v-480h-128zM136 556q-40 0 -58 17.5t-18 56.5q0 38 18 55.5t58 17.5q41 0 58.5 -17.5t17.5 -55.5q0 -39 -17.5 -56.5t-58.5 -17.5zM276 -217q-27 0 -51 3v95q8 -1 15.5 -1h14.5q49 0 63.5 23t14.5 69v423
q0 11 -2 14.5t-12 7.5l-35 14l12 59h156q9 0 9 -10v-511q0 -46 -9.5 -81t-31.5 -58t-57 -35t-87 -12zM397 556q-40 0 -58 17.5t-18 56.5q0 38 18 55.5t58 17.5q41 0 58.5 -17.5t17.5 -55.5q0 -39 -17.5 -56.5t-58.5 -17.5z" />
    <glyph glyph-name="Jcircumflex" unicode="&#x134;" horiz-adv-x="457" 
d="M151 -12q-32 0 -63.5 3.5t-60.5 9.5v105q52 -13 104 -13q66 0 95 29t29 97v453h133v-458q0 -118 -56.5 -172t-180.5 -54zM44 738l123 148h124l123 -148h-109l-76 81l-76 -81h-109z" />
    <glyph glyph-name="jcircumflex" unicode="&#x135;" horiz-adv-x="261" 
d="M15 -217q-27 0 -51 3v95q8 -1 15.5 -1h14.5q49 0 63.5 23t14.5 69v423q0 11 -2 14.5t-12 7.5l-35 14l12 59h156q9 0 9 -10v-511q0 -46 -9.5 -81t-31.5 -58t-57 -35t-87 -12zM-49 556l123 148h124l123 -148h-109l-76 81l-76 -81h-109z" />
    <glyph glyph-name="uni0136" unicode="&#x136;" horiz-adv-x="644" 
d="M85 0v578q0 11 -2.5 14.5t-12.5 7.5l-36 14l11 58h164q9 0 9 -10v-278l262 288h151l-278 -309l286 -363h-150l-217 281l-54 -58v-223h-133zM241 -256l50 196h109l-71 -196h-88z" />
    <glyph glyph-name="uni0137" unicode="&#x137;" horiz-adv-x="514" 
d="M64 0v609q0 11 -2 14.5t-12 7.5l-35 14l12 59h156q9 0 9 -10v-394l165 190h146l-187 -210l200 -280h-147l-134 199l-43 -46v-153h-128zM171 -256l50 196h109l-71 -196h-88z" />
    <glyph glyph-name="kgreenlandic" unicode="&#x138;" horiz-adv-x="513" 
d="M67 0v395q0 11 -2 14.5t-12 7.5l-35 14l12 59h156q9 0 9 -10v-176l165 186h146l-187 -210l196 -280h-149l-128 199l-43 -46v-153h-128z" />
    <glyph glyph-name="Lacute" unicode="&#x139;" horiz-adv-x="544" 
d="M85 0v578q0 11 -2.5 14.5t-12.5 7.5l-36 14l11 58h164q9 0 9 -10v-560h307v-102h-440zM209 738l93 148h133l-114 -148h-112z" />
    <glyph glyph-name="lacute" unicode="&#x13a;" horiz-adv-x="261" 
d="M230 0h-156q-9 0 -9 10v599q0 11 -2 14.5t-12 7.5l-35 14l12 59h156q9 0 9 -10v-599q0 -11 2 -14.5t12 -7.5l35 -14zM55 742l122 138h133l-144 -138h-111z" />
    <glyph glyph-name="uni013B" unicode="&#x13b;" horiz-adv-x="544" 
d="M85 0v578q0 11 -2.5 14.5t-12.5 7.5l-36 14l11 58h164q9 0 9 -10v-560h307v-102h-440zM226 -256l50 196h109l-71 -196h-88z" />
    <glyph glyph-name="uni013C" unicode="&#x13c;" horiz-adv-x="261" 
d="M230 0h-156q-9 0 -9 10v599q0 11 -2 14.5t-12 7.5l-35 14l12 59h156q9 0 9 -10v-599q0 -11 2 -14.5t12 -7.5l35 -14zM45 -256l50 196h109l-71 -196h-88z" />
    <glyph glyph-name="Lcaron" unicode="&#x13d;" horiz-adv-x="544" 
d="M85 0v578q0 11 -2.5 14.5t-12.5 7.5l-36 14l11 58h164q9 0 9 -10v-560h307v-102h-440zM271 518l50 196h109l-71 -196h-88z" />
    <glyph glyph-name="lcaron" unicode="&#x13e;" horiz-adv-x="400" 
d="M230 0h-156q-9 0 -9 10v599q0 11 -2 14.5t-12 7.5l-35 14l12 59h156q9 0 9 -10v-599q0 -11 2 -14.5t12 -7.5l35 -14zM235 550l50 196h109l-71 -196h-88z" />
    <glyph glyph-name="Ldot" unicode="&#x13f;" horiz-adv-x="544" 
d="M85 0v578q0 11 -2.5 14.5t-12.5 7.5l-36 14l11 58h164q9 0 9 -10v-560h307v-102h-440zM409 288q-39 0 -56 16.5t-17 54.5t17 54.5t56 16.5t56 -16.5t17 -54.5t-17 -54.5t-56 -16.5z" />
    <glyph glyph-name="ldot" unicode="&#x140;" horiz-adv-x="369" 
d="M230 0h-156q-9 0 -9 10v599q0 11 -2 14.5t-12 7.5l-35 14l12 59h156q9 0 9 -10v-599q0 -11 2 -14.5t12 -7.5l35 -14zM308 292q-36 0 -52 15.5t-16 50.5t16 50.5t52 15.5q37 0 53 -15.5t16 -50.5t-16 -50.5t-53 -15.5z" />
    <glyph glyph-name="Lslash" unicode="&#x141;" horiz-adv-x="543" 
d="M84 0v258l-65 -32v98l65 33v221q0 11 -3 14.5t-12 7.5l-36 14l11 58h164q9 0 9 -10v-239l147 73v-98l-147 -73v-223h307v-102h-440z" />
    <glyph glyph-name="lslash" unicode="&#x142;" horiz-adv-x="327" 
d="M264 0h-156q-9 0 -9 10v267l-86 -43v98l86 43v234q0 11 -2 14.5t-12 7.5l-35 14l12 59h156q9 0 9 -10v-255l87 43v-98l-87 -43v-246q0 -11 2 -14.5t12 -7.5l35 -14z" />
    <glyph glyph-name="Nacute" unicode="&#x143;" horiz-adv-x="768" 
d="M85 0v578q0 11 -2.5 14.5t-12.5 7.5l-36 14l11 58h150q15 0 19.5 -3.5t16.5 -19.5l345 -467v490h123v-672h-129l-362 490v-490h-123zM321 738l93 148h133l-114 -148h-112z" />
    <glyph glyph-name="nacute" unicode="&#x144;" horiz-adv-x="598" 
d="M67 0v395q0 11 -2 14.5t-12 7.5l-35 14l12 59h151q9 0 9 -10v-29q33 27 70 39t83 12q97 0 145.5 -46.5t48.5 -153.5v-207q0 -11 2 -14.5t12 -7.5l35 -14l-12 -59h-156q-9 0 -9 10v287q0 55 -22.5 79t-75.5 24q-38 0 -70.5 -10t-45.5 -18v-372h-128zM236 556l93 148h133
l-114 -148h-112z" />
    <glyph glyph-name="uni0145" unicode="&#x145;" horiz-adv-x="768" 
d="M85 0v578q0 11 -2.5 14.5t-12.5 7.5l-36 14l11 58h150q15 0 19.5 -3.5t16.5 -19.5l345 -467v490h123v-672h-129l-362 490v-490h-123zM308 -256l50 196h109l-71 -196h-88z" />
    <glyph glyph-name="uni0146" unicode="&#x146;" horiz-adv-x="598" 
d="M67 0v395q0 11 -2 14.5t-12 7.5l-35 14l12 59h151q9 0 9 -10v-29q33 27 70 39t83 12q97 0 145.5 -46.5t48.5 -153.5v-207q0 -11 2 -14.5t12 -7.5l35 -14l-12 -59h-156q-9 0 -9 10v287q0 55 -22.5 79t-75.5 24q-38 0 -70.5 -10t-45.5 -18v-372h-128zM217 -256l50 196h109
l-71 -196h-88z" />
    <glyph glyph-name="Ncaron" unicode="&#x147;" horiz-adv-x="768" 
d="M85 0v578q0 11 -2.5 14.5t-12.5 7.5l-36 14l11 58h150q15 0 19.5 -3.5t16.5 -19.5l345 -467v490h123v-672h-129l-362 490v-490h-123zM330 732l-123 148h109l76 -81l76 81h109l-123 -148h-124z" />
    <glyph glyph-name="ncaron" unicode="&#x148;" horiz-adv-x="598" 
d="M67 0v395q0 11 -2 14.5t-12 7.5l-35 14l12 59h151q9 0 9 -10v-29q33 27 70 39t83 12q97 0 145.5 -46.5t48.5 -153.5v-207q0 -11 2 -14.5t12 -7.5l35 -14l-12 -59h-156q-9 0 -9 10v287q0 55 -22.5 79t-75.5 24q-38 0 -70.5 -10t-45.5 -18v-372h-128zM239 556l-123 148h109
l76 -81l76 81h109l-123 -148h-124z" />
    <glyph glyph-name="napostrophe" unicode="&#x149;" horiz-adv-x="598" 
d="M67 0v395q0 11 -2 14.5t-12 7.5l-35 14l12 59h151q9 0 9 -10v-29q33 27 70 39t83 12q97 0 145.5 -46.5t48.5 -153.5v-207q0 -11 2 -14.5t12 -7.5l35 -14l-12 -59h-156q-9 0 -9 10v287q0 55 -22.5 79t-75.5 24q-38 0 -70.5 -10t-45.5 -18v-372h-128zM20 476l50 196h109
l-71 -196h-88z" />
    <glyph glyph-name="Eng" unicode="&#x14a;" horiz-adv-x="768" 
d="M462 -220q-33 0 -64 3.5t-60 9.5v105q52 -13 104 -13q67 0 98 24.5t31 75.5v14l-363 491v-490h-123v578q0 11 -2.5 14.5t-12.5 7.5l-36 14l11 58h150q15 0 19.5 -3.5t16.5 -19.5l345 -467v490h123v-666q0 -118 -56.5 -172t-180.5 -54z" />
    <glyph glyph-name="eng" unicode="&#x14b;" horiz-adv-x="598" 
d="M348 -220q-50 0 -92 9v100q34 -9 72 -9q44 0 62.5 19t18.5 64v334q0 55 -22.5 79t-75.5 24q-38 0 -70.5 -10t-45.5 -18v-372h-128v395q0 11 -2 14.5t-12 7.5l-35 14l12 59h151q9 0 9 -10v-29q33 27 69 39t84 12q97 0 145.5 -46.5t48.5 -153.5v-344q0 -95 -44 -136.5
t-145 -41.5z" />
    <glyph glyph-name="Omacron" unicode="&#x14c;" horiz-adv-x="751" 
d="M375 -12q-89 0 -153 20t-104.5 62t-59.5 108t-19 158t19 158t59.5 108t104.5 62t153 20t153 -20t105 -62t60 -108t19 -158t-19 -158t-60 -108t-105 -62t-153 -20zM375 93q107 0 154 57t47 186t-47 186t-154 57q-53 0 -91 -14t-62.5 -43t-36 -75.5t-11.5 -110.5
q0 -65 11.5 -111t36 -75t62.5 -43t91 -14zM214 762v87h322v-87h-322z" />
    <glyph glyph-name="omacron" unicode="&#x14d;" horiz-adv-x="579" 
d="M289 -12q-68 0 -116.5 14.5t-79.5 46t-45.5 80t-14.5 116.5t14.5 117t45.5 80t79.5 45.5t116.5 14.5t116.5 -14.5t80 -45.5t46 -80t14.5 -117q0 -136 -60.5 -196.5t-196.5 -60.5zM289 88q68 0 97.5 36.5t29.5 120.5t-29.5 120.5t-97.5 36.5q-67 0 -96.5 -36.5
t-29.5 -120.5t29.5 -120.5t96.5 -36.5zM127 586v87h322v-87h-322z" />
    <glyph glyph-name="Obreve" unicode="&#x14e;" horiz-adv-x="751" 
d="M375 -12q-89 0 -153 20t-104.5 62t-59.5 108t-19 158t19 158t59.5 108t104.5 62t153 20t153 -20t105 -62t60 -108t19 -158t-19 -158t-60 -108t-105 -62t-153 -20zM375 93q107 0 154 57t47 186t-47 186t-154 57q-53 0 -91 -14t-62.5 -43t-36 -75.5t-11.5 -110.5
q0 -65 11.5 -111t36 -75t62.5 -43t91 -14zM376 727q-88 0 -128 37t-40 122h90q0 -39 18 -56.5t60 -17.5t60 17.5t18 56.5h90q0 -85 -40 -122t-128 -37z" />
    <glyph glyph-name="obreve" unicode="&#x14f;" horiz-adv-x="579" 
d="M289 -12q-68 0 -116.5 14.5t-79.5 46t-45.5 80t-14.5 116.5t14.5 117t45.5 80t79.5 45.5t116.5 14.5t116.5 -14.5t80 -45.5t46 -80t14.5 -117q0 -136 -60.5 -196.5t-196.5 -60.5zM289 88q68 0 97.5 36.5t29.5 120.5t-29.5 120.5t-97.5 36.5q-67 0 -96.5 -36.5
t-29.5 -120.5t29.5 -120.5t96.5 -36.5zM290 545q-88 0 -128 37t-40 122h90q0 -39 18 -56.5t60 -17.5t60 17.5t18 56.5h90q0 -85 -40 -122t-128 -37z" />
    <glyph glyph-name="Ohungarumlaut" unicode="&#x150;" horiz-adv-x="751" 
d="M375 -12q-89 0 -153 20t-104.5 62t-59.5 108t-19 158t19 158t59.5 108t104.5 62t153 20t153 -20t105 -62t60 -108t19 -158t-19 -158t-60 -108t-105 -62t-153 -20zM375 93q107 0 154 57t47 186t-47 186t-154 57q-53 0 -91 -14t-62.5 -43t-36 -75.5t-11.5 -110.5
q0 -65 11.5 -111t36 -75t62.5 -43t91 -14zM192 732l122 148h134l-141 -148h-115zM408 732l123 148h133l-141 -148h-115z" />
    <glyph glyph-name="ohungarumlaut" unicode="&#x151;" horiz-adv-x="579" 
d="M289 -12q-68 0 -116.5 14.5t-79.5 46t-45.5 80t-14.5 116.5t14.5 117t45.5 80t79.5 45.5t116.5 14.5t116.5 -14.5t80 -45.5t46 -80t14.5 -117q0 -136 -60.5 -196.5t-196.5 -60.5zM289 88q68 0 97.5 36.5t29.5 120.5t-29.5 120.5t-97.5 36.5q-67 0 -96.5 -36.5
t-29.5 -120.5t29.5 -120.5t96.5 -36.5zM105 556l122 148h134l-141 -148h-115zM321 556l123 148h133l-141 -148h-115z" />
    <glyph glyph-name="OE" unicode="&#x152;" horiz-adv-x="1026" 
d="M991 0h-598q-94 0 -161 19t-110 60t-63 104.5t-20 152.5t20 152.5t63 104.5t110 60t161 19h590v-100h-344v-181h272v-98h-272v-193h352v-100zM403 102h103v468h-103q-61 0 -104.5 -13.5t-71 -42t-40.5 -72.5t-13 -106t13 -106t40.5 -72.5t71 -42t104.5 -13.5z" />
    <glyph glyph-name="oe" unicode="&#x153;" horiz-adv-x="923" 
d="M289 -12q-68 0 -116.5 14.5t-79.5 46t-45.5 80t-14.5 116.5t14.5 117t45.5 80t79.5 45.5t116.5 14.5q140 0 192 -81q25 42 70 61.5t112 19.5q120 0 173 -58.5t53 -190.5v-23.5t-2 -21.5h-343q4 -66 41 -94.5t119 -28.5q81 0 164 24v-98q-39 -12 -82.5 -17.5t-91.5 -5.5
q-78 0 -130 20t-81 64q-47 -84 -194 -84zM289 88q68 0 97.5 36.5t29.5 120.5t-29.5 120.5t-97.5 36.5q-67 0 -96.5 -36.5t-29.5 -120.5t29.5 -120.5t96.5 -36.5zM544 290h223q-2 66 -26 94t-78 28q-60 0 -88.5 -29t-30.5 -93z" />
    <glyph glyph-name="Racute" unicode="&#x154;" horiz-adv-x="672" 
d="M85 0v578q0 11 -2.5 14.5t-12.5 7.5l-36 14l11 58h336q130 0 187 -49.5t57 -159.5q0 -87 -35.5 -134t-110.5 -61l164 -268h-147l-149 253h-129v-253h-133zM218 353h148q69 0 98.5 25t29.5 85q0 59 -29.5 84t-98.5 25h-148v-219zM273 738l93 148h133l-114 -148h-112z" />
    <glyph glyph-name="racute" unicode="&#x155;" horiz-adv-x="396" 
d="M67 0v395q0 11 -2 14.5t-12 7.5l-35 14l12 59h151q9 0 9 -10v-54q26 37 61 56.5t86 19.5q17 0 30.5 -1t22.5 -3l-22 -103q-7 2 -20.5 3.5t-27.5 1.5q-32 0 -66 -12t-59 -36v-352h-128zM135 556l93 148h133l-114 -148h-112z" />
    <glyph glyph-name="uni0156" unicode="&#x156;" horiz-adv-x="672" 
d="M85 0v578q0 11 -2.5 14.5t-12.5 7.5l-36 14l11 58h336q130 0 187 -49.5t57 -159.5q0 -87 -35.5 -134t-110.5 -61l164 -268h-147l-149 253h-129v-253h-133zM218 353h148q69 0 98.5 25t29.5 85q0 59 -29.5 84t-98.5 25h-148v-219zM260 -256l50 196h109l-71 -196h-88z" />
    <glyph glyph-name="uni0157" unicode="&#x157;" horiz-adv-x="396" 
d="M67 0v395q0 11 -2 14.5t-12 7.5l-35 14l12 59h151q9 0 9 -10v-54q26 37 61 56.5t86 19.5q17 0 30.5 -1t22.5 -3l-22 -103q-7 2 -20.5 3.5t-27.5 1.5q-32 0 -66 -12t-59 -36v-352h-128zM26 -256l50 196h109l-71 -196h-88z" />
    <glyph glyph-name="Rcaron" unicode="&#x158;" horiz-adv-x="672" 
d="M85 0v578q0 11 -2.5 14.5t-12.5 7.5l-36 14l11 58h336q130 0 187 -49.5t57 -159.5q0 -87 -35.5 -134t-110.5 -61l164 -268h-147l-149 253h-129v-253h-133zM218 353h148q69 0 98.5 25t29.5 85q0 59 -29.5 84t-98.5 25h-148v-219zM282 732l-123 148h109l76 -81l76 81h109
l-123 -148h-124z" />
    <glyph glyph-name="rcaron" unicode="&#x159;" horiz-adv-x="396" 
d="M67 0v395q0 11 -2 14.5t-12 7.5l-35 14l12 59h151q9 0 9 -10v-54q26 37 61 56.5t86 19.5q17 0 30.5 -1t22.5 -3l-22 -103q-7 2 -20.5 3.5t-27.5 1.5q-32 0 -66 -12t-59 -36v-352h-128zM157 556l-123 148h109l76 -81l76 81h109l-123 -148h-124z" />
    <glyph glyph-name="Sacute" unicode="&#x15a;" horiz-adv-x="589" 
d="M293 -12q-124 0 -238 33v105q112 -36 228 -36q77 0 112.5 22.5t35.5 74.5q0 37 -28.5 56t-71.5 30.5t-92.5 22t-92.5 31.5t-71.5 58t-28.5 102q0 106 70.5 151.5t211.5 45.5q55 0 110.5 -9t94.5 -23l-19 -100v0q-41 14 -92.5 22t-102.5 8q-74 0 -108.5 -21t-34.5 -72
q0 -35 28.5 -52.5t71.5 -29t92.5 -22.5t92.5 -32.5t71.5 -60t28.5 -103.5q0 -105 -66 -153t-202 -48zM232 738l93 148h133l-114 -148h-112z" />
    <glyph glyph-name="sacute" unicode="&#x15b;" horiz-adv-x="467" 
d="M227 -12q-100 0 -182 24v99q42 -13 85 -20t87 -7q97 0 97 57q0 24 -20.5 35t-51.5 17.5t-67 12.5t-67 21t-51.5 43.5t-20.5 79.5q0 41 16 70t44 47t66.5 26.5t83.5 8.5q47 0 93.5 -6.5t80.5 -17.5l-19 -95q-35 11 -71.5 17t-74.5 6q-50 0 -72 -13.5t-22 -39.5
q0 -23 20.5 -33.5t51.5 -16.5t67 -12.5t67 -22t51.5 -44.5t20.5 -80q0 -81 -51.5 -118.5t-160.5 -37.5zM171 556l93 148h133l-114 -148h-112z" />
    <glyph glyph-name="Scircumflex" unicode="&#x15c;" horiz-adv-x="589" 
d="M293 -12q-124 0 -238 33v105q112 -36 228 -36q77 0 112.5 22.5t35.5 74.5q0 37 -28.5 56t-71.5 30.5t-92.5 22t-92.5 31.5t-71.5 58t-28.5 102q0 106 70.5 151.5t211.5 45.5q55 0 110.5 -9t94.5 -23l-19 -100v0q-41 14 -92.5 22t-102.5 8q-74 0 -108.5 -21t-34.5 -72
q0 -35 28.5 -52.5t71.5 -29t92.5 -22.5t92.5 -32.5t71.5 -60t28.5 -103.5q0 -105 -66 -153t-202 -48zM110 738l123 148h124l123 -148h-109l-76 81l-76 -81h-109z" />
    <glyph glyph-name="scircumflex" unicode="&#x15d;" horiz-adv-x="467" 
d="M227 -12q-100 0 -182 24v99q42 -13 85 -20t87 -7q97 0 97 57q0 24 -20.5 35t-51.5 17.5t-67 12.5t-67 21t-51.5 43.5t-20.5 79.5q0 41 16 70t44 47t66.5 26.5t83.5 8.5q47 0 93.5 -6.5t80.5 -17.5l-19 -95q-35 11 -71.5 17t-74.5 6q-50 0 -72 -13.5t-22 -39.5
q0 -23 20.5 -33.5t51.5 -16.5t67 -12.5t67 -22t51.5 -44.5t20.5 -80q0 -81 -51.5 -118.5t-160.5 -37.5zM49 556l123 148h124l123 -148h-109l-76 81l-76 -81h-109z" />
    <glyph glyph-name="Scedilla" unicode="&#x15e;" horiz-adv-x="589" 
d="M268 -237q-47 0 -87 12v69q36 -11 69 -11q31 0 44.5 8t13.5 27q0 20 -12.5 28t-42.5 8h-8v85q-50 3 -97 10.5t-93 21.5v105q112 -36 228 -36q77 0 113 22.5t36 74.5q0 38 -28.5 57t-71.5 31t-93 22.5t-93 31t-71.5 57.5t-28.5 101q0 106 70.5 151.5t211.5 45.5
q55 0 110.5 -9t94.5 -23l-19 -100q-41 14 -92.5 22t-102.5 8q-74 0 -109 -21t-35 -72q0 -35 28.5 -53t71.5 -29.5t93 -22.5t93 -32.5t71.5 -59.5t28.5 -103q0 -97 -56.5 -145t-171.5 -55v-33q75 -11 75 -90q0 -54 -33 -78.5t-107 -24.5z" />
    <glyph glyph-name="scedilla" unicode="&#x15f;" horiz-adv-x="467" 
d="M209 -237q-47 0 -87 12v69q36 -11 69 -11q31 0 44.5 8t13.5 27q0 20 -12.5 28t-42.5 8h-8v85q-74 4 -141 23v99q42 -13 85 -20t87 -7q97 0 97 57q0 24 -20.5 35t-51.5 17.5t-67 12.5t-67 21t-51.5 43.5t-20.5 79.5q0 41 16 70t44 47t66.5 26.5t83.5 8.5q47 0 93.5 -6.5
t80.5 -17.5l-19 -95q-35 11 -71.5 17t-74.5 6q-50 0 -72 -13.5t-22 -39.5q0 -23 20.5 -33.5t51.5 -16.5t67 -12.5t67 -22t51.5 -44.5t20.5 -80q0 -72 -40 -109t-125 -45v-34q75 -11 75 -90q0 -54 -33 -78.5t-107 -24.5z" />
    <glyph glyph-name="Scaron" unicode="&#x160;" horiz-adv-x="589" 
d="M293 -12q-124 0 -238 33v105q112 -36 228 -36q77 0 112.5 22.5t35.5 74.5q0 37 -28.5 56t-71.5 30.5t-92.5 22t-92.5 31.5t-71.5 58t-28.5 102q0 106 70.5 151.5t211.5 45.5q55 0 110.5 -9t94.5 -23l-19 -100v0q-41 14 -92.5 22t-102.5 8q-74 0 -108.5 -21t-34.5 -72
q0 -35 28.5 -52.5t71.5 -29t92.5 -22.5t92.5 -32.5t71.5 -60t28.5 -103.5q0 -105 -66 -153t-202 -48zM239 732l-123 148h109l76 -81l76 81h109l-123 -148h-124z" />
    <glyph glyph-name="scaron" unicode="&#x161;" horiz-adv-x="467" 
d="M227 -12q-100 0 -182 24v99q42 -13 85 -20t87 -7q97 0 97 57q0 24 -20.5 35t-51.5 17.5t-67 12.5t-67 21t-51.5 43.5t-20.5 79.5q0 41 16 70t44 47t66.5 26.5t83.5 8.5q47 0 93.5 -6.5t80.5 -17.5l-19 -95q-35 11 -71.5 17t-74.5 6q-50 0 -72 -13.5t-22 -39.5
q0 -23 20.5 -33.5t51.5 -16.5t67 -12.5t67 -22t51.5 -44.5t20.5 -80q0 -81 -51.5 -118.5t-160.5 -37.5zM173 556l-123 148h109l76 -81l76 81h109l-123 -148h-124z" />
    <glyph glyph-name="uni0162" unicode="&#x162;" horiz-adv-x="607" 
d="M237 0v570h-218v102h569v-102h-218v-570h-133zM219 -256l50 196h109l-71 -196h-88z" />
    <glyph glyph-name="uni0163" unicode="&#x163;" horiz-adv-x="389" 
d="M267 -12q-101 0 -145 41.5t-44 136.5v208q0 15 -1.5 19t-11.5 6l-62 17l12 74h63v141h127v-141h154v-97h-154v-222q0 -45 19 -64t63 -19q37 0 72 9v-100q-44 -9 -92 -9zM135 -256l50 196h109l-71 -196h-88z" />
    <glyph glyph-name="Tcaron" unicode="&#x164;" horiz-adv-x="607" 
d="M237 0v570h-218v102h569v-102h-218v-570h-133zM241 732l-123 148h109l76 -81l76 81h109l-123 -148h-124z" />
    <glyph glyph-name="tcaron" unicode="&#x165;" horiz-adv-x="389" 
d="M267 -12q-101 0 -145 41.5t-44 136.5v208q0 15 -1.5 19t-11.5 6l-62 17l12 74h63v141h127v-141h154v-97h-154v-222q0 -45 19 -64t63 -19q37 0 72 9v-100q-44 -9 -92 -9zM247 550l50 196h109l-71 -196h-88z" />
    <glyph glyph-name="Tbar" unicode="&#x166;" horiz-adv-x="607" 
d="M237 0v267h-140v93h140v210h-218v102h569v-102h-218v-210h140v-93h-140v-267h-133z" />
    <glyph glyph-name="tbar" unicode="&#x167;" horiz-adv-x="409" 
d="M287 -12q-101 0 -145 41t-44 134v42h-84v83h84v86q0 15 -1.5 19t-11.5 6l-62 17l12 74h63v133l127 22v-155h154v-92h-154v-110h138v-83h-138v-42q0 -42 19 -61t63 -19q19 0 37 2.5t35 6.5v-94q-41 -10 -92 -10z" />
    <glyph glyph-name="Utilde" unicode="&#x168;" horiz-adv-x="770" 
d="M394 -12q-81 0 -139.5 15.5t-95.5 49t-54.5 85.5t-17.5 125v315q0 11 -2.5 14.5t-12.5 7.5l-36 14l11 58h164q9 0 9 -10v-389q0 -96 41 -138t133 -42q93 0 133.5 42t40.5 138v399h133v-409q0 -73 -17.5 -125t-54.5 -85.5t-95.5 -49t-139.5 -15.5zM216 743v14
q0 63 24 90.5t80 27.5q21 0 37 -6.5t29 -14t24.5 -14t22.5 -6.5q17 0 24 9t7 32v5h90v-13q0 -63 -24 -90.5t-80 -27.5q-21 0 -37 6.5t-29 14t-24.5 14t-22.5 6.5q-17 0 -24 -9t-7 -32v-6h-90z" />
    <glyph glyph-name="utilde" unicode="&#x169;" horiz-adv-x="587" 
d="M298 -12q-62 0 -106.5 11.5t-73 36.5t-42 63t-13.5 92v204q0 11 -2 14.5t-12 7.5l-35 14l12 59h156q9 0 9 -10v-279q0 -61 25 -87t82 -26t82 26t25 87v289h128v-299q0 -107 -55 -155t-180 -48zM125 561v14q0 63 24 90.5t80 27.5q21 0 37 -6.5t29 -14t24.5 -14t22.5 -6.5
q17 0 24 9t7 32v5h90v-13q0 -63 -24 -90.5t-80 -27.5q-21 0 -37 6.5t-29 14t-24.5 14t-22.5 6.5q-17 0 -24 -9t-7 -32v-6h-90z" />
    <glyph glyph-name="Umacron" unicode="&#x16a;" horiz-adv-x="770" 
d="M394 -12q-81 0 -139.5 15.5t-95.5 49t-54.5 85.5t-17.5 125v315q0 11 -2.5 14.5t-12.5 7.5l-36 14l11 58h164q9 0 9 -10v-389q0 -96 41 -138t133 -42q93 0 133.5 42t40.5 138v399h133v-409q0 -73 -17.5 -125t-54.5 -85.5t-95.5 -49t-139.5 -15.5zM233 762v87h322v-87
h-322z" />
    <glyph glyph-name="umacron" unicode="&#x16b;" horiz-adv-x="587" 
d="M298 -12q-62 0 -106.5 11.5t-73 36.5t-42 63t-13.5 92v204q0 11 -2 14.5t-12 7.5l-35 14l12 59h156q9 0 9 -10v-279q0 -61 25 -87t82 -26t82 26t25 87v289h128v-299q0 -107 -55 -155t-180 -48zM137 586v87h322v-87h-322z" />
    <glyph glyph-name="Ubreve" unicode="&#x16c;" horiz-adv-x="770" 
d="M394 -12q-81 0 -139.5 15.5t-95.5 49t-54.5 85.5t-17.5 125v315q0 11 -2.5 14.5t-12.5 7.5l-36 14l11 58h164q9 0 9 -10v-389q0 -96 41 -138t133 -42q93 0 133.5 42t40.5 138v399h133v-409q0 -73 -17.5 -125t-54.5 -85.5t-95.5 -49t-139.5 -15.5zM385 727q-88 0 -128 37
t-40 122h90q0 -39 18 -56.5t60 -17.5t60 17.5t18 56.5h90q0 -85 -40 -122t-128 -37z" />
    <glyph glyph-name="ubreve" unicode="&#x16d;" horiz-adv-x="587" 
d="M298 -12q-62 0 -106.5 11.5t-73 36.5t-42 63t-13.5 92v204q0 11 -2 14.5t-12 7.5l-35 14l12 59h156q9 0 9 -10v-279q0 -61 25 -87t82 -26t82 26t25 87v289h128v-299q0 -107 -55 -155t-180 -48zM294 545q-88 0 -128 37t-40 122h90q0 -39 18 -56.5t60 -17.5t60 17.5
t18 56.5h90q0 -85 -40 -122t-128 -37z" />
    <glyph glyph-name="Uring" unicode="&#x16e;" horiz-adv-x="770" 
d="M394 -12q-81 0 -139.5 15.5t-95.5 49t-54.5 85.5t-17.5 125v315q0 11 -2.5 14.5t-12.5 7.5l-36 14l11 58h164q9 0 9 -10v-389q0 -96 41 -138t133 -42q93 0 133.5 42t40.5 138v399h133v-409q0 -73 -17.5 -125t-54.5 -85.5t-95.5 -49t-139.5 -15.5zM394 704q-62 0 -89.5 24
t-27.5 78t27.5 78t89.5 24t89.5 -24t27.5 -78t-27.5 -78t-89.5 -24zM394 758q25 0 36.5 11t11.5 37t-11 36.5t-37 10.5t-37 -10.5t-11 -36.5t11 -37t37 -11z" />
    <glyph glyph-name="uring" unicode="&#x16f;" horiz-adv-x="587" 
d="M298 -12q-62 0 -106.5 11.5t-73 36.5t-42 63t-13.5 92v204q0 11 -2 14.5t-12 7.5l-35 14l12 59h156q9 0 9 -10v-279q0 -61 25 -87t82 -26t82 26t25 87v289h128v-299q0 -107 -55 -155t-180 -48zM298 528q-62 0 -89.5 24t-27.5 78t27.5 78t89.5 24t89.5 -24t27.5 -78
t-27.5 -78t-89.5 -24zM298 582q25 0 36.5 11t11.5 37t-11 36.5t-37 10.5t-37 -10.5t-11 -36.5t11 -37t37 -11z" />
    <glyph glyph-name="Uhungarumlaut" unicode="&#x170;" horiz-adv-x="770" 
d="M394 -12q-81 0 -139.5 15.5t-95.5 49t-54.5 85.5t-17.5 125v315q0 11 -2.5 14.5t-12.5 7.5l-36 14l11 58h164q9 0 9 -10v-389q0 -96 41 -138t133 -42q93 0 133.5 42t40.5 138v399h133v-409q0 -73 -17.5 -125t-54.5 -85.5t-95.5 -49t-139.5 -15.5zM211 732l122 148h134
l-141 -148h-115zM427 732l123 148h133l-141 -148h-115z" />
    <glyph glyph-name="uhungarumlaut" unicode="&#x171;" horiz-adv-x="587" 
d="M298 -12q-62 0 -106.5 11.5t-73 36.5t-42 63t-13.5 92v204q0 11 -2 14.5t-12 7.5l-35 14l12 59h156q9 0 9 -10v-279q0 -61 25 -87t82 -26t82 26t25 87v289h128v-299q0 -107 -55 -155t-180 -48zM115 556l122 148h134l-141 -148h-115zM331 556l123 148h133l-141 -148h-115z
" />
    <glyph glyph-name="Uogonek" unicode="&#x172;" horiz-adv-x="770" 
d="M426 -237q-65 0 -94 22.5t-29 72.5q0 33 21.5 67t64.5 64q-23 -1 -51 2q-133 10 -192 75t-59 197v315q0 11 -2.5 14.5t-12.5 7.5l-36 14l11 58h164q9 0 9 -10v-389q0 -96 41 -138t133 -42q93 0 133.5 42t40.5 138v399h133v-409q0 -56 -9 -97.5t-28.5 -72t-51 -53
t-77.5 -41.5q-69 -28 -100.5 -60t-31.5 -59q0 -21 12.5 -31t41.5 -10q10 0 19 1t16 2v-73q-14 -2 -30.5 -4t-35.5 -2z" />
    <glyph glyph-name="uogonek" unicode="&#x173;" horiz-adv-x="587" 
d="M322 -237q-65 0 -94 22.5t-29 72.5q0 32 22 66t67 66q-12 -1 -21.5 -0.5t-20.5 1.5q-95 8 -139 55t-44 146v203q0 11 -2 14.5t-12 7.5l-35 14l12 59h156q9 0 9 -10v-279q0 -61 25 -87t82 -26t82 26t25 87v289h128v-299q0 -38 -6 -67t-20.5 -51.5t-37.5 -41t-56 -36.5
q-57 -30 -85.5 -58t-28.5 -57q0 -21 12.5 -31t41.5 -10q10 0 19 1t16 2v-73q-14 -2 -30.5 -4t-35.5 -2z" />
    <glyph glyph-name="Wcircumflex" unicode="&#x174;" horiz-adv-x="1017" 
d="M369 0h-152q-27 66 -56 153t-57 178.5t-51.5 180.5t-38.5 160h130q9 -42 25.5 -107.5t40.5 -156.5q9 -36 20 -74t22.5 -75.5t22.5 -72t21 -62.5h1q10 28 21 62.5t22 72t22 75.5t20 74q23 85 38 146.5t25 103.5h127q10 -42 25 -103.5t38 -146.5q9 -36 20 -74t22 -75.5
t22 -72t21 -62.5h1q10 28 21 62.5t22.5 72t22.5 75.5t20 74q24 91 40.5 156.5t25.5 107.5h130q-15 -71 -38.5 -160t-51.5 -180.5t-57 -178.5t-56 -153h-152q-19 46 -37 96t-32 91q-12 37 -23.5 77t-20.5 78t-15.5 72t-10.5 61h-1q-4 -27 -10.5 -61t-15.5 -72t-20.5 -78
t-23.5 -77q-14 -41 -32 -91t-37 -96zM324 738l123 148h124l123 -148h-109l-76 81l-76 -81h-109z" />
    <glyph glyph-name="wcircumflex" unicode="&#x175;" horiz-adv-x="838" 
d="M321 0h-138q-26 62 -49 126.5t-44 127.5t-38.5 123t-30.5 113h126q9 -38 22 -85t25 -89q14 -48 29 -96.5t32 -95.5h1q14 41 30 89.5t31 102.5q11 38 22 80t20 78h120q9 -36 20 -78t22 -80q15 -54 31 -102.5t30 -89.5h1q17 47 32 95.5t29 96.5q12 42 25 89t22 85h126
q-14 -53 -31 -113t-38 -123t-44.5 -127.5t-48.5 -126.5h-138q-27 66 -52 146t-45 159h-2q-20 -79 -45 -159t-52 -146zM234 556l123 148h124l123 -148h-109l-76 81l-76 -81h-109z" />
    <glyph glyph-name="Ycircumflex" unicode="&#x176;" horiz-adv-x="617" 
d="M242 0v273l-246 399h150l162 -281l163 281h149l-245 -399v-273h-133zM124 738l123 148h124l123 -148h-109l-76 81l-76 -81h-109z" />
    <glyph glyph-name="ycircumflex" unicode="&#x177;" horiz-adv-x="544" 
d="M110 -220q-10 0 -22 0.5t-20 1.5v98q7 -1 17 -1.5t18 -0.5q22 0 38 4.5t28.5 15t22.5 27t19 41.5l11 29l-214 495h139l134 -339l114 339h133l-204 -550q-16 -42 -34.5 -72.5t-43.5 -50t-58 -28.5t-78 -9zM87 556l123 148h124l123 -148h-109l-76 81l-76 -81h-109z" />
    <glyph glyph-name="Ydieresis" unicode="&#x178;" horiz-adv-x="617" 
d="M242 0v273l-246 399h150l162 -281l163 281h149l-245 -399v-273h-133zM416 741q-38 0 -55.5 16.5t-17.5 54.5t17.5 54.5t55.5 16.5q39 0 56.5 -16.5t17.5 -54.5t-17.5 -54.5t-56.5 -16.5zM200 741q-39 0 -56.5 16.5t-17.5 54.5t17.5 54.5t56.5 16.5q38 0 55.5 -16.5
t17.5 -54.5t-17.5 -54.5t-55.5 -16.5z" />
    <glyph glyph-name="Zacute" unicode="&#x179;" horiz-adv-x="628" 
d="M36 0v92l383 478h-375v102h541v-92l-384 -478h392v-102h-557zM251 738l93 148h133l-114 -148h-112z" />
    <glyph glyph-name="zacute" unicode="&#x17a;" horiz-adv-x="493" 
d="M38 0v87l255 306h-247v97h407v-86l-255 -307h263v-97h-423zM184 556l93 148h133l-114 -148h-112z" />
    <glyph glyph-name="Zdotaccent" unicode="&#x17b;" horiz-adv-x="628" 
d="M36 0v92l383 478h-375v102h541v-92l-384 -478h392v-102h-557zM314 735q-39 0 -56 16.5t-17 54.5t17 54.5t56 16.5t56 -16.5t17 -54.5t-17 -54.5t-56 -16.5z" />
    <glyph glyph-name="zdotaccent" unicode="&#x17c;" horiz-adv-x="493" 
d="M38 0v87l255 306h-247v97h407v-86l-255 -307h263v-97h-423zM249 559q-39 0 -56 16.5t-17 54.5t17 54.5t56 16.5t56 -16.5t17 -54.5t-17 -54.5t-56 -16.5z" />
    <glyph glyph-name="Zcaron" unicode="&#x17d;" horiz-adv-x="628" 
d="M36 0v92l383 478h-375v102h541v-92l-384 -478h392v-102h-557zM252 732l-123 148h109l76 -81l76 81h109l-123 -148h-124z" />
    <glyph glyph-name="zcaron" unicode="&#x17e;" horiz-adv-x="493" 
d="M38 0v87l255 306h-247v97h407v-86l-255 -307h263v-97h-423zM187 556l-123 148h109l76 -81l76 81h109l-123 -148h-124z" />
    <glyph glyph-name="florin" unicode="&#x192;" 
d="M163 -12q-20 0 -40 1.5t-39 6.5v99q27 -7 56 -7q38 0 55.5 18t17.5 57v166h-105v97h105v80q0 94 43 136t138 42q24 0 44.5 -2t40.5 -6v-99q-16 3 -31 5t-31 2q-39 0 -57.5 -18.5t-18.5 -59.5v-80h114v-97h-114v-166q0 -92 -42 -133.5t-136 -41.5z" />
    <glyph glyph-name="Ohorn" unicode="&#x1a0;" horiz-adv-x="751" 
d="M490 587v85q42 0 60 17.5t18 56.5h90q0 -85 -40 -122t-128 -37zM375 -12q-89 0 -153 20t-104.5 62t-59.5 108t-19 158t19 158t59.5 108t104.5 62t153 20t153 -20t105 -62t60 -108t19 -158t-19 -158t-60 -108t-105 -62t-153 -20zM375 93q107 0 154 57t47 186t-47 186
t-154 57q-53 0 -91 -14t-62.5 -43t-36 -75.5t-11.5 -110.5q0 -65 11.5 -111t36 -75t62.5 -43t91 -14z" />
    <glyph glyph-name="ohorn" unicode="&#x1a1;" horiz-adv-x="579" 
d="M386 405v85q42 0 60 17.5t18 56.5h90q0 -85 -40 -122t-128 -37zM289 -12q-68 0 -116.5 14.5t-79.5 46t-45.5 80t-14.5 116.5t14.5 117t45.5 80t79.5 45.5t116.5 14.5t116.5 -14.5t80 -45.5t46 -80t14.5 -117q0 -136 -60.5 -196.5t-196.5 -60.5zM289 88q68 0 97.5 36.5
t29.5 120.5t-29.5 120.5t-97.5 36.5q-67 0 -96.5 -36.5t-29.5 -120.5t29.5 -120.5t96.5 -36.5z" />
    <glyph glyph-name="Uhorn" unicode="&#x1af;" horiz-adv-x="770" 
d="M623 587v85q42 0 60 17.5t18 56.5h90q0 -85 -40 -122t-128 -37zM394 -12q-81 0 -139.5 15.5t-95.5 49t-54.5 85.5t-17.5 125v315q0 11 -2.5 14.5t-12.5 7.5l-36 14l11 58h164q9 0 9 -10v-389q0 -96 41 -138t133 -42q93 0 133.5 42t40.5 138v399h133v-409
q0 -73 -17.5 -125t-54.5 -85.5t-95.5 -49t-139.5 -15.5z" />
    <glyph glyph-name="uhorn" unicode="&#x1b0;" horiz-adv-x="587" 
d="M466 405v85q42 0 60 17.5t18 56.5h90q0 -85 -40 -122t-128 -37zM298 -12q-62 0 -106.5 11.5t-73 36.5t-42 63t-13.5 92v204q0 11 -2 14.5t-12 7.5l-35 14l12 59h156q9 0 9 -10v-279q0 -61 25 -87t82 -26t82 26t25 87v289h128v-299q0 -107 -55 -155t-180 -48z" />
    <glyph glyph-name="uni01CD" unicode="&#x1cd;" horiz-adv-x="664" 
d="M138 0h-134q12 47 30 105t39.5 121t45.5 127t48.5 123t47.5 109.5t43 86.5h148q20 -36 43 -86.5t47.5 -109.5t48.5 -123t45.5 -127t39.5 -121t30 -105h-134q-11 41 -23 80t-23 77h-296q-12 -38 -23.5 -77t-22.5 -80zM216 255h232q-54 155 -116 299q-64 -144 -116 -299z
M270 732l-123 148h109l76 -81l76 81h109l-123 -148h-124z" />
    <glyph glyph-name="uni01CE" unicode="&#x1ce;" horiz-adv-x="543" 
d="M224 -12q-100 0 -145.5 36.5t-45.5 114.5q0 75 49 110t155 35q65 0 122 -17v46q0 50 -29 71t-98 21q-75 0 -154 -24v98q81 23 169 23q124 0 179.5 -46.5t55.5 -152.5v-208q0 -11 2 -14.5t12 -7.5l35 -14l-12 -59h-109q-15 0 -19 4t-7 17l-4 21q-50 -54 -156 -54zM249 78
q58 0 84 19t26 61v28q-46 16 -102 16q-51 0 -75 -14.5t-24 -47.5q0 -32 21.5 -47t69.5 -15zM206 556l-123 148h109l76 -81l76 81h109l-123 -148h-124z" />
    <glyph glyph-name="Aringacute" unicode="&#x1fa;" horiz-adv-x="664" 
d="M138 0h-134q12 47 30 105t39.5 121t45.5 127t48.5 123t47.5 109.5t43 86.5h148q20 -36 43 -86.5t47.5 -109.5t48.5 -123t45.5 -127t39.5 -121t30 -105h-134q-11 41 -23 80t-23 77h-296q-12 -38 -23.5 -77t-22.5 -80zM216 255h232q-54 155 -116 299q-64 -144 -116 -299z
M330 704q-62 0 -89.5 24t-27.5 78q0 45 18.5 68.5t60.5 30.5l86 103h133l-110 -113q46 -22 46 -89q0 -54 -27.5 -78t-89.5 -24zM330 758q25 0 36.5 11t11.5 37t-11 36.5t-37 10.5t-37 -10.5t-11 -36.5t11 -37t37 -11z" />
    <glyph glyph-name="aringacute" unicode="&#x1fb;" horiz-adv-x="543" 
d="M224 -12q-100 0 -145.5 36.5t-45.5 114.5q0 75 49 110t155 35q65 0 122 -17v46q0 50 -29 71t-98 21q-75 0 -154 -24v98q81 23 169 23q124 0 179.5 -46.5t55.5 -152.5v-208q0 -11 2 -14.5t12 -7.5l35 -14l-12 -59h-109q-15 0 -19 4t-7 17l-4 21q-50 -54 -156 -54zM249 78
q58 0 84 19t26 61v28q-46 16 -102 16q-51 0 -75 -14.5t-24 -47.5q0 -32 21.5 -47t69.5 -15zM265 528q-62 0 -89.5 24t-27.5 78q0 45 18.5 68.5t60.5 30.5l86 103h133l-110 -113q46 -22 46 -89q0 -54 -27.5 -78t-89.5 -24zM265 582q25 0 36.5 11t11.5 37t-11 36.5t-37 10.5
t-37 -10.5t-11 -36.5t11 -37t37 -11z" />
    <glyph glyph-name="AEacute" unicode="&#x1fc;" horiz-adv-x="1024" 
d="M130 0h-137q52 96 111.5 195t118.5 188.5t112.5 164.5t93.5 124h552v-102h-352v-179h280v-98h-280v-191h360v-102h-493v157h-276q-25 -42 -47.5 -81.5t-42.5 -75.5zM279 255h217v323q-22 -29 -47.5 -65t-53.5 -78t-57.5 -87.5t-58.5 -92.5zM489 732l93 148h133l-114 -148
h-112z" />
    <glyph glyph-name="aeacute" unicode="&#x1fd;" horiz-adv-x="859" 
d="M225 -12q-100 0 -146 36.5t-46 114.5q0 75 49 110t155 35q65 0 122 -17v46q0 50 -29 71t-98 21q-75 0 -154 -24v98q81 23 169 23q67 0 110.5 -16.5t66.5 -52.5q54 69 175 69q120 0 173 -58.5t53 -190.5v-23.5t-2 -21.5h-343q4 -66 41.5 -94.5t118.5 -28.5t164 24v-98
q-39 -12 -82.5 -17.5t-91.5 -5.5q-153 0 -219 73q-52 -73 -186 -73zM251 78q57 0 82.5 19t25.5 61v28q-46 16 -102 16q-51 0 -75 -14.5t-24 -47.5q0 -32 22.5 -47t70.5 -15zM480 290h223q-2 66 -26 94t-78 28q-60 0 -88 -28.5t-31 -93.5zM354 556l93 148h133l-114 -148h-112
z" />
    <glyph glyph-name="Oslashacute" unicode="&#x1fe;" horiz-adv-x="751" 
d="M51 -32l72 96q-44 42 -64 109t-20 163q0 92 19 158t59.5 108t104.5 62t153 20q116 0 188 -34l40 54h96l-72 -96q85 -82 85 -272q0 -92 -19 -158t-60 -108t-105 -62t-153 -20q-115 0 -188 33l-40 -53h-96zM199 165l296 395q-47 24 -120 24q-112 0 -161.5 -58t-49.5 -190
q0 -113 35 -171zM375 88q112 0 162 58t50 190q0 111 -36 171l-296 -395q46 -24 120 -24zM300 732l93 148h133l-114 -148h-112z" />
    <glyph glyph-name="oslashacute" unicode="&#x1ff;" horiz-adv-x="579" 
d="M39 -32l57 76q-33 32 -48.5 81t-15.5 120q0 68 14.5 117t45.5 80t79.5 45.5t116.5 14.5q81 0 135 -21l31 41h84l-58 -77q34 -31 49.5 -80.5t15.5 -119.5q0 -136 -60.5 -196.5t-196.5 -60.5q-81 0 -135 21l-31 -41h-83zM166 138l195 260q-31 14 -73 14q-75 0 -108 -39
t-33 -128q0 -69 19 -107zM288 78q75 0 108.5 39t33.5 128q0 70 -20 107l-196 -261q29 -13 74 -13zM213 556l93 148h133l-114 -148h-112z" />
    <glyph glyph-name="uni0218" unicode="&#x218;" horiz-adv-x="589" 
d="M293 -12q-124 0 -238 33v105q112 -36 228 -36q77 0 112.5 22.5t35.5 74.5q0 37 -28.5 56t-71.5 30.5t-92.5 22t-92.5 31.5t-71.5 58t-28.5 102q0 106 70.5 151.5t211.5 45.5q55 0 110.5 -9t94.5 -23l-19 -100v0q-41 14 -92.5 22t-102.5 8q-74 0 -108.5 -21t-34.5 -72
q0 -35 28.5 -52.5t71.5 -29t92.5 -22.5t92.5 -32.5t71.5 -60t28.5 -103.5q0 -105 -66 -153t-202 -48zM217 -256l50 196h109l-71 -196h-88z" />
    <glyph glyph-name="uni0219" unicode="&#x219;" horiz-adv-x="467" 
d="M227 -12q-100 0 -182 24v99q42 -13 85 -20t87 -7q97 0 97 57q0 24 -20.5 35t-51.5 17.5t-67 12.5t-67 21t-51.5 43.5t-20.5 79.5q0 41 16 70t44 47t66.5 26.5t83.5 8.5q47 0 93.5 -6.5t80.5 -17.5l-19 -95q-35 11 -71.5 17t-74.5 6q-50 0 -72 -13.5t-22 -39.5
q0 -23 20.5 -33.5t51.5 -16.5t67 -12.5t67 -22t51.5 -44.5t20.5 -80q0 -81 -51.5 -118.5t-160.5 -37.5zM151 -256l50 196h109l-71 -196h-88z" />
    <glyph glyph-name="uni021A" unicode="&#x21a;" horiz-adv-x="607" 
d="M237 0v570h-218v102h569v-102h-218v-570h-133zM219 -256l50 196h109l-71 -196h-88z" />
    <glyph glyph-name="uni021B" unicode="&#x21b;" horiz-adv-x="389" 
d="M267 -12q-101 0 -145 41.5t-44 136.5v208q0 15 -1.5 19t-11.5 6l-62 17l12 74h63v141h127v-141h154v-97h-154v-222q0 -45 19 -64t63 -19q37 0 72 9v-100q-44 -9 -92 -9zM135 -256l50 196h109l-71 -196h-88z" />
    <glyph glyph-name="circumflex" unicode="&#x2c6;" horiz-adv-x="240" 
d="M-65 556l123 148h124l123 -148h-109l-76 81l-76 -81h-109z" />
    <glyph glyph-name="caron" unicode="&#x2c7;" horiz-adv-x="240" 
d="M58 556l-123 148h109l76 -81l76 81h109l-123 -148h-124z" />
    <glyph glyph-name="breve" unicode="&#x2d8;" horiz-adv-x="240" 
d="M120 545q-88 0 -128 37t-40 122h90q0 -39 18 -56.5t60 -17.5t60 17.5t18 56.5h90q0 -85 -40 -122t-128 -37z" />
    <glyph glyph-name="dotaccent" unicode="&#x2d9;" horiz-adv-x="240" 
d="M120 559q-39 0 -56 16.5t-17 54.5t17 54.5t56 16.5t56 -16.5t17 -54.5t-17 -54.5t-56 -16.5z" />
    <glyph glyph-name="ring" unicode="&#x2da;" horiz-adv-x="240" 
d="M120 528q-62 0 -89.5 24t-27.5 78t27.5 78t89.5 24t89.5 -24t27.5 -78t-27.5 -78t-89.5 -24zM120 582q25 0 36.5 11t11.5 37t-11 36.5t-37 10.5t-37 -10.5t-11 -36.5t11 -37t37 -11z" />
    <glyph glyph-name="ogonek" unicode="&#x2db;" horiz-adv-x="240" 
d="M119 -237q-66 0 -95 22.5t-29 72.5q0 36 24 72.5t78 81.5l87 -12q-50 -45 -69.5 -72t-19.5 -48t12.5 -31t41.5 -10q10 0 19 1t16 2v-73q-14 -2 -30.5 -4t-34.5 -2z" />
    <glyph glyph-name="tilde" unicode="&#x2dc;" horiz-adv-x="240" 
d="M-49 561v14q0 63 24 90.5t80 27.5q21 0 37 -6.5t29 -14t24.5 -14t22.5 -6.5q17 0 24 9t7 32v5h90v-13q0 -63 -24 -90.5t-80 -27.5q-21 0 -37 6.5t-29 14t-24.5 14t-22.5 6.5q-17 0 -24 -9t-7 -32v-6h-90z" />
    <glyph glyph-name="hungarumlaut" unicode="&#x2dd;" horiz-adv-x="240" 
d="M-63 556l122 148h134l-141 -148h-115zM153 556l123 148h133l-141 -148h-115z" />
    <glyph glyph-name="gravecomb" unicode="&#x300;" horiz-adv-x="0" 
d="M-157 556l-114 148h133l93 -148h-112z" />
    <glyph glyph-name="acutecomb" unicode="&#x301;" horiz-adv-x="0" 
d="M-195 556l93 148h133l-114 -148h-112z" />
    <glyph glyph-name="uni0302" unicode="&#x302;" horiz-adv-x="0" 
d="M-305 556l123 148h124l123 -148h-109l-76 81l-76 -81h-109z" />
    <glyph glyph-name="tildecomb" unicode="&#x303;" horiz-adv-x="0" 
d="M-289 561v14q0 63 24 90.5t80 27.5q21 0 37 -6.5t29 -14t24.5 -14t22.5 -6.5q17 0 24 9t7 32v5h90v-13q0 -63 -24 -90.5t-80 -27.5q-21 0 -37 6.5t-29 14t-24.5 14t-22.5 6.5q-17 0 -24 -9t-7 -32v-6h-90z" />
    <glyph glyph-name="uni0306" unicode="&#x306;" horiz-adv-x="0" 
d="M-120 545q-88 0 -128 37t-40 122h90q0 -39 18 -56.5t60 -17.5t60 17.5t18 56.5h90q0 -85 -40 -122t-128 -37z" />
    <glyph glyph-name="hookabovecomb" unicode="&#x309;" horiz-adv-x="0" 
d="M-143 587q13 18 13 33q0 14 -8 19.5t-27 5.5q-11 0 -24.5 -6.5t-22.5 -16.5l-39 56q29 26 52 33.5t52 7.5q50 0 76 -21.5t26 -61.5q0 -64 -92 -126l-40 39q20 19 34 38z" />
    <glyph glyph-name="uni031B" unicode="&#x31b;" horiz-adv-x="0" 
d="M-120 405v85q42 0 60 17.5t18 56.5h90q0 -85 -40 -122t-128 -37z" />
    <glyph glyph-name="dotbelowcomb" unicode="&#x323;" horiz-adv-x="0" 
d="M-120 -229q-39 0 -56 16.5t-17 54.5t17 54.5t56 16.5t56 -16.5t17 -54.5t-17 -54.5t-56 -16.5z" />
    <glyph glyph-name="uni0394" unicode="&#x394;" horiz-adv-x="697" 
d="M33 0v86l240 586h150l241 -586v-86h-631zM167 102h362l-181 452z" />
    <glyph glyph-name="uni03A9" unicode="&#x3a9;" horiz-adv-x="751" 
d="M22 0v102h155q-66 54 -97 120.5t-31 155.5q0 81 18.5 138.5t58 95t101.5 55t148 17.5t148 -17.5t101.5 -55t58.5 -95t19 -138.5q0 -89 -31 -155.5t-97 -120.5h155v-102h-299v97q71 45 105 108.5t34 152.5q0 118 -45.5 169.5t-148.5 51.5t-148 -51.5t-45 -169.5
q0 -89 33.5 -152.5t105.5 -108.5v-97h-299z" />
    <glyph glyph-name="uni03BC" unicode="&#x3bc;" horiz-adv-x="585" 
d="M57 -208v698h128v-290q0 -58 24 -84t78 -26q60 0 86 27.5t26 89.5v283h128v-490h-97l-10 51q-45 -60 -136 -60q-32 0 -57.5 7.5t-41.5 24.5v-231h-128z" />
    <glyph glyph-name="pi" unicode="&#x3c0;" horiz-adv-x="617" 
d="M89 0v393h-59v97h557v-97h-60v-393h-123v393h-192v-393h-123z" />
    <glyph glyph-name="uni0400" unicode="&#x400;" horiz-adv-x="613" 
d="M85 0v578q0 11 -2.5 14.5t-12.5 7.5l-36 14l11 58h525v-102h-352v-179h280v-98h-280v-191h360v-102h-493zM245 738l-114 148h133l93 -148h-112z" />
    <glyph glyph-name="uni0401" unicode="&#x401;" horiz-adv-x="613" 
d="M85 0v578q0 11 -2.5 14.5t-12.5 7.5l-36 14l11 58h525v-102h-352v-179h280v-98h-280v-191h360v-102h-493zM417 735q-38 0 -55.5 16.5t-17.5 54.5t17.5 54.5t55.5 16.5q39 0 56.5 -16.5t17.5 -54.5t-17.5 -54.5t-56.5 -16.5zM201 735q-39 0 -56.5 16.5t-17.5 54.5
t17.5 54.5t56.5 16.5q38 0 55.5 -16.5t17.5 -54.5t-17.5 -54.5t-55.5 -16.5z" />
    <glyph glyph-name="uni0402" unicode="&#x402;" horiz-adv-x="852" 
d="M580 -12q-32 0 -62.5 3.5t-62.5 11.5v103q52 -13 104 -13q68 0 97.5 25t29.5 80q0 56 -31.5 80.5t-106.5 24.5q-46 0 -90 -5.5t-88 -14.5v-283h-133v570h-218v102h569v-102h-218v-185q48 11 95.5 17t98.5 6q137 0 197.5 -49.5t60.5 -160.5t-57 -160.5t-185 -49.5z" />
    <glyph glyph-name="uni0403" unicode="&#x403;" horiz-adv-x="544" 
d="M85 0v578q0 11 -2.5 14.5t-12.5 7.5l-36 14l11 58h480v-102h-307v-570h-133zM235 732l123 148h133l-144 -148h-112z" />
    <glyph glyph-name="uni0404" unicode="&#x404;" horiz-adv-x="612" 
d="M375 -12q-89 0 -152.5 20t-104.5 62t-60 108t-19 158t19.5 158t61 108t105 62t150.5 20q54 0 105.5 -6t96.5 -19l-17 -99q-38 11 -81 17.5t-83 6.5q-105 0 -159 -45.5t-64 -147.5h332v-98h-333q8 -109 61.5 -157t162.5 -48q88 0 181 26v-101q-48 -12 -98 -18.5t-104 -6.5
z" />
    <glyph glyph-name="uni0405" unicode="&#x405;" horiz-adv-x="589" 
d="M293 -12q-124 0 -238 33v105q112 -36 228 -36q77 0 112.5 22.5t35.5 74.5q0 37 -28.5 56t-71.5 30.5t-92.5 22t-92.5 31.5t-71.5 58t-28.5 102q0 106 70.5 151.5t211.5 45.5q55 0 110.5 -9t94.5 -23l-19 -100v0q-41 14 -92.5 22t-102.5 8q-74 0 -108.5 -21t-34.5 -72
q0 -35 28.5 -52.5t71.5 -29t92.5 -22.5t92.5 -32.5t71.5 -60t28.5 -103.5q0 -105 -66 -153t-202 -48z" />
    <glyph glyph-name="uni0406" unicode="&#x406;" horiz-adv-x="287" 
d="M85 0v578q0 11 -2.5 14.5t-12.5 7.5l-36 14l11 58h164q9 0 9 -10v-662h-133z" />
    <glyph glyph-name="uni0407" unicode="&#x407;" horiz-adv-x="287" 
d="M85 0v578q0 11 -2.5 14.5t-12.5 7.5l-36 14l11 58h164q9 0 9 -10v-662h-133zM243 735q-38 0 -55.5 16.5t-17.5 54.5t17.5 54.5t55.5 16.5q39 0 56.5 -16.5t17.5 -54.5t-17.5 -54.5t-56.5 -16.5zM27 735q-39 0 -56.5 16.5t-17.5 54.5t17.5 54.5t56.5 16.5q38 0 55.5 -16.5
t17.5 -54.5t-17.5 -54.5t-55.5 -16.5z" />
    <glyph glyph-name="uni0408" unicode="&#x408;" horiz-adv-x="457" 
d="M151 -12q-32 0 -63.5 3.5t-60.5 9.5v105q52 -13 104 -13q66 0 95 29t29 97v453h133v-458q0 -118 -56.5 -172t-180.5 -54z" />
    <glyph glyph-name="uni0409" unicode="&#x409;" horiz-adv-x="1119" 
d="M48 -8h-14.5t-14.5 1v110h13q40 0 68 18.5t45 59t25 105t8 156.5v136q0 11 -2.5 14.5t-12.5 7.5l-36 14l11 58h547v-237h152q133 0 192.5 -51.5t59.5 -166.5q0 -114 -59.5 -165.5t-192.5 -51.5h-280v570h-251v-138q0 -118 -14.5 -201.5t-45.5 -136.5t-80 -77.5
t-118 -24.5zM685 102h142q69 0 100 27.5t31 87.5q0 62 -31 88.5t-100 26.5h-142v-230z" />
    <glyph glyph-name="uni040A" unicode="&#x40a;" horiz-adv-x="1120" 
d="M85 0v578q0 11 -2.5 14.5t-12.5 7.5l-36 14l11 58h168v-269h345v269h128v-269h168q124 0 180 -48t56 -154t-56 -153.5t-180 -47.5h-296v300h-345v-300h-128zM686 102h158q61 0 88 23.5t27 75.5q0 53 -27 76t-88 23h-158v-198z" />
    <glyph glyph-name="uni040B" unicode="&#x40b;" horiz-adv-x="852" 
d="M237 0v570h-218v102h569v-102h-218v-185q90 23 178 23q133 0 194 -59t61 -182v-167h-133v157q0 75 -36 110.5t-117 35.5q-36 0 -72.5 -5t-74.5 -13v-285h-133z" />
    <glyph glyph-name="uni040C" unicode="&#x40c;" horiz-adv-x="644" 
d="M85 0v578q0 11 -2.5 14.5t-12.5 7.5l-36 14l11 58h164q9 0 9 -10v-278l262 288h151l-278 -309l286 -363h-150l-217 281l-54 -58v-223h-133zM259 738l93 148h133l-114 -148h-112z" />
    <glyph glyph-name="uni040D" unicode="&#x40d;" horiz-adv-x="768" 
d="M85 0v578q0 11 -2.5 14.5t-12.5 7.5l-36 14l11 58h163v-490l362 490h129v-672h-123v490l-362 -490h-129zM355 732l-114 148h133l93 -148h-112z" />
    <glyph glyph-name="uni040E" unicode="&#x40e;" horiz-adv-x="633" 
d="M324 721q-88 0 -128 37t-40 122h90q0 -39 18 -56.5t60 -17.5t60 17.5t18 56.5h90q0 -85 -40 -122t-128 -37zM138 -12q-45 0 -84 9v106q19 -5 38 -7.5t36 -2.5q48 0 79.5 19.5t52.5 61.5l11 22l-259 476h144l179 -358l162 358h139l-243 -511q-23 -47 -47.5 -80
t-54.5 -53.5t-67.5 -30t-85.5 -9.5z" />
    <glyph glyph-name="uni040F" unicode="&#x40f;" horiz-adv-x="768" 
d="M331 -160v160h-246v578q0 11 -2.5 14.5t-12.5 7.5l-36 14l11 58h173v-570h348v570h133v-672h-245v-160h-123z" />
    <glyph glyph-name="uni0410" unicode="&#x410;" horiz-adv-x="664" 
d="M138 0h-134q12 47 30 105t39.5 121t45.5 127t48.5 123t47.5 109.5t43 86.5h148q20 -36 43 -86.5t47.5 -109.5t48.5 -123t45.5 -127t39.5 -121t30 -105h-134q-11 41 -23 80t-23 77h-296q-12 -38 -23.5 -77t-22.5 -80zM216 255h232q-54 155 -116 299q-64 -144 -116 -299z
" />
    <glyph glyph-name="uni0411" unicode="&#x411;" horiz-adv-x="672" 
d="M85 0v578q0 11 -2.5 14.5t-12.5 7.5l-36 14l11 58h540v-100h-372v-173h192q119 0 173.5 -46t54.5 -154q0 -107 -54.5 -153t-173.5 -46h-320zM213 97h176q60 0 86.5 24t26.5 78t-26.5 78t-86.5 24h-176v-204z" />
    <glyph glyph-name="uni0412" unicode="&#x412;" horiz-adv-x="672" 
d="M85 0v578q0 11 -2.5 14.5t-12.5 7.5l-36 14l11 58h357q110 0 158.5 -43.5t48.5 -140.5q0 -103 -79 -139q103 -34 103 -161q0 -98 -50.5 -143t-164.5 -45h-333zM213 97h179q60 0 85 23t25 76t-25 76t-85 23h-179v-198zM213 389h163q57 0 81 22t24 71t-24 71t-81 22h-163
v-186z" />
    <glyph glyph-name="uni0413" unicode="&#x413;" horiz-adv-x="544" 
d="M85 0v578q0 11 -2.5 14.5t-12.5 7.5l-36 14l11 58h480v-102h-307v-570h-133z" />
    <glyph glyph-name="uni0414" unicode="&#x414;" horiz-adv-x="802" 
d="M22 -160v262h57q27 18 46.5 45.5t32 68t18 96t5.5 130.5v136q0 11 -2.5 14.5t-12.5 7.5l-36 14l11 58h550v-570h84v-262h-123v160h-507v-160h-123zM240 102h323v468h-254v-138q0 -66 -4 -116.5t-12 -90t-21.5 -69.5t-31.5 -54z" />
    <glyph glyph-name="uni0415" unicode="&#x415;" horiz-adv-x="613" 
d="M85 0v578q0 11 -2.5 14.5t-12.5 7.5l-36 14l11 58h525v-102h-352v-179h280v-98h-280v-191h360v-102h-493z" />
    <glyph glyph-name="uni0416" unicode="&#x416;" horiz-adv-x="951" 
d="M4 0l279 363l-271 309h146l256 -298v298h123v-298l256 298h146l-271 -309l279 -363h-146l-212 280l-52 -57v-223h-123v223l-52 57l-212 -280h-146z" />
    <glyph glyph-name="uni0417" unicode="&#x417;" horiz-adv-x="596" 
d="M266 -12q-59 0 -117 8.5t-113 26.5v103q55 -17 108.5 -27.5t106.5 -10.5q91 0 131 23.5t40 78.5t-40 79t-130 24h-117v98h117q79 0 114 22.5t35 74.5t-35 74t-115 22q-90 0 -191 -29l-18 95q55 17 111.5 25.5t112.5 8.5q142 0 205 -44t63 -142q0 -61 -23 -97t-77 -52
q66 -16 95 -56t29 -113q0 -101 -69 -146.5t-223 -45.5z" />
    <glyph glyph-name="uni0418" unicode="&#x418;" horiz-adv-x="768" 
d="M85 0v578q0 11 -2.5 14.5t-12.5 7.5l-36 14l11 58h163v-490l362 490h129v-672h-123v490l-362 -490h-129z" />
    <glyph glyph-name="uni0419" unicode="&#x419;" horiz-adv-x="768" 
d="M85 0v578q0 11 -2.5 14.5t-12.5 7.5l-36 14l11 58h163v-490l362 490h129v-672h-123v490l-362 -490h-129zM392 721q-88 0 -128 37t-40 122h90q0 -39 18 -56.5t60 -17.5t60 17.5t18 56.5h90q0 -85 -40 -122t-128 -37z" />
    <glyph glyph-name="uni041A" unicode="&#x41a;" horiz-adv-x="644" 
d="M85 0v578q0 11 -2.5 14.5t-12.5 7.5l-36 14l11 58h164q9 0 9 -10v-278l262 288h151l-278 -309l286 -363h-150l-217 281l-54 -58v-223h-133z" />
    <glyph glyph-name="uni041B" unicode="&#x41b;" horiz-adv-x="767" 
d="M49 -8h-15t-15 1v106h15q39 0 66.5 19t45 60.5t25 106.5t7.5 157v136q0 11 -2.5 14.5t-12.5 7.5l-36 14l11 58h560v-672h-133v570h-257v-138q0 -118 -14 -201.5t-45 -136.5t-80.5 -77.5t-119.5 -24.5z" />
    <glyph glyph-name="uni041C" unicode="&#x41c;" horiz-adv-x="848" 
d="M85 0v578q0 11 -2.5 14.5t-12.5 7.5l-36 14l11 58h146q16 0 21 -4t14 -19l206 -341l221 364h126v-672h-123v472l-178 -291h-58q-13 0 -20.5 0.5t-12 3t-8 7.5t-9.5 15l-162 265v-472h-123z" />
    <glyph glyph-name="uni041D" unicode="&#x41d;" horiz-adv-x="768" 
d="M85 0v578q0 11 -2.5 14.5t-12.5 7.5l-36 14l11 58h164q9 0 9 -10v-269h348v279h133v-672h-133v291h-348v-291h-133z" />
    <glyph glyph-name="uni041E" unicode="&#x41e;" horiz-adv-x="751" 
d="M375 -12q-89 0 -153 20t-104.5 62t-59.5 108t-19 158t19 158t59.5 108t104.5 62t153 20t153 -20t105 -62t60 -108t19 -158t-19 -158t-60 -108t-105 -62t-153 -20zM375 93q107 0 154 57t47 186t-47 186t-154 57q-53 0 -91 -14t-62.5 -43t-36 -75.5t-11.5 -110.5
q0 -65 11.5 -111t36 -75t62.5 -43t91 -14z" />
    <glyph glyph-name="uni041F" unicode="&#x41f;" horiz-adv-x="768" 
d="M85 0v578q0 11 -2.5 14.5t-12.5 7.5l-36 14l11 58h654v-672h-133v570h-348v-570h-133z" />
    <glyph glyph-name="uni0420" unicode="&#x420;" horiz-adv-x="656" 
d="M85 0v578q0 11 -2.5 14.5t-12.5 7.5l-36 14l11 58h328q133 0 192.5 -51t59.5 -166q0 -58 -14.5 -99t-45 -67.5t-78.5 -39t-114 -12.5h-155v-237h-133zM218 340h145q70 0 100.5 26.5t30.5 88.5q0 61 -30.5 88t-100.5 27h-145v-230z" />
    <glyph glyph-name="uni0421" unicode="&#x421;" horiz-adv-x="612" 
d="M375 -12q-89 0 -152.5 20t-104.5 62t-60 108t-19 158t19 158t60 108t104.5 62t152.5 20q73 0 129.5 -10t81.5 -18l-18 -101q-38 11 -80.5 17.5t-91.5 6.5q-118 0 -170 -57t-52 -186t52 -186t170 -57q88 0 181 26v-106q-48 -12 -98 -18.5t-104 -6.5z" />
    <glyph glyph-name="uni0422" unicode="&#x422;" horiz-adv-x="607" 
d="M237 0v570h-218v102h569v-102h-218v-570h-133z" />
    <glyph glyph-name="uni0423" unicode="&#x423;" horiz-adv-x="633" 
d="M138 -12q-45 0 -84 9v106q19 -5 38 -7.5t36 -2.5q48 0 79.5 19.5t52.5 61.5l11 22l-259 476h144l179 -358l162 358h139l-243 -511q-23 -47 -47.5 -80t-54.5 -53.5t-67.5 -30t-85.5 -9.5z" />
    <glyph glyph-name="uni0424" unicode="&#x424;" horiz-adv-x="799" 
d="M338 -48v91q-159 10 -233 82.5t-74 216.5t74 216.5t233 82.5v79h123v-79q159 -10 233 -82.5t74 -216.5t-74.5 -216.5t-232.5 -82.5v-91h-123zM338 145v394q-94 -8 -138 -55.5t-44 -141.5t44 -141.5t138 -55.5zM461 539v-394q94 8 138 55.5t44 141.5t-44 141.5t-138 55.5z
" />
    <glyph glyph-name="uni0425" unicode="&#x425;" horiz-adv-x="665" 
d="M12 0l235 342l-227 330h149l163 -245l164 245h148l-227 -330l235 -342h-149l-171 257l-170 -257h-150z" />
    <glyph glyph-name="uni0426" unicode="&#x426;" horiz-adv-x="810" 
d="M660 -160v160h-575v578q0 11 -2.5 14.5t-12.5 7.5l-36 14l11 58h173v-570h348v570h133v-570h84v-262h-123z" />
    <glyph glyph-name="uni0427" unicode="&#x427;" horiz-adv-x="703" 
d="M501 0v271q-94 -23 -180 -23q-135 0 -195.5 57.5t-60.5 183.5v89q0 11 -2.5 14.5t-12.5 7.5l-36 14l11 58h173v-173q0 -78 36 -112t117 -34q37 0 74.5 5t75.5 13v301h133v-672h-133z" />
    <glyph glyph-name="uni0428" unicode="&#x428;" horiz-adv-x="1072" 
d="M85 0v578q0 11 -2.5 14.5t-12.5 7.5l-36 14l11 58h173v-570h260v570h133v-570h259v570h133v-672h-918z" />
    <glyph glyph-name="uni0429" unicode="&#x429;" horiz-adv-x="1114" 
d="M964 -160v160h-879v578q0 11 -2.5 14.5t-12.5 7.5l-36 14l11 58h173v-570h260v570h133v-570h259v570h133v-570h84v-262h-123z" />
    <glyph glyph-name="uni042A" unicode="&#x42a;" horiz-adv-x="799" 
d="M236 0v570h-217v102h345v-237h152q133 0 192.5 -51.5t59.5 -166.5t-59.5 -166t-192.5 -51h-280zM364 102h142q70 0 100.5 27t30.5 88q0 62 -30.5 88.5t-100.5 26.5h-142v-230z" />
    <glyph glyph-name="uni042B" unicode="&#x42b;" horiz-adv-x="943" 
d="M85 0v578q0 11 -2.5 14.5t-12.5 7.5l-36 14l11 58h168v-237h160q133 0 192.5 -51.5t59.5 -166.5t-59.5 -166t-192.5 -51h-288zM213 102h150q70 0 100.5 27t30.5 88q0 62 -30.5 88.5t-100.5 26.5h-150v-230zM741 0v578q0 11 -2.5 14.5t-12.5 7.5l-36 14l11 58h164
q9 0 9 -10v-662h-133z" />
    <glyph glyph-name="uni042C" unicode="&#x42c;" horiz-adv-x="656" 
d="M85 0v578q0 11 -2.5 14.5t-12.5 7.5l-36 14l11 58h168v-237h160q133 0 192.5 -51.5t59.5 -166.5t-59.5 -166t-192.5 -51h-288zM213 102h150q70 0 100.5 27t30.5 88q0 62 -30.5 88.5t-100.5 26.5h-150v-230z" />
    <glyph glyph-name="uni042D" unicode="&#x42d;" horiz-adv-x="612" 
d="M237 -12q-54 0 -104 6.5t-97 18.5v101q92 -26 181 -26q108 0 161.5 48t61.5 157h-332v98h331q-11 102 -62.5 147.5t-157.5 45.5q-41 0 -83 -6t-83 -17l-17 98q47 12 96 18.5t105 6.5q88 0 151.5 -20t105 -62t61 -108t19.5 -158t-19.5 -158t-60.5 -108t-104.5 -62
t-152.5 -20z" />
    <glyph glyph-name="uni042E" unicode="&#x42e;" horiz-adv-x="1016" 
d="M649 -12q-82 0 -141.5 17t-99.5 54t-61 94.5t-25 137.5h-109v-291h-128v578q0 11 -2.5 14.5t-12.5 7.5l-36 14l11 58h168v-279h110q5 77 27 132t61.5 90.5t98.5 52t139 16.5q88 0 150 -20t102 -62t58.5 -108t18.5 -158t-18.5 -158t-58.5 -108t-102 -62t-150 -20zM649 93
q106 0 152 57t46 186t-46.5 186t-151.5 57t-151.5 -57t-46.5 -186t46.5 -186t151.5 -57z" />
    <glyph glyph-name="uni042F" unicode="&#x42f;" horiz-adv-x="655" 
d="M28 0l165 268q-76 14 -111 61t-35 134q0 110 57 159.5t186 49.5h296v-672h-128v253h-136l-149 -253h-145zM305 353h153v219h-153q-69 0 -98.5 -25t-29.5 -84q0 -60 29.5 -85t98.5 -25z" />
    <glyph glyph-name="uni0430" unicode="&#x430;" horiz-adv-x="543" 
d="M224 -12q-100 0 -145.5 36.5t-45.5 114.5q0 75 49 110t155 35q65 0 122 -17v46q0 50 -29 71t-98 21q-75 0 -154 -24v98q81 23 169 23q124 0 179.5 -46.5t55.5 -152.5v-208q0 -11 2 -14.5t12 -7.5l35 -14l-12 -59h-109q-15 0 -19 4t-7 17l-4 21q-50 -54 -156 -54zM249 78
q58 0 84 19t26 61v28q-46 16 -102 16q-51 0 -75 -14.5t-24 -47.5q0 -32 21.5 -47t69.5 -15z" />
    <glyph glyph-name="uni0431" unicode="&#x431;" horiz-adv-x="585" 
d="M300 -12q-68 0 -116.5 17t-79.5 53.5t-45.5 93t-14.5 135.5q0 103 17 178.5t52 126t90 77.5t132 34q55 5 97.5 10.5t71.5 11.5l-22 -113q-29 -5 -65 -8t-71 -7q-47 -5 -76.5 -16t-47.5 -30t-27 -46.5t-15 -64.5q32 24 70.5 39.5t93.5 15.5q99 0 152 -60.5t53 -194.5
q0 -132 -59.5 -192t-189.5 -60zM300 88q63 0 91 35.5t28 116.5t-27.5 116.5t-90.5 35.5q-34 0 -66.5 -11.5t-56.5 -26.5q-1 -6 -2 -17.5t-1.5 -23t-0.5 -22v-14.5q0 -56 7 -92t22.5 -58t39.5 -30.5t57 -8.5z" />
    <glyph glyph-name="uni0432" unicode="&#x432;" horiz-adv-x="543" 
d="M67 0v395q0 11 -2 14.5t-12 7.5l-35 14l12 59h309q83 0 119.5 -32.5t36.5 -105.5q0 -70 -57 -96q73 -26 73 -115q0 -75 -38.5 -108t-125.5 -33h-280zM188 87h128q38 0 54 14t16 46t-16 46t-54 14h-128v-120zM188 291h120q35 0 49.5 13.5t14.5 42.5q0 30 -14.5 43
t-49.5 13h-120v-112z" />
    <glyph glyph-name="uni0433" unicode="&#x433;" horiz-adv-x="443" 
d="M67 0v395q0 11 -2 14.5t-12 7.5l-35 14l12 59h394v-97h-229v-393h-128z" />
    <glyph glyph-name="uni0434" unicode="&#x434;" horiz-adv-x="620" 
d="M23 -144v241h41q36 25 51.5 78t15.5 149v71q0 11 -2 14.5t-12 7.5l-35 14l12 59h443v-393h73v-241h-118v144h-351v-144h-118zM213 97h201v296h-160v-79q0 -81 -9 -132t-32 -85z" />
    <glyph glyph-name="uni0435" unicode="&#x435;" horiz-adv-x="539" 
d="M309 -12q-73 0 -125 14.5t-85.5 46t-49 80t-15.5 116.5t14 117t43.5 80t76 45.5t111.5 14.5q120 0 173 -58.5t53 -190.5q0 -13 -0.5 -23.5t-1.5 -21.5h-344q4 -66 41.5 -94.5t118.5 -28.5q82 0 165 24v-98q-40 -12 -83 -17.5t-92 -5.5zM159 290h223q-2 66 -25.5 94
t-77.5 28q-60 0 -88 -28.5t-32 -93.5z" />
    <glyph glyph-name="uni0436" unicode="&#x436;" horiz-adv-x="763" 
d="M10 0l198 266l-194 224h141l168 -197v197h118v-197l168 197h140l-193 -224l197 -266h-138l-137 191l-37 -38v-153h-118v153l-37 38l-138 -191h-138z" />
    <glyph glyph-name="uni0437" unicode="&#x437;" horiz-adv-x="479" 
d="M215 -12q-50 0 -95 6.5t-87 18.5v96q41 -14 82 -21.5t85 -7.5q60 0 86 15t26 49q0 35 -27 49.5t-87 14.5h-93v82h93q54 0 77.5 14t23.5 46t-24 46t-75 14q-35 0 -71.5 -5t-71.5 -16l-16 90q83 23 174 23q112 0 162 -33t50 -108q0 -43 -17.5 -69t-55.5 -37
q46 -14 67.5 -42.5t21.5 -79.5q0 -76 -54 -110.5t-174 -34.5z" />
    <glyph glyph-name="uni0438" unicode="&#x438;" horiz-adv-x="597" 
d="M67 0v395q0 11 -2 14.5t-12 7.5l-35 14l12 59h155v-318l229 318h123v-490h-118v319l-228 -319h-124z" />
    <glyph glyph-name="uni0439" unicode="&#x439;" horiz-adv-x="597" 
d="M67 0v395q0 11 -2 14.5t-12 7.5l-35 14l12 59h155v-318l229 318h123v-490h-118v319l-228 -319h-124zM302 545q-88 0 -128 37t-40 122h90q0 -39 18 -56.5t60 -17.5t60 17.5t18 56.5h90q0 -85 -40 -122t-128 -37z" />
    <glyph glyph-name="uni043A" unicode="&#x43a;" horiz-adv-x="526" 
d="M67 0v395q0 11 -2 14.5t-12 7.5l-35 14l12 59h156q9 0 9 -10v-180l173 190h146l-197 -211l201 -279h-144l-136 199l-43 -46v-153h-128z" />
    <glyph glyph-name="uni043B" unicode="&#x43b;" horiz-adv-x="610" 
d="M47 -8h-10.5t-10.5 1v102h11q51 0 74 54.5t23 174.5v71q0 11 -2 14.5t-12 7.5l-35 14l12 59h453v-490h-128v393h-164v-79q0 -86 -11.5 -147t-37 -100t-65.5 -57t-97 -18z" />
    <glyph glyph-name="uni043C" unicode="&#x43c;" horiz-adv-x="661" 
d="M67 0v395q0 11 -2 14.5t-12 7.5l-35 14l12 59h161l143 -235l144 235h123v-490h-118v308l-110 -176h-78l-110 176v-308h-118z" />
    <glyph glyph-name="uni043D" unicode="&#x43d;" horiz-adv-x="593" 
d="M63 0v395q0 11 -2 14.5t-12 7.5l-35 14l12 59h165v-192h214v192h128v-490h-128v200h-214v-200h-128z" />
    <glyph glyph-name="uni043E" unicode="&#x43e;" horiz-adv-x="579" 
d="M289 -12q-68 0 -116.5 14.5t-79.5 46t-45.5 80t-14.5 116.5t14.5 117t45.5 80t79.5 45.5t116.5 14.5t116.5 -14.5t80 -45.5t46 -80t14.5 -117q0 -136 -60.5 -196.5t-196.5 -60.5zM289 88q68 0 97.5 36.5t29.5 120.5t-29.5 120.5t-97.5 36.5q-67 0 -96.5 -36.5
t-29.5 -120.5t29.5 -120.5t96.5 -36.5z" />
    <glyph glyph-name="uni043F" unicode="&#x43f;" horiz-adv-x="597" 
d="M67 0v395q0 11 -2 14.5t-12 7.5l-35 14l12 59h507v-490h-128v393h-214v-393h-128z" />
    <glyph glyph-name="uni0440" unicode="&#x440;" horiz-adv-x="594" 
d="M67 -208v603q0 11 -2 14.5t-12 7.5l-35 14l12 59h151q9 0 9 -10v-34q28 30 62 43t90 13q57 0 98.5 -14.5t67.5 -45.5t38.5 -80t12.5 -117t-12.5 -117t-38.5 -80t-67.5 -45.5t-98.5 -14.5q-96 0 -147 48v-244h-128zM309 88q64 0 92 36.5t28 120.5t-28 120.5t-92 36.5
q-61 0 -87.5 -28t-26.5 -93v-158q17 -12 43.5 -23.5t70.5 -11.5z" />
    <glyph glyph-name="uni0441" unicode="&#x441;" horiz-adv-x="485" 
d="M292 -12q-68 0 -116.5 14.5t-79.5 46t-45.5 80t-14.5 116.5t14.5 117t45.5 80t79.5 45.5t116.5 14.5q63 0 104.5 -8t58.5 -14l-18 -96q-18 6 -51 12t-73 6q-78 0 -112.5 -36.5t-34.5 -120.5t34.5 -120.5t112.5 -36.5q67 0 133 20v-101q-67 -19 -154 -19z" />
    <glyph glyph-name="uni0442" unicode="&#x442;" horiz-adv-x="473" 
d="M172 0v393h-153v97h435v-97h-154v-393h-128z" />
    <glyph glyph-name="uni0443" unicode="&#x443;" horiz-adv-x="544" 
d="M110 -220q-10 0 -22 0.5t-20 1.5v98q7 -1 17 -1.5t18 -0.5q22 0 38 4.5t28.5 15t22.5 27t19 41.5l11 29l-214 495h139l134 -339l114 339h133l-204 -550q-16 -42 -34.5 -72.5t-43.5 -50t-58 -28.5t-78 -9z" />
    <glyph glyph-name="uni0444" unicode="&#x444;" horiz-adv-x="713" 
d="M297 -208v199q-142 7 -205.5 68.5t-63.5 185.5t63.5 186t205.5 69v109q0 11 -2 14.5t-12 7.5l-35 14l12 59h155v-204q142 -7 206 -69t64 -186t-64 -185.5t-206 -68.5v-104q0 -11 2 -14.5t12 -7.5l35 -14l-12 -59h-155zM297 90v310q-78 -5 -113.5 -41t-35.5 -114
t35.5 -114t113.5 -41zM415 400v-310q79 5 114.5 41t35.5 114t-35.5 114t-114.5 41z" />
    <glyph glyph-name="uni0445" unicode="&#x445;" horiz-adv-x="532" 
d="M18 0l168 249l-162 241h139l103 -162l104 162h138l-162 -241l168 -249h-139l-109 171l-108 -171h-140z" />
    <glyph glyph-name="uni0446" unicode="&#x446;" horiz-adv-x="620" 
d="M492 -144v144h-425v395q0 11 -2 14.5t-12 7.5l-35 14l12 59h165v-393h214v393h128v-393h73v-241h-118z" />
    <glyph glyph-name="uni0447" unicode="&#x447;" horiz-adv-x="553" 
d="M367 0v191q-58 -19 -124 -19q-109 0 -156.5 43.5t-47.5 139.5v40q0 11 -2 14.5t-12 7.5l-35 14l12 59h164v-125q0 -50 24 -71.5t78 -21.5q27 0 51.5 3.5t47.5 10.5v204h128v-490h-128z" />
    <glyph glyph-name="uni0448" unicode="&#x448;" horiz-adv-x="869" 
d="M67 0v395q0 11 -2 14.5t-12 7.5l-35 14l12 59h165v-393h179v393h128v-393h179v393h128v-490h-742z" />
    <glyph glyph-name="uni0449" unicode="&#x449;" horiz-adv-x="892" 
d="M764 -144v144h-697v395q0 11 -2 14.5t-12 7.5l-35 14l12 59h165v-393h179v393h128v-393h179v393h128v-393h73v-241h-118z" />
    <glyph glyph-name="uni044A" unicode="&#x44a;" horiz-adv-x="606" 
d="M157 0v393h-147v97h270v-162h119q99 0 143 -38.5t44 -125.5t-44 -125.5t-143 -38.5h-242zM280 92h99q43 0 62 17t19 55t-18.5 55t-62.5 17h-99v-144z" />
    <glyph glyph-name="uni044B" unicode="&#x44b;" horiz-adv-x="784" 
d="M67 0v395q0 11 -2 14.5t-12 7.5l-35 14l12 59h160v-162h127q99 0 142.5 -38.5t43.5 -125.5t-43.5 -125.5t-142.5 -38.5h-250zM190 92h106q44 0 63 17t19 55t-19 55t-63 17h-106v-144zM595 0v395q0 11 -2 14.5t-12 7.5l-35 14l12 59h156q9 0 9 -10v-480h-128z" />
    <glyph glyph-name="uni044C" unicode="&#x44c;" horiz-adv-x="523" 
d="M67 0v395q0 11 -2 14.5t-12 7.5l-35 14l12 59h160v-162h127q99 0 142.5 -38.5t43.5 -125.5t-43.5 -125.5t-142.5 -38.5h-250zM190 92h106q44 0 63 17t19 55t-19 55t-63 17h-106v-144z" />
    <glyph glyph-name="uni044D" unicode="&#x44d;" horiz-adv-x="479" 
d="M186 -12q-86 0 -153 19v96q66 -20 133 -20q69 0 103.5 28.5t42.5 93.5h-231v88h229q-9 60 -42 87t-95 27q-32 0 -62.5 -4.5t-58.5 -12.5l-19 93q67 19 153 19q68 0 116.5 -14.5t80 -45.5t46 -80t14.5 -117q0 -136 -60.5 -196.5t-196.5 -60.5z" />
    <glyph glyph-name="uni044E" unicode="&#x44e;" horiz-adv-x="820" 
d="M537 -12q-120 0 -178.5 50t-67.5 162h-101v-200h-123v395q0 11 -2 14.5t-12 7.5l-35 14l12 59h160v-192h102q10 108 68.5 156t176.5 48q131 0 190 -60.5t59 -196.5q0 -68 -14.5 -116.5t-44.5 -80t-77 -46t-113 -14.5zM537 88q66 0 95 36.5t29 120.5t-29 120.5t-95 36.5
t-94.5 -36.5t-28.5 -120.5t28.5 -120.5t94.5 -36.5z" />
    <glyph glyph-name="uni044F" unicode="&#x44f;" horiz-adv-x="537" 
d="M25 0l115 185q-96 27 -96 145q0 85 44 122.5t143 37.5h248v-490h-120v170h-102l-97 -170h-135zM247 263h112v135h-112q-43 0 -62 -16t-19 -52t19 -51.5t62 -15.5z" />
    <glyph glyph-name="uni0450" unicode="&#x450;" horiz-adv-x="539" 
d="M309 -12q-73 0 -125 14.5t-85.5 46t-49 80t-15.5 116.5t14 117t43.5 80t76 45.5t111.5 14.5q120 0 173 -58.5t53 -190.5q0 -13 -0.5 -23.5t-1.5 -21.5h-344q4 -66 41.5 -94.5t118.5 -28.5q82 0 165 24v-98q-40 -12 -83 -17.5t-92 -5.5zM159 290h223q-2 66 -25.5 94
t-77.5 28q-60 0 -88 -28.5t-32 -93.5zM208 556l-114 148h133l93 -148h-112z" />
    <glyph glyph-name="uni0451" unicode="&#x451;" horiz-adv-x="539" 
d="M309 -12q-73 0 -125 14.5t-85.5 46t-49 80t-15.5 116.5t14 117t43.5 80t76 45.5t111.5 14.5q120 0 173 -58.5t53 -190.5q0 -13 -0.5 -23.5t-1.5 -21.5h-344q4 -66 41.5 -94.5t118.5 -28.5q82 0 165 24v-98q-40 -12 -83 -17.5t-92 -5.5zM159 290h223q-2 66 -25.5 94
t-77.5 28q-60 0 -88 -28.5t-32 -93.5zM387 559q-38 0 -55.5 16.5t-17.5 54.5t17.5 54.5t55.5 16.5q39 0 56.5 -16.5t17.5 -54.5t-17.5 -54.5t-56.5 -16.5zM171 559q-39 0 -56.5 16.5t-17.5 54.5t17.5 54.5t56.5 16.5q38 0 55.5 -16.5t17.5 -54.5t-17.5 -54.5t-55.5 -16.5z
" />
    <glyph glyph-name="uni0452" unicode="&#x452;" horiz-adv-x="595" 
d="M345 -220q-50 0 -92 9v100q34 -9 72 -9q44 0 62.5 19t18.5 64v334q0 55 -22.5 79t-75.5 24q-38 0 -70.5 -10t-45.5 -18v-372h-128v551h-54v88h54v65h128v-65h167v-88h-167v-97q29 24 64.5 36t83.5 12q97 0 145.5 -46.5t48.5 -153.5v-344q0 -95 -44 -136.5t-145 -41.5z
" />
    <glyph glyph-name="uni0453" unicode="&#x453;" horiz-adv-x="443" 
d="M67 0v395q0 11 -2 14.5t-12 7.5l-35 14l12 59h394v-97h-229v-393h-128zM164 556l93 148h133l-114 -148h-112z" />
    <glyph glyph-name="uni0454" unicode="&#x454;" horiz-adv-x="479" 
d="M292 -12q-68 0 -116.5 14.5t-79.5 46t-45.5 80t-14.5 116.5t14.5 117t45.5 80t79.5 45.5t116.5 14.5q45 0 82.5 -4t71.5 -15l-19 -92q-28 8 -58 12t-56 4q-67 0 -101 -27t-43 -87h229v-88h-231q8 -65 42.5 -93.5t103.5 -28.5q67 0 133 20v-96q-67 -19 -154 -19z" />
    <glyph glyph-name="uni0455" unicode="&#x455;" horiz-adv-x="467" 
d="M227 -12q-100 0 -182 24v99q42 -13 85 -20t87 -7q97 0 97 57q0 24 -20.5 35t-51.5 17.5t-67 12.5t-67 21t-51.5 43.5t-20.5 79.5q0 41 16 70t44 47t66.5 26.5t83.5 8.5q47 0 93.5 -6.5t80.5 -17.5l-19 -95q-35 11 -71.5 17t-74.5 6q-50 0 -72 -13.5t-22 -39.5
q0 -23 20.5 -33.5t51.5 -16.5t67 -12.5t67 -22t51.5 -44.5t20.5 -80q0 -81 -51.5 -118.5t-160.5 -37.5z" />
    <glyph glyph-name="uni0456" unicode="&#x456;" horiz-adv-x="261" 
d="M72 0v395q0 11 -2 14.5t-12 7.5l-35 14l12 59h156q9 0 9 -10v-480h-128zM136 556q-40 0 -58 17.5t-18 56.5q0 38 18 55.5t58 17.5q41 0 58.5 -17.5t17.5 -55.5q0 -39 -17.5 -56.5t-58.5 -17.5z" />
    <glyph glyph-name="uni0457" unicode="&#x457;" horiz-adv-x="261" 
d="M72 0v395q0 11 -2 14.5t-12 7.5l-35 14l12 59h156q9 0 9 -10v-480h-128zM237 559q-38 0 -55.5 16.5t-17.5 54.5t17.5 54.5t55.5 16.5q39 0 56.5 -16.5t17.5 -54.5t-17.5 -54.5t-56.5 -16.5zM21 559q-39 0 -56.5 16.5t-17.5 54.5t17.5 54.5t56.5 16.5q38 0 55.5 -16.5
t17.5 -54.5t-17.5 -54.5t-55.5 -16.5z" />
    <glyph glyph-name="uni0458" unicode="&#x458;" horiz-adv-x="261" 
d="M15 -217q-27 0 -51 3v95q8 -1 15.5 -1h14.5q49 0 63.5 23t14.5 69v423q0 11 -2 14.5t-12 7.5l-35 14l12 59h156q9 0 9 -10v-511q0 -46 -9.5 -81t-31.5 -58t-57 -35t-87 -12zM136 556q-40 0 -58 17.5t-18 56.5q0 38 18 55.5t58 17.5q41 0 58.5 -17.5t17.5 -55.5
q0 -39 -17.5 -56.5t-58.5 -17.5z" />
    <glyph glyph-name="uni0459" unicode="&#x459;" horiz-adv-x="862" 
d="M47 -8h-10.5t-10.5 1v102h11q51 0 74 54.5t23 174.5v71q0 11 -2 14.5t-12 7.5l-35 14l12 59h440v-162h118q99 0 143 -38.5t44 -125.5t-44 -125.5t-143 -38.5h-241v393h-160v-79q0 -86 -11.5 -147t-36.5 -100t-64.5 -57t-94.5 -18zM537 92h98q44 0 62.5 17t18.5 55
t-18.5 55t-62.5 17h-98v-144z" />
    <glyph glyph-name="uni045A" unicode="&#x45a;" horiz-adv-x="849" 
d="M67 0v395q0 11 -2 14.5t-12 7.5l-35 14l12 59h160v-183h211v183h123v-183h131q93 0 133.5 -36.5t40.5 -117.5q0 -80 -40.5 -116.5t-133.5 -36.5h-254v209h-211v-209h-123zM524 87h103q41 0 58.5 15.5t17.5 50.5t-17.5 51t-58.5 16h-103v-133z" />
    <glyph glyph-name="uni045B" unicode="&#x45b;" horiz-adv-x="595" 
d="M64 0v551h-54v88h54v65h128v-65h167v-88h-167v-98q49 49 142 49q107 0 153.5 -46.5t46.5 -153.5v-207q0 -11 2 -14.5t12 -7.5l35 -14l-12 -59h-156q-9 0 -9 10v287q0 55 -22.5 79t-75.5 24q-38 0 -70.5 -10t-45.5 -18v-372h-128z" />
    <glyph glyph-name="uni045C" unicode="&#x45c;" horiz-adv-x="526" 
d="M67 0v395q0 11 -2 14.5t-12 7.5l-35 14l12 59h156q9 0 9 -10v-180l173 190h146l-197 -211l201 -279h-144l-136 199l-43 -46v-153h-128zM184 556l123 148h133l-144 -148h-112z" />
    <glyph glyph-name="uni045D" unicode="&#x45d;" horiz-adv-x="597" 
d="M67 0v395q0 11 -2 14.5t-12 7.5l-35 14l12 59h155v-318l229 318h123v-490h-118v319l-228 -319h-124zM265 556l-114 148h133l93 -148h-112z" />
    <glyph glyph-name="uni045E" unicode="&#x45e;" horiz-adv-x="544" 
d="M110 -220q-10 0 -22 0.5t-20 1.5v98q7 -1 17 -1.5t18 -0.5q22 0 38 4.5t28.5 15t22.5 27t19 41.5l11 29l-214 495h139l134 -339l114 339h133l-204 -550q-16 -42 -34.5 -72.5t-43.5 -50t-58 -28.5t-78 -9zM272 545q-88 0 -128 37t-40 122h90q0 -39 18 -56.5t60 -17.5
t60 17.5t18 56.5h90q0 -85 -40 -122t-128 -37z" />
    <glyph glyph-name="uni045F" unicode="&#x45f;" horiz-adv-x="597" 
d="M243 -144v144h-176v395q0 11 -2 14.5t-12 7.5l-35 14l12 59h165v-393h214v393h128v-490h-176v-144h-118z" />
    <glyph glyph-name="uni0490" unicode="&#x490;" horiz-adv-x="544" 
d="M85 0v578q0 11 -2.5 14.5t-12.5 7.5l-36 14l11 58h357v160h123v-262h-307v-570h-133z" />
    <glyph glyph-name="uni0491" unicode="&#x491;" horiz-adv-x="443" 
d="M67 0v395q0 11 -2 14.5t-12 7.5l-35 14l12 59h276v144h118v-241h-229v-393h-128z" />
    <glyph glyph-name="uni0492" unicode="&#x492;" horiz-adv-x="550" 
d="M91 0v267h-73v93h73v218q0 11 -2.5 14.5t-12.5 7.5l-36 14l11 58h480v-102h-307v-210h181v-93h-181v-267h-133z" />
    <glyph glyph-name="uni0493" unicode="&#x493;" horiz-adv-x="459" 
d="M82 0v182h-70v87h70v126q0 11 -2 14.5t-12 7.5l-35 14l12 59h394v-97h-229v-124h125v-87h-125v-182h-128z" />
    <glyph glyph-name="uni049A" unicode="&#x49a;" horiz-adv-x="707" 
d="M564 -160v160h-75l-217 281l-59 -63v-218h-128v578q0 11 -2.5 14.5t-12.5 7.5l-36 14l11 58h168v-293l267 293h151l-278 -309l210 -261h124v-262h-123z" />
    <glyph glyph-name="uni049B" unicode="&#x49b;" horiz-adv-x="573" 
d="M443 -144v144h-69l-136 199l-43 -46v-153h-128v395q0 11 -2 14.5t-12 7.5l-35 14l12 59h156q9 0 9 -10v-180l173 190h146l-196 -211l131 -182h112v-241h-118z" />
    <glyph glyph-name="uni04A2" unicode="&#x4a2;" horiz-adv-x="810" 
d="M660 -160v160h-94v291h-348v-291h-133v578q0 11 -2.5 14.5t-12.5 7.5l-36 14l11 58h173v-279h348v279h133v-570h84v-262h-123z" />
    <glyph glyph-name="uni04A3" unicode="&#x4a3;" horiz-adv-x="620" 
d="M492 -144v144h-83v200h-214v-200h-128v395q0 11 -2 14.5t-12 7.5l-35 14l12 59h165v-192h214v192h128v-393h73v-241h-118z" />
    <glyph glyph-name="uni04AE" unicode="&#x4ae;" horiz-adv-x="617" 
d="M242 0v273l-246 399h150l162 -281l163 281h149l-245 -399v-273h-133z" />
    <glyph glyph-name="uni04AF" unicode="&#x4af;" horiz-adv-x="528" 
d="M200 -208v191l-192 507h134l122 -361l123 361h133l-192 -507v-191h-128z" />
    <glyph glyph-name="uni04B0" unicode="&#x4b0;" horiz-adv-x="629" 
d="M248 0v240h-156v92h121l-211 340h150l162 -281l163 281h149l-211 -340h122v-92h-156v-240h-133z" />
    <glyph glyph-name="uni04B1" unicode="&#x4b1;" horiz-adv-x="540" 
d="M206 -208v186h-136v87h109l-165 425h134l122 -361l123 361h133l-164 -425h115v-87h-143v-186h-128z" />
    <glyph glyph-name="uni04BA" unicode="&#x4ba;" horiz-adv-x="687" 
d="M68 0v578q0 11 -2.5 14.5t-12.5 7.5l-36 14l11 58h173v-271q95 23 181 23q134 0 194.5 -57.5t60.5 -183.5v-183h-133v173q0 78 -36 112t-117 34q-37 0 -74.5 -5t-75.5 -13v-301h-133z" />
    <glyph glyph-name="uni04BB" unicode="&#x4bb;" horiz-adv-x="595" 
d="M64 0v609q0 11 -2 14.5t-12 7.5l-35 14l12 59h156q9 0 9 -10v-240q57 48 148 48q97 0 145.5 -46.5t48.5 -153.5v-207q0 -11 2 -14.5t12 -7.5l35 -14l-12 -59h-156q-9 0 -9 10v287q0 55 -22.5 79t-75.5 24q-38 0 -70.5 -10t-45.5 -18v-372h-128z" />
    <glyph glyph-name="uni04D8" unicode="&#x4d8;" horiz-adv-x="692" 
d="M335 -12q-78 0 -134 19t-92 60t-53 104.5t-17 152.5v26t2 26h480q-5 112 -59 160t-168 48q-54 0 -105.5 -8t-103.5 -22l-17 97q56 16 111.5 24.5t111.5 8.5q95 0 163.5 -20t113 -62t65.5 -108t21 -158t-18 -158t-56.5 -108t-99 -62t-145.5 -20zM335 83q96 0 139 47
t47 154h-352q2 -107 41 -154t125 -47z" />
    <glyph glyph-name="uni04D9" unicode="&#x4d9;" horiz-adv-x="537" 
d="M258 -12q-120 0 -173 59t-53 190v24t2 21h343q-4 66 -41 94.5t-119 28.5q-70 0 -145 -20l-19 94q80 23 174 23q145 0 210.5 -60.5t65.5 -196.5t-58 -196.5t-187 -60.5zM258 78q60 0 88 29t31 93h-223q2 -66 26 -94t78 -28z" />
    <glyph glyph-name="uni04E8" unicode="&#x4e8;" horiz-adv-x="751" 
d="M375 -12q-89 0 -153 20t-104.5 62t-59.5 108t-19 158t19 158t59.5 108t104.5 62t153 20t153 -20t105 -62t60 -108t19 -158t-19 -158t-60 -108t-105 -62t-153 -20zM375 88q103 0 152.5 48t57.5 157h-420q8 -109 57.5 -157t152.5 -48zM166 391h418q-9 102 -59 147.5
t-150 45.5t-149.5 -45.5t-59.5 -147.5z" />
    <glyph glyph-name="uni04E9" unicode="&#x4e9;" horiz-adv-x="579" 
d="M289 -12q-68 0 -116.5 14.5t-79.5 46t-45.5 80t-14.5 116.5t14.5 117t45.5 80t79.5 45.5t116.5 14.5t116.5 -14.5t80 -45.5t46 -80t14.5 -117q0 -136 -60.5 -196.5t-196.5 -60.5zM289 78q66 0 99 29.5t41 95.5h-279q7 -66 40 -95.5t99 -29.5zM150 291h278q-8 64 -41 92.5
t-98 28.5t-98 -28.5t-41 -92.5z" />
    <glyph glyph-name="Wgrave" unicode="&#x1e80;" horiz-adv-x="1017" 
d="M369 0h-152q-27 66 -56 153t-57 178.5t-51.5 180.5t-38.5 160h130q9 -42 25.5 -107.5t40.5 -156.5q9 -36 20 -74t22.5 -75.5t22.5 -72t21 -62.5h1q10 28 21 62.5t22 72t22 75.5t20 74q23 85 38 146.5t25 103.5h127q10 -42 25 -103.5t38 -146.5q9 -36 20 -74t22 -75.5
t22 -72t21 -62.5h1q10 28 21 62.5t22.5 72t22.5 75.5t20 74q24 91 40.5 156.5t25.5 107.5h130q-15 -71 -38.5 -160t-51.5 -180.5t-57 -178.5t-56 -153h-152q-19 46 -37 96t-32 91q-12 37 -23.5 77t-20.5 78t-15.5 72t-10.5 61h-1q-4 -27 -10.5 -61t-15.5 -72t-20.5 -78
t-23.5 -77q-14 -41 -32 -91t-37 -96zM447 738l-114 148h133l93 -148h-112z" />
    <glyph glyph-name="wgrave" unicode="&#x1e81;" horiz-adv-x="838" 
d="M321 0h-138q-26 62 -49 126.5t-44 127.5t-38.5 123t-30.5 113h126q9 -38 22 -85t25 -89q14 -48 29 -96.5t32 -95.5h1q14 41 30 89.5t31 102.5q11 38 22 80t20 78h120q9 -36 20 -78t22 -80q15 -54 31 -102.5t30 -89.5h1q17 47 32 95.5t29 96.5q12 42 25 89t22 85h126
q-14 -53 -31 -113t-38 -123t-44.5 -127.5t-48.5 -126.5h-138q-27 66 -52 146t-45 159h-2q-20 -79 -45 -159t-52 -146zM357 556l-114 148h133l93 -148h-112z" />
    <glyph glyph-name="Wacute" unicode="&#x1e82;" horiz-adv-x="1017" 
d="M369 0h-152q-27 66 -56 153t-57 178.5t-51.5 180.5t-38.5 160h130q9 -42 25.5 -107.5t40.5 -156.5q9 -36 20 -74t22.5 -75.5t22.5 -72t21 -62.5h1q10 28 21 62.5t22 72t22 75.5t20 74q23 85 38 146.5t25 103.5h127q10 -42 25 -103.5t38 -146.5q9 -36 20 -74t22 -75.5
t22 -72t21 -62.5h1q10 28 21 62.5t22.5 72t22.5 75.5t20 74q24 91 40.5 156.5t25.5 107.5h130q-15 -71 -38.5 -160t-51.5 -180.5t-57 -178.5t-56 -153h-152q-19 46 -37 96t-32 91q-12 37 -23.5 77t-20.5 78t-15.5 72t-10.5 61h-1q-4 -27 -10.5 -61t-15.5 -72t-20.5 -78
t-23.5 -77q-14 -41 -32 -91t-37 -96zM446 738l93 148h133l-114 -148h-112z" />
    <glyph glyph-name="wacute" unicode="&#x1e83;" horiz-adv-x="838" 
d="M321 0h-138q-26 62 -49 126.5t-44 127.5t-38.5 123t-30.5 113h126q9 -38 22 -85t25 -89q14 -48 29 -96.5t32 -95.5h1q14 41 30 89.5t31 102.5q11 38 22 80t20 78h120q9 -36 20 -78t22 -80q15 -54 31 -102.5t30 -89.5h1q17 47 32 95.5t29 96.5q12 42 25 89t22 85h126
q-14 -53 -31 -113t-38 -123t-44.5 -127.5t-48.5 -126.5h-138q-27 66 -52 146t-45 159h-2q-20 -79 -45 -159t-52 -146zM356 556l93 148h133l-114 -148h-112z" />
    <glyph glyph-name="Wdieresis" unicode="&#x1e84;" horiz-adv-x="1017" 
d="M369 0h-152q-27 66 -56 153t-57 178.5t-51.5 180.5t-38.5 160h130q9 -42 25.5 -107.5t40.5 -156.5q9 -36 20 -74t22.5 -75.5t22.5 -72t21 -62.5h1q10 28 21 62.5t22 72t22 75.5t20 74q23 85 38 146.5t25 103.5h127q10 -42 25 -103.5t38 -146.5q9 -36 20 -74t22 -75.5
t22 -72t21 -62.5h1q10 28 21 62.5t22.5 72t22.5 75.5t20 74q24 91 40.5 156.5t25.5 107.5h130q-15 -71 -38.5 -160t-51.5 -180.5t-57 -178.5t-56 -153h-152q-19 46 -37 96t-32 91q-12 37 -23.5 77t-20.5 78t-15.5 72t-10.5 61h-1q-4 -27 -10.5 -61t-15.5 -72t-20.5 -78
t-23.5 -77q-14 -41 -32 -91t-37 -96zM617 735q-38 0 -55.5 16.5t-17.5 54.5t17.5 54.5t55.5 16.5q39 0 56.5 -16.5t17.5 -54.5t-17.5 -54.5t-56.5 -16.5zM401 735q-39 0 -56.5 16.5t-17.5 54.5t17.5 54.5t56.5 16.5q38 0 55.5 -16.5t17.5 -54.5t-17.5 -54.5t-55.5 -16.5z
" />
    <glyph glyph-name="wdieresis" unicode="&#x1e85;" horiz-adv-x="838" 
d="M321 0h-138q-26 62 -49 126.5t-44 127.5t-38.5 123t-30.5 113h126q9 -38 22 -85t25 -89q14 -48 29 -96.5t32 -95.5h1q14 41 30 89.5t31 102.5q11 38 22 80t20 78h120q9 -36 20 -78t22 -80q15 -54 31 -102.5t30 -89.5h1q17 47 32 95.5t29 96.5q12 42 25 89t22 85h126
q-14 -53 -31 -113t-38 -123t-44.5 -127.5t-48.5 -126.5h-138q-27 66 -52 146t-45 159h-2q-20 -79 -45 -159t-52 -146zM529 559q-38 0 -55.5 16.5t-17.5 54.5t17.5 54.5t55.5 16.5q39 0 56.5 -16.5t17.5 -54.5t-17.5 -54.5t-56.5 -16.5zM313 559q-39 0 -56.5 16.5t-17.5 54.5
t17.5 54.5t56.5 16.5q38 0 55.5 -16.5t17.5 -54.5t-17.5 -54.5t-55.5 -16.5z" />
    <glyph glyph-name="uni1E9E" unicode="&#x1e9e;" horiz-adv-x="751" 
d="M447 -12q-90 0 -166 18v101q76 -19 155 -19q78 0 111.5 25.5t33.5 84.5q0 58 -35.5 83t-116.5 25h-26v82l135 186q-31 5 -62.5 7.5t-63.5 2.5q-115 0 -165.5 -46.5t-50.5 -152.5v-385h-128v396q0 76 19.5 130.5t60.5 89.5t105 51.5t154 16.5q71 0 139 -7t134 -18v-83
l-137 -188q85 -11 127 -58t42 -135q0 -55 -15 -94t-47.5 -64t-82.5 -37t-120 -12z" />
    <glyph glyph-name="uni1EA0" unicode="&#x1ea0;" horiz-adv-x="664" 
d="M138 0h-134q12 47 30 105t39.5 121t45.5 127t48.5 123t47.5 109.5t43 86.5h148q20 -36 43 -86.5t47.5 -109.5t48.5 -123t45.5 -127t39.5 -121t30 -105h-134q-11 41 -23 80t-23 77h-296q-12 -38 -23.5 -77t-22.5 -80zM216 255h232q-54 155 -116 299q-64 -144 -116 -299z
M332 -209q-39 0 -56 16.5t-17 54.5t17 54.5t56 16.5t56 -16.5t17 -54.5t-17 -54.5t-56 -16.5z" />
    <glyph glyph-name="uni1EA1" unicode="&#x1ea1;" horiz-adv-x="543" 
d="M224 -12q-100 0 -145.5 36.5t-45.5 114.5q0 75 49 110t155 35q65 0 122 -17v46q0 50 -29 71t-98 21q-75 0 -154 -24v98q81 23 169 23q124 0 179.5 -46.5t55.5 -152.5v-208q0 -11 2 -14.5t12 -7.5l35 -14l-12 -59h-109q-15 0 -19 4t-7 17l-4 21q-50 -54 -156 -54zM249 78
q58 0 84 19t26 61v28q-46 16 -102 16q-51 0 -75 -14.5t-24 -47.5q0 -32 21.5 -47t69.5 -15zM272 -209q-39 0 -56 16.5t-17 54.5t17 54.5t56 16.5t56 -16.5t17 -54.5t-17 -54.5t-56 -16.5z" />
    <glyph glyph-name="uni1EA2" unicode="&#x1ea2;" horiz-adv-x="664" 
d="M138 0h-134q12 47 30 105t39.5 121t45.5 127t48.5 123t47.5 109.5t43 86.5h148q20 -36 43 -86.5t47.5 -109.5t48.5 -123t45.5 -127t39.5 -121t30 -105h-134q-11 41 -23 80t-23 77h-296q-12 -38 -23.5 -77t-22.5 -80zM216 255h232q-54 155 -116 299q-64 -144 -116 -299z
M336 805q13 18 13 33q0 14 -8 19.5t-27 5.5q-11 0 -24.5 -6.5t-22.5 -16.5l-39 56q29 26 52 33.5t52 7.5q50 0 76 -21.5t26 -61.5q0 -64 -92 -126l-40 39q20 19 34 38z" />
    <glyph glyph-name="uni1EA3" unicode="&#x1ea3;" horiz-adv-x="543" 
d="M224 -12q-100 0 -145.5 36.5t-45.5 114.5q0 75 49 110t155 35q65 0 122 -17v46q0 50 -29 71t-98 21q-75 0 -154 -24v98q81 23 169 23q124 0 179.5 -46.5t55.5 -152.5v-208q0 -11 2 -14.5t12 -7.5l35 -14l-12 -59h-109q-15 0 -19 4t-7 17l-4 21q-50 -54 -156 -54zM249 78
q58 0 84 19t26 61v28q-46 16 -102 16q-51 0 -75 -14.5t-24 -47.5q0 -32 21.5 -47t69.5 -15zM276 623q13 18 13 33q0 14 -8 19.5t-27 5.5q-11 0 -24.5 -6.5t-22.5 -16.5l-39 56q29 26 52 33.5t52 7.5q50 0 76 -21.5t26 -61.5q0 -64 -92 -126l-40 39q20 19 34 38z" />
    <glyph glyph-name="uni1EA4" unicode="&#x1ea4;" horiz-adv-x="664" 
d="M138 0h-134q12 47 30 105t39.5 121t45.5 127t48.5 123t47.5 109.5t43 86.5h148q20 -36 43 -86.5t47.5 -109.5t48.5 -123t45.5 -127t39.5 -121t30 -105h-134q-11 41 -23 80t-23 77h-296q-12 -38 -23.5 -77t-22.5 -80zM216 255h232q-54 155 -116 299q-64 -144 -116 -299z
M147 738l123 148h124l123 -148h-109l-76 81l-76 -81h-109zM483 849l93 148h133l-114 -148h-112z" />
    <glyph glyph-name="uni1EA5" unicode="&#x1ea5;" horiz-adv-x="543" 
d="M224 -12q-100 0 -145.5 36.5t-45.5 114.5q0 75 49 110t155 35q65 0 122 -17v46q0 50 -29 71t-98 21q-75 0 -154 -24v98q81 23 169 23q124 0 179.5 -46.5t55.5 -152.5v-208q0 -11 2 -14.5t12 -7.5l35 -14l-12 -59h-109q-15 0 -19 4t-7 17l-4 21q-50 -54 -156 -54zM249 78
q58 0 84 19t26 61v28q-46 16 -102 16q-51 0 -75 -14.5t-24 -47.5q0 -32 21.5 -47t69.5 -15zM87 556l123 148h124l123 -148h-109l-76 81l-76 -81h-109zM423 667l93 148h133l-114 -148h-112z" />
    <glyph glyph-name="uni1EA6" unicode="&#x1ea6;" horiz-adv-x="664" 
d="M138 0h-134q12 47 30 105t39.5 121t45.5 127t48.5 123t47.5 109.5t43 86.5h148q20 -36 43 -86.5t47.5 -109.5t48.5 -123t45.5 -127t39.5 -121t30 -105h-134q-11 41 -23 80t-23 77h-296q-12 -38 -23.5 -77t-22.5 -80zM216 255h232q-54 155 -116 299q-64 -144 -116 -299z
M147 738l123 148h124l123 -148h-109l-76 81l-76 -81h-109zM484 849l-114 148h133l93 -148h-112z" />
    <glyph glyph-name="uni1EA7" unicode="&#x1ea7;" horiz-adv-x="543" 
d="M224 -12q-100 0 -145.5 36.5t-45.5 114.5q0 75 49 110t155 35q65 0 122 -17v46q0 50 -29 71t-98 21q-75 0 -154 -24v98q81 23 169 23q124 0 179.5 -46.5t55.5 -152.5v-208q0 -11 2 -14.5t12 -7.5l35 -14l-12 -59h-109q-15 0 -19 4t-7 17l-4 21q-50 -54 -156 -54zM249 78
q58 0 84 19t26 61v28q-46 16 -102 16q-51 0 -75 -14.5t-24 -47.5q0 -32 21.5 -47t69.5 -15zM87 556l123 148h124l123 -148h-109l-76 81l-76 -81h-109zM424 667l-114 148h133l93 -148h-112z" />
    <glyph glyph-name="uni1EA8" unicode="&#x1ea8;" horiz-adv-x="664" 
d="M138 0h-134q12 47 30 105t39.5 121t45.5 127t48.5 123t47.5 109.5t43 86.5h148q20 -36 43 -86.5t47.5 -109.5t48.5 -123t45.5 -127t39.5 -121t30 -105h-134q-11 41 -23 80t-23 77h-296q-12 -38 -23.5 -77t-22.5 -80zM216 255h232q-54 155 -116 299q-64 -144 -116 -299z
M147 738l123 148h124l123 -148h-109l-76 81l-76 -81h-109zM550 916q13 18 13 33q0 14 -8 19.5t-27 5.5q-11 0 -24.5 -6.5t-22.5 -16.5l-39 56q29 26 52 33.5t52 7.5q50 0 76 -21.5t26 -61.5q0 -64 -92 -126l-40 39q20 19 34 38z" />
    <glyph glyph-name="uni1EA9" unicode="&#x1ea9;" horiz-adv-x="543" 
d="M224 -12q-100 0 -145.5 36.5t-45.5 114.5q0 75 49 110t155 35q65 0 122 -17v46q0 50 -29 71t-98 21q-75 0 -154 -24v98q81 23 169 23q124 0 179.5 -46.5t55.5 -152.5v-208q0 -11 2 -14.5t12 -7.5l35 -14l-12 -59h-109q-15 0 -19 4t-7 17l-4 21q-50 -54 -156 -54zM249 78
q58 0 84 19t26 61v28q-46 16 -102 16q-51 0 -75 -14.5t-24 -47.5q0 -32 21.5 -47t69.5 -15zM87 556l123 148h124l123 -148h-109l-76 81l-76 -81h-109zM490 734q13 18 13 33q0 14 -8 19.5t-27 5.5q-11 0 -24.5 -6.5t-22.5 -16.5l-39 56q29 26 52 33.5t52 7.5q50 0 76 -21.5
t26 -61.5q0 -64 -92 -126l-40 39q20 19 34 38z" />
    <glyph glyph-name="uni1EAA" unicode="&#x1eaa;" horiz-adv-x="664" 
d="M138 0h-134q12 47 30 105t39.5 121t45.5 127t48.5 123t47.5 109.5t43 86.5h148q20 -36 43 -86.5t47.5 -109.5t48.5 -123t45.5 -127t39.5 -121t30 -105h-134q-11 41 -23 80t-23 77h-296q-12 -38 -23.5 -77t-22.5 -80zM216 255h232q-54 155 -116 299q-64 -144 -116 -299z
M147 738l123 148h124l123 -148h-109l-76 81l-76 -81h-109zM156 902v14q0 63 24 90.5t80 27.5q21 0 37 -6.5t29 -14t24.5 -14t22.5 -6.5q17 0 24 9t7 32v5h90v-13q0 -63 -24 -90.5t-80 -27.5q-21 0 -37 6.5t-29 14t-24.5 14t-22.5 6.5q-17 0 -24 -9t-7 -32v-6h-90z" />
    <glyph glyph-name="uni1EAB" unicode="&#x1eab;" horiz-adv-x="543" 
d="M224 -12q-100 0 -145.5 36.5t-45.5 114.5q0 75 49 110t155 35q65 0 122 -17v46q0 50 -29 71t-98 21q-75 0 -154 -24v98q81 23 169 23q124 0 179.5 -46.5t55.5 -152.5v-208q0 -11 2 -14.5t12 -7.5l35 -14l-12 -59h-109q-15 0 -19 4t-7 17l-4 21q-50 -54 -156 -54zM249 78
q58 0 84 19t26 61v28q-46 16 -102 16q-51 0 -75 -14.5t-24 -47.5q0 -32 21.5 -47t69.5 -15zM87 556l123 148h124l123 -148h-109l-76 81l-76 -81h-109zM96 720v14q0 63 24 90.5t80 27.5q21 0 37 -6.5t29 -14t24.5 -14t22.5 -6.5q17 0 24 9t7 32v5h90v-13q0 -63 -24 -90.5
t-80 -27.5q-21 0 -37 6.5t-29 14t-24.5 14t-22.5 6.5q-17 0 -24 -9t-7 -32v-6h-90z" />
    <glyph glyph-name="uni1EAC" unicode="&#x1eac;" horiz-adv-x="664" 
d="M138 0h-134q12 47 30 105t39.5 121t45.5 127t48.5 123t47.5 109.5t43 86.5h148q20 -36 43 -86.5t47.5 -109.5t48.5 -123t45.5 -127t39.5 -121t30 -105h-134q-11 41 -23 80t-23 77h-296q-12 -38 -23.5 -77t-22.5 -80zM216 255h232q-54 155 -116 299q-64 -144 -116 -299z
M332 -209q-39 0 -56 16.5t-17 54.5t17 54.5t56 16.5t56 -16.5t17 -54.5t-17 -54.5t-56 -16.5zM147 738l123 148h124l123 -148h-109l-76 81l-76 -81h-109z" />
    <glyph glyph-name="uni1EAD" unicode="&#x1ead;" horiz-adv-x="543" 
d="M224 -12q-100 0 -145.5 36.5t-45.5 114.5q0 75 49 110t155 35q65 0 122 -17v46q0 50 -29 71t-98 21q-75 0 -154 -24v98q81 23 169 23q124 0 179.5 -46.5t55.5 -152.5v-208q0 -11 2 -14.5t12 -7.5l35 -14l-12 -59h-109q-15 0 -19 4t-7 17l-4 21q-50 -54 -156 -54zM249 78
q58 0 84 19t26 61v28q-46 16 -102 16q-51 0 -75 -14.5t-24 -47.5q0 -32 21.5 -47t69.5 -15zM272 -209q-39 0 -56 16.5t-17 54.5t17 54.5t56 16.5t56 -16.5t17 -54.5t-17 -54.5t-56 -16.5zM87 556l123 148h124l123 -148h-109l-76 81l-76 -81h-109z" />
    <glyph glyph-name="uni1EAE" unicode="&#x1eae;" horiz-adv-x="664" 
d="M138 0h-134q12 47 30 105t39.5 121t45.5 127t48.5 123t47.5 109.5t43 86.5h148q20 -36 43 -86.5t47.5 -109.5t48.5 -123t45.5 -127t39.5 -121t30 -105h-134q-11 41 -23 80t-23 77h-296q-12 -38 -23.5 -77t-22.5 -80zM216 255h232q-54 155 -116 299q-64 -144 -116 -299z
M332 727q-88 0 -128 37t-40 122h90q0 -39 18 -56.5t60 -17.5t60 17.5t18 56.5h90q0 -85 -40 -122t-128 -37zM269 920l93 148h133l-114 -148h-112z" />
    <glyph glyph-name="uni1EAF" unicode="&#x1eaf;" horiz-adv-x="543" 
d="M224 -12q-100 0 -145.5 36.5t-45.5 114.5q0 75 49 110t155 35q65 0 122 -17v46q0 50 -29 71t-98 21q-75 0 -154 -24v98q81 23 169 23q124 0 179.5 -46.5t55.5 -152.5v-208q0 -11 2 -14.5t12 -7.5l35 -14l-12 -59h-109q-15 0 -19 4t-7 17l-4 21q-50 -54 -156 -54zM249 78
q58 0 84 19t26 61v28q-46 16 -102 16q-51 0 -75 -14.5t-24 -47.5q0 -32 21.5 -47t69.5 -15zM272 545q-88 0 -128 37t-40 122h90q0 -39 18 -56.5t60 -17.5t60 17.5t18 56.5h90q0 -85 -40 -122t-128 -37zM209 738l93 148h133l-114 -148h-112z" />
    <glyph glyph-name="uni1EB0" unicode="&#x1eb0;" horiz-adv-x="664" 
d="M138 0h-134q12 47 30 105t39.5 121t45.5 127t48.5 123t47.5 109.5t43 86.5h148q20 -36 43 -86.5t47.5 -109.5t48.5 -123t45.5 -127t39.5 -121t30 -105h-134q-11 41 -23 80t-23 77h-296q-12 -38 -23.5 -77t-22.5 -80zM216 255h232q-54 155 -116 299q-64 -144 -116 -299z
M332 727q-88 0 -128 37t-40 122h90q0 -39 18 -56.5t60 -17.5t60 17.5t18 56.5h90q0 -85 -40 -122t-128 -37zM270 920l-114 148h133l93 -148h-112z" />
    <glyph glyph-name="uni1EB1" unicode="&#x1eb1;" horiz-adv-x="543" 
d="M224 -12q-100 0 -145.5 36.5t-45.5 114.5q0 75 49 110t155 35q65 0 122 -17v46q0 50 -29 71t-98 21q-75 0 -154 -24v98q81 23 169 23q124 0 179.5 -46.5t55.5 -152.5v-208q0 -11 2 -14.5t12 -7.5l35 -14l-12 -59h-109q-15 0 -19 4t-7 17l-4 21q-50 -54 -156 -54zM249 78
q58 0 84 19t26 61v28q-46 16 -102 16q-51 0 -75 -14.5t-24 -47.5q0 -32 21.5 -47t69.5 -15zM272 545q-88 0 -128 37t-40 122h90q0 -39 18 -56.5t60 -17.5t60 17.5t18 56.5h90q0 -85 -40 -122t-128 -37zM210 738l-114 148h133l93 -148h-112z" />
    <glyph glyph-name="uni1EB2" unicode="&#x1eb2;" horiz-adv-x="664" 
d="M138 0h-134q12 47 30 105t39.5 121t45.5 127t48.5 123t47.5 109.5t43 86.5h148q20 -36 43 -86.5t47.5 -109.5t48.5 -123t45.5 -127t39.5 -121t30 -105h-134q-11 41 -23 80t-23 77h-296q-12 -38 -23.5 -77t-22.5 -80zM216 255h232q-54 155 -116 299q-64 -144 -116 -299z
M332 727q-88 0 -128 37t-40 122h90q0 -39 18 -56.5t60 -17.5t60 17.5t18 56.5h90q0 -85 -40 -122t-128 -37zM336 987q13 18 13 33q0 14 -8 19.5t-27 5.5q-11 0 -24.5 -6.5t-22.5 -16.5l-39 56q29 26 52 33.5t52 7.5q50 0 76 -21.5t26 -61.5q0 -64 -92 -126l-40 39
q20 19 34 38z" />
    <glyph glyph-name="uni1EB3" unicode="&#x1eb3;" horiz-adv-x="543" 
d="M224 -12q-100 0 -145.5 36.5t-45.5 114.5q0 75 49 110t155 35q65 0 122 -17v46q0 50 -29 71t-98 21q-75 0 -154 -24v98q81 23 169 23q124 0 179.5 -46.5t55.5 -152.5v-208q0 -11 2 -14.5t12 -7.5l35 -14l-12 -59h-109q-15 0 -19 4t-7 17l-4 21q-50 -54 -156 -54zM249 78
q58 0 84 19t26 61v28q-46 16 -102 16q-51 0 -75 -14.5t-24 -47.5q0 -32 21.5 -47t69.5 -15zM272 545q-88 0 -128 37t-40 122h90q0 -39 18 -56.5t60 -17.5t60 17.5t18 56.5h90q0 -85 -40 -122t-128 -37zM276 805q13 18 13 33q0 14 -8 19.5t-27 5.5q-11 0 -24.5 -6.5
t-22.5 -16.5l-39 56q29 26 52 33.5t52 7.5q50 0 76 -21.5t26 -61.5q0 -64 -92 -126l-40 39q20 19 34 38z" />
    <glyph glyph-name="uni1EB4" unicode="&#x1eb4;" horiz-adv-x="664" 
d="M138 0h-134q12 47 30 105t39.5 121t45.5 127t48.5 123t47.5 109.5t43 86.5h148q20 -36 43 -86.5t47.5 -109.5t48.5 -123t45.5 -127t39.5 -121t30 -105h-134q-11 41 -23 80t-23 77h-296q-12 -38 -23.5 -77t-22.5 -80zM216 255h232q-54 155 -116 299q-64 -144 -116 -299z
M332 727q-88 0 -128 37t-40 122h90q0 -39 18 -56.5t60 -17.5t60 17.5t18 56.5h90q0 -85 -40 -122t-128 -37zM163 925v14q0 63 24 90.5t80 27.5q21 0 37 -6.5t29 -14t24.5 -14t22.5 -6.5q17 0 24 9t7 32v5h90v-13q0 -63 -24 -90.5t-80 -27.5q-21 0 -37 6.5t-29 14t-24.5 14
t-22.5 6.5q-17 0 -24 -9t-7 -32v-6h-90z" />
    <glyph glyph-name="uni1EB5" unicode="&#x1eb5;" horiz-adv-x="543" 
d="M224 -12q-100 0 -145.5 36.5t-45.5 114.5q0 75 49 110t155 35q65 0 122 -17v46q0 50 -29 71t-98 21q-75 0 -154 -24v98q81 23 169 23q124 0 179.5 -46.5t55.5 -152.5v-208q0 -11 2 -14.5t12 -7.5l35 -14l-12 -59h-109q-15 0 -19 4t-7 17l-4 21q-50 -54 -156 -54zM249 78
q58 0 84 19t26 61v28q-46 16 -102 16q-51 0 -75 -14.5t-24 -47.5q0 -32 21.5 -47t69.5 -15zM272 545q-88 0 -128 37t-40 122h90q0 -39 18 -56.5t60 -17.5t60 17.5t18 56.5h90q0 -85 -40 -122t-128 -37zM103 743v14q0 63 24 90.5t80 27.5q21 0 37 -6.5t29 -14t24.5 -14
t22.5 -6.5q17 0 24 9t7 32v5h90v-13q0 -63 -24 -90.5t-80 -27.5q-21 0 -37 6.5t-29 14t-24.5 14t-22.5 6.5q-17 0 -24 -9t-7 -32v-6h-90z" />
    <glyph glyph-name="uni1EB6" unicode="&#x1eb6;" horiz-adv-x="664" 
d="M138 0h-134q12 47 30 105t39.5 121t45.5 127t48.5 123t47.5 109.5t43 86.5h148q20 -36 43 -86.5t47.5 -109.5t48.5 -123t45.5 -127t39.5 -121t30 -105h-134q-11 41 -23 80t-23 77h-296q-12 -38 -23.5 -77t-22.5 -80zM216 255h232q-54 155 -116 299q-64 -144 -116 -299z
M332 -209q-39 0 -56 16.5t-17 54.5t17 54.5t56 16.5t56 -16.5t17 -54.5t-17 -54.5t-56 -16.5zM332 727q-88 0 -128 37t-40 122h90q0 -39 18 -56.5t60 -17.5t60 17.5t18 56.5h90q0 -85 -40 -122t-128 -37z" />
    <glyph glyph-name="uni1EB7" unicode="&#x1eb7;" horiz-adv-x="543" 
d="M224 -12q-100 0 -145.5 36.5t-45.5 114.5q0 75 49 110t155 35q65 0 122 -17v46q0 50 -29 71t-98 21q-75 0 -154 -24v98q81 23 169 23q124 0 179.5 -46.5t55.5 -152.5v-208q0 -11 2 -14.5t12 -7.5l35 -14l-12 -59h-109q-15 0 -19 4t-7 17l-4 21q-50 -54 -156 -54zM249 78
q58 0 84 19t26 61v28q-46 16 -102 16q-51 0 -75 -14.5t-24 -47.5q0 -32 21.5 -47t69.5 -15zM272 -209q-39 0 -56 16.5t-17 54.5t17 54.5t56 16.5t56 -16.5t17 -54.5t-17 -54.5t-56 -16.5zM272 545q-88 0 -128 37t-40 122h90q0 -39 18 -56.5t60 -17.5t60 17.5t18 56.5h90
q0 -85 -40 -122t-128 -37z" />
    <glyph glyph-name="uni1EB8" unicode="&#x1eb8;" horiz-adv-x="613" 
d="M85 0v578q0 11 -2.5 14.5t-12.5 7.5l-36 14l11 58h525v-102h-352v-179h280v-98h-280v-191h360v-102h-493zM307 -209q-39 0 -56 16.5t-17 54.5t17 54.5t56 16.5t56 -16.5t17 -54.5t-17 -54.5t-56 -16.5z" />
    <glyph glyph-name="uni1EB9" unicode="&#x1eb9;" horiz-adv-x="539" 
d="M309 -12q-73 0 -125 14.5t-85.5 46t-49 80t-15.5 116.5t14 117t43.5 80t76 45.5t111.5 14.5q120 0 173 -58.5t53 -190.5q0 -13 -0.5 -23.5t-1.5 -21.5h-344q4 -66 41.5 -94.5t118.5 -28.5q82 0 165 24v-98q-40 -12 -83 -17.5t-92 -5.5zM159 290h223q-2 66 -25.5 94
t-77.5 28q-60 0 -88 -28.5t-32 -93.5zM270 -209q-39 0 -56 16.5t-17 54.5t17 54.5t56 16.5t56 -16.5t17 -54.5t-17 -54.5t-56 -16.5z" />
    <glyph glyph-name="uni1EBA" unicode="&#x1eba;" horiz-adv-x="613" 
d="M85 0v578q0 11 -2.5 14.5t-12.5 7.5l-36 14l11 58h525v-102h-352v-179h280v-98h-280v-191h360v-102h-493zM311 805q13 18 13 33q0 14 -8 19.5t-27 5.5q-11 0 -24.5 -6.5t-22.5 -16.5l-39 56q29 26 52 33.5t52 7.5q50 0 76 -21.5t26 -61.5q0 -64 -92 -126l-40 39
q20 19 34 38z" />
    <glyph glyph-name="uni1EBB" unicode="&#x1ebb;" horiz-adv-x="539" 
d="M309 -12q-73 0 -125 14.5t-85.5 46t-49 80t-15.5 116.5t14 117t43.5 80t76 45.5t111.5 14.5q120 0 173 -58.5t53 -190.5q0 -13 -0.5 -23.5t-1.5 -21.5h-344q4 -66 41.5 -94.5t118.5 -28.5q82 0 165 24v-98q-40 -12 -83 -17.5t-92 -5.5zM159 290h223q-2 66 -25.5 94
t-77.5 28q-60 0 -88 -28.5t-32 -93.5zM274 623q13 18 13 33q0 14 -8 19.5t-27 5.5q-11 0 -24.5 -6.5t-22.5 -16.5l-39 56q29 26 52 33.5t52 7.5q50 0 76 -21.5t26 -61.5q0 -64 -92 -126l-40 39q20 19 34 38z" />
    <glyph glyph-name="uni1EBC" unicode="&#x1ebc;" horiz-adv-x="613" 
d="M85 0v578q0 11 -2.5 14.5t-12.5 7.5l-36 14l11 58h525v-102h-352v-179h280v-98h-280v-191h360v-102h-493zM138 743v14q0 63 24 90.5t80 27.5q21 0 37 -6.5t29 -14t24.5 -14t22.5 -6.5q17 0 24 9t7 32v5h90v-13q0 -63 -24 -90.5t-80 -27.5q-21 0 -37 6.5t-29 14t-24.5 14
t-22.5 6.5q-17 0 -24 -9t-7 -32v-6h-90z" />
    <glyph glyph-name="uni1EBD" unicode="&#x1ebd;" horiz-adv-x="539" 
d="M309 -12q-73 0 -125 14.5t-85.5 46t-49 80t-15.5 116.5t14 117t43.5 80t76 45.5t111.5 14.5q120 0 173 -58.5t53 -190.5q0 -13 -0.5 -23.5t-1.5 -21.5h-344q4 -66 41.5 -94.5t118.5 -28.5q82 0 165 24v-98q-40 -12 -83 -17.5t-92 -5.5zM159 290h223q-2 66 -25.5 94
t-77.5 28q-60 0 -88 -28.5t-32 -93.5zM101 561v14q0 63 24 90.5t80 27.5q21 0 37 -6.5t29 -14t24.5 -14t22.5 -6.5q17 0 24 9t7 32v5h90v-13q0 -63 -24 -90.5t-80 -27.5q-21 0 -37 6.5t-29 14t-24.5 14t-22.5 6.5q-17 0 -24 -9t-7 -32v-6h-90z" />
    <glyph glyph-name="uni1EBE" unicode="&#x1ebe;" horiz-adv-x="613" 
d="M85 0v578q0 11 -2.5 14.5t-12.5 7.5l-36 14l11 58h525v-102h-352v-179h280v-98h-280v-191h360v-102h-493zM122 738l123 148h124l123 -148h-109l-76 81l-76 -81h-109zM458 849l93 148h133l-114 -148h-112z" />
    <glyph glyph-name="uni1EBF" unicode="&#x1ebf;" horiz-adv-x="539" 
d="M309 -12q-73 0 -125 14.5t-85.5 46t-49 80t-15.5 116.5t14 117t43.5 80t76 45.5t111.5 14.5q120 0 173 -58.5t53 -190.5q0 -13 -0.5 -23.5t-1.5 -21.5h-344q4 -66 41.5 -94.5t118.5 -28.5q82 0 165 24v-98q-40 -12 -83 -17.5t-92 -5.5zM159 290h223q-2 66 -25.5 94
t-77.5 28q-60 0 -88 -28.5t-32 -93.5zM85 556l123 148h124l123 -148h-109l-76 81l-76 -81h-109zM421 667l93 148h133l-114 -148h-112z" />
    <glyph glyph-name="uni1EC0" unicode="&#x1ec0;" horiz-adv-x="613" 
d="M85 0v578q0 11 -2.5 14.5t-12.5 7.5l-36 14l11 58h525v-102h-352v-179h280v-98h-280v-191h360v-102h-493zM122 738l123 148h124l123 -148h-109l-76 81l-76 -81h-109zM459 849l-114 148h133l93 -148h-112z" />
    <glyph glyph-name="uni1EC1" unicode="&#x1ec1;" horiz-adv-x="539" 
d="M309 -12q-73 0 -125 14.5t-85.5 46t-49 80t-15.5 116.5t14 117t43.5 80t76 45.5t111.5 14.5q120 0 173 -58.5t53 -190.5q0 -13 -0.5 -23.5t-1.5 -21.5h-344q4 -66 41.5 -94.5t118.5 -28.5q82 0 165 24v-98q-40 -12 -83 -17.5t-92 -5.5zM159 290h223q-2 66 -25.5 94
t-77.5 28q-60 0 -88 -28.5t-32 -93.5zM85 556l123 148h124l123 -148h-109l-76 81l-76 -81h-109zM422 667l-114 148h133l93 -148h-112z" />
    <glyph glyph-name="uni1EC2" unicode="&#x1ec2;" horiz-adv-x="613" 
d="M85 0v578q0 11 -2.5 14.5t-12.5 7.5l-36 14l11 58h525v-102h-352v-179h280v-98h-280v-191h360v-102h-493zM122 738l123 148h124l123 -148h-109l-76 81l-76 -81h-109zM525 916q13 18 13 33q0 14 -8 19.5t-27 5.5q-11 0 -24.5 -6.5t-22.5 -16.5l-39 56q29 26 52 33.5
t52 7.5q50 0 76 -21.5t26 -61.5q0 -64 -92 -126l-40 39q20 19 34 38z" />
    <glyph glyph-name="uni1EC3" unicode="&#x1ec3;" horiz-adv-x="539" 
d="M309 -12q-73 0 -125 14.5t-85.5 46t-49 80t-15.5 116.5t14 117t43.5 80t76 45.5t111.5 14.5q120 0 173 -58.5t53 -190.5q0 -13 -0.5 -23.5t-1.5 -21.5h-344q4 -66 41.5 -94.5t118.5 -28.5q82 0 165 24v-98q-40 -12 -83 -17.5t-92 -5.5zM159 290h223q-2 66 -25.5 94
t-77.5 28q-60 0 -88 -28.5t-32 -93.5zM85 556l123 148h124l123 -148h-109l-76 81l-76 -81h-109zM488 734q13 18 13 33q0 14 -8 19.5t-27 5.5q-11 0 -24.5 -6.5t-22.5 -16.5l-39 56q29 26 52 33.5t52 7.5q50 0 76 -21.5t26 -61.5q0 -64 -92 -126l-40 39q20 19 34 38z" />
    <glyph glyph-name="uni1EC4" unicode="&#x1ec4;" horiz-adv-x="613" 
d="M85 0v578q0 11 -2.5 14.5t-12.5 7.5l-36 14l11 58h525v-102h-352v-179h280v-98h-280v-191h360v-102h-493zM122 738l123 148h124l123 -148h-109l-76 81l-76 -81h-109zM131 902v14q0 63 24 90.5t80 27.5q21 0 37 -6.5t29 -14t24.5 -14t22.5 -6.5q17 0 24 9t7 32v5h90v-13
q0 -63 -24 -90.5t-80 -27.5q-21 0 -37 6.5t-29 14t-24.5 14t-22.5 6.5q-17 0 -24 -9t-7 -32v-6h-90z" />
    <glyph glyph-name="uni1EC5" unicode="&#x1ec5;" horiz-adv-x="539" 
d="M309 -12q-73 0 -125 14.5t-85.5 46t-49 80t-15.5 116.5t14 117t43.5 80t76 45.5t111.5 14.5q120 0 173 -58.5t53 -190.5q0 -13 -0.5 -23.5t-1.5 -21.5h-344q4 -66 41.5 -94.5t118.5 -28.5q82 0 165 24v-98q-40 -12 -83 -17.5t-92 -5.5zM159 290h223q-2 66 -25.5 94
t-77.5 28q-60 0 -88 -28.5t-32 -93.5zM85 556l123 148h124l123 -148h-109l-76 81l-76 -81h-109zM94 720v14q0 63 24 90.5t80 27.5q21 0 37 -6.5t29 -14t24.5 -14t22.5 -6.5q17 0 24 9t7 32v5h90v-13q0 -63 -24 -90.5t-80 -27.5q-21 0 -37 6.5t-29 14t-24.5 14t-22.5 6.5
q-17 0 -24 -9t-7 -32v-6h-90z" />
    <glyph glyph-name="uni1EC6" unicode="&#x1ec6;" horiz-adv-x="613" 
d="M85 0v578q0 11 -2.5 14.5t-12.5 7.5l-36 14l11 58h525v-102h-352v-179h280v-98h-280v-191h360v-102h-493zM307 -209q-39 0 -56 16.5t-17 54.5t17 54.5t56 16.5t56 -16.5t17 -54.5t-17 -54.5t-56 -16.5zM122 738l123 148h124l123 -148h-109l-76 81l-76 -81h-109z" />
    <glyph glyph-name="uni1EC7" unicode="&#x1ec7;" horiz-adv-x="539" 
d="M309 -12q-73 0 -125 14.5t-85.5 46t-49 80t-15.5 116.5t14 117t43.5 80t76 45.5t111.5 14.5q120 0 173 -58.5t53 -190.5q0 -13 -0.5 -23.5t-1.5 -21.5h-344q4 -66 41.5 -94.5t118.5 -28.5q82 0 165 24v-98q-40 -12 -83 -17.5t-92 -5.5zM159 290h223q-2 66 -25.5 94
t-77.5 28q-60 0 -88 -28.5t-32 -93.5zM270 -209q-39 0 -56 16.5t-17 54.5t17 54.5t56 16.5t56 -16.5t17 -54.5t-17 -54.5t-56 -16.5zM85 556l123 148h124l123 -148h-109l-76 81l-76 -81h-109z" />
    <glyph glyph-name="uni1EC8" unicode="&#x1ec8;" horiz-adv-x="287" 
d="M85 0v578q0 11 -2.5 14.5t-12.5 7.5l-36 14l11 58h164q9 0 9 -10v-662h-133zM148 805q13 18 13 33q0 14 -8 19.5t-27 5.5q-11 0 -24.5 -6.5t-22.5 -16.5l-39 56q29 26 52 33.5t52 7.5q50 0 76 -21.5t26 -61.5q0 -64 -92 -126l-40 39q20 19 34 38z" />
    <glyph glyph-name="uni1EC9" unicode="&#x1ec9;" horiz-adv-x="261" 
d="M72 0v395q0 11 -2 14.5t-12 7.5l-35 14l12 59h156q9 0 9 -10v-480h-128zM135 623q13 18 13 33q0 14 -8 19.5t-27 5.5q-11 0 -24.5 -6.5t-22.5 -16.5l-39 56q29 26 52 33.5t52 7.5q50 0 76 -21.5t26 -61.5q0 -64 -92 -126l-40 39q20 19 34 38z" />
    <glyph glyph-name="uni1ECA" unicode="&#x1eca;" horiz-adv-x="287" 
d="M85 0v578q0 11 -2.5 14.5t-12.5 7.5l-36 14l11 58h164q9 0 9 -10v-662h-133zM144 -209q-39 0 -56 16.5t-17 54.5t17 54.5t56 16.5t56 -16.5t17 -54.5t-17 -54.5t-56 -16.5z" />
    <glyph glyph-name="uni1ECB" unicode="&#x1ecb;" horiz-adv-x="261" 
d="M72 0v395q0 11 -2 14.5t-12 7.5l-35 14l12 59h156q9 0 9 -10v-480h-128zM136 556q-40 0 -58 17.5t-18 56.5q0 38 18 55.5t58 17.5q41 0 58.5 -17.5t17.5 -55.5q0 -39 -17.5 -56.5t-58.5 -17.5zM131 -209q-39 0 -56 16.5t-17 54.5t17 54.5t56 16.5t56 -16.5t17 -54.5
t-17 -54.5t-56 -16.5z" />
    <glyph glyph-name="uni1ECC" unicode="&#x1ecc;" horiz-adv-x="751" 
d="M375 -12q-89 0 -153 20t-104.5 62t-59.5 108t-19 158t19 158t59.5 108t104.5 62t153 20t153 -20t105 -62t60 -108t19 -158t-19 -158t-60 -108t-105 -62t-153 -20zM375 93q107 0 154 57t47 186t-47 186t-154 57q-53 0 -91 -14t-62.5 -43t-36 -75.5t-11.5 -110.5
q0 -65 11.5 -111t36 -75t62.5 -43t91 -14zM376 -209q-39 0 -56 16.5t-17 54.5t17 54.5t56 16.5t56 -16.5t17 -54.5t-17 -54.5t-56 -16.5z" />
    <glyph glyph-name="uni1ECD" unicode="&#x1ecd;" horiz-adv-x="579" 
d="M289 -12q-68 0 -116.5 14.5t-79.5 46t-45.5 80t-14.5 116.5t14.5 117t45.5 80t79.5 45.5t116.5 14.5t116.5 -14.5t80 -45.5t46 -80t14.5 -117q0 -136 -60.5 -196.5t-196.5 -60.5zM289 88q68 0 97.5 36.5t29.5 120.5t-29.5 120.5t-97.5 36.5q-67 0 -96.5 -36.5
t-29.5 -120.5t29.5 -120.5t96.5 -36.5zM290 -209q-39 0 -56 16.5t-17 54.5t17 54.5t56 16.5t56 -16.5t17 -54.5t-17 -54.5t-56 -16.5z" />
    <glyph glyph-name="uni1ECE" unicode="&#x1ece;" horiz-adv-x="751" 
d="M375 -12q-89 0 -153 20t-104.5 62t-59.5 108t-19 158t19 158t59.5 108t104.5 62t153 20t153 -20t105 -62t60 -108t19 -158t-19 -158t-60 -108t-105 -62t-153 -20zM375 93q107 0 154 57t47 186t-47 186t-154 57q-53 0 -91 -14t-62.5 -43t-36 -75.5t-11.5 -110.5
q0 -65 11.5 -111t36 -75t62.5 -43t91 -14zM380 805q13 18 13 33q0 14 -8 19.5t-27 5.5q-11 0 -24.5 -6.5t-22.5 -16.5l-39 56q29 26 52 33.5t52 7.5q50 0 76 -21.5t26 -61.5q0 -64 -92 -126l-40 39q20 19 34 38z" />
    <glyph glyph-name="uni1ECF" unicode="&#x1ecf;" horiz-adv-x="579" 
d="M289 -12q-68 0 -116.5 14.5t-79.5 46t-45.5 80t-14.5 116.5t14.5 117t45.5 80t79.5 45.5t116.5 14.5t116.5 -14.5t80 -45.5t46 -80t14.5 -117q0 -136 -60.5 -196.5t-196.5 -60.5zM289 88q68 0 97.5 36.5t29.5 120.5t-29.5 120.5t-97.5 36.5q-67 0 -96.5 -36.5
t-29.5 -120.5t29.5 -120.5t96.5 -36.5zM294 623q13 18 13 33q0 14 -8 19.5t-27 5.5q-11 0 -24.5 -6.5t-22.5 -16.5l-39 56q29 26 52 33.5t52 7.5q50 0 76 -21.5t26 -61.5q0 -64 -92 -126l-40 39q20 19 34 38z" />
    <glyph glyph-name="uni1ED0" unicode="&#x1ed0;" horiz-adv-x="751" 
d="M375 -12q-89 0 -153 20t-104.5 62t-59.5 108t-19 158t19 158t59.5 108t104.5 62t153 20t153 -20t105 -62t60 -108t19 -158t-19 -158t-60 -108t-105 -62t-153 -20zM375 93q107 0 154 57t47 186t-47 186t-154 57q-53 0 -91 -14t-62.5 -43t-36 -75.5t-11.5 -110.5
q0 -65 11.5 -111t36 -75t62.5 -43t91 -14zM191 738l123 148h124l123 -148h-109l-76 81l-76 -81h-109zM527 849l93 148h133l-114 -148h-112z" />
    <glyph glyph-name="uni1ED1" unicode="&#x1ed1;" horiz-adv-x="579" 
d="M289 -12q-68 0 -116.5 14.5t-79.5 46t-45.5 80t-14.5 116.5t14.5 117t45.5 80t79.5 45.5t116.5 14.5t116.5 -14.5t80 -45.5t46 -80t14.5 -117q0 -136 -60.5 -196.5t-196.5 -60.5zM289 88q68 0 97.5 36.5t29.5 120.5t-29.5 120.5t-97.5 36.5q-67 0 -96.5 -36.5
t-29.5 -120.5t29.5 -120.5t96.5 -36.5zM105 556l123 148h124l123 -148h-109l-76 81l-76 -81h-109zM441 667l93 148h133l-114 -148h-112z" />
    <glyph glyph-name="uni1ED2" unicode="&#x1ed2;" horiz-adv-x="751" 
d="M375 -12q-89 0 -153 20t-104.5 62t-59.5 108t-19 158t19 158t59.5 108t104.5 62t153 20t153 -20t105 -62t60 -108t19 -158t-19 -158t-60 -108t-105 -62t-153 -20zM375 93q107 0 154 57t47 186t-47 186t-154 57q-53 0 -91 -14t-62.5 -43t-36 -75.5t-11.5 -110.5
q0 -65 11.5 -111t36 -75t62.5 -43t91 -14zM191 738l123 148h124l123 -148h-109l-76 81l-76 -81h-109zM528 849l-114 148h133l93 -148h-112z" />
    <glyph glyph-name="uni1ED3" unicode="&#x1ed3;" horiz-adv-x="579" 
d="M289 -12q-68 0 -116.5 14.5t-79.5 46t-45.5 80t-14.5 116.5t14.5 117t45.5 80t79.5 45.5t116.5 14.5t116.5 -14.5t80 -45.5t46 -80t14.5 -117q0 -136 -60.5 -196.5t-196.5 -60.5zM289 88q68 0 97.5 36.5t29.5 120.5t-29.5 120.5t-97.5 36.5q-67 0 -96.5 -36.5
t-29.5 -120.5t29.5 -120.5t96.5 -36.5zM105 556l123 148h124l123 -148h-109l-76 81l-76 -81h-109zM442 667l-114 148h133l93 -148h-112z" />
    <glyph glyph-name="uni1ED4" unicode="&#x1ed4;" horiz-adv-x="751" 
d="M375 -12q-89 0 -153 20t-104.5 62t-59.5 108t-19 158t19 158t59.5 108t104.5 62t153 20t153 -20t105 -62t60 -108t19 -158t-19 -158t-60 -108t-105 -62t-153 -20zM375 93q107 0 154 57t47 186t-47 186t-154 57q-53 0 -91 -14t-62.5 -43t-36 -75.5t-11.5 -110.5
q0 -65 11.5 -111t36 -75t62.5 -43t91 -14zM191 738l123 148h124l123 -148h-109l-76 81l-76 -81h-109zM594 916q13 18 13 33q0 14 -8 19.5t-27 5.5q-11 0 -24.5 -6.5t-22.5 -16.5l-39 56q29 26 52 33.5t52 7.5q50 0 76 -21.5t26 -61.5q0 -64 -92 -126l-40 39q20 19 34 38z
" />
    <glyph glyph-name="uni1ED5" unicode="&#x1ed5;" horiz-adv-x="579" 
d="M289 -12q-68 0 -116.5 14.5t-79.5 46t-45.5 80t-14.5 116.5t14.5 117t45.5 80t79.5 45.5t116.5 14.5t116.5 -14.5t80 -45.5t46 -80t14.5 -117q0 -136 -60.5 -196.5t-196.5 -60.5zM289 88q68 0 97.5 36.5t29.5 120.5t-29.5 120.5t-97.5 36.5q-67 0 -96.5 -36.5
t-29.5 -120.5t29.5 -120.5t96.5 -36.5zM105 556l123 148h124l123 -148h-109l-76 81l-76 -81h-109zM508 734q13 18 13 33q0 14 -8 19.5t-27 5.5q-11 0 -24.5 -6.5t-22.5 -16.5l-39 56q29 26 52 33.5t52 7.5q50 0 76 -21.5t26 -61.5q0 -64 -92 -126l-40 39q20 19 34 38z" />
    <glyph glyph-name="uni1ED6" unicode="&#x1ed6;" horiz-adv-x="751" 
d="M375 -12q-89 0 -153 20t-104.5 62t-59.5 108t-19 158t19 158t59.5 108t104.5 62t153 20t153 -20t105 -62t60 -108t19 -158t-19 -158t-60 -108t-105 -62t-153 -20zM375 93q107 0 154 57t47 186t-47 186t-154 57q-53 0 -91 -14t-62.5 -43t-36 -75.5t-11.5 -110.5
q0 -65 11.5 -111t36 -75t62.5 -43t91 -14zM191 738l123 148h124l123 -148h-109l-76 81l-76 -81h-109zM200 902v14q0 63 24 90.5t80 27.5q21 0 37 -6.5t29 -14t24.5 -14t22.5 -6.5q17 0 24 9t7 32v5h90v-13q0 -63 -24 -90.5t-80 -27.5q-21 0 -37 6.5t-29 14t-24.5 14
t-22.5 6.5q-17 0 -24 -9t-7 -32v-6h-90z" />
    <glyph glyph-name="uni1ED7" unicode="&#x1ed7;" horiz-adv-x="579" 
d="M289 -12q-68 0 -116.5 14.5t-79.5 46t-45.5 80t-14.5 116.5t14.5 117t45.5 80t79.5 45.5t116.5 14.5t116.5 -14.5t80 -45.5t46 -80t14.5 -117q0 -136 -60.5 -196.5t-196.5 -60.5zM289 88q68 0 97.5 36.5t29.5 120.5t-29.5 120.5t-97.5 36.5q-67 0 -96.5 -36.5
t-29.5 -120.5t29.5 -120.5t96.5 -36.5zM105 556l123 148h124l123 -148h-109l-76 81l-76 -81h-109zM114 720v14q0 63 24 90.5t80 27.5q21 0 37 -6.5t29 -14t24.5 -14t22.5 -6.5q17 0 24 9t7 32v5h90v-13q0 -63 -24 -90.5t-80 -27.5q-21 0 -37 6.5t-29 14t-24.5 14t-22.5 6.5
q-17 0 -24 -9t-7 -32v-6h-90z" />
    <glyph glyph-name="uni1ED8" unicode="&#x1ed8;" horiz-adv-x="751" 
d="M375 -12q-89 0 -153 20t-104.5 62t-59.5 108t-19 158t19 158t59.5 108t104.5 62t153 20t153 -20t105 -62t60 -108t19 -158t-19 -158t-60 -108t-105 -62t-153 -20zM375 93q107 0 154 57t47 186t-47 186t-154 57q-53 0 -91 -14t-62.5 -43t-36 -75.5t-11.5 -110.5
q0 -65 11.5 -111t36 -75t62.5 -43t91 -14zM376 -209q-39 0 -56 16.5t-17 54.5t17 54.5t56 16.5t56 -16.5t17 -54.5t-17 -54.5t-56 -16.5zM191 738l123 148h124l123 -148h-109l-76 81l-76 -81h-109z" />
    <glyph glyph-name="uni1ED9" unicode="&#x1ed9;" horiz-adv-x="579" 
d="M289 -12q-68 0 -116.5 14.5t-79.5 46t-45.5 80t-14.5 116.5t14.5 117t45.5 80t79.5 45.5t116.5 14.5t116.5 -14.5t80 -45.5t46 -80t14.5 -117q0 -136 -60.5 -196.5t-196.5 -60.5zM289 88q68 0 97.5 36.5t29.5 120.5t-29.5 120.5t-97.5 36.5q-67 0 -96.5 -36.5
t-29.5 -120.5t29.5 -120.5t96.5 -36.5zM290 -209q-39 0 -56 16.5t-17 54.5t17 54.5t56 16.5t56 -16.5t17 -54.5t-17 -54.5t-56 -16.5zM105 556l123 148h124l123 -148h-109l-76 81l-76 -81h-109z" />
    <glyph glyph-name="uni1EDA" unicode="&#x1eda;" horiz-adv-x="751" 
d="M490 587v85q42 0 60 17.5t18 56.5h90q0 -85 -40 -122t-128 -37zM375 -12q-89 0 -153 20t-104.5 62t-59.5 108t-19 158t19 158t59.5 108t104.5 62t153 20t153 -20t105 -62t60 -108t19 -158t-19 -158t-60 -108t-105 -62t-153 -20zM375 93q107 0 154 57t47 186t-47 186
t-154 57q-53 0 -91 -14t-62.5 -43t-36 -75.5t-11.5 -110.5q0 -65 11.5 -111t36 -75t62.5 -43t91 -14zM313 738l93 148h133l-114 -148h-112z" />
    <glyph glyph-name="uni1EDB" unicode="&#x1edb;" horiz-adv-x="579" 
d="M386 405v85q42 0 60 17.5t18 56.5h90q0 -85 -40 -122t-128 -37zM289 -12q-68 0 -116.5 14.5t-79.5 46t-45.5 80t-14.5 116.5t14.5 117t45.5 80t79.5 45.5t116.5 14.5t116.5 -14.5t80 -45.5t46 -80t14.5 -117q0 -136 -60.5 -196.5t-196.5 -60.5zM289 88q68 0 97.5 36.5
t29.5 120.5t-29.5 120.5t-97.5 36.5q-67 0 -96.5 -36.5t-29.5 -120.5t29.5 -120.5t96.5 -36.5zM227 556l93 148h133l-114 -148h-112z" />
    <glyph glyph-name="uni1EDC" unicode="&#x1edc;" horiz-adv-x="751" 
d="M490 587v85q42 0 60 17.5t18 56.5h90q0 -85 -40 -122t-128 -37zM375 -12q-89 0 -153 20t-104.5 62t-59.5 108t-19 158t19 158t59.5 108t104.5 62t153 20t153 -20t105 -62t60 -108t19 -158t-19 -158t-60 -108t-105 -62t-153 -20zM375 93q107 0 154 57t47 186t-47 186
t-154 57q-53 0 -91 -14t-62.5 -43t-36 -75.5t-11.5 -110.5q0 -65 11.5 -111t36 -75t62.5 -43t91 -14zM314 738l-114 148h133l93 -148h-112z" />
    <glyph glyph-name="uni1EDD" unicode="&#x1edd;" horiz-adv-x="579" 
d="M386 405v85q42 0 60 17.5t18 56.5h90q0 -85 -40 -122t-128 -37zM289 -12q-68 0 -116.5 14.5t-79.5 46t-45.5 80t-14.5 116.5t14.5 117t45.5 80t79.5 45.5t116.5 14.5t116.5 -14.5t80 -45.5t46 -80t14.5 -117q0 -136 -60.5 -196.5t-196.5 -60.5zM289 88q68 0 97.5 36.5
t29.5 120.5t-29.5 120.5t-97.5 36.5q-67 0 -96.5 -36.5t-29.5 -120.5t29.5 -120.5t96.5 -36.5zM228 556l-114 148h133l93 -148h-112z" />
    <glyph glyph-name="uni1EDE" unicode="&#x1ede;" horiz-adv-x="751" 
d="M490 587v85q42 0 60 17.5t18 56.5h90q0 -85 -40 -122t-128 -37zM375 -12q-89 0 -153 20t-104.5 62t-59.5 108t-19 158t19 158t59.5 108t104.5 62t153 20t153 -20t105 -62t60 -108t19 -158t-19 -158t-60 -108t-105 -62t-153 -20zM375 93q107 0 154 57t47 186t-47 186
t-154 57q-53 0 -91 -14t-62.5 -43t-36 -75.5t-11.5 -110.5q0 -65 11.5 -111t36 -75t62.5 -43t91 -14zM380 805q13 18 13 33q0 14 -8 19.5t-27 5.5q-11 0 -24.5 -6.5t-22.5 -16.5l-39 56q29 26 52 33.5t52 7.5q50 0 76 -21.5t26 -61.5q0 -64 -92 -126l-40 39q20 19 34 38z
" />
    <glyph glyph-name="uni1EDF" unicode="&#x1edf;" horiz-adv-x="579" 
d="M386 405v85q42 0 60 17.5t18 56.5h90q0 -85 -40 -122t-128 -37zM289 -12q-68 0 -116.5 14.5t-79.5 46t-45.5 80t-14.5 116.5t14.5 117t45.5 80t79.5 45.5t116.5 14.5t116.5 -14.5t80 -45.5t46 -80t14.5 -117q0 -136 -60.5 -196.5t-196.5 -60.5zM289 88q68 0 97.5 36.5
t29.5 120.5t-29.5 120.5t-97.5 36.5q-67 0 -96.5 -36.5t-29.5 -120.5t29.5 -120.5t96.5 -36.5zM294 623q13 18 13 33q0 14 -8 19.5t-27 5.5q-11 0 -24.5 -6.5t-22.5 -16.5l-39 56q29 26 52 33.5t52 7.5q50 0 76 -21.5t26 -61.5q0 -64 -92 -126l-40 39q20 19 34 38z" />
    <glyph glyph-name="uni1EE0" unicode="&#x1ee0;" horiz-adv-x="751" 
d="M490 587v85q42 0 60 17.5t18 56.5h90q0 -85 -40 -122t-128 -37zM375 -12q-89 0 -153 20t-104.5 62t-59.5 108t-19 158t19 158t59.5 108t104.5 62t153 20t153 -20t105 -62t60 -108t19 -158t-19 -158t-60 -108t-105 -62t-153 -20zM375 93q107 0 154 57t47 186t-47 186
t-154 57q-53 0 -91 -14t-62.5 -43t-36 -75.5t-11.5 -110.5q0 -65 11.5 -111t36 -75t62.5 -43t91 -14zM207 743v14q0 63 24 90.5t80 27.5q21 0 37 -6.5t29 -14t24.5 -14t22.5 -6.5q17 0 24 9t7 32v5h90v-13q0 -63 -24 -90.5t-80 -27.5q-21 0 -37 6.5t-29 14t-24.5 14
t-22.5 6.5q-17 0 -24 -9t-7 -32v-6h-90z" />
    <glyph glyph-name="uni1EE1" unicode="&#x1ee1;" horiz-adv-x="579" 
d="M386 405v85q42 0 60 17.5t18 56.5h90q0 -85 -40 -122t-128 -37zM289 -12q-68 0 -116.5 14.5t-79.5 46t-45.5 80t-14.5 116.5t14.5 117t45.5 80t79.5 45.5t116.5 14.5t116.5 -14.5t80 -45.5t46 -80t14.5 -117q0 -136 -60.5 -196.5t-196.5 -60.5zM289 88q68 0 97.5 36.5
t29.5 120.5t-29.5 120.5t-97.5 36.5q-67 0 -96.5 -36.5t-29.5 -120.5t29.5 -120.5t96.5 -36.5zM121 561v14q0 63 24 90.5t80 27.5q21 0 37 -6.5t29 -14t24.5 -14t22.5 -6.5q17 0 24 9t7 32v5h90v-13q0 -63 -24 -90.5t-80 -27.5q-21 0 -37 6.5t-29 14t-24.5 14t-22.5 6.5
q-17 0 -24 -9t-7 -32v-6h-90z" />
    <glyph glyph-name="uni1EE2" unicode="&#x1ee2;" horiz-adv-x="751" 
d="M490 587v85q42 0 60 17.5t18 56.5h90q0 -85 -40 -122t-128 -37zM375 -12q-89 0 -153 20t-104.5 62t-59.5 108t-19 158t19 158t59.5 108t104.5 62t153 20t153 -20t105 -62t60 -108t19 -158t-19 -158t-60 -108t-105 -62t-153 -20zM375 93q107 0 154 57t47 186t-47 186
t-154 57q-53 0 -91 -14t-62.5 -43t-36 -75.5t-11.5 -110.5q0 -65 11.5 -111t36 -75t62.5 -43t91 -14zM376 -209q-39 0 -56 16.5t-17 54.5t17 54.5t56 16.5t56 -16.5t17 -54.5t-17 -54.5t-56 -16.5z" />
    <glyph glyph-name="uni1EE3" unicode="&#x1ee3;" horiz-adv-x="579" 
d="M386 405v85q42 0 60 17.5t18 56.5h90q0 -85 -40 -122t-128 -37zM289 -12q-68 0 -116.5 14.5t-79.5 46t-45.5 80t-14.5 116.5t14.5 117t45.5 80t79.5 45.5t116.5 14.5t116.5 -14.5t80 -45.5t46 -80t14.5 -117q0 -136 -60.5 -196.5t-196.5 -60.5zM289 88q68 0 97.5 36.5
t29.5 120.5t-29.5 120.5t-97.5 36.5q-67 0 -96.5 -36.5t-29.5 -120.5t29.5 -120.5t96.5 -36.5zM290 -209q-39 0 -56 16.5t-17 54.5t17 54.5t56 16.5t56 -16.5t17 -54.5t-17 -54.5t-56 -16.5z" />
    <glyph glyph-name="uni1EE4" unicode="&#x1ee4;" horiz-adv-x="770" 
d="M394 -12q-81 0 -139.5 15.5t-95.5 49t-54.5 85.5t-17.5 125v315q0 11 -2.5 14.5t-12.5 7.5l-36 14l11 58h164q9 0 9 -10v-389q0 -96 41 -138t133 -42q93 0 133.5 42t40.5 138v399h133v-409q0 -73 -17.5 -125t-54.5 -85.5t-95.5 -49t-139.5 -15.5zM385 -209
q-39 0 -56 16.5t-17 54.5t17 54.5t56 16.5t56 -16.5t17 -54.5t-17 -54.5t-56 -16.5z" />
    <glyph glyph-name="uni1EE5" unicode="&#x1ee5;" horiz-adv-x="587" 
d="M298 -12q-62 0 -106.5 11.5t-73 36.5t-42 63t-13.5 92v204q0 11 -2 14.5t-12 7.5l-35 14l12 59h156q9 0 9 -10v-279q0 -61 25 -87t82 -26t82 26t25 87v289h128v-299q0 -107 -55 -155t-180 -48zM294 -209q-39 0 -56 16.5t-17 54.5t17 54.5t56 16.5t56 -16.5t17 -54.5
t-17 -54.5t-56 -16.5z" />
    <glyph glyph-name="uni1EE6" unicode="&#x1ee6;" horiz-adv-x="770" 
d="M394 -12q-81 0 -139.5 15.5t-95.5 49t-54.5 85.5t-17.5 125v315q0 11 -2.5 14.5t-12.5 7.5l-36 14l11 58h164q9 0 9 -10v-389q0 -96 41 -138t133 -42q93 0 133.5 42t40.5 138v399h133v-409q0 -73 -17.5 -125t-54.5 -85.5t-95.5 -49t-139.5 -15.5zM389 805q13 18 13 33
q0 14 -8 19.5t-27 5.5q-11 0 -24.5 -6.5t-22.5 -16.5l-39 56q29 26 52 33.5t52 7.5q50 0 76 -21.5t26 -61.5q0 -64 -92 -126l-40 39q20 19 34 38z" />
    <glyph glyph-name="uni1EE7" unicode="&#x1ee7;" horiz-adv-x="587" 
d="M298 -12q-62 0 -106.5 11.5t-73 36.5t-42 63t-13.5 92v204q0 11 -2 14.5t-12 7.5l-35 14l12 59h156q9 0 9 -10v-279q0 -61 25 -87t82 -26t82 26t25 87v289h128v-299q0 -107 -55 -155t-180 -48zM298 623q13 18 13 33q0 14 -8 19.5t-27 5.5q-11 0 -24.5 -6.5t-22.5 -16.5
l-39 56q29 26 52 33.5t52 7.5q50 0 76 -21.5t26 -61.5q0 -64 -92 -126l-40 39q20 19 34 38z" />
    <glyph glyph-name="uni1EE8" unicode="&#x1ee8;" horiz-adv-x="770" 
d="M623 587v85q42 0 60 17.5t18 56.5h90q0 -85 -40 -122t-128 -37zM394 -12q-81 0 -139.5 15.5t-95.5 49t-54.5 85.5t-17.5 125v315q0 11 -2.5 14.5t-12.5 7.5l-36 14l11 58h164q9 0 9 -10v-389q0 -96 41 -138t133 -42q93 0 133.5 42t40.5 138v399h133v-409
q0 -73 -17.5 -125t-54.5 -85.5t-95.5 -49t-139.5 -15.5zM322 738l93 148h133l-114 -148h-112z" />
    <glyph glyph-name="uni1EE9" unicode="&#x1ee9;" horiz-adv-x="587" 
d="M466 405v85q42 0 60 17.5t18 56.5h90q0 -85 -40 -122t-128 -37zM298 -12q-62 0 -106.5 11.5t-73 36.5t-42 63t-13.5 92v204q0 11 -2 14.5t-12 7.5l-35 14l12 59h156q9 0 9 -10v-279q0 -61 25 -87t82 -26t82 26t25 87v289h128v-299q0 -107 -55 -155t-180 -48zM231 556
l93 148h133l-114 -148h-112z" />
    <glyph glyph-name="uni1EEA" unicode="&#x1eea;" horiz-adv-x="770" 
d="M623 587v85q42 0 60 17.5t18 56.5h90q0 -85 -40 -122t-128 -37zM394 -12q-81 0 -139.5 15.5t-95.5 49t-54.5 85.5t-17.5 125v315q0 11 -2.5 14.5t-12.5 7.5l-36 14l11 58h164q9 0 9 -10v-389q0 -96 41 -138t133 -42q93 0 133.5 42t40.5 138v399h133v-409
q0 -73 -17.5 -125t-54.5 -85.5t-95.5 -49t-139.5 -15.5zM323 738l-114 148h133l93 -148h-112z" />
    <glyph glyph-name="uni1EEB" unicode="&#x1eeb;" horiz-adv-x="587" 
d="M466 405v85q42 0 60 17.5t18 56.5h90q0 -85 -40 -122t-128 -37zM298 -12q-62 0 -106.5 11.5t-73 36.5t-42 63t-13.5 92v204q0 11 -2 14.5t-12 7.5l-35 14l12 59h156q9 0 9 -10v-279q0 -61 25 -87t82 -26t82 26t25 87v289h128v-299q0 -107 -55 -155t-180 -48zM232 556
l-114 148h133l93 -148h-112z" />
    <glyph glyph-name="uni1EEC" unicode="&#x1eec;" horiz-adv-x="770" 
d="M623 587v85q42 0 60 17.5t18 56.5h90q0 -85 -40 -122t-128 -37zM394 -12q-81 0 -139.5 15.5t-95.5 49t-54.5 85.5t-17.5 125v315q0 11 -2.5 14.5t-12.5 7.5l-36 14l11 58h164q9 0 9 -10v-389q0 -96 41 -138t133 -42q93 0 133.5 42t40.5 138v399h133v-409
q0 -73 -17.5 -125t-54.5 -85.5t-95.5 -49t-139.5 -15.5zM389 805q13 18 13 33q0 14 -8 19.5t-27 5.5q-11 0 -24.5 -6.5t-22.5 -16.5l-39 56q29 26 52 33.5t52 7.5q50 0 76 -21.5t26 -61.5q0 -64 -92 -126l-40 39q20 19 34 38z" />
    <glyph glyph-name="uni1EED" unicode="&#x1eed;" horiz-adv-x="587" 
d="M466 405v85q42 0 60 17.5t18 56.5h90q0 -85 -40 -122t-128 -37zM298 -12q-62 0 -106.5 11.5t-73 36.5t-42 63t-13.5 92v204q0 11 -2 14.5t-12 7.5l-35 14l12 59h156q9 0 9 -10v-279q0 -61 25 -87t82 -26t82 26t25 87v289h128v-299q0 -107 -55 -155t-180 -48zM298 623
q13 18 13 33q0 14 -8 19.5t-27 5.5q-11 0 -24.5 -6.5t-22.5 -16.5l-39 56q29 26 52 33.5t52 7.5q50 0 76 -21.5t26 -61.5q0 -64 -92 -126l-40 39q20 19 34 38z" />
    <glyph glyph-name="uni1EEE" unicode="&#x1eee;" horiz-adv-x="770" 
d="M623 587v85q42 0 60 17.5t18 56.5h90q0 -85 -40 -122t-128 -37zM394 -12q-81 0 -139.5 15.5t-95.5 49t-54.5 85.5t-17.5 125v315q0 11 -2.5 14.5t-12.5 7.5l-36 14l11 58h164q9 0 9 -10v-389q0 -96 41 -138t133 -42q93 0 133.5 42t40.5 138v399h133v-409
q0 -73 -17.5 -125t-54.5 -85.5t-95.5 -49t-139.5 -15.5zM216 743v14q0 63 24 90.5t80 27.5q21 0 37 -6.5t29 -14t24.5 -14t22.5 -6.5q17 0 24 9t7 32v5h90v-13q0 -63 -24 -90.5t-80 -27.5q-21 0 -37 6.5t-29 14t-24.5 14t-22.5 6.5q-17 0 -24 -9t-7 -32v-6h-90z" />
    <glyph glyph-name="uni1EEF" unicode="&#x1eef;" horiz-adv-x="587" 
d="M466 405v85q42 0 60 17.5t18 56.5h90q0 -85 -40 -122t-128 -37zM298 -12q-62 0 -106.5 11.5t-73 36.5t-42 63t-13.5 92v204q0 11 -2 14.5t-12 7.5l-35 14l12 59h156q9 0 9 -10v-279q0 -61 25 -87t82 -26t82 26t25 87v289h128v-299q0 -107 -55 -155t-180 -48zM125 561v14
q0 63 24 90.5t80 27.5q21 0 37 -6.5t29 -14t24.5 -14t22.5 -6.5q17 0 24 9t7 32v5h90v-13q0 -63 -24 -90.5t-80 -27.5q-21 0 -37 6.5t-29 14t-24.5 14t-22.5 6.5q-17 0 -24 -9t-7 -32v-6h-90z" />
    <glyph glyph-name="uni1EF0" unicode="&#x1ef0;" horiz-adv-x="770" 
d="M623 587v85q42 0 60 17.5t18 56.5h90q0 -85 -40 -122t-128 -37zM394 -12q-81 0 -139.5 15.5t-95.5 49t-54.5 85.5t-17.5 125v315q0 11 -2.5 14.5t-12.5 7.5l-36 14l11 58h164q9 0 9 -10v-389q0 -96 41 -138t133 -42q93 0 133.5 42t40.5 138v399h133v-409
q0 -73 -17.5 -125t-54.5 -85.5t-95.5 -49t-139.5 -15.5zM385 -209q-39 0 -56 16.5t-17 54.5t17 54.5t56 16.5t56 -16.5t17 -54.5t-17 -54.5t-56 -16.5z" />
    <glyph glyph-name="uni1EF1" unicode="&#x1ef1;" horiz-adv-x="587" 
d="M466 405v85q42 0 60 17.5t18 56.5h90q0 -85 -40 -122t-128 -37zM298 -12q-62 0 -106.5 11.5t-73 36.5t-42 63t-13.5 92v204q0 11 -2 14.5t-12 7.5l-35 14l12 59h156q9 0 9 -10v-279q0 -61 25 -87t82 -26t82 26t25 87v289h128v-299q0 -107 -55 -155t-180 -48zM294 -209
q-39 0 -56 16.5t-17 54.5t17 54.5t56 16.5t56 -16.5t17 -54.5t-17 -54.5t-56 -16.5z" />
    <glyph glyph-name="Ygrave" unicode="&#x1ef2;" horiz-adv-x="617" 
d="M242 0v273l-246 399h150l162 -281l163 281h149l-245 -399v-273h-133zM247 738l-114 148h133l93 -148h-112z" />
    <glyph glyph-name="ygrave" unicode="&#x1ef3;" horiz-adv-x="544" 
d="M110 -220q-10 0 -22 0.5t-20 1.5v98q7 -1 17 -1.5t18 -0.5q22 0 38 4.5t28.5 15t22.5 27t19 41.5l11 29l-214 495h139l134 -339l114 339h133l-204 -550q-16 -42 -34.5 -72.5t-43.5 -50t-58 -28.5t-78 -9zM210 556l-114 148h133l93 -148h-112z" />
    <glyph glyph-name="uni1EF4" unicode="&#x1ef4;" horiz-adv-x="617" 
d="M242 0v273l-246 399h150l162 -281l163 281h149l-245 -399v-273h-133zM309 -209q-39 0 -56 16.5t-17 54.5t17 54.5t56 16.5t56 -16.5t17 -54.5t-17 -54.5t-56 -16.5z" />
    <glyph glyph-name="uni1EF5" unicode="&#x1ef5;" horiz-adv-x="544" 
d="M110 -220q-10 0 -22 0.5t-20 1.5v98q7 -1 17 -1.5t18 -0.5q22 0 38 4.5t28.5 15t22.5 27t19 41.5l11 29l-214 495h139l134 -339l114 339h133l-204 -550q-16 -42 -34.5 -72.5t-43.5 -50t-58 -28.5t-78 -9zM450 -209q-39 0 -56 16.5t-17 54.5t17 54.5t56 16.5t56 -16.5
t17 -54.5t-17 -54.5t-56 -16.5z" />
    <glyph glyph-name="uni1EF6" unicode="&#x1ef6;" horiz-adv-x="617" 
d="M242 0v273l-246 399h150l162 -281l163 281h149l-245 -399v-273h-133zM313 805q13 18 13 33q0 14 -8 19.5t-27 5.5q-11 0 -24.5 -6.5t-22.5 -16.5l-39 56q29 26 52 33.5t52 7.5q50 0 76 -21.5t26 -61.5q0 -64 -92 -126l-40 39q20 19 34 38z" />
    <glyph glyph-name="uni1EF7" unicode="&#x1ef7;" horiz-adv-x="544" 
d="M110 -220q-10 0 -22 0.5t-20 1.5v98q7 -1 17 -1.5t18 -0.5q22 0 38 4.5t28.5 15t22.5 27t19 41.5l11 29l-214 495h139l134 -339l114 339h133l-204 -550q-16 -42 -34.5 -72.5t-43.5 -50t-58 -28.5t-78 -9zM276 623q13 18 13 33q0 14 -8 19.5t-27 5.5q-11 0 -24.5 -6.5
t-22.5 -16.5l-39 56q29 26 52 33.5t52 7.5q50 0 76 -21.5t26 -61.5q0 -64 -92 -126l-40 39q20 19 34 38z" />
    <glyph glyph-name="uni1EF8" unicode="&#x1ef8;" horiz-adv-x="617" 
d="M242 0v273l-246 399h150l162 -281l163 281h149l-245 -399v-273h-133zM140 743v14q0 63 24 90.5t80 27.5q21 0 37 -6.5t29 -14t24.5 -14t22.5 -6.5q17 0 24 9t7 32v5h90v-13q0 -63 -24 -90.5t-80 -27.5q-21 0 -37 6.5t-29 14t-24.5 14t-22.5 6.5q-17 0 -24 -9t-7 -32v-6
h-90z" />
    <glyph glyph-name="uni1EF9" unicode="&#x1ef9;" horiz-adv-x="544" 
d="M110 -220q-10 0 -22 0.5t-20 1.5v98q7 -1 17 -1.5t18 -0.5q22 0 38 4.5t28.5 15t22.5 27t19 41.5l11 29l-214 495h139l134 -339l114 339h133l-204 -550q-16 -42 -34.5 -72.5t-43.5 -50t-58 -28.5t-78 -9zM103 561v14q0 63 24 90.5t80 27.5q21 0 37 -6.5t29 -14t24.5 -14
t22.5 -6.5q17 0 24 9t7 32v5h90v-13q0 -63 -24 -90.5t-80 -27.5q-21 0 -37 6.5t-29 14t-24.5 14t-22.5 6.5q-17 0 -24 -9t-7 -32v-6h-90z" />
    <glyph glyph-name="endash" unicode="&#x2013;" 
d="M22 200v98h532v-98h-532z" />
    <glyph glyph-name="emdash" unicode="&#x2014;" horiz-adv-x="864" 
d="M22 200v98h820v-98h-820z" />
    <glyph glyph-name="quoteleft" unicode="&#x2018;" horiz-adv-x="249" 
d="M28 419l85 253h102l-56 -253h-131z" />
    <glyph glyph-name="quoteright" unicode="&#x2019;" horiz-adv-x="249" 
d="M33 419l57 253h130l-84 -253h-103z" />
    <glyph glyph-name="quotesinglbase" unicode="&#x201a;" horiz-adv-x="249" 
d="M17 -144l57 253h130l-84 -253h-103z" />
    <glyph glyph-name="quotedblleft" unicode="&#x201c;" horiz-adv-x="465" 
d="M28 419l85 253h102l-56 -253h-131zM245 419l85 253h102l-56 -253h-131z" />
    <glyph glyph-name="quotedblright" unicode="&#x201d;" horiz-adv-x="465" 
d="M33 419l57 253h130l-84 -253h-103zM250 419l57 253h130l-84 -253h-103z" />
    <glyph glyph-name="quotedblbase" unicode="&#x201e;" horiz-adv-x="465" 
d="M17 -144l57 253h130l-84 -253h-103zM234 -144l57 253h130l-84 -253h-103z" />
    <glyph glyph-name="dagger" unicode="&#x2020;" horiz-adv-x="489" 
d="M191 0v419h-161v97h161v156h107v-156h161v-97h-161v-419h-107z" />
    <glyph glyph-name="daggerdbl" unicode="&#x2021;" horiz-adv-x="489" 
d="M191 0v156h-161v97h161v166h-161v97h161v156h107v-156h161v-97h-161v-166h161v-97h-161v-156h-107z" />
    <glyph glyph-name="bullet" unicode="&#x2022;" horiz-adv-x="480" 
d="M240 144q-30 0 -56.5 11t-46 30.5t-30.5 46t-11 56.5t11 56t30.5 45.5t46 31t56.5 11.5t56 -11.5t45.5 -31t31 -45.5t11.5 -56t-11.5 -56.5t-31 -46t-45.5 -30.5t-56 -11z" />
    <glyph glyph-name="ellipsis" unicode="&#x2026;" horiz-adv-x="864" 
d="M144 -11q-42 0 -60.5 18t-18.5 59t18.5 59t60.5 18t61 -18t19 -59t-19 -59t-61 -18zM432 -11q-42 0 -60.5 18t-18.5 59t18.5 59t60.5 18t61 -18t19 -59t-19 -59t-61 -18zM720 -11q-42 0 -60.5 18t-18.5 59t18.5 59t60.5 18t61 -18t19 -59t-19 -59t-61 -18z" />
    <glyph glyph-name="perthousand" unicode="&#x2030;" horiz-adv-x="1248" 
d="M208 324q-91 0 -131.5 42t-40.5 138t40.5 138t131.5 42t131.5 -42t40.5 -138t-40.5 -138t-131.5 -42zM208 397q43 0 61.5 25t18.5 82t-18.5 82t-61.5 25t-61.5 -25t-18.5 -82t18.5 -82t61.5 -25zM656 -12q-91 0 -131.5 42t-40.5 138t40.5 138t131.5 42t131.5 -42
t40.5 -138t-40.5 -138t-131.5 -42zM656 61q43 0 61.5 25t18.5 82t-18.5 82t-61.5 25t-61.5 -25t-18.5 -82t18.5 -82t61.5 -25zM1040 -12q-91 0 -131.5 42t-40.5 138t40.5 138t131.5 42t131.5 -42t40.5 -138t-40.5 -138t-131.5 -42zM1040 61q43 0 61.5 25t18.5 82t-18.5 82
t-61.5 25t-61.5 -25t-18.5 -82t18.5 -82t61.5 -25zM241 0l302 672h80l-302 -672h-80z" />
    <glyph glyph-name="guilsinglleft" unicode="&#x2039;" horiz-adv-x="297" 
d="M156 46l-139 199l139 199h118l-126 -199l126 -199h-118z" />
    <glyph glyph-name="guilsinglright" unicode="&#x203a;" horiz-adv-x="297" 
d="M23 46l126 199l-126 199h118l138 -199l-138 -199h-118z" />
    <glyph glyph-name="fraction" unicode="&#x2044;" horiz-adv-x="128" 
d="M-127 0l302 672h80l-302 -672h-80z" />
    <glyph glyph-name="Euro" unicode="&#x20ac;" 
d="M400 -12q-134 0 -205.5 56.5t-90.5 181.5h-63v77h56v33v22.5t1 22.5h-57v77h65q21 119 92 172.5t202 53.5q40 0 78 -5t73 -14v-96q-71 20 -136 20q-76 0 -118 -30.5t-58 -100.5h226v-77h-236q-1 -11 -1 -22v-23v-33h237v-77h-229q15 -78 57 -110.5t122 -32.5q36 0 68.5 5
t67.5 15v-96q-35 -9 -73 -14t-78 -5z" />
    <glyph glyph-name="uni2105" unicode="&#x2105;" horiz-adv-x="864" 
d="M210 339q-93 0 -133.5 40t-40.5 131q0 90 41 130t133 40q28 0 54 -3.5t50 -9.5v-76q-44 15 -89 15q-50 0 -71.5 -22.5t-21.5 -73.5q0 -52 21.5 -74t71.5 -22q44 0 89 14v-76q-24 -6 -49.5 -9.5t-54.5 -3.5zM655 -8q-93 0 -133.5 40t-40.5 131q0 90 41 130t133 40
q91 0 132.5 -40t41.5 -130q0 -91 -41 -131t-133 -40zM655 67q42 0 60 22t18 74q0 51 -18 73.5t-60 22.5t-60 -22.5t-18 -73.5q0 -52 18 -74t60 -22zM225 0l302 672h80l-302 -672h-80z" />
    <glyph glyph-name="uni2113" unicode="&#x2113;" horiz-adv-x="403" 
d="M247 -12q-101 0 -145.5 41.5t-44.5 136.5v369q0 96 38.5 138.5t124.5 42.5q79 0 117 -40t38 -131q0 -88 -51 -164t-149 -140v-70q0 -45 20 -64t67 -19q36 0 77 9v-100q-44 -9 -92 -9zM175 529v-169q51 40 75.5 83t24.5 97q0 41 -10.5 58.5t-36.5 17.5q-28 0 -40.5 -20
t-12.5 -67z" />
    <glyph glyph-name="uni2116" unicode="&#x2116;" horiz-adv-x="1164" 
d="M957 339q-92 0 -133 40t-41 130q0 91 41 131t133 40q93 0 133.5 -40t40.5 -131q0 -90 -41 -130t-133 -40zM957 413q42 0 60 22.5t18 73.5q0 52 -18 74t-60 22t-60 -22t-18 -74q0 -51 18 -73.5t60 -22.5zM68 0v672h129l362 -490v490h123v-672h-129l-362 490v-490h-123z
M788 214v74h338v-74h-338z" />
    <glyph glyph-name="uni2117" unicode="&#x2117;" horiz-adv-x="832" 
d="M416 -32q-100 0 -171.5 22t-117.5 67t-67.5 114.5t-21.5 164.5t21.5 164.5t67.5 114.5t117.5 67t171.5 22t171.5 -22t117.5 -67t67.5 -114.5t21.5 -164.5t-21.5 -164.5t-67.5 -114.5t-117.5 -67t-171.5 -22zM416 32q154 0 229 71.5t75 232.5q0 81 -17.5 138.5t-54 94
t-94 54t-138.5 17.5t-138.5 -17.5t-94 -54t-54 -94t-17.5 -138.5q0 -161 75 -232.5t229 -71.5zM263 128v416h186q85 0 122.5 -32t37.5 -106q0 -73 -37.5 -105.5t-122.5 -32.5h-95v-140h-91zM354 343h90q38 0 55.5 14t17.5 49q0 34 -17.5 48.5t-55.5 14.5h-90v-126z" />
    <glyph glyph-name="uni2120" unicode="&#x2120;" horiz-adv-x="940" 
d="M192 248q-40 0 -78 5.5t-73 15.5v78q75 -23 144 -23q43 0 62 12t19 39q0 21 -17 31t-43 16.5t-55.5 12.5t-55.5 19t-43 36.5t-17 64.5q0 66 39.5 95.5t129.5 29.5q71 0 136 -17v-78q-32 10 -64.5 14.5t-63.5 4.5q-41 0 -59 -10.5t-18 -36.5q0 -20 17 -29.5t43 -15
t55.5 -11.5t55.5 -19.5t43 -38t17 -66.5q0 -68 -41 -98.5t-133 -30.5zM447 256v416h91l129 -217l131 217h92v-416h-90v274l-101 -166h-63l-100 166v-274h-89z" />
    <glyph glyph-name="trademark" unicode="&#x2122;" horiz-adv-x="947" 
d="M153 256v340h-131v76h360v-76h-131v-340h-98zM454 256v416h92l129 -217l131 217h91v-416h-89v274l-101 -166h-64l-99 166v-274h-90z" />
    <glyph glyph-name="uni2126" unicode="&#x2126;" horiz-adv-x="751" 
d="M22 0v102h155q-66 54 -97 120.5t-31 155.5q0 81 18.5 138.5t58 95t101.5 55t148 17.5t148 -17.5t101.5 -55t58.5 -95t19 -138.5q0 -89 -31 -155.5t-97 -120.5h155v-102h-299v97q71 45 105 108.5t34 152.5q0 118 -45.5 169.5t-148.5 51.5t-148 -51.5t-45 -169.5
q0 -89 33.5 -152.5t105.5 -108.5v-97h-299z" />
    <glyph glyph-name="estimated" unicode="&#x212e;" horiz-adv-x="960" 
d="M480 -16q-80 0 -149.5 27.5t-122 75.5t-82.5 112t-30 137t30 137t82.5 112t122 75.5t149.5 27.5q79 0 149 -27.5t122.5 -75.5t82.5 -112t30 -137q0 -11 -1 -16h-623v-196q44 -51 106 -79.5t134 -28.5q73 0 135.5 30t107.5 82h66q-53 -66 -133 -105t-176 -39zM240 352h480
v196q-45 50 -106.5 79t-133.5 29t-134 -29t-106 -79v-196z" />
    <glyph glyph-name="uni2153" unicode="&#x2153;" horiz-adv-x="764" 
d="M549 376q-61 0 -113 15v74q28 -8 54 -12t51 -4q51 0 72.5 14t21.5 46t-23 45t-77 13h-21v55l89 106h-161v72h269v-62l-95 -111q115 -16 115 -120q0 -69 -43 -100t-139 -31zM129 384v332l-101 -42v76l120 50h74v-416h-93zM157 0l302 672h80l-302 -672h-80z" />
    <glyph glyph-name="uni2154" unicode="&#x2154;" horiz-adv-x="832" 
d="M617 376q-61 0 -113 15v74q28 -8 54 -12t51 -4q51 0 72.5 14t21.5 46t-23 45t-77 13h-21v55l89 106h-161v72h269v-62l-95 -111q115 -16 115 -120q0 -69 -43 -100t-139 -31zM24 384v66l148 139q45 42 45 80q0 33 -16.5 47.5t-54.5 14.5q-53 0 -110 -18v78q60 17 125 17
q81 0 116.5 -30.5t35.5 -97.5q0 -32 -16 -62.5t-45 -57.5l-104 -100h167v-76h-291zM225 0l302 672h80l-302 -672h-80z" />
    <glyph glyph-name="uni2155" unicode="&#x2155;" horiz-adv-x="864" 
d="M649 -8q-61 0 -112 15v74q27 -8 53 -12t52 -4q48 0 69 14.5t21 47.5t-22.5 47t-74.5 14q-29 0 -53.5 -1t-32.5 -2v231h260v-72h-174v-89q6 0 15.5 0.5t20.5 0.5q83 0 120 -31t37 -100q0 -71 -42 -102t-137 -31zM171 256v332l-101 -42v76l120 50h74v-416h-93zM241 0
l302 672h80l-302 -672h-80z" />
    <glyph glyph-name="uni2156" unicode="&#x2156;" horiz-adv-x="864" 
d="M32 256v66l148 139q45 42 45 80q0 33 -16.5 47.5t-54.5 14.5q-53 0 -110 -18v78q60 17 125 17q81 0 116.5 -30.5t35.5 -97.5q0 -32 -16 -62.5t-45 -57.5l-104 -100h167v-76h-291zM649 -8q-61 0 -112 15v74q27 -8 53 -12t52 -4q48 0 69 14.5t21 47.5t-22.5 47t-74.5 14
q-29 0 -53.5 -1t-32.5 -2v231h260v-72h-174v-89q6 0 15.5 0.5t20.5 0.5q83 0 120 -31t37 -100q0 -71 -42 -102t-137 -31zM241 0l302 672h80l-302 -672h-80z" />
    <glyph glyph-name="uni2157" unicode="&#x2157;" horiz-adv-x="864" 
d="M145 248q-61 0 -113 15v74q28 -8 54 -12t51 -4q51 0 72.5 14t21.5 46t-23 45t-77 13h-21v55l89 106h-161v72h269v-62l-95 -111q115 -16 115 -120q0 -69 -43 -100t-139 -31zM649 -8q-61 0 -112 15v74q27 -8 53 -12t52 -4q48 0 69 14.5t21 47.5t-22.5 47t-74.5 14
q-29 0 -53.5 -1t-32.5 -2v231h260v-72h-174v-89q6 0 15.5 0.5t20.5 0.5q83 0 120 -31t37 -100q0 -71 -42 -102t-137 -31zM241 0l302 672h80l-302 -672h-80z" />
    <glyph glyph-name="uni2158" unicode="&#x2158;" horiz-adv-x="864" 
d="M649 -8q-61 0 -112 15v74q27 -8 53 -12t52 -4q48 0 69 14.5t21 47.5t-22.5 47t-74.5 14q-29 0 -53.5 -1t-32.5 -2v231h260v-72h-174v-89q6 0 15.5 0.5t20.5 0.5q83 0 120 -31t37 -100q0 -71 -42 -102t-137 -31zM216 256v84h-206v67l194 265h97v-263h55v-69h-55v-84h-85z
M241 0l302 672h80l-302 -672h-80zM97 409h119v164z" />
    <glyph glyph-name="uni2159" unicode="&#x2159;" horiz-adv-x="864" 
d="M683 63q39 0 56 17t17 55t-16 55t-51 17q-75 0 -75 -68q0 -76 69 -76zM686 -8q-87 0 -125.5 46t-38.5 150q0 125 45.5 180.5t152.5 55.5q26 0 51 -3.5t48 -9.5v-73q-24 7 -47 10.5t-46 3.5q-60 0 -85.5 -26t-28.5 -83q26 32 87 32q75 0 110.5 -32.5t35.5 -104.5
q0 -76 -37.5 -111t-121.5 -35zM171 256v332l-101 -42v76l120 50h74v-416h-93zM241 0l302 672h80l-302 -672h-80z" />
    </font>
</defs>
</svg>
